<svg xmlns="http://www.w3.org/2000/svg" xmlns:xlink="http://www.w3.org/1999/xlink" contentStyleType="text/css" data-diagram-type="CLASS" height="473px" preserveAspectRatio="none" style="width:870px;height:473px;background:#FFFFFF;" version="1.1" viewBox="0 0 870 473" width="870px" zoomAndPan="magnify"><defs/><g><!--class Tool--><g id="elem_Tool"><rect codeLine="1" fill="#F1F1F1" height="113.1875" id="Tool" rx="2.5" ry="2.5" style="stroke:#181818;stroke-width:0.5;" width="449.5479" x="336.66" y="7"/><ellipse cx="542.3978" cy="23" fill="#B4A7E5" rx="11" ry="11" style="stroke:#181818;stroke-width:1;"/><path d="M538.3197,18.7656 L538.3197,16.6094 L545.7103,16.6094 L545.7103,18.7656 L543.2415,18.7656 L543.2415,26.8438 L545.7103,26.8438 L545.7103,29 L538.3197,29 L538.3197,26.8438 L540.7884,26.8438 L540.7884,18.7656 L538.3197,18.7656 Z " fill="#000000"/><text fill="#000000" font-family="sans-serif" font-size="14" font-style="italic" lengthAdjust="spacing" textLength="29.5723" x="562.8978" y="27.8467">Tool</text><line style="stroke:#181818;stroke-width:0.5;" x1="337.66" x2="785.2079" y1="39" y2="39"/><line style="stroke:#181818;stroke-width:0.5;" x1="337.66" x2="785.2079" y1="47" y2="47"/><ellipse cx="347.66" cy="60.6484" fill="#84BE84" rx="3" ry="3" style="stroke:#038048;stroke-width:1;"/><text fill="#000000" font-family="sans-serif" font-size="14" lengthAdjust="spacing" textLength="101.5752" x="356.66" y="63.9951">name(): String</text><ellipse cx="347.66" cy="76.9453" fill="#84BE84" rx="3" ry="3" style="stroke:#038048;stroke-width:1;"/><text fill="#000000" font-family="sans-serif" font-size="14" lengthAdjust="spacing" textLength="139.7129" x="356.66" y="80.292">description(): String</text><ellipse cx="347.66" cy="93.2422" fill="#84BE84" rx="3" ry="3" style="stroke:#038048;stroke-width:1;"/><text fill="#000000" font-family="sans-serif" font-size="14" lengthAdjust="spacing" textLength="224.1094" x="356.66" y="96.5889">parameters(): Vec&lt;Parameter&gt;</text><ellipse cx="347.66" cy="109.5391" fill="#84BE84" rx="3" ry="3" style="stroke:#038048;stroke-width:1;"/><text fill="#000000" font-family="sans-serif" font-size="14" lengthAdjust="spacing" textLength="423.5479" x="356.66" y="112.8857">execute(params: HashMap&lt;String, Value&gt;): Result&lt;Value&gt;</text></g><!--class Parameter--><g id="elem_Parameter"><rect codeLine="8" fill="#F1F1F1" height="96.8906" id="Parameter" rx="2.5" ry="2.5" style="stroke:#181818;stroke-width:0.5;" width="255.1543" x="118.85" y="180.19"/><ellipse cx="205.4442" cy="196.19" fill="#ADD1B2" rx="11" ry="11" style="stroke:#181818;stroke-width:1;"/><path d="M208.413,201.8306 Q207.8349,202.1275 207.1942,202.2681 Q206.5536,202.4244 205.8505,202.4244 Q203.3505,202.4244 202.0224,200.7838 Q200.7099,199.1275 200.7099,196.0025 Q200.7099,192.8775 202.0224,191.2213 Q203.3505,189.565 205.8505,189.565 Q206.5536,189.565 207.1942,189.7213 Q207.8505,189.8775 208.413,190.1744 L208.413,192.8931 Q207.788,192.315 207.1942,192.0494 Q206.6005,191.7681 205.9755,191.7681 Q204.6317,191.7681 203.9442,192.8463 Q203.2567,193.9088 203.2567,196.0025 Q203.2567,198.0963 203.9442,199.1744 Q204.6317,200.2369 205.9755,200.2369 Q206.6005,200.2369 207.1942,199.9713 Q207.788,199.69 208.413,199.1119 L208.413,201.8306 Z " fill="#000000"/><text fill="#000000" font-family="sans-serif" font-size="14" lengthAdjust="spacing" textLength="73.4658" x="225.9442" y="201.0367">Parameter</text><line style="stroke:#181818;stroke-width:0.5;" x1="119.85" x2="373.0043" y1="212.19" y2="212.19"/><ellipse cx="129.85" cy="225.8384" fill="none" rx="3" ry="3" style="stroke:#038048;stroke-width:1;"/><text fill="#000000" font-family="sans-serif" font-size="14" lengthAdjust="spacing" textLength="90.6514" x="138.85" y="229.1851">name: String</text><ellipse cx="129.85" cy="242.1353" fill="none" rx="3" ry="3" style="stroke:#038048;stroke-width:1;"/><text fill="#000000" font-family="sans-serif" font-size="14" lengthAdjust="spacing" textLength="229.1543" x="138.85" y="245.482">parameter_type: ParameterType</text><ellipse cx="129.85" cy="258.4322" fill="none" rx="3" ry="3" style="stroke:#038048;stroke-width:1;"/><text fill="#000000" font-family="sans-serif" font-size="14" lengthAdjust="spacing" textLength="128.7891" x="138.85" y="261.7789">description: String</text><line style="stroke:#181818;stroke-width:0.5;" x1="119.85" x2="373.0043" y1="269.0806" y2="269.0806"/></g><!--class ParameterType--><g id="elem_ParameterType"><rect codeLine="14" fill="#F1F1F1" height="129.4844" id="ParameterType" rx="2.5" ry="2.5" style="stroke:#181818;stroke-width:0.5;" width="139.8027" x="176.53" y="337.08"/><ellipse cx="191.53" cy="353.08" fill="#EB937F" rx="11" ry="11" style="stroke:#181818;stroke-width:1;"/><path d="M195.6394,359.08 L187.9206,359.08 L187.9206,346.6894 L195.6394,346.6894 L195.6394,348.8456 L190.3738,348.8456 L190.3738,351.5175 L195.1394,351.5175 L195.1394,353.6738 L190.3738,353.6738 L190.3738,356.9238 L195.6394,356.9238 L195.6394,359.08 Z " fill="#000000"/><text fill="#000000" font-family="sans-serif" font-size="14" lengthAdjust="spacing" textLength="107.8027" x="205.53" y="357.9267">ParameterType</text><line style="stroke:#181818;stroke-width:0.5;" x1="177.53" x2="315.3327" y1="369.08" y2="369.08"/><text fill="#000000" font-family="sans-serif" font-size="14" lengthAdjust="spacing" textLength="41.7813" x="182.53" y="386.0751">String</text><text fill="#000000" font-family="sans-serif" font-size="14" lengthAdjust="spacing" textLength="56.2393" x="182.53" y="402.372">Number</text><text fill="#000000" font-family="sans-serif" font-size="14" lengthAdjust="spacing" textLength="56.6904" x="182.53" y="418.6689">Boolean</text><text fill="#000000" font-family="sans-serif" font-size="14" lengthAdjust="spacing" textLength="45.5957" x="182.53" y="434.9657">Object</text><text fill="#000000" font-family="sans-serif" font-size="14" lengthAdjust="spacing" textLength="37.9531" x="182.53" y="451.2626">Array</text><line style="stroke:#181818;stroke-width:0.5;" x1="177.53" x2="315.3327" y1="458.5644" y2="458.5644"/></g><!--class ToolCall--><g id="elem_ToolCall"><rect codeLine="22" fill="#F1F1F1" height="80.5938" id="ToolCall" rx="2.5" ry="2.5" style="stroke:#181818;stroke-width:0.5;" width="294.8643" x="7" y="23.29"/><ellipse cx="122.3291" cy="39.29" fill="#ADD1B2" rx="11" ry="11" style="stroke:#181818;stroke-width:1;"/><path d="M125.2979,44.9306 Q124.7197,45.2275 124.0791,45.3681 Q123.4385,45.5244 122.7354,45.5244 Q120.2354,45.5244 118.9072,43.8838 Q117.5947,42.2275 117.5947,39.1025 Q117.5947,35.9775 118.9072,34.3213 Q120.2354,32.665 122.7354,32.665 Q123.4385,32.665 124.0791,32.8213 Q124.7354,32.9775 125.2979,33.2744 L125.2979,35.9931 Q124.6729,35.415 124.0791,35.1494 Q123.4854,34.8681 122.8604,34.8681 Q121.5166,34.8681 120.8291,35.9463 Q120.1416,37.0088 120.1416,39.1025 Q120.1416,41.1963 120.8291,42.2744 Q121.5166,43.3369 122.8604,43.3369 Q123.4854,43.3369 124.0791,43.0713 Q124.6729,42.79 125.2979,42.2119 L125.2979,44.9306 Z " fill="#000000"/><text fill="#000000" font-family="sans-serif" font-size="14" lengthAdjust="spacing" textLength="55.7061" x="142.8291" y="44.1367">ToolCall</text><line style="stroke:#181818;stroke-width:0.5;" x1="8" x2="300.8643" y1="55.29" y2="55.29"/><ellipse cx="18" cy="68.9384" fill="none" rx="3" ry="3" style="stroke:#038048;stroke-width:1;"/><text fill="#000000" font-family="sans-serif" font-size="14" lengthAdjust="spacing" textLength="90.6514" x="27" y="72.2851">name: String</text><ellipse cx="18" cy="85.2353" fill="none" rx="3" ry="3" style="stroke:#038048;stroke-width:1;"/><text fill="#000000" font-family="sans-serif" font-size="14" lengthAdjust="spacing" textLength="268.8643" x="27" y="88.582">parameters: HashMap&lt;String, Value&gt;</text><line style="stroke:#181818;stroke-width:0.5;" x1="8" x2="300.8643" y1="95.8838" y2="95.8838"/></g><!--class WeatherTool--><g id="elem_WeatherTool"><rect codeLine="27" fill="#F1F1F1" height="48" id="WeatherTool" rx="2.5" ry="2.5" style="stroke:#181818;stroke-width:0.5;" width="121.3389" x="454.76" y="204.63"/><ellipse cx="469.76" cy="220.63" fill="#ADD1B2" rx="11" ry="11" style="stroke:#181818;stroke-width:1;"/><path d="M472.7288,226.2706 Q472.1506,226.5675 471.51,226.7081 Q470.8694,226.8644 470.1663,226.8644 Q467.6663,226.8644 466.3381,225.2238 Q465.0256,223.5675 465.0256,220.4425 Q465.0256,217.3175 466.3381,215.6613 Q467.6663,214.005 470.1663,214.005 Q470.8694,214.005 471.51,214.1613 Q472.1663,214.3175 472.7288,214.6144 L472.7288,217.3331 Q472.1038,216.755 471.51,216.4894 Q470.9163,216.2081 470.2913,216.2081 Q468.9475,216.2081 468.26,217.2863 Q467.5725,218.3488 467.5725,220.4425 Q467.5725,222.5363 468.26,223.6144 Q468.9475,224.6769 470.2913,224.6769 Q470.9163,224.6769 471.51,224.4113 Q472.1038,224.13 472.7288,223.5519 L472.7288,226.2706 Z " fill="#000000"/><text fill="#000000" font-family="sans-serif" font-size="14" lengthAdjust="spacing" textLength="89.3389" x="483.76" y="225.4767">WeatherTool</text><line style="stroke:#181818;stroke-width:0.5;" x1="455.76" x2="575.0989" y1="236.63" y2="236.63"/><line style="stroke:#181818;stroke-width:0.5;" x1="455.76" x2="575.0989" y1="244.63" y2="244.63"/></g><!--class DatabaseSearchTool--><g id="elem_DatabaseSearchTool"><rect codeLine="30" fill="#F1F1F1" height="64.2969" id="DatabaseSearchTool" rx="2.5" ry="2.5" style="stroke:#181818;stroke-width:0.5;" width="252.2148" x="611.32" y="196.48"/><ellipse cx="660.7883" cy="212.48" fill="#ADD1B2" rx="11" ry="11" style="stroke:#181818;stroke-width:1;"/><path d="M663.757,218.1206 Q663.1789,218.4175 662.5383,218.5581 Q661.8976,218.7144 661.1945,218.7144 Q658.6945,218.7144 657.3664,217.0738 Q656.0539,215.4175 656.0539,212.2925 Q656.0539,209.1675 657.3664,207.5113 Q658.6945,205.855 661.1945,205.855 Q661.8976,205.855 662.5383,206.0113 Q663.1945,206.1675 663.757,206.4644 L663.757,209.1831 Q663.132,208.605 662.5383,208.3394 Q661.9445,208.0581 661.3195,208.0581 Q659.9758,208.0581 659.2883,209.1363 Q658.6008,210.1988 658.6008,212.2925 Q658.6008,214.3863 659.2883,215.4644 Q659.9758,216.5269 661.3195,216.5269 Q661.9445,216.5269 662.5383,216.2613 Q663.132,215.98 663.757,215.4019 L663.757,218.1206 Z " fill="#000000"/><text fill="#000000" font-family="sans-serif" font-size="14" lengthAdjust="spacing" textLength="144.7783" x="681.2883" y="217.3267">DatabaseSearchTool</text><line style="stroke:#181818;stroke-width:0.5;" x1="612.32" x2="862.5348" y1="228.48" y2="228.48"/><rect fill="none" height="6" style="stroke:#C82930;stroke-width:1;" width="6" x="619.32" y="239.1284"/><text fill="#000000" font-family="sans-serif" font-size="14" lengthAdjust="spacing" textLength="226.2148" x="631.32" y="245.4751">db_client: Arc&lt;DatabaseClient&gt;</text><line style="stroke:#181818;stroke-width:0.5;" x1="612.32" x2="862.5348" y1="252.7769" y2="252.7769"/></g><!--reverse link Tool to WeatherTool--><g id="link_Tool_WeatherTool"><path codeLine="34" d="M540.8439,137.5641 C532.7239,166.3541 528.14,182.61 521.97,204.45 " fill="none" id="Tool-backto-WeatherTool" style="stroke:#181818;stroke-width:1;stroke-dasharray:7.0,7.0;"/><polygon fill="none" points="545.73,120.24,535.0691,135.9354,546.6186,139.1928,545.73,120.24" style="stroke:#181818;stroke-width:1;"/></g><!--reverse link Tool to DatabaseSearchTool--><g id="link_Tool_DatabaseSearchTool"><path codeLine="35" d="M634.7133,132.4741 C662.0933,157.8441 680.3,174.71 703.51,196.21 " fill="none" id="Tool-backto-DatabaseSearchTool" style="stroke:#181818;stroke-width:1;stroke-dasharray:7.0,7.0;"/><polygon fill="none" points="621.51,120.24,630.6353,136.8752,638.7913,128.0729,621.51,120.24" style="stroke:#181818;stroke-width:1;"/></g><!--reverse link Tool to Parameter--><g id="link_Tool_Parameter"><path codeLine="36" d="M442.8135,125.9872 C405.5935,145.2572 374.91,161.13 339.03,179.7 " fill="none" id="Tool-backto-Parameter" style="stroke:#181818;stroke-width:1;"/><polygon fill="#181818" points="453.47,120.47,446.3027,119.6764,442.8135,125.9872,449.9808,126.7808,453.47,120.47" style="stroke:#181818;stroke-width:1;"/></g><!--reverse link ToolCall to Parameter--><g id="link_ToolCall_Parameter"><path codeLine="37" d="M182.5968,114.5112 C195.4668,137.3212 205.85,155.72 219.45,179.81 " fill="none" id="ToolCall-backto-Parameter" style="stroke:#181818;stroke-width:1;"/><polygon fill="#181818" points="176.7,104.06,176.1647,111.2512,182.5968,114.5112,183.1321,107.32,176.7,104.06" style="stroke:#181818;stroke-width:1;"/></g><!--reverse link Parameter to ParameterType--><g id="link_Parameter_ParameterType"><path codeLine="38" d="M246.43,289.32 C246.43,307.72 246.43,317.05 246.43,336.75 " fill="none" id="Parameter-backto-ParameterType" style="stroke:#181818;stroke-width:1;"/><polygon fill="#181818" points="246.43,277.32,242.43,283.32,246.43,289.32,250.43,283.32,246.43,277.32" style="stroke:#181818;stroke-width:1;"/></g><!--SRC=[ZL5DJyCm3BtdL-GuFheVK4MJO1ouy24sZUFaPeO6fMcLE18JyDz9qovjLKrQJixpy_EphGoX_G29V5lNclym7juDDr3XuYhd6xBAVFRW0PsqgY5Lcrck0HjAWfPhKpkKulM4h7eAVgFqX8j8TJb_15S-GICwdLk-0-rn5QhVq7bDelkpFyQa1kTu4fouFETZJySc95FHDdpdSwJgq0MDhwRylj6emREl2hGnl0_xGZ0nVYc-K58Cxwo5us2wtUeQjBx8yzcb37hl25G6Tzsn4lm010Kut21OMOvEcV53iPTQeQ4yU9FYn5n7B2f7klXTBiVg8tGktYMlispO5qkJJk7XQXEyNUy_]--></g></svg>