<svg xmlns="http://www.w3.org/2000/svg" xmlns:xlink="http://www.w3.org/1999/xlink" contentStyleType="text/css" height="676px" preserveAspectRatio="none" style="width:794px;height:676px;background:#FFFFFF;" version="1.1" viewBox="0 0 794 676" width="794px" zoomAndPan="magnify"><defs/><g><!--cluster crm_context--><g id="cluster_crm_context"><path d="M253.5,118.72 L351.5,118.72 A3.75,3.75 0 0 1 354,121.22 L361,141.0169 L600.5,141.0169 A2.5,2.5 0 0 1 603,143.5169 L603,247.52 A2.5,2.5 0 0 1 600.5,250.02 L253.5,250.02 A2.5,2.5 0 0 1 251,247.52 L251,121.22 A2.5,2.5 0 0 1 253.5,118.72 " fill="none" style="stroke:#000000;stroke-width:1.5;"/><line style="stroke:#000000;stroke-width:1.5;" x1="251" x2="361" y1="141.0169" y2="141.0169"/><text fill="#000000" font-family="sans-serif" font-size="14" font-weight="bold" lengthAdjust="spacing" textLength="97" x="255" y="133.7151">crm_context</text></g><!--cluster crm_provider--><g id="cluster_crm_provider"><path d="M144.5,347.62 L249.5,347.62 A3.75,3.75 0 0 1 252,350.12 L259,369.9169 L344.5,369.9169 A2.5,2.5 0 0 1 347,372.4169 L347,666.6 A2.5,2.5 0 0 1 344.5,669.1 L144.5,669.1 A2.5,2.5 0 0 1 142,666.6 L142,350.12 A2.5,2.5 0 0 1 144.5,347.62 " fill="none" style="stroke:#000000;stroke-width:1.5;"/><line style="stroke:#000000;stroke-width:1.5;" x1="142" x2="259" y1="369.9169" y2="369.9169"/><text fill="#000000" font-family="sans-serif" font-size="14" font-weight="bold" lengthAdjust="spacing" textLength="104" x="146" y="362.6151">crm_provider</text></g><!--cluster provider--><g id="cluster_provider"><path d="M8.5,86.13 L76.5,86.13 A3.75,3.75 0 0 1 79,88.63 L86,108.4269 L208.5,108.4269 A2.5,2.5 0 0 1 211,110.9269 L211,280.12 A2.5,2.5 0 0 1 208.5,282.62 L8.5,282.62 A2.5,2.5 0 0 1 6,280.12 L6,88.63 A2.5,2.5 0 0 1 8.5,86.13 " fill="none" style="stroke:#000000;stroke-width:1.5;"/><line style="stroke:#000000;stroke-width:1.5;" x1="6" x2="86" y1="108.4269" y2="108.4269"/><text fill="#000000" font-family="sans-serif" font-size="14" font-weight="bold" lengthAdjust="spacing" textLength="67" x="10" y="101.1251">provider</text></g><!--class UseCase--><g id="elem_UseCase"><rect codeLine="3" fill="#F1F1F1" height="64.2969" id="UseCase" rx="2.5" ry="2.5" style="stroke:#181818;stroke-width:0.5;" width="148" x="275" y="161.72"/><ellipse cx="314.3" cy="177.72" fill="#ADD1B2" rx="11" ry="11" style="stroke:#181818;stroke-width:1.0;"/><path d="M317.2688,183.3606 Q316.6906,183.6575 316.05,183.7981 Q315.4094,183.9544 314.7063,183.9544 Q312.2063,183.9544 310.8781,182.3138 Q309.5656,180.6575 309.5656,177.5325 Q309.5656,174.4075 310.8781,172.7513 Q312.2063,171.095 314.7063,171.095 Q315.4094,171.095 316.05,171.2513 Q316.7063,171.4075 317.2688,171.7044 L317.2688,174.4231 Q316.6438,173.845 316.05,173.5794 Q315.4563,173.2981 314.8313,173.2981 Q313.4875,173.2981 312.8,174.3763 Q312.1125,175.4388 312.1125,177.5325 Q312.1125,179.6263 312.8,180.7044 Q313.4875,181.7669 314.8313,181.7669 Q315.4563,181.7669 316.05,181.5013 Q316.6438,181.22 317.2688,180.6419 L317.2688,183.3606 Z " fill="#000000"/><text fill="#000000" font-family="sans-serif" font-size="14" lengthAdjust="spacing" textLength="62" x="333.7" y="182.5667">UseCase</text><line style="stroke:#181818;stroke-width:0.5;" x1="276" x2="422" y1="193.72" y2="193.72"/><line style="stroke:#181818;stroke-width:1.0;" x1="276" x2="422" y1="201.72" y2="201.72"/><ellipse cx="286" cy="215.3684" fill="#84BE84" rx="3" ry="3" style="stroke:#038048;stroke-width:1.0;"/><text fill="#000000" font-family="sans-serif" font-size="14" lengthAdjust="spacing" textLength="122" x="295" y="218.7151">execute(Provider)</text></g><!--class Entity--><g id="elem_Entity"><rect codeLine="8" fill="#F1F1F1" height="48" id="Entity" rx="2.5" ry="2.5" style="stroke:#181818;stroke-width:0.5;" width="70" x="490" y="169.87"/><ellipse cx="505" cy="185.87" fill="#ADD1B2" rx="11" ry="11" style="stroke:#181818;stroke-width:1.0;"/><path d="M509.1094,191.87 L501.3906,191.87 L501.3906,179.4794 L509.1094,179.4794 L509.1094,181.6356 L503.8438,181.6356 L503.8438,184.3075 L508.6094,184.3075 L508.6094,186.4638 L503.8438,186.4638 L503.8438,189.7138 L509.1094,189.7138 L509.1094,191.87 Z " fill="#000000"/><text fill="#000000" font-family="sans-serif" font-size="14" lengthAdjust="spacing" textLength="38" x="519" y="190.7167">Entity</text><line style="stroke:#181818;stroke-width:0.5;" x1="491" x2="559" y1="201.87" y2="201.87"/><line style="stroke:#181818;stroke-width:0.5;" x1="491" x2="559" y1="209.87" y2="209.87"/></g><!--class Model--><g id="elem_Model"><rect codeLine="18" fill="#F1F1F1" height="48" id="Model" rx="2.5" ry="2.5" style="stroke:#181818;stroke-width:0.5;" width="74" x="182" y="597.1"/><ellipse cx="197" cy="613.1" fill="#ADD1B2" rx="11" ry="11" style="stroke:#181818;stroke-width:1.0;"/><path d="M201.1094,619.1 L193.3906,619.1 L193.3906,606.7094 L201.1094,606.7094 L201.1094,608.8656 L195.8438,608.8656 L195.8438,611.5375 L200.6094,611.5375 L200.6094,613.6938 L195.8438,613.6938 L195.8438,616.9438 L201.1094,616.9438 L201.1094,619.1 Z " fill="#000000"/><text fill="#000000" font-family="sans-serif" font-size="14" lengthAdjust="spacing" textLength="42" x="211" y="617.9467">Model</text><line style="stroke:#181818;stroke-width:0.5;" x1="183" x2="255" y1="629.1" y2="629.1"/><line style="stroke:#181818;stroke-width:0.5;" x1="183" x2="255" y1="637.1" y2="637.1"/></g><!--class Provider--><g id="elem_Provider"><rect codeLine="19" fill="#F1F1F1" height="129.4844" id="Provider" rx="2.5" ry="2.5" style="stroke:#181818;stroke-width:0.5;" width="138" x="166" y="390.62"/><ellipse cx="203.5" cy="406.62" fill="#B4A7E5" rx="11" ry="11" style="stroke:#181818;stroke-width:1.0;"/><path d="M199.4219,402.3856 L199.4219,400.2294 L206.8125,400.2294 L206.8125,402.3856 L204.3438,402.3856 L204.3438,410.4638 L206.8125,410.4638 L206.8125,412.62 L199.4219,412.62 L199.4219,410.4638 L201.8906,410.4638 L201.8906,402.3856 L199.4219,402.3856 Z " fill="#000000"/><text fill="#000000" font-family="sans-serif" font-size="14" font-style="italic" lengthAdjust="spacing" textLength="56" x="222.5" y="411.4667">Provider</text><line style="stroke:#181818;stroke-width:0.5;" x1="167" x2="303" y1="422.62" y2="422.62"/><line style="stroke:#181818;stroke-width:1.0;" x1="167" x2="303" y1="430.62" y2="430.62"/><text fill="#000000" font-family="sans-serif" font-size="14" lengthAdjust="spacing" textLength="96" x="172" y="447.6151">create(Model)</text><text fill="#000000" font-family="sans-serif" font-size="14" lengthAdjust="spacing" textLength="101" x="172" y="463.912">update(Model)</text><text fill="#000000" font-family="sans-serif" font-size="14" lengthAdjust="spacing" textLength="96" x="172" y="480.2089">delete(Model)</text><text fill="#000000" font-family="sans-serif" font-size="14" lengthAdjust="spacing" textLength="126" x="172" y="496.5057">get(Model): Model</text><text fill="#000000" font-family="sans-serif" font-size="14" lengthAdjust="spacing" textLength="111" x="172" y="512.8026">findAll(): Model[]</text></g><!--class ProviderImpl--><g id="elem_ProviderImpl"><rect codeLine="36" fill="#F1F1F1" height="129.4844" id="ProviderImpl" rx="2.5" ry="2.5" style="stroke:#181818;stroke-width:0.5;" width="138" x="30" y="129.13"/><ellipse cx="54.9" cy="145.13" fill="#ADD1B2" rx="11" ry="11" style="stroke:#181818;stroke-width:1.0;"/><path d="M57.8688,150.7706 Q57.2906,151.0675 56.65,151.2081 Q56.0094,151.3644 55.3063,151.3644 Q52.8063,151.3644 51.4781,149.7238 Q50.1656,148.0675 50.1656,144.9425 Q50.1656,141.8175 51.4781,140.1613 Q52.8063,138.505 55.3063,138.505 Q56.0094,138.505 56.65,138.6613 Q57.3063,138.8175 57.8688,139.1144 L57.8688,141.8331 Q57.2438,141.255 56.65,140.9894 Q56.0563,140.7081 55.4313,140.7081 Q54.0875,140.7081 53.4,141.7863 Q52.7125,142.8488 52.7125,144.9425 Q52.7125,147.0363 53.4,148.1144 Q54.0875,149.1769 55.4313,149.1769 Q56.0563,149.1769 56.65,148.9113 Q57.2438,148.63 57.8688,148.0519 L57.8688,150.7706 Z " fill="#000000"/><text fill="#000000" font-family="sans-serif" font-size="14" lengthAdjust="spacing" textLength="84" x="71.1" y="149.9767">ProviderImpl</text><line style="stroke:#181818;stroke-width:0.5;" x1="31" x2="167" y1="161.13" y2="161.13"/><line style="stroke:#181818;stroke-width:1.0;" x1="31" x2="167" y1="169.13" y2="169.13"/><text fill="#000000" font-family="sans-serif" font-size="14" lengthAdjust="spacing" textLength="96" x="36" y="186.1251">create(Model)</text><text fill="#000000" font-family="sans-serif" font-size="14" lengthAdjust="spacing" textLength="101" x="36" y="202.422">update(Model)</text><text fill="#000000" font-family="sans-serif" font-size="14" lengthAdjust="spacing" textLength="96" x="36" y="218.7189">delete(Model)</text><text fill="#000000" font-family="sans-serif" font-size="14" lengthAdjust="spacing" textLength="126" x="36" y="235.0157">get(Model): Model</text><text fill="#000000" font-family="sans-serif" font-size="14" lengthAdjust="spacing" textLength="111" x="36" y="251.3126">findAll(): Model[]</text></g><g id="elem_GMN6"><path d="M473,6 L473,31.1328 L717,31.1328 L717,16 L707,6 L473,6 " fill="#FEFFDD" style="stroke:#181818;stroke-width:0.5;"/><path d="M707,6 L707,16 L717,16 L707,6 " fill="#FEFFDD" style="stroke:#181818;stroke-width:1.0;"/><text fill="#000000" font-family="sans-serif" font-size="13" lengthAdjust="spacing" textLength="223" x="479" y="23.0669">CRM&#12398;&#12467;&#12531;&#12486;&#12461;&#12473;&#12488;&#12434;&#34920;&#12377;&#12497;&#12483;&#12465;&#12540;&#12472;</text></g><g id="elem_GMN12"><path d="M374.5,442.79 L374.5,467.9228 L787.5,467.9228 L787.5,452.79 L777.5,442.79 L374.5,442.79 " fill="#FEFFDD" style="stroke:#181818;stroke-width:0.5;"/><path d="M777.5,442.79 L777.5,452.79 L787.5,452.79 L777.5,442.79 " fill="#FEFFDD" style="stroke:#181818;stroke-width:1.0;"/><text fill="#000000" font-family="sans-serif" font-size="13" lengthAdjust="spacing" textLength="392" x="380.5" y="459.8569">CRM&#12503;&#12525;&#12496;&#12452;&#12480;&#12398;&#12514;&#12487;&#12523;&#12392;&#12452;&#12531;&#12479;&#12540;&#12501;&#12455;&#12540;&#12473;&#12434;&#23450;&#32681;&#12377;&#12427;&#12497;&#12483;&#12465;&#12540;&#12472;</text></g><g id="elem_GMN17"><path d="M88.5,6 L88.5,31.1328 L317.5,31.1328 L317.5,16 L307.5,6 L88.5,6 " fill="#FEFFDD" style="stroke:#181818;stroke-width:0.5;"/><path d="M307.5,6 L307.5,16 L317.5,16 L307.5,6 " fill="#FEFFDD" style="stroke:#181818;stroke-width:1.0;"/><text fill="#000000" font-family="sans-serif" font-size="13" lengthAdjust="spacing" textLength="208" x="94.5" y="23.0669">&#12503;&#12525;&#12496;&#12452;&#12480;&#12398;&#23455;&#35013;&#12434;&#21547;&#12416;&#12497;&#12483;&#12465;&#12540;&#12472;</text></g><!--link UseCase to Entity--><g id="link_UseCase_Entity"><path codeLine="10" d="M423.38,193.87 C446.46,193.87 464.82,193.87 483.9,193.87 " fill="none" id="UseCase-to-Entity" style="stroke:#181818;stroke-width:1.0;"/><polygon fill="#181818" points="489.9,193.87,480.9,189.87,484.9,193.87,480.9,197.87,489.9,193.87" style="stroke:#181818;stroke-width:1.0;"/><text fill="#000000" font-family="sans-serif" font-size="13" lengthAdjust="spacing" textLength="30" x="441.5" y="186.9369">uses</text></g><!--link GMN6 to crm_context--><g id="link_GMN6_crm_context"><path d="M595,31.48 C595,41.115 595,55.7819 595,72.4205 C595,80.7398 595,89.552 595,98.4746 C595,102.9359 595,107.4249 595,111.8936 C595,114.1279 595,116.3572 595,118.5755 " fill="none" id="GMN6-crm_context" style="stroke:#181818;stroke-width:1.0;stroke-dasharray:7.0,7.0;"/></g><!--link crm_provider to GMN12--><g id="link_crm_provider_GMN12"><path d="M347.1075,455.36 C347.4712,455.36 347.8348,455.36 348.1984,455.36 C351.1075,455.36 354.0163,455.36 356.925,455.36 C362.7425,455.36 368.56,455.36 374.38,455.36 " fill="none" id="crm_provider-GMN12" style="stroke:#181818;stroke-width:1.0;stroke-dasharray:7.0,7.0;"/></g><!--link GMN17 to provider--><g id="link_GMN17_provider"><path d="M203,31.48 C203,41.115 203,55.7819 203,72.4205 C203,76.5801 203,80.863 203,85.2213 C203,85.4937 203,85.7664 203,86.0393 " fill="none" id="GMN17-provider" style="stroke:#181818;stroke-width:1.0;stroke-dasharray:7.0,7.0;"/></g><!--link ProviderImpl to Provider--><g id="link_ProviderImpl_Provider"><path codeLine="49" d="M132.62,259.02 C153.62,299.09 172.204,334.5471 193.174,374.5571 " fill="none" id="ProviderImpl-to-Provider" style="stroke:#181818;stroke-width:1.0;stroke-dasharray:7.0,7.0;"/><polygon fill="none" points="201.53,390.5,198.4883,371.7717,187.8597,377.3424,201.53,390.5" style="stroke:#181818;stroke-width:1.0;"/><text fill="#000000" font-family="sans-serif" font-size="13" lengthAdjust="spacing" textLength="76" x="163" y="319.6869">implements</text></g><!--link ProviderImpl to Model--><g id="link_ProviderImpl_Model"><path codeLine="50" d="M89.05,258.92 C81.44,326.95 77.84,436.06 116,520.1 C130.43,551.87 155.088,575.1893 178.818,593.0693 " fill="none" id="ProviderImpl-to-Model" style="stroke:#181818;stroke-width:1.0;"/><polygon fill="#181818" points="183.61,596.68,178.8291,588.0694,179.6167,593.6711,174.0149,594.4587,183.61,596.68" style="stroke:#181818;stroke-width:1.0;"/><text fill="#000000" font-family="sans-serif" font-size="13" lengthAdjust="spacing" textLength="30" x="117" y="459.9269">uses</text></g><!--link Provider to Model--><g id="link_Provider_Model"><path codeLine="51" d="M228.77,520.13 C226.14,547.07 223.8131,570.7884 221.8631,590.7584 " fill="none" id="Provider-to-Model" style="stroke:#181818;stroke-width:1.0;"/><polygon fill="#181818" points="221.28,596.73,226.1357,588.1613,221.7659,591.7537,218.1736,587.3839,221.28,596.73" style="stroke:#181818;stroke-width:1.0;"/><text fill="#000000" font-family="sans-serif" font-size="13" lengthAdjust="spacing" textLength="30" x="226" y="563.1669">uses</text></g><!--link UseCase to Provider--><g id="link_UseCase_Provider"><path codeLine="52" d="M335.14,226.43 C317.33,266.95 288.4229,332.7466 265.5429,384.8366 " fill="none" id="UseCase-to-Provider" style="stroke:#181818;stroke-width:1.0;"/><polygon fill="#181818" points="263.13,390.33,270.4117,383.6985,265.1408,385.7521,263.0871,380.4812,263.13,390.33" style="stroke:#181818;stroke-width:1.0;"/><text fill="#000000" font-family="sans-serif" font-size="13" lengthAdjust="spacing" textLength="30" x="299" y="319.6869">uses</text></g><!--SRC=[lPBDIiD058NtUOfPjaZw05qKfBXmKIY2An49oMqDfab8fbAfXNO6Vy1D5KHq8_w0bTA2T6D1z64knJw6CvEa9XLnPmXCScRkdNi-Zc-OUqOTY1aqTapFfT2YfArfX9YE4OPaCuIo4OAGY7XqNLVh2hJ0R5B8LGDltxOWo0kv8wl0fJOz86lHqbPQqaCl9NgHD4C8jOxcUXG8zNpYrT8JYABoHWLxOsGJvE8zHZP2DaL-YknYVZV0tZNoS-GSsGloDsIl6hWMaUqqpKzPykC18q_nT1NF0aSEHuWjxWjgXWca-dqoRTKCm116LKbUAKtVMbB41sILEj3ujnZTfjIQxLghZfDBnAtj25i28h3hkpH1aKmUi-1No4V8-yWUaNSb6dwF_0Jv47i39KwGVKWM_1BPau8o5R1cuvlFzsV9YvtzZIoBAuf00cQzuJl_3oURaHIKdqHcuzlvmv7qt1yYw_xkDkEeK3WiBJmMYIqqQ8YWXDbZkaYlcYlExY8konkBjElfjdBh2m00]--></g></svg>