<?xml version="1.0" encoding="us-ascii" standalone="no"?><svg xmlns="http://www.w3.org/2000/svg" xmlns:xlink="http://www.w3.org/1999/xlink" contentStyleType="text/css" height="512px" preserveAspectRatio="none" style="width:398px;height:512px;background:#FFFFFF;" version="1.1" viewBox="0 0 398 512" width="398px" zoomAndPan="magnify"><defs/><g><text fill="#000000" font-family="sans-serif" font-size="14" font-weight="bold" lengthAdjust="spacing" textLength="186" x="99" y="22.9951">projects domain model</text><!--cluster Automation agg--><g id="cluster_Automation agg"><rect fill="none" height="164" rx="2.5" ry="2.5" style="stroke:#181818;stroke-width:1.0;" width="275" x="7" y="44.2969"/><text fill="#000000" font-family="sans-serif" font-size="14" font-weight="bold" lengthAdjust="spacing" textLength="132" x="78.5" y="59.292">Automation agg</text></g><!--class Automation--><g id="elem_Automation"><rect codeLine="22" fill="#F1F1F1" height="113.1875" id="Automation" rx="2.5" ry="2.5" style="stroke:#181818;stroke-width:0.5;" width="123" x="23.5" y="79.2969"/><ellipse cx="41.2" cy="95.2969" fill="#ADD1B2" rx="11" ry="11" style="stroke:#181818;stroke-width:1.0;"/><path d="M39.9969,96.1719 L41.45,96.1719 L41.45,96.2813 C41.45,96.6875 41.4813,96.8438 41.5594,97 C41.7156,97.25 41.9969,97.4063 42.2938,97.4063 C42.5438,97.4063 42.8094,97.2656 42.9656,97.0469 C43.0906,96.8906 43.1219,96.7344 43.1219,96.2813 L43.1219,94.3594 C43.1219,94.2031 43.1219,94.1563 43.1063,94 C43.0438,93.5313 42.7313,93.2188 42.2781,93.2188 C42.0281,93.2188 41.7625,93.3594 41.5906,93.5781 C41.4813,93.75 41.45,93.9063 41.45,94.3594 L41.45,94.4844 L39.9969,94.4844 L39.9969,92.0781 L43.9813,92.0781 L43.9813,92.9375 C43.9813,93.3438 44.0125,93.5156 44.0906,93.6719 C44.2625,93.9219 44.5438,94.0781 44.825,94.0781 C45.0906,94.0781 45.3563,93.9375 45.5281,93.7188 C45.6375,93.5469 45.6688,93.4063 45.6688,92.9375 L45.6688,90.3906 L38.0438,90.3906 C37.6063,90.3906 37.4813,90.4063 37.325,90.5 C37.075,90.6563 36.9188,90.9531 36.9188,91.2344 C36.9188,91.5156 37.0594,91.7656 37.2781,91.9375 C37.4344,92.0469 37.6219,92.0781 38.0438,92.0781 L38.2938,92.0781 L38.2938,98.5938 L38.0438,98.5938 C37.6375,98.5938 37.4813,98.6094 37.325,98.7188 C37.075,98.8906 36.9188,99.1563 36.9188,99.4531 C36.9188,99.7188 37.0594,99.9688 37.2781,100.125 C37.4188,100.25 37.6531,100.2969 38.0438,100.2969 L46.0438,100.2969 L46.0438,97.7188 C46.0438,97.2813 46.0125,97.1406 45.9344,96.9844 C45.7625,96.7344 45.4813,96.5781 45.2,96.5781 C44.9344,96.5781 44.6688,96.6875 44.4969,96.9375 C44.3875,97.0938 44.3563,97.2344 44.3563,97.7188 L44.3563,98.5938 L39.9969,98.5938 L39.9969,96.1719 Z " fill="#000000"/><text fill="#000000" font-family="sans-serif" font-size="14" lengthAdjust="spacing" textLength="85" x="55.8" y="100.1436">Automation</text><line style="stroke:#181818;stroke-width:0.5;" x1="24.5" x2="145.5" y1="111.2969" y2="111.2969"/><text fill="#000000" font-family="sans-serif" font-size="14" lengthAdjust="spacing" textLength="98" x="29.5" y="128.292">AutomationId</text><text fill="#000000" font-family="sans-serif" font-size="14" lengthAdjust="spacing" textLength="52" x="29.5" y="144.5889">Trigger</text><text fill="#000000" font-family="sans-serif" font-size="14" lengthAdjust="spacing" textLength="111" x="29.5" y="160.8857">currentPipeline</text><text fill="#000000" font-family="sans-serif" font-size="14" lengthAdjust="spacing" textLength="91" x="29.5" y="177.1826">nextPipeline</text><line style="stroke:#181818;stroke-width:0.5;" x1="24.5" x2="145.5" y1="184.4844" y2="184.4844"/></g><!--class Trigger--><g id="elem_Trigger"><rect codeLine="29" fill="#F1F1F1" height="96.8906" id="Trigger" rx="2.5" ry="2.5" style="stroke:#181818;stroke-width:0.5;" width="84" x="182" y="87.2969"/><ellipse cx="197" cy="103.2969" fill="#EB937F" rx="11" ry="11" style="stroke:#181818;stroke-width:1.0;"/><path d="M195.7969,104.1719 L197.25,104.1719 L197.25,104.2813 C197.25,104.6875 197.2813,104.8438 197.3594,105 C197.5156,105.25 197.7969,105.4063 198.0938,105.4063 C198.3438,105.4063 198.6094,105.2656 198.7656,105.0469 C198.8906,104.8906 198.9219,104.7344 198.9219,104.2813 L198.9219,102.3594 C198.9219,102.2031 198.9219,102.1563 198.9063,102 C198.8438,101.5313 198.5313,101.2188 198.0781,101.2188 C197.8281,101.2188 197.5625,101.3594 197.3906,101.5781 C197.2813,101.75 197.25,101.9063 197.25,102.3594 L197.25,102.4844 L195.7969,102.4844 L195.7969,100.0781 L199.7813,100.0781 L199.7813,100.9375 C199.7813,101.3438 199.8125,101.5156 199.8906,101.6719 C200.0625,101.9219 200.3438,102.0781 200.625,102.0781 C200.8906,102.0781 201.1563,101.9375 201.3281,101.7188 C201.4375,101.5469 201.4688,101.4063 201.4688,100.9375 L201.4688,98.3906 L193.8438,98.3906 C193.4063,98.3906 193.2813,98.4063 193.125,98.5 C192.875,98.6563 192.7188,98.9531 192.7188,99.2344 C192.7188,99.5156 192.8594,99.7656 193.0781,99.9375 C193.2344,100.0469 193.4219,100.0781 193.8438,100.0781 L194.0938,100.0781 L194.0938,106.5938 L193.8438,106.5938 C193.4375,106.5938 193.2813,106.6094 193.125,106.7188 C192.875,106.8906 192.7188,107.1563 192.7188,107.4531 C192.7188,107.7188 192.8594,107.9688 193.0781,108.125 C193.2188,108.25 193.4531,108.2969 193.8438,108.2969 L201.8438,108.2969 L201.8438,105.7188 C201.8438,105.2813 201.8125,105.1406 201.7344,104.9844 C201.5625,104.7344 201.2813,104.5781 201,104.5781 C200.7344,104.5781 200.4688,104.6875 200.2969,104.9375 C200.1875,105.0938 200.1563,105.2344 200.1563,105.7188 L200.1563,106.5938 L195.7969,106.5938 L195.7969,104.1719 Z " fill="#000000"/><text fill="#000000" font-family="sans-serif" font-size="14" lengthAdjust="spacing" textLength="52" x="211" y="108.1436">Trigger</text><line style="stroke:#181818;stroke-width:0.5;" x1="183" x2="265" y1="119.2969" y2="119.2969"/><text fill="#000000" font-family="sans-serif" font-size="14" lengthAdjust="spacing" textLength="58" x="188" y="136.292">Created</text><text fill="#000000" font-family="sans-serif" font-size="14" lengthAdjust="spacing" textLength="61" x="188" y="152.5889">Updated</text><text fill="#000000" font-family="sans-serif" font-size="14" lengthAdjust="spacing" textLength="58" x="188" y="168.8857">Deleted</text><line style="stroke:#181818;stroke-width:0.5;" x1="183" x2="265" y1="176.1875" y2="176.1875"/></g><!--class Pipeline--><g id="elem_Pipeline"><rect codeLine="3" fill="#F1F1F1" height="96.8906" id="Pipeline" rx="2.5" ry="2.5" style="stroke:#181818;stroke-width:0.5;" width="90" x="301" y="87.2969"/><ellipse cx="316" cy="103.2969" fill="#ADD1B2" rx="11" ry="11" style="stroke:#181818;stroke-width:1.0;"/><path d="M314.7969,104.1719 L316.25,104.1719 L316.25,104.2813 C316.25,104.6875 316.2813,104.8438 316.3594,105 C316.5156,105.25 316.7969,105.4063 317.0938,105.4063 C317.3438,105.4063 317.6094,105.2656 317.7656,105.0469 C317.8906,104.8906 317.9219,104.7344 317.9219,104.2813 L317.9219,102.3594 C317.9219,102.2031 317.9219,102.1563 317.9063,102 C317.8438,101.5313 317.5313,101.2188 317.0781,101.2188 C316.8281,101.2188 316.5625,101.3594 316.3906,101.5781 C316.2813,101.75 316.25,101.9063 316.25,102.3594 L316.25,102.4844 L314.7969,102.4844 L314.7969,100.0781 L318.7813,100.0781 L318.7813,100.9375 C318.7813,101.3438 318.8125,101.5156 318.8906,101.6719 C319.0625,101.9219 319.3438,102.0781 319.625,102.0781 C319.8906,102.0781 320.1563,101.9375 320.3281,101.7188 C320.4375,101.5469 320.4688,101.4063 320.4688,100.9375 L320.4688,98.3906 L312.8438,98.3906 C312.4063,98.3906 312.2813,98.4063 312.125,98.5 C311.875,98.6563 311.7188,98.9531 311.7188,99.2344 C311.7188,99.5156 311.8594,99.7656 312.0781,99.9375 C312.2344,100.0469 312.4219,100.0781 312.8438,100.0781 L313.0938,100.0781 L313.0938,106.5938 L312.8438,106.5938 C312.4375,106.5938 312.2813,106.6094 312.125,106.7188 C311.875,106.8906 311.7188,107.1563 311.7188,107.4531 C311.7188,107.7188 311.8594,107.9688 312.0781,108.125 C312.2188,108.25 312.4531,108.2969 312.8438,108.2969 L320.8438,108.2969 L320.8438,105.7188 C320.8438,105.2813 320.8125,105.1406 320.7344,104.9844 C320.5625,104.7344 320.2813,104.5781 320,104.5781 C319.7344,104.5781 319.4688,104.6875 319.2969,104.9375 C319.1875,105.0938 319.1563,105.2344 319.1563,105.7188 L319.1563,106.5938 L314.7969,106.5938 L314.7969,104.1719 Z " fill="#000000"/><text fill="#000000" font-family="sans-serif" font-size="14" lengthAdjust="spacing" textLength="58" x="330" y="108.1436">Pipeline</text><line style="stroke:#181818;stroke-width:0.5;" x1="302" x2="390" y1="119.2969" y2="119.2969"/><text fill="#000000" font-family="sans-serif" font-size="14" lengthAdjust="spacing" textLength="13" x="307" y="136.292">id</text><text fill="#000000" font-family="sans-serif" font-size="14" lengthAdjust="spacing" textLength="40" x="307" y="152.5889">name</text><text fill="#000000" font-family="sans-serif" font-size="14" lengthAdjust="spacing" textLength="47" x="307" y="168.8857">stages</text><line style="stroke:#181818;stroke-width:0.5;" x1="302" x2="390" y1="176.1875" y2="176.1875"/></g><!--class Stage--><g id="elem_Stage"><rect codeLine="9" fill="#F1F1F1" height="113.1875" id="Stage" rx="2.5" ry="2.5" style="stroke:#181818;stroke-width:0.5;" width="74" x="178" y="252.2969"/><ellipse cx="193" cy="268.2969" fill="#ADD1B2" rx="11" ry="11" style="stroke:#181818;stroke-width:1.0;"/><path d="M191.7969,269.1719 L193.25,269.1719 L193.25,269.2813 C193.25,269.6875 193.2813,269.8438 193.3594,270 C193.5156,270.25 193.7969,270.4063 194.0938,270.4063 C194.3438,270.4063 194.6094,270.2656 194.7656,270.0469 C194.8906,269.8906 194.9219,269.7344 194.9219,269.2813 L194.9219,267.3594 C194.9219,267.2031 194.9219,267.1563 194.9063,267 C194.8438,266.5313 194.5313,266.2188 194.0781,266.2188 C193.8281,266.2188 193.5625,266.3594 193.3906,266.5781 C193.2813,266.75 193.25,266.9063 193.25,267.3594 L193.25,267.4844 L191.7969,267.4844 L191.7969,265.0781 L195.7813,265.0781 L195.7813,265.9375 C195.7813,266.3438 195.8125,266.5156 195.8906,266.6719 C196.0625,266.9219 196.3438,267.0781 196.625,267.0781 C196.8906,267.0781 197.1563,266.9375 197.3281,266.7188 C197.4375,266.5469 197.4688,266.4063 197.4688,265.9375 L197.4688,263.3906 L189.8438,263.3906 C189.4063,263.3906 189.2813,263.4063 189.125,263.5 C188.875,263.6563 188.7188,263.9531 188.7188,264.2344 C188.7188,264.5156 188.8594,264.7656 189.0781,264.9375 C189.2344,265.0469 189.4219,265.0781 189.8438,265.0781 L190.0938,265.0781 L190.0938,271.5938 L189.8438,271.5938 C189.4375,271.5938 189.2813,271.6094 189.125,271.7188 C188.875,271.8906 188.7188,272.1563 188.7188,272.4531 C188.7188,272.7188 188.8594,272.9688 189.0781,273.125 C189.2188,273.25 189.4531,273.2969 189.8438,273.2969 L197.8438,273.2969 L197.8438,270.7188 C197.8438,270.2813 197.8125,270.1406 197.7344,269.9844 C197.5625,269.7344 197.2813,269.5781 197,269.5781 C196.7344,269.5781 196.4688,269.6875 196.2969,269.9375 C196.1875,270.0938 196.1563,270.2344 196.1563,270.7188 L196.1563,271.5938 L191.7969,271.5938 L191.7969,269.1719 Z " fill="#000000"/><text fill="#000000" font-family="sans-serif" font-size="14" lengthAdjust="spacing" textLength="42" x="207" y="273.1436">Stage</text><line style="stroke:#181818;stroke-width:0.5;" x1="179" x2="251" y1="284.2969" y2="284.2969"/><text fill="#000000" font-family="sans-serif" font-size="14" lengthAdjust="spacing" textLength="13" x="184" y="301.292">id</text><text fill="#000000" font-family="sans-serif" font-size="14" lengthAdjust="spacing" textLength="40" x="184" y="317.5889">name</text><text fill="#000000" font-family="sans-serif" font-size="14" lengthAdjust="spacing" textLength="58" x="184" y="333.8857">orderNo</text><text fill="#000000" font-family="sans-serif" font-size="14" lengthAdjust="spacing" textLength="41" x="184" y="350.1826">items</text><line style="stroke:#181818;stroke-width:0.5;" x1="179" x2="251" y1="357.4844" y2="357.4844"/></g><!--class Item--><g id="elem_Item"><rect codeLine="16" fill="#F1F1F1" height="80.5938" id="Item" rx="2.5" ry="2.5" style="stroke:#181818;stroke-width:0.5;" width="136" x="147" y="425.2969"/><ellipse cx="193.75" cy="441.2969" fill="#ADD1B2" rx="11" ry="11" style="stroke:#181818;stroke-width:1.0;"/><path d="M192.5469,442.1719 L194,442.1719 L194,442.2813 C194,442.6875 194.0313,442.8438 194.1094,443 C194.2656,443.25 194.5469,443.4063 194.8438,443.4063 C195.0938,443.4063 195.3594,443.2656 195.5156,443.0469 C195.6406,442.8906 195.6719,442.7344 195.6719,442.2813 L195.6719,440.3594 C195.6719,440.2031 195.6719,440.1563 195.6563,440 C195.5938,439.5313 195.2813,439.2188 194.8281,439.2188 C194.5781,439.2188 194.3125,439.3594 194.1406,439.5781 C194.0313,439.75 194,439.9063 194,440.3594 L194,440.4844 L192.5469,440.4844 L192.5469,438.0781 L196.5313,438.0781 L196.5313,438.9375 C196.5313,439.3438 196.5625,439.5156 196.6406,439.6719 C196.8125,439.9219 197.0938,440.0781 197.375,440.0781 C197.6406,440.0781 197.9063,439.9375 198.0781,439.7188 C198.1875,439.5469 198.2188,439.4063 198.2188,438.9375 L198.2188,436.3906 L190.5938,436.3906 C190.1563,436.3906 190.0313,436.4063 189.875,436.5 C189.625,436.6563 189.4688,436.9531 189.4688,437.2344 C189.4688,437.5156 189.6094,437.7656 189.8281,437.9375 C189.9844,438.0469 190.1719,438.0781 190.5938,438.0781 L190.8438,438.0781 L190.8438,444.5938 L190.5938,444.5938 C190.1875,444.5938 190.0313,444.6094 189.875,444.7188 C189.625,444.8906 189.4688,445.1563 189.4688,445.4531 C189.4688,445.7188 189.6094,445.9688 189.8281,446.125 C189.9688,446.25 190.2031,446.2969 190.5938,446.2969 L198.5938,446.2969 L198.5938,443.7188 C198.5938,443.2813 198.5625,443.1406 198.4844,442.9844 C198.3125,442.7344 198.0313,442.5781 197.75,442.5781 C197.4844,442.5781 197.2188,442.6875 197.0469,442.9375 C196.9375,443.0938 196.9063,443.2344 196.9063,443.7188 L196.9063,444.5938 L192.5469,444.5938 L192.5469,442.1719 Z " fill="#000000"/><text fill="#000000" font-family="sans-serif" font-size="14" lengthAdjust="spacing" textLength="34" x="214.25" y="446.1436">Item</text><line style="stroke:#181818;stroke-width:0.5;" x1="148" x2="282" y1="457.2969" y2="457.2969"/><text fill="#000000" font-family="sans-serif" font-size="14" lengthAdjust="spacing" textLength="47" x="153" y="474.292">DataId</text><text fill="#000000" font-family="sans-serif" font-size="14" lengthAdjust="spacing" textLength="124" x="153" y="490.5889">ItemPropertyList</text><line style="stroke:#181818;stroke-width:0.5;" x1="148" x2="282" y1="497.8906" y2="497.8906"/></g><!--link Automation to Trigger--><g id="link_Automation_Trigger"><path codeLine="34" d="M146.627,135.7969 C158.414,135.7969 164.202,135.7969 175.989,135.7969 " fill="none" id="Automation-to-Trigger" style="stroke:#181818;stroke-width:1.0;"/><polygon fill="#181818" points="181.989,135.7969,172.989,131.7969,176.989,135.7969,172.989,139.7969,181.989,135.7969" style="stroke:#181818;stroke-width:1.0;"/></g><!--link Pipeline to Stage--><g id="link_Pipeline_Stage"><path codeLine="37" d="M309.509,184.4299 C291.642,207.7519 273.8159,231.0219 255.8539,254.4679 " fill="none" id="Pipeline-to-Stage" style="stroke:#181818;stroke-width:1.0;"/><polygon fill="#181818" points="252.205,259.2309,260.8536,254.5191,255.2457,255.2618,254.503,249.6539,252.205,259.2309" style="stroke:#181818;stroke-width:1.0;"/></g><!--link Stage to Item--><g id="link_Stage_Item"><path codeLine="38" d="M215,365.3179 C215,385.1229 215,401.0165 215,419.2106 " fill="none" id="Stage-to-Item" style="stroke:#181818;stroke-width:1.0;"/><polygon fill="#181818" points="215,425.2106,219,416.2106,215,420.2106,211,416.2106,215,425.2106" style="stroke:#181818;stroke-width:1.0;"/></g><!--link Automation to Stage--><g id="link_Automation_Stage"><path codeLine="39" d="M127.207,192.3159 C143.518,213.7699 158.3898,233.3324 174.1898,254.1154 " fill="none" id="Automation-to-Stage" style="stroke:#181818;stroke-width:1.0;"/><polygon fill="#181818" points="177.821,258.8919,175.5585,249.3064,174.795,254.9115,169.1899,254.148,177.821,258.8919" style="stroke:#181818;stroke-width:1.0;"/></g><!--SRC=[TL51QiCm4Bph5IBtVA5GcakWX43R1uXe45iioQpNa13ozwmiMx4FsOirevsTyKf8EjYUypykCbYVewDaO_ReZ44IafizKu-E4kpTM2toqoUvYEamY0iOpAFr_nJYJNDc3pxbUYU8QzrHyImxE777AYticNCFbjit3L84h65T2ffyzpcAPXRAoReGThD-dhYwh7of5paxbFfb2W7Sy6LarY7BhpS-uRebDKqr7ECoPENrnN22byrVxpVuW0uBVfXjEhl_QB7KfRt2NlbfnQOkkk2o9BEMBZrF]--></g></svg>