<svg xmlns="http://www.w3.org/2000/svg" xmlns:xlink="http://www.w3.org/1999/xlink" contentStyleType="text/css" data-diagram-type="CLASS" height="621px" preserveAspectRatio="none" style="width:1142px;height:621px;background:#FFFFFF;" version="1.1" viewBox="0 0 1142 621" width="1142px" zoomAndPan="magnify"><defs/><g><!--class MemoryTable--><g id="elem_MemoryTable"><rect codeLine="9" fill="#FFFFFF" height="210.9688" id="MemoryTable" rx="2.5" ry="2.5" style="stroke:#000000;stroke-width:0.5;" width="256.2549" x="393.45" y="7"/><ellipse cx="469.5989" cy="23" fill="#ADD1B2" rx="11" ry="11" style="stroke:#181818;stroke-width:1;"/><path d="M472.5677,28.6406 Q471.9896,28.9375 471.3489,29.0781 Q470.7083,29.2344 470.0052,29.2344 Q467.5052,29.2344 466.1771,27.5938 Q464.8646,25.9375 464.8646,22.8125 Q464.8646,19.6875 466.1771,18.0313 Q467.5052,16.375 470.0052,16.375 Q470.7083,16.375 471.3489,16.5313 Q472.0052,16.6875 472.5677,16.9844 L472.5677,19.7031 Q471.9427,19.125 471.3489,18.8594 Q470.7552,18.5781 470.1302,18.5781 Q468.7864,18.5781 468.0989,19.6563 Q467.4114,20.7188 467.4114,22.8125 Q467.4114,24.9063 468.0989,25.9844 Q468.7864,27.0469 470.1302,27.0469 Q470.7552,27.0469 471.3489,26.7813 Q471.9427,26.5 472.5677,25.9219 L472.5677,28.6406 Z " fill="#000000"/><text fill="#000000" font-family="sans-serif" font-size="14" lengthAdjust="spacing" textLength="95.457" x="490.0989" y="27.8467">MemoryTable</text><line style="stroke:#000000;stroke-width:0.5;" x1="394.45" x2="648.7049" y1="39" y2="39"/><ellipse cx="404.45" cy="52.6484" fill="none" rx="3" ry="3" style="stroke:#038048;stroke-width:1;"/><text fill="#000000" font-family="sans-serif" font-size="14" lengthAdjust="spacing" textLength="98.3076" x="413.45" y="55.9951">content: TEXT</text><ellipse cx="404.45" cy="68.9453" fill="none" rx="3" ry="3" style="stroke:#038048;stroke-width:1;"/><text fill="#000000" font-family="sans-serif" font-size="14" lengthAdjust="spacing" textLength="97.7197" x="413.45" y="72.292">context: TEXT</text><ellipse cx="404.45" cy="85.2422" fill="none" rx="3" ry="3" style="stroke:#038048;stroke-width:1;"/><text fill="#000000" font-family="sans-serif" font-size="14" lengthAdjust="spacing" textLength="165.0127" x="413.45" y="88.5889">created_at: TIMESTAMP</text><ellipse cx="404.45" cy="101.5391" fill="none" rx="3" ry="3" style="stroke:#038048;stroke-width:1;"/><text fill="#000000" font-family="sans-serif" font-size="14" lengthAdjust="spacing" textLength="208.3047" x="413.45" y="104.8857">last_accessed_at: TIMESTAMP</text><ellipse cx="404.45" cy="117.8359" fill="none" rx="3" ry="3" style="stroke:#038048;stroke-width:1;"/><text fill="#000000" font-family="sans-serif" font-size="14" lengthAdjust="spacing" textLength="162.7158" x="413.45" y="121.1826">expires_at: TIMESTAMP</text><line style="stroke:#000000;stroke-width:0.5;" x1="394.45" x2="648.7049" y1="128.4844" y2="128.4844"/><ellipse cx="404.45" cy="142.1328" fill="#84BE84" rx="3" ry="3" style="stroke:#038048;stroke-width:1;"/><text fill="#000000" font-family="sans-serif" font-size="14" lengthAdjust="spacing" textLength="158.375" x="413.45" y="145.4795">id: VARCHAR(32) &#171;PK&#187;</text><ellipse cx="404.45" cy="158.4297" fill="#84BE84" rx="3" ry="3" style="stroke:#038048;stroke-width:1;"/><text fill="#000000" font-family="sans-serif" font-size="14" lengthAdjust="spacing" textLength="195.5215" x="413.45" y="161.7764">user_id: VARCHAR(31) &#171;FK&#187;</text><ellipse cx="404.45" cy="174.7266" fill="#84BE84" rx="3" ry="3" style="stroke:#038048;stroke-width:1;"/><text fill="#000000" font-family="sans-serif" font-size="14" lengthAdjust="spacing" textLength="216.6514" x="413.45" y="178.0732">conversation_id: VARCHAR(31)</text><ellipse cx="404.45" cy="191.0234" fill="#84BE84" rx="3" ry="3" style="stroke:#038048;stroke-width:1;"/><text fill="#000000" font-family="sans-serif" font-size="14" lengthAdjust="spacing" textLength="203.1641" x="413.45" y="194.3701">memory_type: VARCHAR(20)</text><ellipse cx="404.45" cy="207.3203" fill="#84BE84" rx="3" ry="3" style="stroke:#038048;stroke-width:1;"/><text fill="#000000" font-family="sans-serif" font-size="14" lengthAdjust="spacing" textLength="230.2549" x="413.45" y="210.667">importance_score: DECIMAL(5,2)</text></g><!--class UserPreferenceTable--><g id="elem_UserPreferenceTable"><rect codeLine="22" fill="#FFFFFF" height="145.7813" id="UserPreferenceTable" rx="2.5" ry="2.5" style="stroke:#000000;stroke-width:0.5;" width="252.9053" x="85.13" y="303.12"/><ellipse cx="134.1642" cy="319.12" fill="#ADD1B2" rx="11" ry="11" style="stroke:#181818;stroke-width:1;"/><path d="M137.1329,324.7606 Q136.5548,325.0575 135.9142,325.1981 Q135.2736,325.3544 134.5704,325.3544 Q132.0704,325.3544 130.7423,323.7138 Q129.4298,322.0575 129.4298,318.9325 Q129.4298,315.8075 130.7423,314.1513 Q132.0704,312.495 134.5704,312.495 Q135.2736,312.495 135.9142,312.6513 Q136.5704,312.8075 137.1329,313.1044 L137.1329,315.8231 Q136.5079,315.245 135.9142,314.9794 Q135.3204,314.6981 134.6954,314.6981 Q133.3517,314.6981 132.6642,315.7763 Q131.9767,316.8388 131.9767,318.9325 Q131.9767,321.0263 132.6642,322.1044 Q133.3517,323.1669 134.6954,323.1669 Q135.3204,323.1669 135.9142,322.9013 Q136.5079,322.62 137.1329,322.0419 L137.1329,324.7606 Z " fill="#000000"/><text fill="#000000" font-family="sans-serif" font-size="14" lengthAdjust="spacing" textLength="146.3369" x="154.6642" y="323.9667">UserPreferenceTable</text><line style="stroke:#000000;stroke-width:0.5;" x1="86.13" x2="337.0353" y1="335.12" y2="335.12"/><ellipse cx="96.13" cy="348.7684" fill="none" rx="3" ry="3" style="stroke:#038048;stroke-width:1;"/><text fill="#000000" font-family="sans-serif" font-size="14" lengthAdjust="spacing" textLength="82.9473" x="105.13" y="352.1151">value: TEXT</text><ellipse cx="96.13" cy="365.0653" fill="none" rx="3" ry="3" style="stroke:#038048;stroke-width:1;"/><text fill="#000000" font-family="sans-serif" font-size="14" lengthAdjust="spacing" textLength="201.8447" x="105.13" y="368.412">last_updated_at: TIMESTAMP</text><line style="stroke:#000000;stroke-width:0.5;" x1="86.13" x2="337.0353" y1="375.7138" y2="375.7138"/><ellipse cx="96.13" cy="389.3622" fill="#84BE84" rx="3" ry="3" style="stroke:#038048;stroke-width:1;"/><text fill="#000000" font-family="sans-serif" font-size="14" lengthAdjust="spacing" textLength="158.375" x="105.13" y="392.7089">id: VARCHAR(31) &#171;PK&#187;</text><ellipse cx="96.13" cy="405.6591" fill="#84BE84" rx="3" ry="3" style="stroke:#038048;stroke-width:1;"/><text fill="#000000" font-family="sans-serif" font-size="14" lengthAdjust="spacing" textLength="195.5215" x="105.13" y="409.0057">user_id: VARCHAR(31) &#171;FK&#187;</text><ellipse cx="96.13" cy="421.9559" fill="#84BE84" rx="3" ry="3" style="stroke:#038048;stroke-width:1;"/><text fill="#000000" font-family="sans-serif" font-size="14" lengthAdjust="spacing" textLength="221.0195" x="105.13" y="425.3026">preference_type: VARCHAR(30)</text><ellipse cx="96.13" cy="438.2528" fill="#84BE84" rx="3" ry="3" style="stroke:#038048;stroke-width:1;"/><text fill="#000000" font-family="sans-serif" font-size="14" lengthAdjust="spacing" textLength="226.9053" x="105.13" y="441.5995">confidence_score: DECIMAL(5,2)</text></g><!--class TerminologyTable--><g id="elem_TerminologyTable"><rect codeLine="31" fill="#FFFFFF" height="162.0781" id="TerminologyTable" rx="2.5" ry="2.5" style="stroke:#000000;stroke-width:0.5;" width="247.6074" x="397.78" y="294.97"/><ellipse cx="454.3166" cy="310.97" fill="#ADD1B2" rx="11" ry="11" style="stroke:#181818;stroke-width:1;"/><path d="M457.2854,316.6106 Q456.7072,316.9075 456.0666,317.0481 Q455.426,317.2044 454.7229,317.2044 Q452.2229,317.2044 450.8947,315.5638 Q449.5822,313.9075 449.5822,310.7825 Q449.5822,307.6575 450.8947,306.0013 Q452.2229,304.345 454.7229,304.345 Q455.426,304.345 456.0666,304.5013 Q456.7229,304.6575 457.2854,304.9544 L457.2854,307.6731 Q456.6604,307.095 456.0666,306.8294 Q455.4729,306.5481 454.8479,306.5481 Q453.5041,306.5481 452.8166,307.6263 Q452.1291,308.6888 452.1291,310.7825 Q452.1291,312.8763 452.8166,313.9544 Q453.5041,315.0169 454.8479,315.0169 Q455.4729,315.0169 456.0666,314.7513 Q456.6604,314.47 457.2854,313.8919 L457.2854,316.6106 Z " fill="#000000"/><text fill="#000000" font-family="sans-serif" font-size="14" lengthAdjust="spacing" textLength="126.0342" x="474.8166" y="315.8167">TerminologyTable</text><line style="stroke:#000000;stroke-width:0.5;" x1="398.78" x2="644.3874" y1="326.97" y2="326.97"/><ellipse cx="408.78" cy="340.6184" fill="none" rx="3" ry="3" style="stroke:#038048;stroke-width:1;"/><text fill="#000000" font-family="sans-serif" font-size="14" lengthAdjust="spacing" textLength="97.7197" x="417.78" y="343.9651">context: TEXT</text><ellipse cx="408.78" cy="356.9153" fill="none" rx="3" ry="3" style="stroke:#038048;stroke-width:1;"/><text fill="#000000" font-family="sans-serif" font-size="14" lengthAdjust="spacing" textLength="165.0127" x="417.78" y="360.262">created_at: TIMESTAMP</text><ellipse cx="408.78" cy="373.2122" fill="none" rx="3" ry="3" style="stroke:#038048;stroke-width:1;"/><text fill="#000000" font-family="sans-serif" font-size="14" lengthAdjust="spacing" textLength="177.2969" x="417.78" y="376.5589">last_used_at: TIMESTAMP</text><line style="stroke:#000000;stroke-width:0.5;" x1="398.78" x2="644.3874" y1="383.8606" y2="383.8606"/><ellipse cx="408.78" cy="397.5091" fill="#84BE84" rx="3" ry="3" style="stroke:#038048;stroke-width:1;"/><text fill="#000000" font-family="sans-serif" font-size="14" lengthAdjust="spacing" textLength="158.375" x="417.78" y="400.8557">id: VARCHAR(31) &#171;PK&#187;</text><ellipse cx="408.78" cy="413.8059" fill="#84BE84" rx="3" ry="3" style="stroke:#038048;stroke-width:1;"/><text fill="#000000" font-family="sans-serif" font-size="14" lengthAdjust="spacing" textLength="195.5215" x="417.78" y="417.1526">user_id: VARCHAR(31) &#171;FK&#187;</text><ellipse cx="408.78" cy="430.1028" fill="#84BE84" rx="3" ry="3" style="stroke:#038048;stroke-width:1;"/><text fill="#000000" font-family="sans-serif" font-size="14" lengthAdjust="spacing" textLength="208.127" x="417.78" y="433.4495">original_term: VARCHAR(255)</text><ellipse cx="408.78" cy="446.3997" fill="#84BE84" rx="3" ry="3" style="stroke:#038048;stroke-width:1;"/><text fill="#000000" font-family="sans-serif" font-size="14" lengthAdjust="spacing" textLength="221.6074" x="417.78" y="449.7464">preferred_term: VARCHAR(255)</text></g><!--class MemoryIndexes--><g id="elem_MemoryIndexes"><rect codeLine="42" fill="#FFFFFF" height="113.1875" id="MemoryIndexes" rx="2.5" ry="2.5" style="stroke:#000000;stroke-width:0.5;" width="455.2627" x="679.95" y="319.42"/><ellipse cx="847.5159" cy="335.42" fill="#ADD1B2" rx="11" ry="11" style="stroke:#181818;stroke-width:1;"/><path d="M850.4847,341.0606 Q849.9065,341.3575 849.2659,341.4981 Q848.6253,341.6544 847.9222,341.6544 Q845.4222,341.6544 844.094,340.0138 Q842.7815,338.3575 842.7815,335.2325 Q842.7815,332.1075 844.094,330.4513 Q845.4222,328.795 847.9222,328.795 Q848.6253,328.795 849.2659,328.9513 Q849.9222,329.1075 850.4847,329.4044 L850.4847,332.1231 Q849.8597,331.545 849.2659,331.2794 Q848.6722,330.9981 848.0472,330.9981 Q846.7034,330.9981 846.0159,332.0763 Q845.3284,333.1388 845.3284,335.2325 Q845.3284,337.3263 846.0159,338.4044 Q846.7034,339.4669 848.0472,339.4669 Q848.6722,339.4669 849.2659,339.2013 Q849.8597,338.92 850.4847,338.3419 L850.4847,341.0606 Z " fill="#000000"/><text fill="#000000" font-family="sans-serif" font-size="14" lengthAdjust="spacing" textLength="111.6309" x="868.0159" y="340.2667">MemoryIndexes</text><line style="stroke:#000000;stroke-width:0.5;" x1="680.95" x2="1134.2127" y1="351.42" y2="351.42"/><line style="stroke:#000000;stroke-width:0.5;" x1="680.95" x2="1134.2127" y1="359.42" y2="359.42"/><ellipse cx="690.95" cy="373.0684" fill="#84BE84" rx="3" ry="3" style="stroke:#038048;stroke-width:1;"/><text fill="#000000" font-family="sans-serif" font-size="14" lengthAdjust="spacing" textLength="429.2627" x="699.95" y="376.4151">idx_user_memory (user_id, memory_type, importance_score)</text><ellipse cx="690.95" cy="389.3653" fill="#84BE84" rx="3" ry="3" style="stroke:#038048;stroke-width:1;"/><text fill="#000000" font-family="sans-serif" font-size="14" lengthAdjust="spacing" textLength="244.1729" x="699.95" y="392.712">idx_conversation (conversation_id)</text><ellipse cx="690.95" cy="405.6622" fill="#84BE84" rx="3" ry="3" style="stroke:#038048;stroke-width:1;"/><text fill="#000000" font-family="sans-serif" font-size="14" lengthAdjust="spacing" textLength="159.5576" x="699.95" y="409.0089">idx_expiry (expires_at)</text><ellipse cx="690.95" cy="421.9591" fill="#84BE84" rx="3" ry="3" style="stroke:#038048;stroke-width:1;"/><text fill="#000000" font-family="sans-serif" font-size="14" lengthAdjust="spacing" textLength="258.3574" x="699.95" y="425.3057">idx_last_accessed (last_accessed_at)</text></g><!--class UserPreferenceIndexes--><g id="elem_UserPreferenceIndexes"><rect codeLine="49" fill="#FFFFFF" height="96.8906" id="UserPreferenceIndexes" rx="2.5" ry="2.5" style="stroke:#000000;stroke-width:0.5;" width="357.1602" x="7" y="518.05"/><ellipse cx="100.0747" cy="534.05" fill="#ADD1B2" rx="11" ry="11" style="stroke:#181818;stroke-width:1;"/><path d="M103.0435,539.6906 Q102.4653,539.9875 101.8247,540.1281 Q101.1841,540.2844 100.481,540.2844 Q97.981,540.2844 96.6528,538.6438 Q95.3403,536.9875 95.3403,533.8625 Q95.3403,530.7375 96.6528,529.0813 Q97.981,527.425 100.481,527.425 Q101.1841,527.425 101.8247,527.5813 Q102.481,527.7375 103.0435,528.0344 L103.0435,530.7531 Q102.4185,530.175 101.8247,529.9094 Q101.231,529.6281 100.606,529.6281 Q99.2622,529.6281 98.5747,530.7063 Q97.8872,531.7688 97.8872,533.8625 Q97.8872,535.9563 98.5747,537.0344 Q99.2622,538.0969 100.606,538.0969 Q101.231,538.0969 101.8247,537.8313 Q102.4185,537.55 103.0435,536.9719 L103.0435,539.6906 Z " fill="#000000"/><text fill="#000000" font-family="sans-serif" font-size="14" lengthAdjust="spacing" textLength="162.5107" x="120.5747" y="538.8967">UserPreferenceIndexes</text><line style="stroke:#000000;stroke-width:0.5;" x1="8" x2="363.1602" y1="550.05" y2="550.05"/><line style="stroke:#000000;stroke-width:0.5;" x1="8" x2="363.1602" y1="558.05" y2="558.05"/><ellipse cx="18" cy="571.6984" fill="#84BE84" rx="3" ry="3" style="stroke:#038048;stroke-width:1;"/><text fill="#000000" font-family="sans-serif" font-size="14" lengthAdjust="spacing" textLength="331.1602" x="27" y="575.0451">idx_user_preference (user_id, preference_type)</text><ellipse cx="18" cy="587.9953" fill="#84BE84" rx="3" ry="3" style="stroke:#038048;stroke-width:1;"/><text fill="#000000" font-family="sans-serif" font-size="14" lengthAdjust="spacing" textLength="241.6367" x="27" y="591.342">idx_confidence (confidence_score)</text><ellipse cx="18" cy="604.2922" fill="#84BE84" rx="3" ry="3" style="stroke:#038048;stroke-width:1;"/><text fill="#000000" font-family="sans-serif" font-size="14" lengthAdjust="spacing" textLength="327.0791" x="27" y="607.6389">uk_user_preference (user_id, preference_type)</text></g><!--class TerminologyIndexes--><g id="elem_TerminologyIndexes"><rect codeLine="55" fill="#FFFFFF" height="96.8906" id="TerminologyIndexes" rx="2.5" ry="2.5" style="stroke:#000000;stroke-width:0.5;" width="347.7539" x="398.7" y="518.05"/><ellipse cx="497.2229" cy="534.05" fill="#ADD1B2" rx="11" ry="11" style="stroke:#181818;stroke-width:1;"/><path d="M500.1917,539.6906 Q499.6136,539.9875 498.9729,540.1281 Q498.3323,540.2844 497.6292,540.2844 Q495.1292,540.2844 493.8011,538.6438 Q492.4886,536.9875 492.4886,533.8625 Q492.4886,530.7375 493.8011,529.0813 Q495.1292,527.425 497.6292,527.425 Q498.3323,527.425 498.9729,527.5813 Q499.6292,527.7375 500.1917,528.0344 L500.1917,530.7531 Q499.5667,530.175 498.9729,529.9094 Q498.3792,529.6281 497.7542,529.6281 Q496.4104,529.6281 495.7229,530.7063 Q495.0354,531.7688 495.0354,533.8625 Q495.0354,535.9563 495.7229,537.0344 Q496.4104,538.0969 497.7542,538.0969 Q498.3792,538.0969 498.9729,537.8313 Q499.5667,537.55 500.1917,536.9719 L500.1917,539.6906 Z " fill="#000000"/><text fill="#000000" font-family="sans-serif" font-size="14" lengthAdjust="spacing" textLength="142.208" x="517.7229" y="538.8967">TerminologyIndexes</text><line style="stroke:#000000;stroke-width:0.5;" x1="399.7" x2="745.4539" y1="550.05" y2="550.05"/><line style="stroke:#000000;stroke-width:0.5;" x1="399.7" x2="745.4539" y1="558.05" y2="558.05"/><ellipse cx="409.7" cy="571.6984" fill="#84BE84" rx="3" ry="3" style="stroke:#038048;stroke-width:1;"/><text fill="#000000" font-family="sans-serif" font-size="14" lengthAdjust="spacing" textLength="266.5059" x="418.7" y="575.0451">idx_user_term (user_id, original_term)</text><ellipse cx="409.7" cy="587.9953" fill="#84BE84" rx="3" ry="3" style="stroke:#038048;stroke-width:1;"/><text fill="#000000" font-family="sans-serif" font-size="14" lengthAdjust="spacing" textLength="196.3418" x="418.7" y="591.342">idx_last_used (last_used_at)</text><ellipse cx="409.7" cy="604.2922" fill="#84BE84" rx="3" ry="3" style="stroke:#038048;stroke-width:1;"/><text fill="#000000" font-family="sans-serif" font-size="14" lengthAdjust="spacing" textLength="321.7539" x="418.7" y="607.6389">uk_user_original_term (user_id, original_term)</text></g><!--link MemoryTable to MemoryIndexes--><g id="link_MemoryTable_MemoryIndexes"><path codeLine="62" d="M650.11,200.57 C707.79,239.65 774.15,284.61 825.05,319.1 " fill="none" id="MemoryTable-MemoryIndexes" style="stroke:#000000;stroke-width:1;"/><text fill="#000000" font-family="sans-serif" font-size="13" lengthAdjust="spacing" textLength="8.271" x="657.7799" y="202.2996">1</text><text fill="#000000" font-family="sans-serif" font-size="13" lengthAdjust="spacing" textLength="8.271" x="806.5205" y="308.3246">1</text></g><!--link UserPreferenceTable to UserPreferenceIndexes--><g id="link_UserPreferenceTable_UserPreferenceIndexes"><path codeLine="63" d="M201.6,449.34 C198.44,472.29 195.02,497.06 192.16,517.82 " fill="none" id="UserPreferenceTable-UserPreferenceIndexes" style="stroke:#000000;stroke-width:1;"/><text fill="#000000" font-family="sans-serif" font-size="13" lengthAdjust="spacing" textLength="8.271" x="192.3235" y="468.8645">1</text><text fill="#000000" font-family="sans-serif" font-size="13" lengthAdjust="spacing" textLength="8.271" x="184.5419" y="506.9966">1</text></g><!--link TerminologyTable to TerminologyIndexes--><g id="link_TerminologyTable_TerminologyIndexes"><path codeLine="64" d="M543.36,457.49 C548.91,478 554.7,499.4 559.65,517.69 " fill="none" id="TerminologyTable-TerminologyIndexes" style="stroke:#000000;stroke-width:1;"/><text fill="#000000" font-family="sans-serif" font-size="13" lengthAdjust="spacing" textLength="8.271" x="536.8993" y="477.2094">1</text><text fill="#000000" font-family="sans-serif" font-size="13" lengthAdjust="spacing" textLength="8.271" x="549.2887" y="506.8483">1</text></g><!--link MemoryTable to TerminologyTable--><g id="link_MemoryTable_TerminologyTable"><path codeLine="66" d="M521.58,218.35 C521.58,243.79 521.58,270.59 521.58,294.69 " fill="none" id="MemoryTable-TerminologyTable" style="stroke:#000000;stroke-width:1;"/><text fill="#000000" font-family="sans-serif" font-size="13" lengthAdjust="spacing" textLength="46.7188" x="522.58" y="261.0369">user_id</text><text fill="#000000" font-family="sans-serif" font-size="13" lengthAdjust="spacing" textLength="8.271" x="513.3205" y="238.0381">1</text><text fill="#000000" font-family="sans-serif" font-size="13" lengthAdjust="spacing" textLength="23.0356" x="497.557" y="283.8524">0..*</text></g><!--link MemoryTable to UserPreferenceTable--><g id="link_MemoryTable_UserPreferenceTable"><path codeLine="67" d="M397.28,218.35 C363.76,246.63 328.24,276.59 297.34,302.66 " fill="none" id="MemoryTable-UserPreferenceTable" style="stroke:#000000;stroke-width:1;"/><text fill="#000000" font-family="sans-serif" font-size="13" lengthAdjust="spacing" textLength="46.7188" x="358.58" y="261.0369">user_id</text><text fill="#000000" font-family="sans-serif" font-size="13" lengthAdjust="spacing" textLength="8.271" x="380.6691" y="238.0381">1</text><text fill="#000000" font-family="sans-serif" font-size="13" lengthAdjust="spacing" textLength="23.0356" x="281.4194" y="292.0271">0..*</text></g><!--SRC=[hLHDYzD06BxdLmozRABTPTkbbx8iP6l5eeMoPjLR69DtQsYI2JF9sY8Bqe3-WptiKJqeeXuy2O8_PX3SV-7aOvl9LsN1N0BpFk_7yypppWxYwnzy_OklF_3uyv-FNtv_lLBOml43JB67B1SpXbufI7p7s5hCAObyUqHSGj7J5qu8QKIdbBpC3ezTWShWXDf0vTCBHTb1F7x3uvyylXJj-FeRZp-90PIipnGyGbS6Vkv2tlCkSkmXUgAVZ1xe9-f1NqE7XxE7HqTvC690pHAYbo3k5mYB-ET06GuTubUHESHBkvhXAe0YtD_NYWeX-E4G6UDdXdosB9yvNa1eY7qBJ6OHAchT6uycK_sHEkZsDyKeu11i4oUva-duiQ5FPtbCI12QsBA0iHO4B0E70gl4XAoPVAT2ZHc5Cw0WfjWYO-_MCWQRiXMT3ZOwdMCtWgfAPuuDsnL9MKU1tI3BXfW1r7DyuQJvwh-o8jIPEpvspL0qaEv-CD1AlAaOhHNIv8L_NdF4cjYAxKZMy3kFt_8uJhQZiXeJtuObC8d_qanfPXv6QiwvAvkwMxEc9gNB2uBKohh8mDHyeaLXGZbQCYzIgrxMsbpQogXmdCIgOiCAZzniAOkIyMvmqU8sjPlirpfkOW-fMCbPDPsYGgFeHf_oXANyzhgfPwultrs_Vg_8ZsUdrq6xk-clP1obwOcGm8rtezJMJygeQwCqJhA_jtUdKr_a8Uhat3fRqfgcbZB_0W00]--></g></svg>