<svg xmlns="http://www.w3.org/2000/svg" xmlns:xlink="http://www.w3.org/1999/xlink" contentStyleType="text/css" data-diagram-type="DESCRIPTION" height="182px" preserveAspectRatio="none" style="width:478px;height:182px;background:#FFFFFF;" version="1.1" viewBox="0 0 478 182" width="478px" zoomAndPan="magnify"><defs/><g><!--entity analysis--><g id="elem_analysis"><rect fill="#F1F1F1" height="36.2969" rx="2.5" ry="2.5" style="stroke:#181818;stroke-width:0.5;" width="152.5488" x="168.27" y="7"/><text fill="#000000" font-family="sans-serif" font-size="14" lengthAdjust="spacing" textLength="132.5488" x="178.27" y="29.9951">DataAnalysisAgent</text></g><!--entity scraper--><g id="elem_scraper"><path d="M6,130.29 C6,120.29 73.5449,120.29 73.5449,120.29 C73.5449,120.29 141.0898,120.29 141.0898,130.29 L141.0898,155.5869 C141.0898,165.5869 73.5449,165.5869 73.5449,165.5869 C73.5449,165.5869 6,165.5869 6,155.5869 L6,130.29 " fill="#F1F1F1" style="stroke:#181818;stroke-width:0.5;"/><path d="M6,130.29 C6,140.29 73.5449,140.29 73.5449,140.29 C73.5449,140.29 141.0898,140.29 141.0898,130.29 " fill="none" style="stroke:#181818;stroke-width:0.5;"/><text fill="#000000" font-family="sans-serif" font-size="14" lengthAdjust="spacing" textLength="115.0898" x="16" y="157.2851">WebScraperTool</text></g><!--entity cleaner--><g id="elem_cleaner"><path d="M176,130.29 C176,120.29 244.5498,120.29 244.5498,120.29 C244.5498,120.29 313.0996,120.29 313.0996,130.29 L313.0996,155.5869 C313.0996,165.5869 244.5498,165.5869 244.5498,165.5869 C244.5498,165.5869 176,165.5869 176,155.5869 L176,130.29 " fill="#F1F1F1" style="stroke:#181818;stroke-width:0.5;"/><path d="M176,130.29 C176,140.29 244.5498,140.29 244.5498,140.29 C244.5498,140.29 313.0996,140.29 313.0996,130.29 " fill="none" style="stroke:#181818;stroke-width:0.5;"/><text fill="#000000" font-family="sans-serif" font-size="14" lengthAdjust="spacing" textLength="117.0996" x="186" y="157.2851">DataCleanerTool</text></g><!--entity analytics--><g id="elem_analytics"><path d="M347.97,130.29 C347.97,120.29 404.5432,120.29 404.5432,120.29 C404.5432,120.29 461.1165,120.29 461.1165,130.29 L461.1165,155.5869 C461.1165,165.5869 404.5432,165.5869 404.5432,165.5869 C404.5432,165.5869 347.97,165.5869 347.97,155.5869 L347.97,130.29 " fill="#F1F1F1" style="stroke:#181818;stroke-width:0.5;"/><path d="M347.97,130.29 C347.97,140.29 404.5432,140.29 404.5432,140.29 C404.5432,140.29 461.1165,140.29 461.1165,130.29 " fill="none" style="stroke:#181818;stroke-width:0.5;"/><text fill="#000000" font-family="sans-serif" font-size="14" lengthAdjust="spacing" textLength="93.1465" x="357.97" y="157.2851">AnalyticsTool</text></g><!--link analysis to scraper--><g id="link_analysis_scraper"><path d="M218.57,43.73 C188.49,64.1 143.8483,94.3361 111.1783,116.4561 " fill="none" id="analysis-to-scraper" style="stroke:#181818;stroke-width:1;"/><polygon fill="#181818" points="106.21,119.82,115.9051,118.0863,110.3503,117.0167,111.4199,111.4619,106.21,119.82" style="stroke:#181818;stroke-width:1;"/><text fill="#000000" font-family="sans-serif" font-size="13" lengthAdjust="spacing" textLength="29.7832" x="175.54" y="86.3569">uses</text></g><!--link analysis to cleaner--><g id="link_analysis_cleaner"><path d="M244.54,43.73 C244.54,64.1 244.54,91.7 244.54,113.82 " fill="none" id="analysis-to-cleaner" style="stroke:#181818;stroke-width:1;"/><polygon fill="#181818" points="244.54,119.82,248.54,110.82,244.54,114.82,240.54,110.82,244.54,119.82" style="stroke:#181818;stroke-width:1;"/><text fill="#000000" font-family="sans-serif" font-size="13" lengthAdjust="spacing" textLength="29.7832" x="245.54" y="86.3569">uses</text></g><!--link analysis to analytics--><g id="link_analysis_analytics"><path d="M268.85,43.73 C297,64.1 338.5491,94.1827 369.1191,116.3027 " fill="none" id="analysis-to-analytics" style="stroke:#181818;stroke-width:1;"/><polygon fill="#181818" points="373.98,119.82,369.0335,111.3034,369.9292,116.8889,364.3437,117.7847,373.98,119.82" style="stroke:#181818;stroke-width:1;"/><text fill="#000000" font-family="sans-serif" font-size="13" lengthAdjust="spacing" textLength="29.7832" x="329.54" y="86.3569">uses</text></g><!--SRC=[ROtB2O0m44JlgM8Ri04FWcW72fx7k8WGecJZmUxz93487cVcySQnzh2pOMhXKLkOGnQfPxQU88HOgEbQHmZJm6Ed7JPs_RgQcv4GCtAR6iEmcT4XPkPvyekMH20LIgLJAeegsQcaNLY-MxJ-RgylhYS0]--></g></svg>