<svg xmlns="http://www.w3.org/2000/svg" xmlns:xlink="http://www.w3.org/1999/xlink" contentStyleType="text/css" data-diagram-type="STATE" height="529px" preserveAspectRatio="none" style="width:864px;height:529px;background:#FFFFFF;" version="1.1" viewBox="0 0 864 529" width="864px" zoomAndPan="magnify"><defs/><g><g id="Idle"><rect fill="#FFFFFF" height="50" rx="12.5" ry="12.5" style="stroke:#000000;stroke-width:1;" width="50" x="389.69" y="92"/><line style="stroke:#000000;stroke-width:1;" x1="389.69" x2="439.69" y1="118.2969" y2="118.2969"/><text fill="#000000" font-family="Verdana" font-size="14" lengthAdjust="spacing" textLength="25.5186" x="401.9307" y="109.9951">Idle</text></g><g id="Assigned"><rect fill="#FFFFFF" height="50" rx="12.5" ry="12.5" style="stroke:#000000;stroke-width:1;" width="120.2969" x="354.54" y="219"/><line style="stroke:#000000;stroke-width:1;" x1="354.54" x2="474.8369" y1="245.2969" y2="245.2969"/><text fill="#000000" font-family="Verdana" font-size="14" lengthAdjust="spacing" textLength="100.2969" x="364.54" y="236.9951">Task Assigned</text></g><g id="Processing"><rect fill="#FFFFFF" height="50" rx="12.5" ry="12.5" style="stroke:#000000;stroke-width:1;" width="95.3115" x="367.03" y="346"/><line style="stroke:#000000;stroke-width:1;" x1="367.03" x2="462.3415" y1="372.2969" y2="372.2969"/><text fill="#000000" font-family="Verdana" font-size="14" lengthAdjust="spacing" textLength="75.3115" x="377.03" y="363.9951">Processing</text></g><g id="WaitingLLM"><rect fill="#FFFFFF" height="50" rx="12.5" ry="12.5" style="stroke:#000000;stroke-width:1;" width="129.2793" x="483.05" y="473"/><line style="stroke:#000000;stroke-width:1;" x1="483.05" x2="612.3293" y1="499.2969" y2="499.2969"/><text fill="#000000" font-family="Verdana" font-size="14" lengthAdjust="spacing" textLength="109.2793" x="493.05" y="490.9951">Waiting for LLM</text></g><g id="UsingTool"><rect fill="#FFFFFF" height="50" rx="12.5" ry="12.5" style="stroke:#000000;stroke-width:1;" width="93.2129" x="196.08" y="473"/><line style="stroke:#000000;stroke-width:1;" x1="196.08" x2="289.2929" y1="499.2969" y2="499.2969"/><text fill="#000000" font-family="Verdana" font-size="14" lengthAdjust="spacing" textLength="73.2129" x="206.08" y="490.9951">Using Tool</text></g><g id="Sharing"><rect fill="#FFFFFF" height="50" rx="12.5" ry="12.5" style="stroke:#000000;stroke-width:1;" width="129.375" x="12" y="473"/><line style="stroke:#000000;stroke-width:1;" x1="12" x2="141.375" y1="499.2969" y2="499.2969"/><text fill="#000000" font-family="Verdana" font-size="14" lengthAdjust="spacing" textLength="109.375" x="22" y="490.9951">Sharing Results</text></g><g id="Error"><rect fill="#FFFFFF" height="50" rx="12.5" ry="12.5" style="stroke:#000000;stroke-width:1;" width="54.6787" x="802.35" y="473"/><line style="stroke:#000000;stroke-width:1;" x1="802.35" x2="857.0287" y1="499.2969" y2="499.2969"/><text fill="#000000" font-family="Verdana" font-size="14" lengthAdjust="spacing" textLength="34.6787" x="812.35" y="490.9951">Error</text></g><ellipse cx="414.69" cy="21" fill="#FFFFFF" rx="10" ry="10" style="stroke:#000000;stroke-width:1;"/><!--link *start* to Idle--><g id="link_*start*_Idle"><path d="M414.69,31.36 C414.69,45.29 414.69,65.95 414.69,85.65 " fill="none" id="*start*-to-Idle" style="stroke:#000000;stroke-width:1;"/><polygon fill="#000000" points="414.69,91.65,418.69,82.65,414.69,86.65,410.69,82.65,414.69,91.65" style="stroke:#000000;stroke-width:1;"/></g><!--link Idle to Assigned--><g id="link_Idle_Assigned"><path d="M414.69,142.4 C414.69,164.42 414.69,190.66 414.69,212.66 " fill="none" id="Idle-to-Assigned" style="stroke:#000000;stroke-width:1;"/><polygon fill="#000000" points="414.69,218.66,418.69,209.66,414.69,213.66,410.69,209.66,414.69,218.66" style="stroke:#000000;stroke-width:1;"/><text fill="#000000" font-family="Verdana" font-size="13" lengthAdjust="spacing" textLength="81.6563" x="415.69" y="185.0669">receive_task</text></g><!--link Assigned to Processing--><g id="link_Assigned_Processing"><path d="M414.69,269.4 C414.69,291.42 414.69,317.66 414.69,339.66 " fill="none" id="Assigned-to-Processing" style="stroke:#000000;stroke-width:1;"/><polygon fill="#000000" points="414.69,345.66,418.69,336.66,414.69,340.66,410.69,336.66,414.69,345.66" style="stroke:#000000;stroke-width:1;"/><text fill="#000000" font-family="Verdana" font-size="13" lengthAdjust="spacing" textLength="107.123" x="415.69" y="312.0669">start_processing</text></g><!--link Processing to WaitingLLM--><g id="link_Processing_WaitingLLM"><path d="M434.75,396.3 C446.9,410.48 463.03,428.4 478.69,443 C489.7,453.27 497.7507,460.0263 509.3307,468.9163 " fill="none" id="Processing-to-WaitingLLM" style="stroke:#000000;stroke-width:1;"/><polygon fill="#000000" points="514.09,472.57,509.3869,463.9166,510.124,469.5253,504.5153,470.2623,514.09,472.57" style="stroke:#000000;stroke-width:1;"/><text fill="#000000" font-family="Verdana" font-size="13" lengthAdjust="spacing" textLength="91.2793" x="479.69" y="439.0669">generate_text</text></g><!--link WaitingLLM to Processing--><g id="link_WaitingLLM_Processing"><path d="M568.45,472.83 C578.25,458.35 585.82,440.09 575.69,426 C550.12,390.46 506.0026,378.6485 468.4526,374.4385 " fill="none" id="WaitingLLM-to-Processing" style="stroke:#000000;stroke-width:1;"/><polygon fill="#000000" points="462.49,373.77,470.9883,378.7479,467.4589,374.3271,471.8796,370.7977,462.49,373.77" style="stroke:#000000;stroke-width:1;"/><text fill="#000000" font-family="Verdana" font-size="13" lengthAdjust="spacing" textLength="113.623" x="580.69" y="439.0669">receive_response</text></g><!--link Processing to UsingTool--><g id="link_Processing_UsingTool"><path d="M366.59,378.69 C315.06,386.95 238.29,402.82 220.69,426 C210.38,439.56 213.5716,452.8114 221.9716,467.5014 " fill="none" id="Processing-to-UsingTool" style="stroke:#000000;stroke-width:1;"/><polygon fill="#000000" points="224.95,472.71,223.9548,462.9115,222.468,468.3695,217.0101,466.8827,224.95,472.71" style="stroke:#000000;stroke-width:1;"/><text fill="#000000" font-family="Verdana" font-size="13" lengthAdjust="spacing" textLength="83.2876" x="221.69" y="439.0669">execute_tool</text></g><!--link UsingTool to Processing--><g id="link_UsingTool_Processing"><path d="M276.17,472.66 C306.46,450.66 345.9558,421.9466 376.2658,399.9266 " fill="none" id="UsingTool-to-Processing" style="stroke:#000000;stroke-width:1;"/><polygon fill="#000000" points="381.12,396.4,371.4876,398.4537,377.0748,399.3388,376.1897,404.926,381.12,396.4" style="stroke:#000000;stroke-width:1;"/><text fill="#000000" font-family="Verdana" font-size="13" lengthAdjust="spacing" textLength="91.8379" x="340.69" y="439.0669">tool_complete</text></g><!--link Processing to Sharing--><g id="link_Processing_Sharing"><path d="M366.57,376.02 C293.53,382.9 159.02,398.88 119.69,426 C103.43,437.21 94.6589,451.2504 87.7889,467.0004 " fill="none" id="Processing-to-Sharing" style="stroke:#000000;stroke-width:1;"/><polygon fill="#000000" points="85.39,472.5,92.6547,465.8499,87.3891,467.917,85.3219,462.6514,85.39,472.5" style="stroke:#000000;stroke-width:1;"/><text fill="#000000" font-family="Verdana" font-size="13" lengthAdjust="spacing" textLength="86.6582" x="120.69" y="439.0669">share_results</text></g><!--link Sharing to Idle--><g id="link_Sharing_Idle"><path d="M79.85,472.72 C82.5,458.38 87.27,440.29 95.69,426 C174.99,291.34 324.1738,179.9809 384.5938,138.2309 " fill="none" id="Sharing-to-Idle" style="stroke:#000000;stroke-width:1;"/><polygon fill="#000000" points="389.53,134.82,379.8518,136.6455,385.4165,137.6624,384.3997,143.2271,389.53,134.82" style="stroke:#000000;stroke-width:1;"/><text fill="#000000" font-family="Verdana" font-size="13" lengthAdjust="spacing" textLength="94.5864" x="193.69" y="312.0669">task_complete</text></g><!--link Processing to Error--><g id="link_Processing_Error"><path d="M462.83,376.22 C521.06,382.4 621.38,396.54 702.69,426 C739.02,439.16 772.261,458.6774 797.171,474.8874 " fill="none" id="Processing-to-Error" style="stroke:#000000;stroke-width:1;"/><polygon fill="#000000" points="802.2,478.16,796.8383,469.8985,798.0092,475.4329,792.4749,476.6038,802.2,478.16" style="stroke:#000000;stroke-width:1;"/><text fill="#000000" font-family="Verdana" font-size="13" lengthAdjust="spacing" textLength="95.9131" x="739.69" y="439.0669">error_occurred</text></g><!--link Error to Idle--><g id="link_Error_Idle"><path d="M841.95,472.62 C847.32,458.41 850.93,440.5 843.69,426 C756.64,251.69 524.161,156.5565 445.751,128.5765 " fill="none" id="Error-to-Idle" style="stroke:#000000;stroke-width:1;"/><polygon fill="#000000" points="440.1,126.56,447.2321,133.3521,444.8092,128.2404,449.9208,125.8174,440.1,126.56" style="stroke:#000000;stroke-width:1;"/><text fill="#000000" font-family="Verdana" font-size="13" lengthAdjust="spacing" textLength="91.0444" x="759.69" y="312.0669">error_handled</text></g><!--SRC=[PLB1IiGm4BtdAyOz2diGF7aGF2W8ko1snOD82UdOXcsJCidAujSxaswQiZrrthpNbtcJtCGE1uInrzQfSBHkrAG7gAAE-E9ThEmVmjszKb-ttx3TFi9hqwDIGVYfdihDGOSZF8LWMuVD1dIOGLQyaJV8FTScki0i-DGsCeGVJx3RxPFgqcEOLH_o2noyxvCWGK6PhpfDedZ7SEfZIA9BBqkUYJmb8bLAIP2KBiyC3q1eqFvY7JcOcliYAfEpZ2qfrcC9is15N0Amk4M7n2FK4SzHBQYLRJwTC8pU1RosdMEp5izeJc8gMoZ4obFuslXXx36k3FFQE15NwM1PdyhzVFVYmnifFjT6QQKobNnhRyo9Y1_1r5wuJ7od7SFc7m00]--></g></svg>