<svg xmlns="http://www.w3.org/2000/svg" xmlns:xlink="http://www.w3.org/1999/xlink" contentStyleType="text/css" data-diagram-type="DESCRIPTION" height="304px" preserveAspectRatio="none" style="width:640px;height:304px;background:#FFFFFF;" version="1.1" viewBox="0 0 640 304" width="640px" zoomAndPan="magnify"><defs/><g><!--entity dispatcher--><g id="elem_dispatcher"><rect fill="#F1F1F1" height="36.2969" rx="2.5" ry="2.5" style="stroke:#181818;stroke-width:0.5;" width="137.2979" x="273.66" y="7"/><text fill="#000000" font-family="sans-serif" font-size="14" lengthAdjust="spacing" textLength="117.2979" x="283.66" y="29.9951">DispatcherAgent</text></g><!--entity faq--><g id="elem_faq"><rect fill="#F1F1F1" height="36.2969" rx="2.5" ry="2.5" style="stroke:#181818;stroke-width:0.5;" width="90.0889" x="125.27" y="124.8"/><text fill="#000000" font-family="sans-serif" font-size="14" lengthAdjust="spacing" textLength="70.0889" x="135.27" y="147.7951">FAQAgent</text></g><!--entity tech--><g id="elem_tech"><rect fill="#F1F1F1" height="36.2969" rx="2.5" ry="2.5" style="stroke:#181818;stroke-width:0.5;" width="183.4473" x="250.59" y="124.8"/><text fill="#000000" font-family="sans-serif" font-size="14" lengthAdjust="spacing" textLength="163.4473" x="260.59" y="147.7951">TechnicalSupportAgent</text></g><!--entity classifier--><g id="elem_classifier"><path d="M468.84,130.3 C468.84,120.3 546.3141,120.3 546.3141,120.3 C546.3141,120.3 623.7882,120.3 623.7882,130.3 L623.7882,155.5969 C623.7882,165.5969 546.3141,165.5969 546.3141,165.5969 C546.3141,165.5969 468.84,165.5969 468.84,155.5969 L468.84,130.3 " fill="#F1F1F1" style="stroke:#181818;stroke-width:0.5;"/><path d="M468.84,130.3 C468.84,140.3 546.3141,140.3 546.3141,140.3 C546.3141,140.3 623.7882,140.3 623.7882,130.3 " fill="none" style="stroke:#181818;stroke-width:0.5;"/><text fill="#000000" font-family="sans-serif" font-size="14" lengthAdjust="spacing" textLength="134.9482" x="478.84" y="157.2951">IntentClassifierTool</text></g><!--entity faq_db--><g id="elem_faq_db"><path d="M6,252.59 C6,242.59 69.3135,242.59 69.3135,242.59 C69.3135,242.59 132.627,242.59 132.627,252.59 L132.627,277.8869 C132.627,287.8869 69.3135,287.8869 69.3135,287.8869 C69.3135,287.8869 6,287.8869 6,277.8869 L6,252.59 " fill="#F1F1F1" style="stroke:#181818;stroke-width:0.5;"/><path d="M6,252.59 C6,262.59 69.3135,262.59 69.3135,262.59 C69.3135,262.59 132.627,262.59 132.627,252.59 " fill="none" style="stroke:#181818;stroke-width:0.5;"/><text fill="#000000" font-family="sans-serif" font-size="14" lengthAdjust="spacing" textLength="106.627" x="16" y="279.5851">FAQSearchTool</text></g><!--entity troubleshoot--><g id="elem_troubleshoot"><path d="M363.74,252.59 C363.74,242.59 445.3123,242.59 445.3123,242.59 C445.3123,242.59 526.8845,242.59 526.8845,252.59 L526.8845,277.8869 C526.8845,287.8869 445.3123,287.8869 445.3123,287.8869 C445.3123,287.8869 363.74,287.8869 363.74,277.8869 L363.74,252.59 " fill="#F1F1F1" style="stroke:#181818;stroke-width:0.5;"/><path d="M363.74,252.59 C363.74,262.59 445.3123,262.59 445.3123,262.59 C445.3123,262.59 526.8845,262.59 526.8845,252.59 " fill="none" style="stroke:#181818;stroke-width:0.5;"/><text fill="#000000" font-family="sans-serif" font-size="14" lengthAdjust="spacing" textLength="143.1445" x="373.74" y="279.5851">TroubleshootingTool</text></g><!--entity knowledge--><g id="elem_knowledge"><path d="M168,252.59 C168,242.59 248.311,242.59 248.311,242.59 C248.311,242.59 328.6221,242.59 328.6221,252.59 L328.6221,277.8869 C328.6221,287.8869 248.311,287.8869 248.311,287.8869 C248.311,287.8869 168,287.8869 168,277.8869 L168,252.59 " fill="#F1F1F1" style="stroke:#181818;stroke-width:0.5;"/><path d="M168,252.59 C168,262.59 248.311,262.59 248.311,262.59 C248.311,262.59 328.6221,262.59 328.6221,252.59 " fill="none" style="stroke:#181818;stroke-width:0.5;"/><text fill="#000000" font-family="sans-serif" font-size="14" lengthAdjust="spacing" textLength="140.6221" x="178" y="279.5851">KnowledgeBaseTool</text></g><!--link dispatcher to classifier--><g id="link_dispatcher_classifier"><path d="M373.3,43.73 C409.19,64.11 463.1522,94.7377 502.1322,116.8677 " fill="none" id="dispatcher-to-classifier" style="stroke:#181818;stroke-width:1;"/><polygon fill="#181818" points="507.35,119.83,501.4982,111.9081,503.0019,117.3614,497.5485,118.8651,507.35,119.83" style="stroke:#181818;stroke-width:1;"/><text fill="#000000" font-family="sans-serif" font-size="13" lengthAdjust="spacing" textLength="29.7832" x="452.31" y="86.3669">uses</text></g><!--link dispatcher to faq--><g id="link_dispatcher_faq"><path d="M316.19,43.73 C283.77,65.56 233.7878,99.2202 201.3778,121.0302 " fill="none" id="dispatcher-to-faq" style="stroke:#181818;stroke-width:1;"/><polygon fill="#181818" points="196.4,124.38,206.1,122.6739,200.5482,121.5885,201.6336,116.0368,196.4,124.38" style="stroke:#181818;stroke-width:1;"/><text fill="#000000" font-family="sans-serif" font-size="13" lengthAdjust="spacing" textLength="41.4058" x="273.31" y="86.3669">routes</text></g><!--link dispatcher to tech--><g id="link_dispatcher_tech"><path d="M342.31,43.73 C342.31,65.63 342.31,96.78 342.31,118.57 " fill="none" id="dispatcher-to-tech" style="stroke:#181818;stroke-width:1;"/><polygon fill="#181818" points="342.31,124.57,346.31,115.57,342.31,119.57,338.31,115.57,342.31,124.57" style="stroke:#181818;stroke-width:1;"/><text fill="#000000" font-family="sans-serif" font-size="13" lengthAdjust="spacing" textLength="41.4058" x="343.31" y="86.3669">routes</text></g><!--link faq to faq_db--><g id="link_faq_faq_db"><path d="M155.63,161.44 C137.68,182.81 111.169,214.3956 91.649,237.6356 " fill="none" id="faq-to-faq_db" style="stroke:#181818;stroke-width:1;"/><polygon fill="#181818" points="87.79,242.23,96.6414,237.9111,91.0058,238.4013,90.5155,232.7658,87.79,242.23" style="stroke:#181818;stroke-width:1;"/><text fill="#000000" font-family="sans-serif" font-size="13" lengthAdjust="spacing" textLength="29.7832" x="127.31" y="208.6569">uses</text></g><!--link faq to knowledge--><g id="link_faq_knowledge"><path d="M181.66,161.44 C195.51,182.81 215.7056,213.9558 230.7756,237.1958 " fill="none" id="faq-to-knowledge" style="stroke:#181818;stroke-width:1;"/><polygon fill="#181818" points="234.04,242.23,232.4995,232.5024,231.3196,238.0348,225.7872,236.855,234.04,242.23" style="stroke:#181818;stroke-width:1;"/><text fill="#000000" font-family="sans-serif" font-size="13" lengthAdjust="spacing" textLength="29.7832" x="215.31" y="208.6569">uses</text></g><!--link tech to troubleshoot--><g id="link_tech_troubleshoot"><path d="M357.29,161.44 C375.59,182.81 402.6675,214.4325 422.5675,237.6725 " fill="none" id="tech-to-troubleshoot" style="stroke:#181818;stroke-width:1;"/><polygon fill="#181818" points="426.47,242.23,423.6546,232.7921,423.2179,238.4321,417.578,237.9954,426.47,242.23" style="stroke:#181818;stroke-width:1;"/><text fill="#000000" font-family="sans-serif" font-size="13" lengthAdjust="spacing" textLength="29.7832" x="401.31" y="208.6569">uses</text></g><!--link tech to knowledge--><g id="link_tech_knowledge"><path d="M328.65,161.44 C311.94,182.81 287.3643,214.2622 269.2043,237.5022 " fill="none" id="tech-to-knowledge" style="stroke:#181818;stroke-width:1;"/><polygon fill="#181818" points="265.51,242.23,274.2034,237.6012,268.5886,238.2902,267.8997,232.6754,265.51,242.23" style="stroke:#181818;stroke-width:1;"/><text fill="#000000" font-family="sans-serif" font-size="13" lengthAdjust="spacing" textLength="29.7832" x="302.31" y="208.6569">uses</text></g><!--SRC=[POz13i8W44NtFGKNy08kJAh6nBWoxTvCOLg812fCu_MTDW9Dk-I_DyoVW9B03HR5rSGHI6eCzO2E14IXSbI5xDtgPnPw-An8Yr8x8y4sqpZwG5aZ1fK2WWuYYhiZpYyMOZIzmT1wRsTBvgIulAn1258dYJU-L5U4DlYfinYrzsJSa3HQnKL-EF-rg0OyyokfxnHMLRbN70wdLI5n55F4k1Mu31DUHNistrpWRFudk7xwBgMvGWBByFBBweuTt8xz0000]--></g></svg>