<svg xmlns="http://www.w3.org/2000/svg" xmlns:xlink="http://www.w3.org/1999/xlink" contentStyleType="text/css" data-diagram-type="SEQUENCE" height="699px" preserveAspectRatio="none" style="width:880px;height:699px;background:#FFFFFF;" version="1.1" viewBox="0 0 880 699" width="880px" zoomAndPan="magnify"><defs/><g><rect fill="#ADD8E6" height="687.3828" style="stroke:#000000;stroke-width:1;" width="858.4102" x="16" y="6"/><text fill="#000000" font-family="Verdana" font-size="13" font-weight="bold" lengthAdjust="spacing" textLength="145.0439" x="372.6831" y="18.0669">Multi-Agent System</text><rect fill="#FFFFFF" height="553.5234" style="stroke:#000000;stroke-width:1;" width="10" x="95.6279" y="87.5625"/><rect fill="#FFFFFF" height="203.9297" style="stroke:#000000;stroke-width:1;" width="10" x="240.9893" y="116.6953"/><rect fill="#FFFFFF" height="262.1953" style="stroke:#000000;stroke-width:1;" width="10" x="360.4697" y="349.7578"/><rect fill="#FFFFFF" height="29.1328" style="stroke:#000000;stroke-width:1;" width="10" x="517.7188" y="262.3594"/><rect fill="#FFFFFF" height="29.1328" style="stroke:#000000;stroke-width:1;" width="10" x="517.7188" y="378.8906"/><rect fill="#FFFFFF" height="29.1328" style="stroke:#000000;stroke-width:1;" width="10" x="517.7188" y="553.6875"/><rect fill="#FFFFFF" height="29.1328" style="stroke:#000000;stroke-width:1;" width="10" x="692.3823" y="145.8281"/><rect fill="#FFFFFF" height="29.1328" style="stroke:#000000;stroke-width:1;" width="10" x="692.3823" y="437.1563"/><rect fill="#FFFFFF" height="29.1328" style="stroke:#000000;stroke-width:1;" width="10" x="819.9771" y="204.0938"/><rect fill="#FFFFFF" height="29.1328" style="stroke:#000000;stroke-width:1;" width="10" x="819.9771" y="495.4219"/><line style="stroke:#000000;stroke-width:1;" x1="100" x2="100" y1="56.4297" y2="659.0859"/><line style="stroke:#000000;stroke-width:1;" x1="245.2559" x2="245.2559" y1="56.4297" y2="659.0859"/><line style="stroke:#000000;stroke-width:1;" x1="364.7227" x2="364.7227" y1="56.4297" y2="659.0859"/><line style="stroke:#000000;stroke-width:1;" x1="522.2168" x2="522.2168" y1="56.4297" y2="659.0859"/><line style="stroke:#000000;stroke-width:1;" x1="697.2207" x2="697.2207" y1="56.4297" y2="659.0859"/><line style="stroke:#000000;stroke-width:1;" x1="824.5439" x2="824.5439" y1="56.4297" y2="659.0859"/><rect fill="#FFFFFF" height="30.2969" rx="2.5" ry="2.5" style="stroke:#000000;stroke-width:1;" width="121.2559" x="40" y="25.1328"/><text fill="#000000" font-family="Verdana" font-size="14" lengthAdjust="spacing" textLength="107.2559" x="47" y="45.1279">Agent Manager</text><rect fill="#FFFFFF" height="30.2969" rx="2.5" ry="2.5" style="stroke:#000000;stroke-width:1;" width="121.2559" x="40" y="658.0859"/><text fill="#000000" font-family="Verdana" font-size="14" lengthAdjust="spacing" textLength="107.2559" x="47" y="678.0811">Agent Manager</text><rect fill="#FFFFFF" height="30.2969" rx="2.5" ry="2.5" style="stroke:#000000;stroke-width:1;" width="69.4668" x="211.2559" y="25.1328"/><text fill="#000000" font-family="Verdana" font-size="14" lengthAdjust="spacing" textLength="55.4668" x="218.2559" y="45.1279">Agent A</text><rect fill="#FFFFFF" height="30.2969" rx="2.5" ry="2.5" style="stroke:#000000;stroke-width:1;" width="69.4668" x="211.2559" y="658.0859"/><text fill="#000000" font-family="Verdana" font-size="14" lengthAdjust="spacing" textLength="55.4668" x="218.2559" y="678.0811">Agent A</text><rect fill="#FFFFFF" height="30.2969" rx="2.5" ry="2.5" style="stroke:#000000;stroke-width:1;" width="69.4941" x="330.7227" y="25.1328"/><text fill="#000000" font-family="Verdana" font-size="14" lengthAdjust="spacing" textLength="55.4941" x="337.7227" y="45.1279">Agent B</text><rect fill="#FFFFFF" height="30.2969" rx="2.5" ry="2.5" style="stroke:#000000;stroke-width:1;" width="69.4941" x="330.7227" y="658.0859"/><text fill="#000000" font-family="Verdana" font-size="14" lengthAdjust="spacing" textLength="55.4941" x="337.7227" y="678.0811">Agent B</text><rect fill="#FFFFFF" height="30.2969" rx="2.5" ry="2.5" style="stroke:#000000;stroke-width:1;" width="145.0039" x="450.2168" y="25.1328"/><text fill="#000000" font-family="Verdana" font-size="14" lengthAdjust="spacing" textLength="131.0039" x="457.2168" y="45.1279">Shared Knowledge</text><rect fill="#FFFFFF" height="30.2969" rx="2.5" ry="2.5" style="stroke:#000000;stroke-width:1;" width="145.0039" x="450.2168" y="658.0859"/><text fill="#000000" font-family="Verdana" font-size="14" lengthAdjust="spacing" textLength="131.0039" x="457.2168" y="678.0811">Shared Knowledge</text><rect fill="#FFFFFF" height="30.2969" rx="2.5" ry="2.5" style="stroke:#000000;stroke-width:1;" width="104.3232" x="645.2207" y="25.1328"/><text fill="#000000" font-family="Verdana" font-size="14" lengthAdjust="spacing" textLength="90.3232" x="652.2207" y="45.1279">LLM Provider</text><rect fill="#FFFFFF" height="30.2969" rx="2.5" ry="2.5" style="stroke:#000000;stroke-width:1;" width="104.3232" x="645.2207" y="658.0859"/><text fill="#000000" font-family="Verdana" font-size="14" lengthAdjust="spacing" textLength="90.3232" x="652.2207" y="678.0811">LLM Provider</text><rect fill="#FFFFFF" height="30.2969" rx="2.5" ry="2.5" style="stroke:#000000;stroke-width:1;" width="50.8662" x="799.5439" y="25.1328"/><text fill="#000000" font-family="Verdana" font-size="14" lengthAdjust="spacing" textLength="36.8662" x="806.5439" y="45.1279">Tools</text><rect fill="#FFFFFF" height="30.2969" rx="2.5" ry="2.5" style="stroke:#000000;stroke-width:1;" width="50.8662" x="799.5439" y="658.0859"/><text fill="#000000" font-family="Verdana" font-size="14" lengthAdjust="spacing" textLength="36.8662" x="806.5439" y="678.0811">Tools</text><rect fill="#FFFFFF" height="553.5234" style="stroke:#000000;stroke-width:1;" width="10" x="95.6279" y="87.5625"/><rect fill="#FFFFFF" height="203.9297" style="stroke:#000000;stroke-width:1;" width="10" x="240.9893" y="116.6953"/><rect fill="#FFFFFF" height="262.1953" style="stroke:#000000;stroke-width:1;" width="10" x="360.4697" y="349.7578"/><rect fill="#FFFFFF" height="29.1328" style="stroke:#000000;stroke-width:1;" width="10" x="517.7188" y="262.3594"/><rect fill="#FFFFFF" height="29.1328" style="stroke:#000000;stroke-width:1;" width="10" x="517.7188" y="378.8906"/><rect fill="#FFFFFF" height="29.1328" style="stroke:#000000;stroke-width:1;" width="10" x="517.7188" y="553.6875"/><rect fill="#FFFFFF" height="29.1328" style="stroke:#000000;stroke-width:1;" width="10" x="692.3823" y="145.8281"/><rect fill="#FFFFFF" height="29.1328" style="stroke:#000000;stroke-width:1;" width="10" x="692.3823" y="437.1563"/><rect fill="#FFFFFF" height="29.1328" style="stroke:#000000;stroke-width:1;" width="10" x="819.9771" y="204.0938"/><rect fill="#FFFFFF" height="29.1328" style="stroke:#000000;stroke-width:1;" width="10" x="819.9771" y="495.4219"/><polygon fill="#000000" points="83.6279,83.5625,93.6279,87.5625,83.6279,91.5625,87.6279,87.5625" style="stroke:#000000;stroke-width:1;"/><line style="stroke:#000000;stroke-width:1;" x1="5" x2="89.6279" y1="87.5625" y2="87.5625"/><text fill="#000000" font-family="Verdana" font-size="13" lengthAdjust="spacing" textLength="65.0001" x="12" y="82.4966">&#12479;&#12473;&#12463;&#21463;&#20449;</text><polygon fill="#000000" points="228.9893,112.6953,238.9893,116.6953,228.9893,120.6953,232.9893,116.6953" style="stroke:#000000;stroke-width:1;"/><line style="stroke:#000000;stroke-width:1;" x1="105.6279" x2="234.9893" y1="116.6953" y2="116.6953"/><text fill="#000000" font-family="Verdana" font-size="13" lengthAdjust="spacing" textLength="91.0001" x="112.6279" y="111.6294">&#12479;&#12473;&#12463;&#21106;&#12426;&#24403;&#12390;</text><polygon fill="#000000" points="680.3823,141.8281,690.3823,145.8281,680.3823,149.8281,684.3823,145.8281" style="stroke:#000000;stroke-width:1;"/><line style="stroke:#000000;stroke-width:1;" x1="250.9893" x2="686.3823" y1="145.8281" y2="145.8281"/><text fill="#000000" font-family="Verdana" font-size="13" lengthAdjust="spacing" textLength="91.0001" x="257.9893" y="140.7622">&#12503;&#12525;&#12531;&#12503;&#12488;&#36865;&#20449;</text><polygon fill="#000000" points="261.9893,170.9609,251.9893,174.9609,261.9893,178.9609,257.9893,174.9609" style="stroke:#000000;stroke-width:1;"/><line style="stroke:#000000;stroke-width:1;stroke-dasharray:2.0,2.0;" x1="255.9893" x2="696.3823" y1="174.9609" y2="174.9609"/><text fill="#000000" font-family="Verdana" font-size="13" lengthAdjust="spacing" textLength="26" x="267.9893" y="169.895">&#24540;&#31572;</text><polygon fill="#000000" points="807.9771,200.0938,817.9771,204.0938,807.9771,208.0938,811.9771,204.0938" style="stroke:#000000;stroke-width:1;"/><line style="stroke:#000000;stroke-width:1;" x1="250.9893" x2="813.9771" y1="204.0938" y2="204.0938"/><text fill="#000000" font-family="Verdana" font-size="13" lengthAdjust="spacing" textLength="65.0001" x="257.9893" y="199.0278">&#12484;&#12540;&#12523;&#23455;&#34892;</text><polygon fill="#000000" points="261.9893,229.2266,251.9893,233.2266,261.9893,237.2266,257.9893,233.2266" style="stroke:#000000;stroke-width:1;"/><line style="stroke:#000000;stroke-width:1;stroke-dasharray:2.0,2.0;" x1="255.9893" x2="823.9771" y1="233.2266" y2="233.2266"/><text fill="#000000" font-family="Verdana" font-size="13" lengthAdjust="spacing" textLength="26" x="267.9893" y="228.1606">&#32080;&#26524;</text><polygon fill="#000000" points="505.7188,258.3594,515.7188,262.3594,505.7188,266.3594,509.7188,262.3594" style="stroke:#000000;stroke-width:1;"/><line style="stroke:#000000;stroke-width:1;" x1="250.9893" x2="511.7188" y1="262.3594" y2="262.3594"/><text fill="#000000" font-family="Verdana" font-size="13" lengthAdjust="spacing" textLength="52.0001" x="257.9893" y="257.2935">&#32080;&#26524;&#20849;&#26377;</text><polygon fill="#000000" points="261.9893,287.4922,251.9893,291.4922,261.9893,295.4922,257.9893,291.4922" style="stroke:#000000;stroke-width:1;"/><line style="stroke:#000000;stroke-width:1;stroke-dasharray:2.0,2.0;" x1="255.9893" x2="521.7188" y1="291.4922" y2="291.4922"/><text fill="#000000" font-family="Verdana" font-size="13" lengthAdjust="spacing" textLength="26" x="267.9893" y="286.4263">&#30906;&#35469;</text><polygon fill="#000000" points="116.6279,316.625,106.6279,320.625,116.6279,324.625,112.6279,320.625" style="stroke:#000000;stroke-width:1;"/><line style="stroke:#000000;stroke-width:1;stroke-dasharray:2.0,2.0;" x1="110.6279" x2="244.9893" y1="320.625" y2="320.625"/><text fill="#000000" font-family="Verdana" font-size="13" lengthAdjust="spacing" textLength="52.0001" x="122.6279" y="315.5591">&#23436;&#20102;&#36890;&#30693;</text><polygon fill="#000000" points="348.4697,345.7578,358.4697,349.7578,348.4697,353.7578,352.4697,349.7578" style="stroke:#000000;stroke-width:1;"/><line style="stroke:#000000;stroke-width:1;" x1="105.6279" x2="354.4697" y1="349.7578" y2="349.7578"/><text fill="#000000" font-family="Verdana" font-size="13" lengthAdjust="spacing" textLength="117.0001" x="112.6279" y="344.6919">&#27425;&#12398;&#12479;&#12473;&#12463;&#21106;&#12426;&#24403;&#12390;</text><polygon fill="#000000" points="505.7188,374.8906,515.7188,378.8906,505.7188,382.8906,509.7188,378.8906" style="stroke:#000000;stroke-width:1;"/><line style="stroke:#000000;stroke-width:1;" x1="370.4697" x2="511.7188" y1="378.8906" y2="378.8906"/><text fill="#000000" font-family="Verdana" font-size="13" lengthAdjust="spacing" textLength="78.0001" x="377.4697" y="373.8247">&#20849;&#26377;&#30693;&#35672;&#21462;&#24471;</text><polygon fill="#000000" points="381.4697,404.0234,371.4697,408.0234,381.4697,412.0234,377.4697,408.0234" style="stroke:#000000;stroke-width:1;"/><line style="stroke:#000000;stroke-width:1;stroke-dasharray:2.0,2.0;" x1="375.4697" x2="521.7188" y1="408.0234" y2="408.0234"/><text fill="#000000" font-family="Verdana" font-size="13" lengthAdjust="spacing" textLength="39" x="387.4697" y="402.9575">&#12487;&#12540;&#12479;</text><polygon fill="#000000" points="680.3823,433.1563,690.3823,437.1563,680.3823,441.1563,684.3823,437.1563" style="stroke:#000000;stroke-width:1;"/><line style="stroke:#000000;stroke-width:1;" x1="370.4697" x2="686.3823" y1="437.1563" y2="437.1563"/><text fill="#000000" font-family="Verdana" font-size="13" lengthAdjust="spacing" textLength="91.0001" x="377.4697" y="432.0903">&#12503;&#12525;&#12531;&#12503;&#12488;&#36865;&#20449;</text><polygon fill="#000000" points="381.4697,462.2891,371.4697,466.2891,381.4697,470.2891,377.4697,466.2891" style="stroke:#000000;stroke-width:1;"/><line style="stroke:#000000;stroke-width:1;stroke-dasharray:2.0,2.0;" x1="375.4697" x2="696.3823" y1="466.2891" y2="466.2891"/><text fill="#000000" font-family="Verdana" font-size="13" lengthAdjust="spacing" textLength="26" x="387.4697" y="461.2231">&#24540;&#31572;</text><polygon fill="#000000" points="807.9771,491.4219,817.9771,495.4219,807.9771,499.4219,811.9771,495.4219" style="stroke:#000000;stroke-width:1;"/><line style="stroke:#000000;stroke-width:1;" x1="370.4697" x2="813.9771" y1="495.4219" y2="495.4219"/><text fill="#000000" font-family="Verdana" font-size="13" lengthAdjust="spacing" textLength="65.0001" x="377.4697" y="490.356">&#12484;&#12540;&#12523;&#23455;&#34892;</text><polygon fill="#000000" points="381.4697,520.5547,371.4697,524.5547,381.4697,528.5547,377.4697,524.5547" style="stroke:#000000;stroke-width:1;"/><line style="stroke:#000000;stroke-width:1;stroke-dasharray:2.0,2.0;" x1="375.4697" x2="823.9771" y1="524.5547" y2="524.5547"/><text fill="#000000" font-family="Verdana" font-size="13" lengthAdjust="spacing" textLength="26" x="387.4697" y="519.4888">&#32080;&#26524;</text><polygon fill="#000000" points="505.7188,549.6875,515.7188,553.6875,505.7188,557.6875,509.7188,553.6875" style="stroke:#000000;stroke-width:1;"/><line style="stroke:#000000;stroke-width:1;" x1="370.4697" x2="511.7188" y1="553.6875" y2="553.6875"/><text fill="#000000" font-family="Verdana" font-size="13" lengthAdjust="spacing" textLength="52.0001" x="377.4697" y="548.6216">&#32080;&#26524;&#20849;&#26377;</text><polygon fill="#000000" points="381.4697,578.8203,371.4697,582.8203,381.4697,586.8203,377.4697,582.8203" style="stroke:#000000;stroke-width:1;"/><line style="stroke:#000000;stroke-width:1;stroke-dasharray:2.0,2.0;" x1="375.4697" x2="521.7188" y1="582.8203" y2="582.8203"/><text fill="#000000" font-family="Verdana" font-size="13" lengthAdjust="spacing" textLength="26" x="387.4697" y="577.7544">&#30906;&#35469;</text><polygon fill="#000000" points="116.6279,607.9531,106.6279,611.9531,116.6279,615.9531,112.6279,611.9531" style="stroke:#000000;stroke-width:1;"/><line style="stroke:#000000;stroke-width:1;stroke-dasharray:2.0,2.0;" x1="110.6279" x2="364.4697" y1="611.9531" y2="611.9531"/><text fill="#000000" font-family="Verdana" font-size="13" lengthAdjust="spacing" textLength="52.0001" x="122.6279" y="606.8872">&#23436;&#20102;&#36890;&#30693;</text><polygon fill="#000000" points="16,637.0859,6,641.0859,16,645.0859,12,641.0859" style="stroke:#000000;stroke-width:1;"/><line style="stroke:#000000;stroke-width:1;stroke-dasharray:2.0,2.0;" x1="10" x2="99.6279" y1="641.0859" y2="641.0859"/><text fill="#000000" font-family="Verdana" font-size="13" lengthAdjust="spacing" textLength="52.0001" x="22" y="636.02">&#26368;&#32066;&#32080;&#26524;</text><!--SRC=[dP31IkD008RlynIpzHnGZoB2pBKD598N6CsG3fic9Hsrtjf4tLKK5tQniXIbWXxKLbGyMDG-p9YsleMJjB49jYZUXla_lldd_y4Bj4XXoIBC1kMVp2uHbnHXdhYShR0IiNcU60QpJJW_cyYnKudlvsO1M7OgCAEkMfmfoAGsXzf6cTDY1ixac5dWs5gbe3HMmioGKebDJEfc82b3f4uYq313ap8yp70wqmh4fGRCsiwwHGsJHf2MJKEvd0hphhF6ZD7hyY9Dw8vZbQD81zGseFmX0CgIhBa0XTSLteFmheE3-akt2SWAPsk4q_0F0Aamn50IsxaLtcxmz5VKpXCm0WY5h7nRmdvT-2tXtqM7tw_LMieSzWjBAoDtq6tqM_-0GLF4IAY7katXFmh_CcYV39fxOv4Ez7T9__vFxxYHbEYnGil6SR1rqsliZ0LoIYqxLfns1XVxIONC8yTegw2zzzBPVgt-xv-S9J7v-tWgl01xLqrHQtys60O8n-M6jQHqq3eA3Ww3v_h4YZYSubSuXTVzq19_QtqyVNtyvVNnjFNnbzV7KzV7dw-F0LXKb8ZfDQhzU-zZ6wI-0G00]--></g></svg>