<svg xmlns="http://www.w3.org/2000/svg" xmlns:xlink="http://www.w3.org/1999/xlink" contentStyleType="text/css" data-diagram-type="DESCRIPTION" height="336px" preserveAspectRatio="none" style="width:794px;height:336px;background:#FFFFFF;" version="1.1" viewBox="0 0 794 336" width="794px" zoomAndPan="magnify"><defs/><g><!--cluster Multi-Agent System--><g id="cluster_Multi-Agent System"><path d="M13.5,11 L170.7012,11 A3.75,3.75 0 0 1 173.2012,13.5 L180.2012,33.2969 L784.5,33.2969 A2.5,2.5 0 0 1 787,35.7969 L787,327.39 A2.5,2.5 0 0 1 784.5,329.89 L13.5,329.89 A2.5,2.5 0 0 1 11,327.39 L11,13.5 A2.5,2.5 0 0 1 13.5,11 " fill="#FFFFFF" style="stroke:#000000;stroke-width:1;"/><line style="stroke:#000000;stroke-width:1;" x1="11" x2="180.2012" y1="33.2969" y2="33.2969"/><text fill="#000000" font-family="Verdana" font-size="14" font-weight="bold" lengthAdjust="spacing" textLength="156.2012" x="15" y="25.9951">Multi-Agent System</text></g><!--cluster Agents--><g id="cluster_Agents"><path d="M181.5,107.3 L237.8438,107.3 A3.75,3.75 0 0 1 240.3438,109.8 L247.3438,129.5969 L505.5,129.5969 A2.5,2.5 0 0 1 508,132.0969 L508,192.09 A2.5,2.5 0 0 1 505.5,194.59 L181.5,194.59 A2.5,2.5 0 0 1 179,192.09 L179,109.8 A2.5,2.5 0 0 1 181.5,107.3 " fill="#FFFFFF" style="stroke:#000000;stroke-width:1;"/><line style="stroke:#000000;stroke-width:1;" x1="179" x2="247.3438" y1="129.5969" y2="129.5969"/><text fill="#000000" font-family="Verdana" font-size="14" font-weight="bold" lengthAdjust="spacing" textLength="55.3438" x="183" y="122.2951">Agents</text></g><!--cluster Tools--><g id="cluster_Tools"><path d="M200.5,218.59 L243.418,218.59 A3.75,3.75 0 0 1 245.918,221.09 L252.918,240.8869 L485.5,240.8869 A2.5,2.5 0 0 1 488,243.3869 L488,303.39 A2.5,2.5 0 0 1 485.5,305.89 L200.5,305.89 A2.5,2.5 0 0 1 198,303.39 L198,221.09 A2.5,2.5 0 0 1 200.5,218.59 " fill="#FFFFFF" style="stroke:#000000;stroke-width:1;"/><line style="stroke:#000000;stroke-width:1;" x1="198" x2="252.918" y1="240.8869" y2="240.8869"/><text fill="#000000" font-family="Verdana" font-size="14" font-weight="bold" lengthAdjust="spacing" textLength="41.918" x="202" y="233.5851">Tools</text></g><!--cluster LLM Providers--><g id="cluster_LLM Providers"><path d="M514.5,218.59 L627.6094,218.59 A3.75,3.75 0 0 1 630.1094,221.09 L637.1094,240.8869 L760.5,240.8869 A2.5,2.5 0 0 1 763,243.3869 L763,303.39 A2.5,2.5 0 0 1 760.5,305.89 L514.5,305.89 A2.5,2.5 0 0 1 512,303.39 L512,221.09 A2.5,2.5 0 0 1 514.5,218.59 " fill="#FFFFFF" style="stroke:#000000;stroke-width:1;"/><line style="stroke:#000000;stroke-width:1;" x1="512" x2="637.1094" y1="240.8869" y2="240.8869"/><text fill="#000000" font-family="Verdana" font-size="14" font-weight="bold" lengthAdjust="spacing" textLength="112.1094" x="516" y="233.5851">LLM Providers</text></g><!--entity AM--><g id="elem_AM"><rect fill="#FFFFFF" height="36.2969" rx="2.5" ry="2.5" style="stroke:#000000;stroke-width:1;" width="127.2559" x="279.37" y="46"/><text fill="#000000" font-family="Verdana" font-size="14" lengthAdjust="spacing" textLength="107.2559" x="289.37" y="68.9951">Agent Manager</text></g><!--entity SK--><g id="elem_SK"><rect fill="#FFFFFF" height="36.2969" rx="2.5" ry="2.5" style="stroke:#000000;stroke-width:1;" width="151.0039" x="27.5" y="253.59"/><text fill="#000000" font-family="Verdana" font-size="14" lengthAdjust="spacing" textLength="131.0039" x="37.5" y="276.5851">Shared Knowledge</text></g><!--entity AA--><g id="elem_AA"><rect fill="#FFFFFF" height="36.2969" rx="2.5" ry="2.5" style="stroke:#000000;stroke-width:1;" width="75.4668" x="195.27" y="142.3"/><text fill="#000000" font-family="Verdana" font-size="14" lengthAdjust="spacing" textLength="55.4668" x="205.27" y="165.2951">Agent A</text></g><!--entity AB--><g id="elem_AB"><rect fill="#FFFFFF" height="36.2969" rx="2.5" ry="2.5" style="stroke:#000000;stroke-width:1;" width="75.4941" x="305.25" y="142.3"/><text fill="#000000" font-family="Verdana" font-size="14" lengthAdjust="spacing" textLength="55.4941" x="315.25" y="165.2951">Agent B</text></g><!--entity AC--><g id="elem_AC"><rect fill="#FFFFFF" height="36.2969" rx="2.5" ry="2.5" style="stroke:#000000;stroke-width:1;" width="75.665" x="416.17" y="142.3"/><text fill="#000000" font-family="Verdana" font-size="14" lengthAdjust="spacing" textLength="55.665" x="426.17" y="165.2951">Agent C</text></g><!--entity T1--><g id="elem_T1"><rect fill="#FFFFFF" height="36.2969" rx="2.5" ry="2.5" style="stroke:#000000;stroke-width:1;" width="62.9297" x="213.54" y="253.59"/><text fill="#000000" font-family="Verdana" font-size="14" lengthAdjust="spacing" textLength="42.9297" x="223.54" y="276.5851">Tool 1</text></g><!--entity T2--><g id="elem_T2"><rect fill="#FFFFFF" height="36.2969" rx="2.5" ry="2.5" style="stroke:#000000;stroke-width:1;" width="62.9297" x="311.54" y="253.59"/><text fill="#000000" font-family="Verdana" font-size="14" lengthAdjust="spacing" textLength="42.9297" x="321.54" y="276.5851">Tool 2</text></g><!--entity T3--><g id="elem_T3"><rect fill="#FFFFFF" height="36.2969" rx="2.5" ry="2.5" style="stroke:#000000;stroke-width:1;" width="62.9297" x="409.54" y="253.59"/><text fill="#000000" font-family="Verdana" font-size="14" lengthAdjust="spacing" textLength="42.9297" x="419.54" y="276.5851">Tool 3</text></g><!--entity P1--><g id="elem_P1"><rect fill="#FFFFFF" height="36.2969" rx="2.5" ry="2.5" style="stroke:#000000;stroke-width:1;" width="91.5518" x="528.22" y="253.59"/><text fill="#000000" font-family="Verdana" font-size="14" lengthAdjust="spacing" textLength="71.5518" x="538.22" y="276.5851">Provider 1</text></g><!--entity P2--><g id="elem_P2"><rect fill="#FFFFFF" height="36.2969" rx="2.5" ry="2.5" style="stroke:#000000;stroke-width:1;" width="91.5518" x="655.22" y="253.59"/><text fill="#000000" font-family="Verdana" font-size="14" lengthAdjust="spacing" textLength="71.5518" x="665.22" y="276.5851">Provider 2</text></g><!--link AM to AA--><g id="link_AM_AA"><path d="M311.43,82.69 C303.48,87.65 295.18,93.34 288,99.3 C272.54,112.13 261.135,124.6073 250.635,137.2973 " fill="none" id="AM-to-AA" style="stroke:#000000;stroke-width:1;"/><polygon fill="#000000" points="246.81,141.92,255.6293,137.5359,249.9975,138.0677,249.4656,132.4359,246.81,141.92" style="stroke:#000000;stroke-width:1;"/></g><!--link AM to AB--><g id="link_AM_AB"><path d="M343,82.44 C343,99.35 343,118.96 343,135.94 " fill="none" id="AM-to-AB" style="stroke:#000000;stroke-width:1;"/><polygon fill="#000000" points="343,141.94,347,132.94,343,136.94,339,132.94,343,141.94" style="stroke:#000000;stroke-width:1;"/></g><!--link AM to AC--><g id="link_AM_AC"><path d="M374.53,82.74 C382.48,87.7 390.8,93.37 398,99.3 C413.65,112.17 425.2966,124.6878 436.0066,137.3578 " fill="none" id="AM-to-AC" style="stroke:#000000;stroke-width:1;"/><polygon fill="#000000" points="439.88,141.94,437.1248,132.4844,436.6522,138.1215,431.0151,137.6489,439.88,141.94" style="stroke:#000000;stroke-width:1;"/></g><!--link AA to SK--><g id="link_AA_SK"><path d="M212.11,179.01 C187.85,199.4 152.6634,228.9899 128.4234,249.3599 " fill="none" id="AA-to-SK" style="stroke:#000000;stroke-width:1;"/><polygon fill="#000000" points="123.83,253.22,133.2936,250.4922,127.6579,250.0033,128.1468,244.3676,123.83,253.22" style="stroke:#000000;stroke-width:1;"/></g><!--link AB to SK--><g id="link_AB_SK"><path d="M325.23,178.77 C315.15,187.49 301.81,197.31 288,202.59 C250.49,216.95 236.04,197.71 198,210.59 C170.27,219.99 147.1663,235.3495 128.8563,249.5095 " fill="none" id="AB-to-SK" style="stroke:#000000;stroke-width:1;"/><polygon fill="#000000" points="124.11,253.18,133.6764,250.8384,128.0652,250.1212,128.7824,244.51,124.11,253.18" style="stroke:#000000;stroke-width:1;"/></g><!--link AC to SK--><g id="link_AC_SK"><path d="M435.95,179.04 C425.7,187.84 412.12,197.65 398,202.59 C356.02,217.29 240.46,197.35 198,210.59 C169.86,219.37 146.5696,235.0025 128.3396,249.3925 " fill="none" id="AC-to-SK" style="stroke:#000000;stroke-width:1;"/><polygon fill="#000000" points="123.63,253.11,133.1727,250.6734,127.5546,250.0121,128.216,244.394,123.63,253.11" style="stroke:#000000;stroke-width:1;"/></g><!--link AA to T1--><g id="link_AA_T1"><path d="M234.93,179.01 C237.17,199.4 240.1842,226.886 242.4242,247.256 " fill="none" id="AA-to-T1" style="stroke:#000000;stroke-width:1;"/><polygon fill="#000000" points="243.08,253.22,246.0723,243.8367,242.5335,248.25,238.1202,244.7112,243.08,253.22" style="stroke:#000000;stroke-width:1;"/></g><!--link AB to T2--><g id="link_AB_T2"><path d="M343,179.01 C343,199.4 343,226.85 343,247.22 " fill="none" id="AB-to-T2" style="stroke:#000000;stroke-width:1;"/><polygon fill="#000000" points="343,253.22,347,244.22,343,248.22,339,244.22,343,253.22" style="stroke:#000000;stroke-width:1;"/></g><!--link AC to T3--><g id="link_AC_T3"><path d="M451.91,179.01 C449.49,199.4 446.2207,226.8922 443.7907,247.2622 " fill="none" id="AC-to-T3" style="stroke:#000000;stroke-width:1;"/><polygon fill="#000000" points="443.08,253.22,448.1179,244.7572,443.6723,248.2552,440.1742,243.8096,443.08,253.22" style="stroke:#000000;stroke-width:1;"/></g><!--link AA to P1--><g id="link_AA_P1"><path d="M250.67,179.04 C260.73,187.84 274.06,197.65 288,202.59 C329.92,217.47 445.85,196.38 488,210.59 C514.07,219.38 534.8108,234.7605 551.1208,249.1505 " fill="none" id="AA-to-P1" style="stroke:#000000;stroke-width:1;"/><polygon fill="#000000" points="555.62,253.12,551.5176,244.1662,551.8707,249.812,546.2249,250.1651,555.62,253.12" style="stroke:#000000;stroke-width:1;"/></g><!--link AB to P1--><g id="link_AB_P1"><path d="M361.15,178.76 C371.43,187.48 385.01,197.3 399,202.59 C436.15,216.65 450.69,196.98 488,210.59 C513.67,219.96 534.2497,235.0775 550.6397,249.2375 " fill="none" id="AB-to-P1" style="stroke:#000000;stroke-width:1;"/><polygon fill="#000000" points="555.18,253.16,550.9846,244.2494,551.3965,249.8912,545.7546,250.3031,555.18,253.16" style="stroke:#000000;stroke-width:1;"/></g><!--link AC to P2--><g id="link_AC_P2"><path d="M492.14,166.13 C530.66,172.1 590.88,184.89 637,210.59 C656.58,221.5 670.8099,235.2213 682.7499,248.7513 " fill="none" id="AC-to-P2" style="stroke:#000000;stroke-width:1;"/><polygon fill="#000000" points="686.72,253.25,683.7641,243.8552,683.4116,249.5011,677.7658,249.1486,686.72,253.25" style="stroke:#000000;stroke-width:1;"/></g><!--SRC=[RP2zQiCm54PtFSLjTWzszeBiCH48dArq4FR5CP4b8wijeUJTUorPYWa53v_FTtNqy-QlE27CMes6BRVHpCgf2JexpTQWyQs_QmI7dLTcqCZOhBgR6X0EualxiU033K5xNpnE1_Xb01yH2MLep7s2Me2BbRTNvR27ax4_6li1GzMUgA8lQyFg9QgoZ4SDtxCwidhFciWQOeyNxyLQ_TIkVr26wKkvGrL4rGuT8ph-upoV1KXdlySUtTEToEQNvGkEUyWg21-CSG55yRxUBgKwfuPg7Y8z5AzpQb9ADTrYg-dmMqrdJhNCzPfYBQi_]--></g></svg>