<svg xmlns="http://www.w3.org/2000/svg" xmlns:xlink="http://www.w3.org/1999/xlink" contentStyleType="text/css" data-diagram-type="SEQUENCE" height="679px" preserveAspectRatio="none" style="width:882px;height:679px;background:#FFFFFF;" version="1.1" viewBox="0 0 882 679" width="882px" zoomAndPan="magnify"><defs/><g><rect fill="#FFFFFF" height="34.1328" style="stroke:#181818;stroke-width:1;" width="10" x="69.5146" y="106.4297"/><rect fill="#FFFFFF" height="435.7266" style="stroke:#181818;stroke-width:1;" width="10" x="217.187" y="140.5625"/><rect fill="#FFFFFF" height="342.3281" style="stroke:#181818;stroke-width:1;" width="10" x="407.1045" y="169.6953"/><rect fill="#FFFFFF" height="155.5313" style="stroke:#181818;stroke-width:1;" width="10" x="666.8781" y="198.8281"/><line style="stroke:#181818;stroke-width:0.5;stroke-dasharray:5.0,5.0;" x1="74" x2="74" y1="67.2969" y2="601.2891"/><line style="stroke:#181818;stroke-width:0.5;stroke-dasharray:5.0,5.0;" x1="222.0293" x2="222.0293" y1="67.2969" y2="601.2891"/><line style="stroke:#181818;stroke-width:0.5;stroke-dasharray:5.0,5.0;" x1="411.9468" x2="411.9468" y1="67.2969" y2="601.2891"/><line style="stroke:#181818;stroke-width:0.5;stroke-dasharray:5.0,5.0;" x1="671.7853" x2="671.7853" y1="67.2969" y2="601.2891"/><line style="stroke:#181818;stroke-width:0.5;stroke-dasharray:5.0,5.0;" x1="844.9866" x2="844.9866" y1="67.2969" y2="601.2891"/><rect fill="#E2E2F0" height="30.2969" rx="2.5" ry="2.5" style="stroke:#181818;stroke-width:0.5;" width="139.0293" x="5" y="36"/><text fill="#000000" font-family="sans-serif" font-size="14" lengthAdjust="spacing" textLength="125.0293" x="12" y="55.9951">Webhook Handler</text><rect fill="#E2E2F0" height="30.2969" rx="2.5" ry="2.5" style="stroke:#181818;stroke-width:0.5;" width="139.0293" x="5" y="600.2891"/><text fill="#000000" font-family="sans-serif" font-size="14" lengthAdjust="spacing" textLength="125.0293" x="12" y="620.2842">Webhook Handler</text><rect fill="#E2E2F0" height="46.5938" rx="2.5" ry="2.5" style="stroke:#181818;stroke-width:0.5;" width="136.3154" x="154.0293" y="19.7031"/><text fill="#000000" font-family="sans-serif" font-size="14" lengthAdjust="spacing" textLength="68.9814" x="187.6963" y="39.6982">order-app</text><text fill="#000000" font-family="sans-serif" font-size="14" lengthAdjust="spacing" textLength="122.3154" x="161.0293" y="55.9951">subscribeHandler</text><rect fill="#E2E2F0" height="46.5938" rx="2.5" ry="2.5" style="stroke:#181818;stroke-width:0.5;" width="136.3154" x="154.0293" y="600.2891"/><text fill="#000000" font-family="sans-serif" font-size="14" lengthAdjust="spacing" textLength="68.9814" x="187.6963" y="620.2842">order-app</text><text fill="#000000" font-family="sans-serif" font-size="14" lengthAdjust="spacing" textLength="122.3154" x="161.0293" y="636.5811">subscribeHandler</text><rect fill="#E2E2F0" height="46.5938" rx="2.5" ry="2.5" style="stroke:#181818;stroke-width:0.5;" width="136.3154" x="343.9468" y="19.7031"/><text fill="#000000" font-family="sans-serif" font-size="14" lengthAdjust="spacing" textLength="58.4951" x="382.857" y="39.6982">crm-app</text><text fill="#000000" font-family="sans-serif" font-size="14" lengthAdjust="spacing" textLength="122.3154" x="350.9468" y="55.9951">subscribeHandler</text><rect fill="#E2E2F0" height="46.5938" rx="2.5" ry="2.5" style="stroke:#181818;stroke-width:0.5;" width="136.3154" x="343.9468" y="600.2891"/><text fill="#000000" font-family="sans-serif" font-size="14" lengthAdjust="spacing" textLength="58.4951" x="382.857" y="620.2842">crm-app</text><text fill="#000000" font-family="sans-serif" font-size="14" lengthAdjust="spacing" textLength="122.3154" x="350.9468" y="636.5811">subscribeHandler</text><rect fill="#E2E2F0" height="30.2969" rx="2.5" ry="2.5" style="stroke:#181818;stroke-width:0.5;" width="136.1855" x="603.7853" y="36"/><text fill="#000000" font-family="sans-serif" font-size="14" lengthAdjust="spacing" textLength="122.1855" x="610.7853" y="55.9951">crm-provider-app</text><rect fill="#E2E2F0" height="30.2969" rx="2.5" ry="2.5" style="stroke:#181818;stroke-width:0.5;" width="136.1855" x="603.7853" y="600.2891"/><text fill="#000000" font-family="sans-serif" font-size="14" lengthAdjust="spacing" textLength="122.1855" x="610.7853" y="620.2842">crm-provider-app</text><text fill="#000000" font-family="sans-serif" font-size="14" lengthAdjust="spacing" textLength="66.8008" x="808.9866" y="63.9951">Database</text><path d="M827.3869,15 C827.3869,5 845.3869,5 845.3869,5 C845.3869,5 863.3869,5 863.3869,15 L863.3869,41 C863.3869,51 845.3869,51 845.3869,51 C845.3869,51 827.3869,51 827.3869,41 L827.3869,15 " fill="#E2E2F0" style="stroke:#181818;stroke-width:1.5;"/><path d="M827.3869,15 C827.3869,25 845.3869,25 845.3869,25 C845.3869,25 863.3869,25 863.3869,15 " fill="none" style="stroke:#181818;stroke-width:1.5;"/><text fill="#000000" font-family="sans-serif" font-size="14" lengthAdjust="spacing" textLength="66.8008" x="808.9866" y="613.2842">Database</text><path d="M827.3869,626.5859 C827.3869,616.5859 845.3869,616.5859 845.3869,616.5859 C845.3869,616.5859 863.3869,616.5859 863.3869,626.5859 L863.3869,652.5859 C863.3869,662.5859 845.3869,662.5859 845.3869,662.5859 C845.3869,662.5859 827.3869,662.5859 827.3869,652.5859 L827.3869,626.5859 " fill="#E2E2F0" style="stroke:#181818;stroke-width:1.5;"/><path d="M827.3869,626.5859 C827.3869,636.5859 845.3869,636.5859 845.3869,636.5859 C845.3869,636.5859 863.3869,636.5859 863.3869,626.5859 " fill="none" style="stroke:#181818;stroke-width:1.5;"/><rect fill="#FFFFFF" height="34.1328" style="stroke:#181818;stroke-width:1;" width="10" x="69.5146" y="106.4297"/><rect fill="#FFFFFF" height="435.7266" style="stroke:#181818;stroke-width:1;" width="10" x="217.187" y="140.5625"/><rect fill="#FFFFFF" height="342.3281" style="stroke:#181818;stroke-width:1;" width="10" x="407.1045" y="169.6953"/><rect fill="#FFFFFF" height="155.5313" style="stroke:#181818;stroke-width:1;" width="10" x="666.8781" y="198.8281"/><line style="stroke:#181818;stroke-width:1;" x1="74.5146" x2="121.5146" y1="93.4297" y2="93.4297"/><line style="stroke:#181818;stroke-width:1;" x1="121.5146" x2="121.5146" y1="93.4297" y2="106.4297"/><line style="stroke:#181818;stroke-width:1;" x1="80.5146" x2="121.5146" y1="106.4297" y2="106.4297"/><polygon fill="#181818" points="90.5146,102.4297,80.5146,106.4297,90.5146,110.4297,86.5146,106.4297" style="stroke:#181818;stroke-width:1;"/><text fill="#000000" font-family="sans-serif" font-size="13" lengthAdjust="spacing" textLength="86.7788" x="86.5146" y="88.3638">Webhook&#21463;&#20449;</text><polygon fill="#181818" points="205.187,136.5625,215.187,140.5625,205.187,144.5625,209.187,140.5625" style="stroke:#181818;stroke-width:1;"/><line style="stroke:#181818;stroke-width:1;" x1="74.5146" x2="211.187" y1="140.5625" y2="140.5625"/><text fill="#000000" font-family="sans-serif" font-size="13" lengthAdjust="spacing" textLength="78.0001" x="81.5146" y="135.4966">&#12452;&#12505;&#12531;&#12488;&#36578;&#36865;</text><polygon fill="#181818" points="395.1045,165.6953,405.1045,169.6953,395.1045,173.6953,399.1045,169.6953" style="stroke:#181818;stroke-width:1;"/><line style="stroke:#181818;stroke-width:1;" x1="227.187" x2="401.1045" y1="169.6953" y2="169.6953"/><text fill="#000000" font-family="sans-serif" font-size="13" lengthAdjust="spacing" textLength="78.0001" x="234.187" y="164.6294">&#12452;&#12505;&#12531;&#12488;&#36578;&#36865;</text><polygon fill="#181818" points="654.8781,194.8281,664.8781,198.8281,654.8781,202.8281,658.8781,198.8281" style="stroke:#181818;stroke-width:1;"/><line style="stroke:#181818;stroke-width:1;" x1="417.1045" x2="660.8781" y1="198.8281" y2="198.8281"/><text fill="#000000" font-family="sans-serif" font-size="13" lengthAdjust="spacing" textLength="84.043" x="424.1045" y="193.7622">JSON&#35299;&#26512;&#35201;&#27714;</text><line style="stroke:#181818;stroke-width:1;" x1="676.8781" x2="718.8781" y1="227.9609" y2="227.9609"/><line style="stroke:#181818;stroke-width:1;" x1="718.8781" x2="718.8781" y1="227.9609" y2="240.9609"/><line style="stroke:#181818;stroke-width:1;" x1="677.8781" x2="718.8781" y1="240.9609" y2="240.9609"/><polygon fill="#181818" points="687.8781,236.9609,677.8781,240.9609,687.8781,244.9609,683.8781,240.9609" style="stroke:#181818;stroke-width:1;"/><text fill="#000000" font-family="sans-serif" font-size="13" lengthAdjust="spacing" textLength="71.043" x="683.8781" y="222.895">JSON&#12434;&#35299;&#26512;</text><line style="stroke:#181818;stroke-width:1;" x1="676.8781" x2="718.8781" y1="270.0938" y2="270.0938"/><line style="stroke:#181818;stroke-width:1;" x1="718.8781" x2="718.8781" y1="270.0938" y2="283.0938"/><line style="stroke:#181818;stroke-width:1;" x1="677.8781" x2="718.8781" y1="283.0938" y2="283.0938"/><polygon fill="#181818" points="687.8781,279.0938,677.8781,283.0938,687.8781,287.0938,683.8781,283.0938" style="stroke:#181818;stroke-width:1;"/><text fill="#000000" font-family="sans-serif" font-size="13" lengthAdjust="spacing" textLength="117.0001" x="683.8781" y="265.0278">&#12452;&#12505;&#12531;&#12488;&#31278;&#21029;&#12434;&#29305;&#23450;</text><line style="stroke:#181818;stroke-width:1;" x1="676.8781" x2="718.8781" y1="312.2266" y2="312.2266"/><line style="stroke:#181818;stroke-width:1;" x1="718.8781" x2="718.8781" y1="312.2266" y2="325.2266"/><line style="stroke:#181818;stroke-width:1;" x1="677.8781" x2="718.8781" y1="325.2266" y2="325.2266"/><polygon fill="#181818" points="687.8781,321.2266,677.8781,325.2266,687.8781,329.2266,683.8781,325.2266" style="stroke:#181818;stroke-width:1;"/><text fill="#000000" font-family="sans-serif" font-size="13" lengthAdjust="spacing" textLength="139.5088" x="683.8781" y="307.1606">Provider Object&#12434;&#24489;&#20803;</text><polygon fill="#181818" points="428.1045,350.3594,418.1045,354.3594,428.1045,358.3594,424.1045,354.3594" style="stroke:#181818;stroke-width:1;"/><line style="stroke:#181818;stroke-width:1;stroke-dasharray:2.0,2.0;" x1="422.1045" x2="670.8781" y1="354.3594" y2="354.3594"/><text fill="#000000" font-family="sans-serif" font-size="13" lengthAdjust="spacing" textLength="225.7736" x="434.1045" y="349.2935">Provider Object, &#12452;&#12505;&#12531;&#12488;&#24773;&#22577;&#12434;&#36820;&#21364;</text><line style="stroke:#181818;stroke-width:1;" x1="417.1045" x2="459.1045" y1="383.4922" y2="383.4922"/><line style="stroke:#181818;stroke-width:1;" x1="459.1045" x2="459.1045" y1="383.4922" y2="396.4922"/><line style="stroke:#181818;stroke-width:1;" x1="418.1045" x2="459.1045" y1="396.4922" y2="396.4922"/><polygon fill="#181818" points="428.1045,392.4922,418.1045,396.4922,428.1045,400.4922,424.1045,396.4922" style="stroke:#181818;stroke-width:1;"/><text fill="#000000" font-family="sans-serif" font-size="13" lengthAdjust="spacing" textLength="76.9527" x="424.1045" y="378.4263">Entity&#12434;&#20316;&#25104;</text><polygon fill="#181818" points="833.3869,436.7578,843.3869,440.7578,833.3869,444.7578,837.3869,440.7578" style="stroke:#181818;stroke-width:1;"/><line style="stroke:#181818;stroke-width:1;" x1="417.1045" x2="839.3869" y1="440.7578" y2="440.7578"/><text fill="#000000" font-family="sans-serif" font-size="13" lengthAdjust="spacing" textLength="128.2608" x="424.1045" y="420.5591">Object Mapping&#20445;&#23384;</text><text fill="#000000" font-family="sans-serif" font-size="13" lengthAdjust="spacing" textLength="219.2988" x="424.1045" y="435.6919">(Entity ID &lt;-&gt; Provider Object ID)</text><line style="stroke:#181818;stroke-width:1;" x1="417.1045" x2="459.1045" y1="469.8906" y2="469.8906"/><line style="stroke:#181818;stroke-width:1;" x1="459.1045" x2="459.1045" y1="469.8906" y2="482.8906"/><line style="stroke:#181818;stroke-width:1;" x1="418.1045" x2="459.1045" y1="482.8906" y2="482.8906"/><polygon fill="#181818" points="428.1045,478.8906,418.1045,482.8906,428.1045,486.8906,424.1045,482.8906" style="stroke:#181818;stroke-width:1;"/><text fill="#000000" font-family="sans-serif" font-size="13" lengthAdjust="spacing" textLength="218.1119" x="424.1045" y="464.8247">Provider Event&#12434;CRM Event&#12395;&#22793;&#25563;</text><polygon fill="#181818" points="238.187,508.0234,228.187,512.0234,238.187,516.0234,234.187,512.0234" style="stroke:#181818;stroke-width:1;"/><line style="stroke:#181818;stroke-width:1;stroke-dasharray:2.0,2.0;" x1="232.187" x2="411.1045" y1="512.0234" y2="512.0234"/><text fill="#000000" font-family="sans-serif" font-size="13" lengthAdjust="spacing" textLength="155.9175" x="244.187" y="506.9575">Entity, CRM Event&#12434;&#36820;&#21364;</text><polygon fill="#181818" points="833.3869,537.1563,843.3869,541.1563,833.3869,545.1563,837.3869,541.1563" style="stroke:#181818;stroke-width:1;"/><line style="stroke:#181818;stroke-width:1;" x1="227.187" x2="839.3869" y1="541.1563" y2="541.1563"/><text fill="#000000" font-family="sans-serif" font-size="13" lengthAdjust="spacing" textLength="76.9527" x="234.187" y="536.0903">Entity&#12434;&#20445;&#23384;</text><line style="stroke:#181818;stroke-width:1;" x1="227.187" x2="269.187" y1="575.2891" y2="575.2891"/><line style="stroke:#181818;stroke-width:1;" x1="269.187" x2="269.187" y1="575.2891" y2="588.2891"/><line style="stroke:#181818;stroke-width:1;" x1="222.187" x2="269.187" y1="588.2891" y2="588.2891"/><polygon fill="#181818" points="232.187,584.2891,222.187,588.2891,232.187,592.2891,228.187,588.2891" style="stroke:#181818;stroke-width:1;"/><text fill="#000000" font-family="sans-serif" font-size="13" lengthAdjust="spacing" textLength="104.0001" x="234.187" y="570.2231">&#24517;&#35201;&#12394;&#20966;&#29702;&#12434;&#23455;&#34892;</text><!--SRC=[VLBBIiD05DtFLmnTARG_44Imfc25Mj65csucoQ3naOGq5jpPXceBIei8lX_LMbzOABeHqNnCEcdz2vCcQIObTfMPE-USUy_9LP2gYRoe84c3iHNChSdo1fn3ah29rHX4UUZLl19GQBoi2bXD84N9IVbjBi-h8eTfRjPvdr6KC8jNjyPmPfSoaGn5bGkYrsu0NFGA3bf06k9G7iCOwvq643O9G7X-c9WUSSJuTr8xwHeDW7XDB20DZngF4FBjCT0iDKtzpDJVJRtI_xhxtIq20V-dDAmFum7-oL5r0uZK73Aza83xTLXK6WoSNyukz1_lhUjwlrMqEgM0I8S6g4kaX5awSbN68kavUqzjKdcmURtg9scVZ-Nv5vZbrZ6lsIJoyqpAUfX41J92Y8SwMtgPt7QSYOrZSlX1nn_o72JcowOaJTHsR6Rt-zAgr2a4csIyNZ1ZRvqehNQDA_9scfCcN19Cit2AykMZq-naHACXAbN0akFNVl3EnLVIh5grYs2-q7gvtU8m84Jvz9U2NYR7Gc1mC7teFUX1ZBAzB6RnXUotUlKzvtUqR_gD0q2tyE5_]--></g></svg>