<svg xmlns="http://www.w3.org/2000/svg" xmlns:xlink="http://www.w3.org/1999/xlink" contentStyleType="text/css" height="482px" preserveAspectRatio="none" style="width:171px;height:482px;background:#FFFFFF;" version="1.1" viewBox="0 0 171 482" width="171px" zoomAndPan="magnify"><defs/><g><!--class Product--><g id="elem_Product"><rect codeLine="3" fill="#F1F1F1" height="137.7813" id="Product" rx="2.5" ry="2.5" style="stroke:#181818;stroke-width:0.5;" width="89" x="7" y="188.49"/><ellipse cx="23.35" cy="204.49" fill="#ADD1B2" rx="11" ry="11" style="stroke:#181818;stroke-width:1.0;"/><path d="M27.4594,210.49 L19.7406,210.49 L19.7406,198.0994 L27.4594,198.0994 L27.4594,200.2556 L22.1938,200.2556 L22.1938,202.9275 L26.9594,202.9275 L26.9594,205.0838 L22.1938,205.0838 L22.1938,208.3338 L27.4594,208.3338 L27.4594,210.49 Z " fill="#000000"/><text fill="#000000" font-family="sans-serif" font-size="14" lengthAdjust="spacing" textLength="54" x="37.65" y="209.3367">Product</text><line style="stroke:#181818;stroke-width:0.5;" x1="8" x2="95" y1="220.49" y2="220.49"/><text fill="#000000" font-family="sans-serif" font-size="14" lengthAdjust="spacing" textLength="12" x="13" y="237.4851">id</text><text fill="#000000" font-family="sans-serif" font-size="14" lengthAdjust="spacing" textLength="39" x="13" y="253.782">name</text><text fill="#000000" font-family="sans-serif" font-size="14" lengthAdjust="spacing" textLength="34" x="13" y="270.0789">price</text><text fill="#000000" font-family="sans-serif" font-size="14" lengthAdjust="spacing" textLength="55" x="13" y="286.3757">quantity</text><text fill="#000000" font-family="sans-serif" font-size="14" lengthAdjust="spacing" textLength="77" x="13" y="302.6726">description</text><text fill="#000000" font-family="sans-serif" font-size="14" lengthAdjust="spacing" textLength="50" x="13" y="318.9695">images</text></g><!--class ProductGroup--><g id="elem_ProductGroup"><rect codeLine="12" fill="#F1F1F1" height="121.4844" id="ProductGroup" rx="2.5" ry="2.5" style="stroke:#181818;stroke-width:0.5;" width="129" x="35" y="7"/><ellipse cx="50" cy="23" fill="#ADD1B2" rx="11" ry="11" style="stroke:#181818;stroke-width:1.0;"/><path d="M54.1094,29 L46.3906,29 L46.3906,16.6094 L54.1094,16.6094 L54.1094,18.7656 L48.8438,18.7656 L48.8438,21.4375 L53.6094,21.4375 L53.6094,23.5938 L48.8438,23.5938 L48.8438,26.8438 L54.1094,26.8438 L54.1094,29 Z " fill="#000000"/><text fill="#000000" font-family="sans-serif" font-size="14" lengthAdjust="spacing" textLength="97" x="64" y="27.8467">ProductGroup</text><line style="stroke:#181818;stroke-width:0.5;" x1="36" x2="163" y1="39" y2="39"/><text fill="#000000" font-family="sans-serif" font-size="14" lengthAdjust="spacing" textLength="12" x="41" y="55.9951">id</text><text fill="#000000" font-family="sans-serif" font-size="14" lengthAdjust="spacing" textLength="39" x="41" y="72.292">name</text><text fill="#000000" font-family="sans-serif" font-size="14" lengthAdjust="spacing" textLength="62" x="41" y="88.5889">products</text><text fill="#000000" font-family="sans-serif" font-size="14" lengthAdjust="spacing" textLength="77" x="41" y="104.8857">description</text><text fill="#000000" font-family="sans-serif" font-size="14" lengthAdjust="spacing" textLength="50" x="41" y="121.1826">images</text></g><!--class Image--><g id="elem_Image"><rect codeLine="20" fill="#F1F1F1" height="88.8906" id="Image" rx="2.5" ry="2.5" style="stroke:#181818;stroke-width:0.5;" width="89" x="55" y="386.27"/><ellipse cx="76.75" cy="402.27" fill="#ADD1B2" rx="11" ry="11" style="stroke:#181818;stroke-width:1.0;"/><path d="M80.8594,408.27 L73.1406,408.27 L73.1406,395.8794 L80.8594,395.8794 L80.8594,398.0356 L75.5938,398.0356 L75.5938,400.7075 L80.3594,400.7075 L80.3594,402.8638 L75.5938,402.8638 L75.5938,406.1138 L80.8594,406.1138 L80.8594,408.27 Z " fill="#000000"/><text fill="#000000" font-family="sans-serif" font-size="14" lengthAdjust="spacing" textLength="42" x="92.25" y="407.1167">Image</text><line style="stroke:#181818;stroke-width:0.5;" x1="56" x2="143" y1="418.27" y2="418.27"/><text fill="#000000" font-family="sans-serif" font-size="14" lengthAdjust="spacing" textLength="12" x="61" y="435.2651">id</text><text fill="#000000" font-family="sans-serif" font-size="14" lengthAdjust="spacing" textLength="17" x="61" y="451.562">url</text><text fill="#000000" font-family="sans-serif" font-size="14" lengthAdjust="spacing" textLength="77" x="61" y="467.8589">description</text></g><!--reverse link ProductGroup to Product--><g id="link_ProductGroup_Product"><path codeLine="26" d="M81.1387,140.5163 C76.3187,159.3763 73.93,168.71 68.97,188.1 " fill="none" id="ProductGroup-backto-Product" style="stroke:#181818;stroke-width:1.0;"/><polygon fill="#181818" points="84.11,128.89,78.7489,133.7127,81.1387,140.5163,86.4998,135.6936,84.11,128.89" style="stroke:#181818;stroke-width:1.0;"/><text fill="#000000" font-family="sans-serif" font-size="13" lengthAdjust="spacing" textLength="8" x="73.9892" y="148.4725">1</text><text fill="#000000" font-family="sans-serif" font-size="13" lengthAdjust="spacing" textLength="36" x="32.9153" y="177.2557">many</text></g><!--reverse link Product to Image--><g id="link_Product_Image"><path codeLine="27" d="M73.8447,338.1458 C79.4347,358.1158 82.17,367.85 87.22,385.87 " fill="none" id="Product-backto-Image" style="stroke:#181818;stroke-width:1.0;"/><polygon fill="#181818" points="70.61,326.59,68.3754,333.4461,73.8447,338.1458,76.0793,331.2897,70.61,326.59" style="stroke:#181818;stroke-width:1.0;"/><text fill="#000000" font-family="sans-serif" font-size="13" lengthAdjust="spacing" textLength="8" x="64.1682" y="346.5744">1</text><text fill="#000000" font-family="sans-serif" font-size="13" lengthAdjust="spacing" textLength="36" x="46.7726" y="375.2584">many</text></g><!--reverse link ProductGroup to Image--><g id="link_ProductGroup_Image"><path codeLine="28" d="M109.3552,140.8439 C111.6452,159.8539 112.37,169.06 113.5,188.49 C117.06,249.62 117.62,265.17 113.5,326.27 C112.18,345.89 109.46,367.46 106.77,385.8 " fill="none" id="ProductGroup-backto-Image" style="stroke:#181818;stroke-width:1.0;"/><polygon fill="#181818" points="107.92,128.93,104.6663,135.3653,109.3552,140.8439,112.6089,134.4085,107.92,128.93" style="stroke:#181818;stroke-width:1.0;"/><text fill="#000000" font-family="sans-serif" font-size="13" lengthAdjust="spacing" textLength="8" x="100.4034" y="148.5169">1</text><text fill="#000000" font-family="sans-serif" font-size="13" lengthAdjust="spacing" textLength="36" x="110.4815" y="375.1781">many</text></g><!--SRC=[XOux2iCm341tdq9uB6JeAKgtNi7OeX7Kdyho44BlNjiGGbn85qb8Jq-QoI5ub3awfJ08oG8FZgvOWLK1aAiX68yr9IRRyhkO3jRIORPCIIY61dlpnAm-e-d6iIHOuSVNf_c_vzuQ-p-5NyDEHG-tz5N3PPf0UnCMlVsnCUEuwqy5dVW2]--></g></svg>