<svg xmlns="http://www.w3.org/2000/svg" xmlns:xlink="http://www.w3.org/1999/xlink" contentStyleType="text/css" data-diagram-type="DESCRIPTION" height="325px" preserveAspectRatio="none" style="width:851px;height:325px;background:#FFFFFF;" version="1.1" viewBox="0 0 851 325" width="851px" zoomAndPan="magnify"><defs/><g><!--cluster Tachyon Apps--><g id="cluster_Tachyon Apps"><path d="M8.5,6 L119.5586,6 A3.75,3.75 0 0 1 122.0586,8.5 L129.0586,28.2969 L591.72,28.2969 A2.5,2.5 0 0 1 594.22,30.7969 L594.22,315.5 A2.5,2.5 0 0 1 591.72,318 L8.5,318 A2.5,2.5 0 0 1 6,315.5 L6,8.5 A2.5,2.5 0 0 1 8.5,6 " fill="none" style="stroke:#000000;stroke-width:1.5;"/><line style="stroke:#000000;stroke-width:1.5;" x1="6" x2="129.0586" y1="28.2969" y2="28.2969"/><text fill="#000000" font-family="sans-serif" font-size="14" font-weight="bold" lengthAdjust="spacing" textLength="110.0586" x="10" y="20.9951">Tachyon Apps</text></g><!--cluster Notion Provider--><g id="cluster_Notion Provider"><path d="M32.5,49 L157.9141,49 A3.75,3.75 0 0 1 160.4141,51.5 L167.4141,71.2969 L567.72,71.2969 A2.5,2.5 0 0 1 570.22,73.7969 L570.22,291.5 A2.5,2.5 0 0 1 567.72,294 L32.5,294 A2.5,2.5 0 0 1 30,291.5 L30,51.5 A2.5,2.5 0 0 1 32.5,49 " fill="none" style="stroke:#000000;stroke-width:1.5;"/><line style="stroke:#000000;stroke-width:1.5;" x1="30" x2="167.4141" y1="71.2969" y2="71.2969"/><text fill="#000000" font-family="sans-serif" font-size="14" font-weight="bold" lengthAdjust="spacing" textLength="124.4141" x="34" y="63.9951">Notion Provider</text></g><!--cluster Notion SDK Client--><g id="cluster_Notion SDK Client"><rect fill="none" height="178" rx="2.5" ry="2.5" style="stroke:#181818;stroke-width:1;" width="492.22" x="54" y="92"/><rect fill="none" height="10" style="stroke:#181818;stroke-width:1;" width="15" x="526.22" y="97"/><rect fill="none" height="2" style="stroke:#181818;stroke-width:1;" width="4" x="524.22" y="99"/><rect fill="none" height="2" style="stroke:#181818;stroke-width:1;" width="4" x="524.22" y="103"/><text fill="#000000" font-family="sans-serif" font-size="14" font-weight="bold" lengthAdjust="spacing" textLength="140.7383" x="229.7409" y="117.9951">Notion SDK Client</text></g><!--entity API Client--><g id="elem_API Client"><rect fill="#F1F1F1" height="46.2969" rx="2.5" ry="2.5" style="stroke:#181818;stroke-width:0.5;" width="107.1289" x="94.81" y="126.85"/><rect fill="#F1F1F1" height="10" style="stroke:#181818;stroke-width:0.5;" width="15" x="181.9389" y="131.85"/><rect fill="#F1F1F1" height="2" style="stroke:#181818;stroke-width:0.5;" width="4" x="179.9389" y="133.85"/><rect fill="#F1F1F1" height="2" style="stroke:#181818;stroke-width:0.5;" width="4" x="179.9389" y="137.85"/><text fill="#000000" font-family="sans-serif" font-size="14" lengthAdjust="spacing" textLength="67.1289" x="109.81" y="159.8451">API Client</text></g><!--entity Request Builder--><g id="elem_Request Builder"><rect fill="#F1F1F1" height="46.2969" rx="2.5" ry="2.5" style="stroke:#181818;stroke-width:0.5;" width="151.46" x="378.76" y="126.85"/><rect fill="#F1F1F1" height="10" style="stroke:#181818;stroke-width:0.5;" width="15" x="510.22" y="131.85"/><rect fill="#F1F1F1" height="2" style="stroke:#181818;stroke-width:0.5;" width="4" x="508.22" y="133.85"/><rect fill="#F1F1F1" height="2" style="stroke:#181818;stroke-width:0.5;" width="4" x="508.22" y="137.85"/><text fill="#000000" font-family="sans-serif" font-size="14" lengthAdjust="spacing" textLength="111.46" x="393.76" y="159.8451">Request Builder</text></g><!--entity Response Parser--><g id="elem_Response Parser"><rect fill="#F1F1F1" height="46.2969" rx="2.5" ry="2.5" style="stroke:#181818;stroke-width:0.5;" width="156.7578" x="70" y="207.85"/><rect fill="#F1F1F1" height="10" style="stroke:#181818;stroke-width:0.5;" width="15" x="206.7578" y="212.85"/><rect fill="#F1F1F1" height="2" style="stroke:#181818;stroke-width:0.5;" width="4" x="204.7578" y="214.85"/><rect fill="#F1F1F1" height="2" style="stroke:#181818;stroke-width:0.5;" width="4" x="204.7578" y="218.85"/><text fill="#000000" font-family="sans-serif" font-size="14" lengthAdjust="spacing" textLength="116.7578" x="85" y="240.8451">Response Parser</text></g><!--entity Error Handler--><g id="elem_Error Handler"><rect fill="#F1F1F1" height="46.2969" rx="2.5" ry="2.5" style="stroke:#181818;stroke-width:0.5;" width="134.2539" x="387.36" y="207.85"/><rect fill="#F1F1F1" height="10" style="stroke:#181818;stroke-width:0.5;" width="15" x="501.6139" y="212.85"/><rect fill="#F1F1F1" height="2" style="stroke:#181818;stroke-width:0.5;" width="4" x="499.6139" y="214.85"/><rect fill="#F1F1F1" height="2" style="stroke:#181818;stroke-width:0.5;" width="4" x="499.6139" y="218.85"/><text fill="#000000" font-family="sans-serif" font-size="14" lengthAdjust="spacing" textLength="94.2539" x="402.36" y="240.8451">Error Handler</text></g><!--entity api--><g id="elem_api"><rect fill="#F1F1F1" height="46.2969" rx="2.5" ry="2.5" style="stroke:#181818;stroke-width:0.5;" width="112.4541" x="733.22" y="253.85"/><rect fill="#F1F1F1" height="10" style="stroke:#181818;stroke-width:0.5;" width="15" x="825.6741" y="258.85"/><rect fill="#F1F1F1" height="2" style="stroke:#181818;stroke-width:0.5;" width="4" x="823.6741" y="260.85"/><rect fill="#F1F1F1" height="2" style="stroke:#181818;stroke-width:0.5;" width="4" x="823.6741" y="264.85"/><text fill="#000000" font-family="sans-serif" font-size="14" lengthAdjust="spacing" textLength="72.4541" x="748.22" y="286.8451">Notion API</text></g><!--link API Client to Request Builder--><g id="link_API Client_Request Builder"><path d="M202.35,150 C251.02,150 317.68,150 372.34,150 " fill="none" id="API Client-to-Request Builder" style="stroke:#181818;stroke-width:1;"/><polygon fill="#181818" points="378.34,150,369.34,146,373.34,150,369.34,154,378.34,150" style="stroke:#181818;stroke-width:1;"/><text fill="#000000" font-family="sans-serif" font-size="13" lengthAdjust="spacing" textLength="90.1558" x="257.76" y="146.0669">Build Request</text></g><!--link Request Builder to api--><g id="link_Request Builder_api"><path d="M530.53,167.81 C553.77,174.03 579.29,181.59 602.22,190 C651.97,208.25 701.3129,231.8782 738.4829,250.7982 " fill="none" id="Request Builder-to-api" style="stroke:#181818;stroke-width:1;"/><polygon fill="#181818" points="743.83,253.52,737.6238,245.8726,739.374,251.2519,733.9948,253.0021,743.83,253.52" style="stroke:#181818;stroke-width:1;"/><text fill="#000000" font-family="sans-serif" font-size="13" lengthAdjust="spacing" textLength="91.019" x="611.22" y="190.0669">HTTP Request</text></g><!--link api to Response Parser--><g id="link_api_Response Parser"><path d="M733.08,281.5 C696.06,284.28 646.26,287.58 602.22,289 C502.95,292.19 477.31,301.27 378.76,289 C325.87,282.42 273.4293,269.2923 228.8893,256.2823 " fill="none" id="api-to-Response Parser" style="stroke:#181818;stroke-width:1;"/><polygon fill="#181818" points="223.13,254.6,230.6475,260.963,227.9294,256.0019,232.8905,253.2839,223.13,254.6" style="stroke:#181818;stroke-width:1;"/><text fill="#000000" font-family="sans-serif" font-size="13" lengthAdjust="spacing" textLength="100.6484" x="404.49" y="285.0669">HTTP Response</text></g><!--link Response Parser to Error Handler--><g id="link_Response Parser_Error Handler"><path d="M226.91,231 C276.35,231 333.78,231 380.94,231 " fill="none" id="Response Parser-to-Error Handler" style="stroke:#181818;stroke-width:1;"/><polygon fill="#181818" points="386.94,231,377.94,227,381.94,231,377.94,235,386.94,231" style="stroke:#181818;stroke-width:1;"/><text fill="#000000" font-family="sans-serif" font-size="13" lengthAdjust="spacing" textLength="88.9497" x="258.76" y="227.0669">Handle Errors</text></g><!--SRC=[RO_D2i8m48Jl-nH3xxw01y4_K0GfsXS8RRJ1ciGa2Y9zTvF-QKaFWM7csyrinIyEJi68Q-bG2CDp9vGaqYo_iIj7ah6yV2k9fTOsmOU08Jggm28rwYKARjeKoDLTAycb6uZpve1r9RpLCoDgcUxxE0vF_F7arc7r55NuP8gmNbgEb1axIMoDKGOx9ekgpsiAhoQAs_ew2PW5quBelnnciqLS2FDMeWie9iASt-R9NPQb0nYiRkNuWX_O-XGJpTpuhZ3LI3I-_G80]--></g></svg>