<svg xmlns="http://www.w3.org/2000/svg" xmlns:xlink="http://www.w3.org/1999/xlink" contentStyleType="text/css" data-diagram-type="DESCRIPTION" height="490px" preserveAspectRatio="none" style="width:568px;height:490px;background:#FFFFFF;" version="1.1" viewBox="0 0 568 490" width="568px" zoomAndPan="magnify"><title>schema</title><defs/><g><text fill="#000000" font-family="sans-serif" font-size="14" font-weight="bold" lengthAdjust="spacing" textLength="60.1289" x="247.2056" y="22.9951">schema</text><!--cluster apps--><g id="cluster_apps"><path d="M138.35,107.4269 L177.1732,107.4269 A3.75,3.75 0 0 1 179.6732,109.9269 L186.6732,129.7238 L283.72,129.7238 A2.5,2.5 0 0 1 286.22,132.2238 L286.22,480.9269 A2.5,2.5 0 0 1 283.72,483.4269 L138.35,483.4269 A2.5,2.5 0 0 1 135.85,480.9269 L135.85,109.9269 A2.5,2.5 0 0 1 138.35,107.4269 " fill="none" style="stroke:#000000;stroke-width:1.5;"/><line style="stroke:#000000;stroke-width:1.5;" x1="135.85" x2="186.6732" y1="129.7238" y2="129.7238"/><text fill="#000000" font-family="sans-serif" font-size="14" font-weight="bold" lengthAdjust="spacing" textLength="37.8232" x="139.85" y="122.422">apps</text></g><!--entity auth--><g id="elem_auth"><rect fill="#F1F1F1" height="46.2969" rx="2.5" ry="2.5" style="stroke:#181818;stroke-width:0.5;" width="71.8145" x="175.13" y="413.2769"/><rect fill="#F1F1F1" height="10" style="stroke:#181818;stroke-width:0.5;" width="15" x="226.9445" y="418.2769"/><rect fill="#F1F1F1" height="2" style="stroke:#181818;stroke-width:0.5;" width="4" x="224.9445" y="420.2769"/><rect fill="#F1F1F1" height="2" style="stroke:#181818;stroke-width:0.5;" width="4" x="224.9445" y="424.2769"/><text fill="#000000" font-family="sans-serif" font-size="14" lengthAdjust="spacing" textLength="31.8145" x="190.13" y="446.272">auth</text></g><!--entity crm--><g id="elem_crm"><rect fill="#F1F1F1" height="46.2969" rx="2.5" ry="2.5" style="stroke:#181818;stroke-width:0.5;" width="67.0908" x="177.49" y="332.2769"/><rect fill="#F1F1F1" height="10" style="stroke:#181818;stroke-width:0.5;" width="15" x="224.5808" y="337.2769"/><rect fill="#F1F1F1" height="2" style="stroke:#181818;stroke-width:0.5;" width="4" x="222.5808" y="339.2769"/><rect fill="#F1F1F1" height="2" style="stroke:#181818;stroke-width:0.5;" width="4" x="222.5808" y="343.2769"/><text fill="#000000" font-family="sans-serif" font-size="14" lengthAdjust="spacing" textLength="27.0908" x="192.49" y="365.272">crm</text></g><!--entity payment--><g id="elem_payment"><rect fill="#F1F1F1" height="46.2969" rx="2.5" ry="2.5" style="stroke:#181818;stroke-width:0.5;" width="102.3643" x="159.85" y="251.2769"/><rect fill="#F1F1F1" height="10" style="stroke:#181818;stroke-width:0.5;" width="15" x="242.2143" y="256.2769"/><rect fill="#F1F1F1" height="2" style="stroke:#181818;stroke-width:0.5;" width="4" x="240.2143" y="258.2769"/><rect fill="#F1F1F1" height="2" style="stroke:#181818;stroke-width:0.5;" width="4" x="240.2143" y="262.2769"/><text fill="#000000" font-family="sans-serif" font-size="14" lengthAdjust="spacing" textLength="62.3643" x="174.85" y="284.272">payment</text></g><!--entity delivery--><g id="elem_delivery"><rect fill="#F1F1F1" height="46.2969" rx="2.5" ry="2.5" style="stroke:#181818;stroke-width:0.5;" width="96.2188" x="162.93" y="170.2769"/><rect fill="#F1F1F1" height="10" style="stroke:#181818;stroke-width:0.5;" width="15" x="239.1488" y="175.2769"/><rect fill="#F1F1F1" height="2" style="stroke:#181818;stroke-width:0.5;" width="4" x="237.1488" y="177.2769"/><rect fill="#F1F1F1" height="2" style="stroke:#181818;stroke-width:0.5;" width="4" x="237.1488" y="181.2769"/><text fill="#000000" font-family="sans-serif" font-size="14" lengthAdjust="spacing" textLength="56.2188" x="177.93" y="203.272">delivery</text></g><!--entity user--><g id="elem_user"><ellipse cx="21.2681" cy="285.7769" fill="#F1F1F1" rx="8" ry="8" style="stroke:#181818;stroke-width:0.5;"/><path d="M21.2681,293.7769 L21.2681,320.7769 M8.2681,301.7769 L34.2681,301.7769 M21.2681,320.7769 L8.2681,335.7769 M21.2681,320.7769 L34.2681,335.7769 " fill="none" style="stroke:#181818;stroke-width:0.5;"/><text fill="#000000" font-family="sans-serif" font-size="14" lengthAdjust="spacing" textLength="30.5361" x="6" y="350.272">user</text></g><g id="elem_GMN8"><path d="M96.54,43.2969 L96.54,83.5625 L325.5402,83.5625 L325.5402,53.2969 L315.5402,43.2969 L96.54,43.2969 " fill="#FEFFDD" style="stroke:#181818;stroke-width:0.5;"/><path d="M315.5402,43.2969 L315.5402,53.2969 L325.5402,53.2969 L315.5402,43.2969 " fill="#FEFFDD" style="stroke:#181818;stroke-width:1;"/><text fill="#000000" font-family="sans-serif" font-size="13" lengthAdjust="spacing" textLength="208.0002" x="102.54" y="60.3638">&#12450;&#12503;&#12522;&#12465;&#12540;&#12471;&#12519;&#12531;&#12398;&#12383;&#12417;&#12398;&#12469;&#12540;&#12499;&#12473;</text><ellipse cx="108.04" cy="71.0625" fill="#000000" rx="2.5" ry="2.5" style="stroke:#000000;stroke-width:0;"/><text fill="#000000" font-family="sans-serif" font-size="13" lengthAdjust="spacing" textLength="65.0001" x="114.54" y="75.4966">&#38306;&#24515;&#12398;&#20998;&#38626;</text></g><!--entity database--><g id="elem_database"><path d="M431.08,302.7769 C431.08,292.7769 473.5336,292.7769 473.5336,292.7769 C473.5336,292.7769 515.9872,292.7769 515.9872,302.7769 L515.9872,328.0738 C515.9872,338.0738 473.5336,338.0738 473.5336,338.0738 C473.5336,338.0738 431.08,338.0738 431.08,328.0738 L431.08,302.7769 " fill="#F1F1F1" style="stroke:#181818;stroke-width:0.5;"/><path d="M431.08,302.7769 C431.08,312.7769 473.5336,312.7769 473.5336,312.7769 C473.5336,312.7769 515.9872,312.7769 515.9872,302.7769 " fill="none" style="stroke:#181818;stroke-width:0.5;"/><text fill="#000000" font-family="sans-serif" font-size="14" lengthAdjust="spacing" textLength="64.9072" x="441.08" y="329.772">database</text></g><g id="elem_GMN12"><path d="M385.54,373.2969 L385.54,413.5625 A0,0 0 0 0 385.54,413.5625 L561.5402,413.5625 A0,0 0 0 0 561.5402,413.5625 L561.5402,383.2969 L551.5402,373.2969 L477.54,373.2969 L473.54,338.3669 L469.54,373.2969 L385.54,373.2969 A0,0 0 0 0 385.54,373.2969 " fill="#FEFFDD" style="stroke:#181818;stroke-width:0.5;"/><path d="M551.5402,373.2969 L551.5402,383.2969 L561.5402,383.2969 L551.5402,373.2969 " fill="#FEFFDD" style="stroke:#181818;stroke-width:0.5;"/><text fill="#000000" font-family="sans-serif" font-size="13" lengthAdjust="spacing" textLength="143.0002" x="391.54" y="390.3638">&#12487;&#12540;&#12479;&#12398;&#12383;&#12417;&#12398;&#12469;&#12540;&#12499;&#12473;</text><ellipse cx="397.04" cy="401.0625" fill="#000000" rx="2.5" ry="2.5" style="stroke:#000000;stroke-width:0;"/><text fill="#000000" font-family="sans-serif" font-size="13" lengthAdjust="spacing" textLength="143.0002" x="403.54" y="405.4966">&#20449;&#38972;&#12391;&#12365;&#12427;&#21807;&#19968;&#12398;&#24773;&#22577;&#28304;</text></g><!--link apps to GMN8--><g id="link_apps_GMN8"><path d="M211.04,129.5346 C211.04,128.5011 211.04,103.6203 211.04,102.5868 C211.04,100.5198 211.04,98.4529 211.04,96.3861 C211.04,92.2525 211.04,88.1194 211.04,83.9869 " fill="none" id="apps-GMN8" style="stroke:#181818;stroke-width:1;stroke-dasharray:7.0,7.0;"/></g><!--link user to auth--><g id="link_user_auth"><path d="M36.83,336.3969 C50.41,354.5469 72.18,380.3369 96.54,396.4269 C120.42,412.2069 145.4493,421.0134 168.9393,427.2234 " fill="none" id="user-to-auth" style="stroke:#181818;stroke-width:1;"/><polygon fill="#181818" points="174.74,428.7569,167.0613,422.5894,169.9061,427.4789,165.0166,430.3237,174.74,428.7569" style="stroke:#181818;stroke-width:1;"/></g><!--link user to crm--><g id="link_user_crm"><path d="M37,318.5669 C67,324.9569 129.9516,338.3672 171.1816,347.1472 " fill="none" id="user-to-crm" style="stroke:#181818;stroke-width:1;"/><polygon fill="#181818" points="177.05,348.3969,169.0805,342.6101,172.1597,347.3555,167.4143,350.4346,177.05,348.3969" style="stroke:#181818;stroke-width:1;"/></g><!--link user to payment--><g id="link_user_payment"><path d="M37,312.2069 C63.02,306.5269 112.388,295.7462 153.488,286.7762 " fill="none" id="user-to-payment" style="stroke:#181818;stroke-width:1;"/><polygon fill="#181818" points="159.35,285.4969,149.7041,283.5079,154.465,286.563,151.4099,291.3239,159.35,285.4969" style="stroke:#181818;stroke-width:1;"/></g><!--link user to delivery--><g id="link_user_delivery"><path d="M36.78,294.1869 C50.32,275.8069 72.07,249.6969 96.54,233.4269 C116.46,220.1769 135.5085,212.4856 156.8485,206.1456 " fill="none" id="user-to-delivery" style="stroke:#181818;stroke-width:1;"/><polygon fill="#181818" points="162.6,204.4369,152.8335,203.1656,157.8071,205.8608,155.1119,210.8344,162.6,204.4369" style="stroke:#181818;stroke-width:1;"/></g><!--link auth to database--><g id="link_auth_database"><path d="M247.27,426.6169 C270.19,419.6069 300.38,409.1769 325.54,396.4269 C354.34,381.8269 357.43,371.3369 385.54,355.4269 C399.86,347.3169 410.6368,341.9553 425.1968,335.4153 " fill="none" id="auth-to-database" style="stroke:#181818;stroke-width:1;"/><polygon fill="#181818" points="430.67,332.9569,420.8212,332.9957,426.109,335.0056,424.0991,340.2933,430.67,332.9569" style="stroke:#181818;stroke-width:1;"/></g><!--link crm to database--><g id="link_crm_database"><path d="M245.03,350.3569 C292.26,343.1069 373.2095,330.6774 424.8595,322.7474 " fill="none" id="crm-to-database" style="stroke:#181818;stroke-width:1;"/><polygon fill="#181818" points="430.79,321.8369,421.2872,319.249,425.8479,322.5957,422.5013,327.1563,430.79,321.8369" style="stroke:#181818;stroke-width:1;"/></g><!--link payment to database--><g id="link_payment_database"><path d="M262.57,282.3769 C311.55,290.0869 379.0229,300.7147 424.8029,307.9147 " fill="none" id="payment-to-database" style="stroke:#181818;stroke-width:1;"/><polygon fill="#181818" points="430.73,308.8469,422.4607,303.4972,425.7907,308.0701,421.2178,311.4,430.73,308.8469" style="stroke:#181818;stroke-width:1;"/></g><!--link delivery to database--><g id="link_delivery_database"><path d="M259.4,208.1169 C280.03,215.0269 304.3,223.8469 325.54,233.4269 C364.16,250.8569 401.0463,271.7578 430.2363,289.2878 " fill="none" id="delivery-to-database" style="stroke:#181818;stroke-width:1;"/><polygon fill="#181818" points="435.38,292.3769,429.7238,284.3142,431.0936,289.8027,425.6051,291.1724,435.38,292.3769" style="stroke:#181818;stroke-width:1;"/></g><!--SRC=[VP3FIiD04CRlynHp5leAlijsiss2IJOaKw68O7Rn3uWWA7hmOCsbu44f8lwXa8UPff2twAOrmI1usfdVp3VVyeLgH4WQqs3i4tf1gYG5EWOAA5IOILz50a18qYbECfK2948UYB52aIGP7W6Yr56YOnKJYWdvFI3JgDSdOXgvjySy5GQ7Aft2CK2iIU5G4-a8zMXhuNRP56plsJwpMR1TilbWEsVxnlaBvuziygOmxyt8th3vSfAz-gweIki6rSLP_L20YZrihWDuWiHGP0hRuezjDt3MzdphMFxdjIgVwjcIypddLsmkgzlNrUU9srlRqsgsM7zV_t9lCiJ1O7-NLTSrGNLDcr87keYWKUrG-qUdx8CVTH-s5tfq0m00]--></g></svg>