<svg xmlns="http://www.w3.org/2000/svg" xmlns:xlink="http://www.w3.org/1999/xlink" contentStyleType="text/css" data-diagram-type="DESCRIPTION" height="182px" preserveAspectRatio="none" style="width:615px;height:182px;background:#FFFFFF;" version="1.1" viewBox="0 0 615 182" width="615px" zoomAndPan="magnify"><defs/><g><!--entity manager--><g id="elem_manager"><rect fill="#F1F1F1" height="36.2969" rx="2.5" ry="2.5" style="stroke:#181818;stroke-width:0.5;" width="155.3379" x="236.89" y="7"/><text fill="#000000" font-family="sans-serif" font-size="14" lengthAdjust="spacing" textLength="135.3379" x="246.89" y="29.9951">TaskManagerAgent</text></g><!--entity optimizer--><g id="elem_optimizer"><rect fill="#F1F1F1" height="36.2969" rx="2.5" ry="2.5" style="stroke:#181818;stroke-width:0.5;" width="195.1094" x="7" y="7"/><text fill="#000000" font-family="sans-serif" font-size="14" lengthAdjust="spacing" textLength="175.1094" x="17" y="29.9951">ResourceOptimizerAgent</text></g><!--entity tracker--><g id="elem_tracker"><rect fill="#F1F1F1" height="36.2969" rx="2.5" ry="2.5" style="stroke:#181818;stroke-width:0.5;" width="175.1074" x="427" y="7"/><text fill="#000000" font-family="sans-serif" font-size="14" lengthAdjust="spacing" textLength="155.1074" x="437" y="29.9951">ProgressTrackerAgent</text></g><!--entity analyzer--><g id="elem_analyzer"><path d="M246.04,130.29 C246.04,120.29 317.5532,120.29 317.5532,120.29 C317.5532,120.29 389.0664,120.29 389.0664,130.29 L389.0664,155.5869 C389.0664,165.5869 317.5532,165.5869 317.5532,165.5869 C317.5532,165.5869 246.04,165.5869 246.04,155.5869 L246.04,130.29 " fill="#F1F1F1" style="stroke:#181818;stroke-width:0.5;"/><path d="M246.04,130.29 C246.04,140.29 317.5532,140.29 317.5532,140.29 C317.5532,140.29 389.0664,140.29 389.0664,130.29 " fill="none" style="stroke:#181818;stroke-width:0.5;"/><text fill="#000000" font-family="sans-serif" font-size="14" lengthAdjust="spacing" textLength="123.0264" x="256.04" y="157.2851">TaskAnalyzerTool</text></g><!--entity monitor--><g id="elem_monitor"><path d="M32.59,130.29 C32.59,120.29 116.5548,120.29 116.5548,120.29 C116.5548,120.29 200.5197,120.29 200.5197,130.29 L200.5197,155.5869 C200.5197,165.5869 116.5548,165.5869 116.5548,165.5869 C116.5548,165.5869 32.59,165.5869 32.59,155.5869 L32.59,130.29 " fill="#F1F1F1" style="stroke:#181818;stroke-width:0.5;"/><path d="M32.59,130.29 C32.59,140.29 116.5548,140.29 116.5548,140.29 C116.5548,140.29 200.5197,140.29 200.5197,130.29 " fill="none" style="stroke:#181818;stroke-width:0.5;"/><text fill="#000000" font-family="sans-serif" font-size="14" lengthAdjust="spacing" textLength="147.9297" x="42.59" y="157.2851">ResourceMonitorTool</text></g><!--entity reporter--><g id="elem_reporter"><path d="M430.7,130.29 C430.7,120.29 514.5521,120.29 514.5521,120.29 C514.5521,120.29 598.4041,120.29 598.4041,130.29 L598.4041,155.5869 C598.4041,165.5869 514.5521,165.5869 514.5521,165.5869 C514.5521,165.5869 430.7,165.5869 430.7,155.5869 L430.7,130.29 " fill="#F1F1F1" style="stroke:#181818;stroke-width:0.5;"/><path d="M430.7,130.29 C430.7,140.29 514.5521,140.29 514.5521,140.29 C514.5521,140.29 598.4041,140.29 598.4041,130.29 " fill="none" style="stroke:#181818;stroke-width:0.5;"/><text fill="#000000" font-family="sans-serif" font-size="14" lengthAdjust="spacing" textLength="147.7041" x="440.7" y="157.2851">ReportGeneratorTool</text></g><!--link manager to analyzer--><g id="link_manager_analyzer"><path d="M315.01,43.73 C315.54,64.1 316.2554,91.702 316.8254,113.822 " fill="none" id="manager-to-analyzer" style="stroke:#181818;stroke-width:1;"/><polygon fill="#181818" points="316.98,119.82,320.7468,110.7199,316.8512,114.8217,312.7495,110.926,316.98,119.82" style="stroke:#181818;stroke-width:1;"/><text fill="#000000" font-family="sans-serif" font-size="13" lengthAdjust="spacing" textLength="29.7832" x="316.55" y="86.3569">uses</text></g><!--link manager to monitor--><g id="link_manager_monitor"><path d="M285.6,43.76 C264.14,56.75 234.12,74.79 207.55,90.29 C190.61,100.18 176.9836,107.968 160.8636,117.078 " fill="none" id="manager-to-monitor" style="stroke:#181818;stroke-width:1;"/><polygon fill="#181818" points="155.64,120.03,165.4434,119.0843,159.993,117.57,161.5073,112.1196,155.64,120.03" style="stroke:#181818;stroke-width:1;"/><text fill="#000000" font-family="sans-serif" font-size="13" lengthAdjust="spacing" textLength="29.7832" x="234.55" y="86.3569">uses</text></g><!--link optimizer to monitor--><g id="link_optimizer_monitor"><path d="M101.97,43.65 C100.49,56.6 99.32,74.62 101.55,90.29 C102.96,100.18 104.0059,105.1076 106.8559,114.1476 " fill="none" id="optimizer-to-monitor" style="stroke:#181818;stroke-width:1;"/><polygon fill="#181818" points="108.66,119.87,109.7688,110.0838,107.1566,115.1014,102.139,112.4892,108.66,119.87" style="stroke:#181818;stroke-width:1;"/><text fill="#000000" font-family="sans-serif" font-size="13" lengthAdjust="spacing" textLength="29.7832" x="102.55" y="86.3569">uses</text></g><!--link optimizer to analyzer--><g id="link_optimizer_analyzer"><path d="M118.1,43.58 C130.03,57.89 148.56,77.76 168.55,90.29 C191.98,104.98 214.402,114.3023 239.882,122.4023 " fill="none" id="optimizer-to-analyzer" style="stroke:#181818;stroke-width:1;"/><polygon fill="#181818" points="245.6,124.22,238.2348,117.6814,240.835,122.7052,235.8111,125.3054,245.6,124.22" style="stroke:#181818;stroke-width:1;"/><text fill="#000000" font-family="sans-serif" font-size="13" lengthAdjust="spacing" textLength="29.7832" x="169.55" y="86.3569">uses</text></g><!--link tracker to reporter--><g id="link_tracker_reporter"><path d="M514.55,43.73 C514.55,64.1 514.55,91.7 514.55,113.82 " fill="none" id="tracker-to-reporter" style="stroke:#181818;stroke-width:1;"/><polygon fill="#181818" points="514.55,119.82,518.55,110.82,514.55,114.82,510.55,110.82,514.55,119.82" style="stroke:#181818;stroke-width:1;"/><text fill="#000000" font-family="sans-serif" font-size="13" lengthAdjust="spacing" textLength="29.7832" x="515.55" y="86.3569">uses</text></g><!--link tracker to analyzer--><g id="link_tracker_analyzer"><path d="M484.63,43.73 C449.98,64.1 398.0029,94.66 360.3629,116.78 " fill="none" id="tracker-to-analyzer" style="stroke:#181818;stroke-width:1;"/><polygon fill="#181818" points="355.19,119.82,364.976,118.7086,359.5007,117.2867,360.9227,111.8115,355.19,119.82" style="stroke:#181818;stroke-width:1;"/><text fill="#000000" font-family="sans-serif" font-size="13" lengthAdjust="spacing" textLength="29.7832" x="434.55" y="86.3569">uses</text></g><!--SRC=[XOzD3e9038Ntd68km0LScB1oHJI62rHi9XDWIjgoqDEBp8yZCN7v-hw-zZ7s2jwEQ3gGeGKF5hcnwDM0c2deYZDrHQ65UppFwYRtB5XAauA-C5b6aOwX7mfMWwxke7032SSR3-DZtU-8nZS4KN-eTBmbxvGoE0LPSZEndj0ZGy7nDbu3gzZBrFKndp47imZAbnUJavKh_ZVtgR7nvgK_VdcxlHS0]--></g></svg>