<svg xmlns="http://www.w3.org/2000/svg" xmlns:xlink="http://www.w3.org/1999/xlink" contentStyleType="text/css" data-diagram-type="CLASS" height="804px" preserveAspectRatio="none" style="width:1387px;height:804px;background:#FFFFFF;" version="1.1" viewBox="0 0 1387 804" width="1387px" zoomAndPan="magnify"><defs/><g><!--cluster chat_completion--><g id="cluster_chat_completion"><path d="M640.5,6 L770.8018,6 A3.75,3.75 0 0 1 773.3018,8.5 L780.3018,28.2969 L1191.5,28.2969 A2.5,2.5 0 0 1 1194,30.7969 L1194,118.79 A2.5,2.5 0 0 1 1191.5,121.29 L640.5,121.29 A2.5,2.5 0 0 1 638,118.79 L638,8.5 A2.5,2.5 0 0 1 640.5,6 " fill="none" style="stroke:#000000;stroke-width:1.5;"/><line style="stroke:#000000;stroke-width:1.5;" x1="638" x2="780.3018" y1="28.2969" y2="28.2969"/><text fill="#000000" font-family="sans-serif" font-size="14" font-weight="bold" lengthAdjust="spacing" textLength="129.3018" x="642" y="20.9951">chat_completion</text></g><!--cluster memory--><g id="cluster_memory"><path d="M8.5,170.29 L73.8193,170.29 A3.75,3.75 0 0 1 76.3193,172.79 L83.3193,192.5869 L1180.5,192.5869 A2.5,2.5 0 0 1 1183,195.0869 L1183,581.98 A2.5,2.5 0 0 1 1180.5,584.48 L8.5,584.48 A2.5,2.5 0 0 1 6,581.98 L6,172.79 A2.5,2.5 0 0 1 8.5,170.29 " fill="none" style="stroke:#000000;stroke-width:1.5;"/><line style="stroke:#000000;stroke-width:1.5;" x1="6" x2="83.3193" y1="192.5869" y2="192.5869"/><text fill="#000000" font-family="sans-serif" font-size="14" font-weight="bold" lengthAdjust="spacing" textLength="64.3193" x="10" y="185.2851">memory</text></g><!--cluster domain--><g id="cluster_domain"><path d="M567.5,633.48 L626.9404,633.48 A3.75,3.75 0 0 1 629.4404,635.98 L636.4404,655.7769 L1132.5,655.7769 A2.5,2.5 0 0 1 1135,658.2769 L1135,795.17 A2.5,2.5 0 0 1 1132.5,797.67 L567.5,797.67 A2.5,2.5 0 0 1 565,795.17 L565,635.98 A2.5,2.5 0 0 1 567.5,633.48 " fill="none" style="stroke:#000000;stroke-width:1.5;"/><line style="stroke:#000000;stroke-width:1.5;" x1="565" x2="636.4404" y1="655.7769" y2="655.7769"/><text fill="#000000" font-family="sans-serif" font-size="14" font-weight="bold" lengthAdjust="spacing" textLength="58.4404" x="569" y="648.4751">domain</text></g><!--class CompletionChat--><g id="elem_CompletionChat"><rect codeLine="2" fill="#F1F1F1" height="64.2969" id="CompletionChat" rx="2.5" ry="2.5" style="stroke:#181818;stroke-width:0.5;" width="524.9961" x="653.5" y="41"/><ellipse cx="855.2969" cy="57" fill="#ADD1B2" rx="11" ry="11" style="stroke:#181818;stroke-width:1;"/><path d="M858.2656,62.6406 Q857.6875,62.9375 857.0469,63.0781 Q856.4063,63.2344 855.7031,63.2344 Q853.2031,63.2344 851.875,61.5938 Q850.5625,59.9375 850.5625,56.8125 Q850.5625,53.6875 851.875,52.0313 Q853.2031,50.375 855.7031,50.375 Q856.4063,50.375 857.0469,50.5313 Q857.7031,50.6875 858.2656,50.9844 L858.2656,53.7031 Q857.6406,53.125 857.0469,52.8594 Q856.4531,52.5781 855.8281,52.5781 Q854.4844,52.5781 853.7969,53.6563 Q853.1094,54.7188 853.1094,56.8125 Q853.1094,58.9063 853.7969,59.9844 Q854.4844,61.0469 855.8281,61.0469 Q856.4531,61.0469 857.0469,60.7813 Q857.6406,60.5 858.2656,59.9219 L858.2656,62.6406 Z " fill="#000000"/><text fill="#000000" font-family="sans-serif" font-size="14" lengthAdjust="spacing" textLength="112.9023" x="875.7969" y="61.8467">CompletionChat</text><line style="stroke:#181818;stroke-width:0.5;" x1="654.5" x2="1177.4961" y1="73" y2="73"/><line style="stroke:#181818;stroke-width:0.5;" x1="654.5" x2="1177.4961" y1="81" y2="81"/><ellipse cx="664.5" cy="94.6484" fill="#84BE84" rx="3" ry="3" style="stroke:#038048;stroke-width:1;"/><text fill="#000000" font-family="sans-serif" font-size="14" lengthAdjust="spacing" textLength="498.9961" x="673.5" y="97.9951">execute(input: CompletionChatInputData): CompletionChatOutputData</text></g><!--class ExtractMemoryFromConversation--><g id="elem_ExtractMemoryFromConversation"><rect codeLine="8" fill="#F1F1F1" height="64.2969" id="ExtractMemoryFromConversation" rx="2.5" ry="2.5" style="stroke:#181818;stroke-width:0.5;" width="513.3477" x="653.33" y="346.59"/><ellipse cx="787.9296" cy="362.59" fill="#ADD1B2" rx="11" ry="11" style="stroke:#181818;stroke-width:1;"/><path d="M790.8984,368.2306 Q790.3202,368.5275 789.6796,368.6681 Q789.039,368.8244 788.3359,368.8244 Q785.8359,368.8244 784.5077,367.1838 Q783.1952,365.5275 783.1952,362.4025 Q783.1952,359.2775 784.5077,357.6213 Q785.8359,355.965 788.3359,355.965 Q789.039,355.965 789.6796,356.1213 Q790.3359,356.2775 790.8984,356.5744 L790.8984,359.2931 Q790.2734,358.715 789.6796,358.4494 Q789.0859,358.1681 788.4609,358.1681 Q787.1171,358.1681 786.4296,359.2463 Q785.7421,360.3088 785.7421,362.4025 Q785.7421,364.4963 786.4296,365.5744 Q787.1171,366.6369 788.4609,366.6369 Q789.0859,366.6369 789.6796,366.3713 Q790.2734,366.09 790.8984,365.5119 L790.8984,368.2306 Z " fill="#000000"/><text fill="#000000" font-family="sans-serif" font-size="14" lengthAdjust="spacing" textLength="235.6484" x="808.4296" y="367.4367">ExtractMemoryFromConversation</text><line style="stroke:#181818;stroke-width:0.5;" x1="654.33" x2="1165.6777" y1="378.59" y2="378.59"/><line style="stroke:#181818;stroke-width:0.5;" x1="654.33" x2="1165.6777" y1="386.59" y2="386.59"/><ellipse cx="664.33" cy="400.2384" fill="#84BE84" rx="3" ry="3" style="stroke:#038048;stroke-width:1;"/><text fill="#000000" font-family="sans-serif" font-size="14" lengthAdjust="spacing" textLength="487.3477" x="673.33" y="403.5851">execute(input: ExtractMemoryInputData): ExtractMemoryOutputData</text></g><!--class BuildContext--><g id="elem_BuildContext"><rect codeLine="12" fill="#F1F1F1" height="64.2969" id="BuildContext" rx="2.5" ry="2.5" style="stroke:#181818;stroke-width:0.5;" width="479.6602" x="676.17" y="205.29"/><ellipse cx="866.6329" cy="221.29" fill="#ADD1B2" rx="11" ry="11" style="stroke:#181818;stroke-width:1;"/><path d="M869.6016,226.9306 Q869.0235,227.2275 868.3829,227.3681 Q867.7423,227.5244 867.0391,227.5244 Q864.5391,227.5244 863.211,225.8837 Q861.8985,224.2275 861.8985,221.1025 Q861.8985,217.9775 863.211,216.3212 Q864.5391,214.665 867.0391,214.665 Q867.7423,214.665 868.3829,214.8212 Q869.0391,214.9775 869.6016,215.2744 L869.6016,217.9931 Q868.9766,217.415 868.3829,217.1494 Q867.7891,216.8681 867.1641,216.8681 Q865.8204,216.8681 865.1329,217.9462 Q864.4454,219.0087 864.4454,221.1025 Q864.4454,223.1962 865.1329,224.2744 Q865.8204,225.3369 867.1641,225.3369 Q867.7891,225.3369 868.3829,225.0712 Q868.9766,224.79 869.6016,224.2119 L869.6016,226.9306 Z " fill="#000000"/><text fill="#000000" font-family="sans-serif" font-size="14" lengthAdjust="spacing" textLength="90.2344" x="887.1329" y="226.1367">BuildContext</text><line style="stroke:#181818;stroke-width:0.5;" x1="677.17" x2="1154.8302" y1="237.29" y2="237.29"/><line style="stroke:#181818;stroke-width:0.5;" x1="677.17" x2="1154.8302" y1="245.29" y2="245.29"/><ellipse cx="687.17" cy="258.9384" fill="#84BE84" rx="3" ry="3" style="stroke:#038048;stroke-width:1;"/><text fill="#000000" font-family="sans-serif" font-size="14" lengthAdjust="spacing" textLength="453.6602" x="696.17" y="262.2851">execute(input: BuildContextInputData): BuildContextOutputData</text></g><!--class FindRelevantMemory--><g id="elem_FindRelevantMemory"><rect codeLine="16" fill="#F1F1F1" height="64.2969" id="FindRelevantMemory" rx="2.5" ry="2.5" style="stroke:#181818;stroke-width:0.5;" width="596.6094" x="21.7" y="346.59"/><ellipse cx="241.4002" cy="362.59" fill="#ADD1B2" rx="11" ry="11" style="stroke:#181818;stroke-width:1;"/><path d="M244.3689,368.2306 Q243.7908,368.5275 243.1502,368.6681 Q242.5096,368.8244 241.8064,368.8244 Q239.3064,368.8244 237.9783,367.1838 Q236.6658,365.5275 236.6658,362.4025 Q236.6658,359.2775 237.9783,357.6213 Q239.3064,355.965 241.8064,355.965 Q242.5096,355.965 243.1502,356.1213 Q243.8064,356.2775 244.3689,356.5744 L244.3689,359.2931 Q243.7439,358.715 243.1502,358.4494 Q242.5564,358.1681 241.9314,358.1681 Q240.5877,358.1681 239.9002,359.2463 Q239.2127,360.3088 239.2127,362.4025 Q239.2127,364.4963 239.9002,365.5744 Q240.5877,366.6369 241.9314,366.6369 Q242.5564,366.6369 243.1502,366.3713 Q243.7439,366.09 244.3689,365.5119 L244.3689,368.2306 Z " fill="#000000"/><text fill="#000000" font-family="sans-serif" font-size="14" lengthAdjust="spacing" textLength="148.709" x="261.9002" y="367.4367">FindRelevantMemory</text><line style="stroke:#181818;stroke-width:0.5;" x1="22.7" x2="617.3094" y1="378.59" y2="378.59"/><line style="stroke:#181818;stroke-width:0.5;" x1="22.7" x2="617.3094" y1="386.59" y2="386.59"/><ellipse cx="32.7" cy="400.2384" fill="#84BE84" rx="3" ry="3" style="stroke:#038048;stroke-width:1;"/><text fill="#000000" font-family="sans-serif" font-size="14" lengthAdjust="spacing" textLength="570.6094" x="41.7" y="403.5851">execute(input: FindRelevantMemoryInputData): FindRelevantMemoryOutputData</text></g><!--class MemoryRepository--><g id="elem_MemoryRepository"><rect codeLine="20" fill="#F1F1F1" height="80.5938" id="MemoryRepository" rx="2.5" ry="2.5" style="stroke:#181818;stroke-width:0.5;" width="347.3232" x="498.34" y="487.89"/><ellipse cx="601.7472" cy="503.89" fill="#ADD1B2" rx="11" ry="11" style="stroke:#181818;stroke-width:1;"/><path d="M604.716,509.5306 Q604.1379,509.8275 603.4972,509.9681 Q602.8566,510.1244 602.1535,510.1244 Q599.6535,510.1244 598.3254,508.4838 Q597.0129,506.8275 597.0129,503.7025 Q597.0129,500.5775 598.3254,498.9213 Q599.6535,497.265 602.1535,497.265 Q602.8566,497.265 603.4972,497.4213 Q604.1535,497.5775 604.716,497.8744 L604.716,500.5931 Q604.091,500.015 603.4972,499.7494 Q602.9035,499.4681 602.2785,499.4681 Q600.9347,499.4681 600.2472,500.5463 Q599.5597,501.6088 599.5597,503.7025 Q599.5597,505.7963 600.2472,506.8744 Q600.9347,507.9369 602.2785,507.9369 Q602.9035,507.9369 603.4972,507.6713 Q604.091,507.39 604.716,506.8119 L604.716,509.5306 Z " fill="#000000"/><text fill="#000000" font-family="sans-serif" font-size="14" lengthAdjust="spacing" textLength="132.0088" x="622.2472" y="508.7367">MemoryRepository</text><line style="stroke:#181818;stroke-width:0.5;" x1="499.34" x2="844.6632" y1="519.89" y2="519.89"/><line style="stroke:#181818;stroke-width:0.5;" x1="499.34" x2="844.6632" y1="527.89" y2="527.89"/><ellipse cx="509.34" cy="541.5384" fill="#84BE84" rx="3" ry="3" style="stroke:#038048;stroke-width:1;"/><text fill="#000000" font-family="sans-serif" font-size="14" lengthAdjust="spacing" textLength="255.7324" x="518.34" y="544.8851">save(memory: Memory): Result&lt;()&gt;</text><ellipse cx="509.34" cy="557.8353" fill="#84BE84" rx="3" ry="3" style="stroke:#038048;stroke-width:1;"/><text fill="#000000" font-family="sans-serif" font-size="14" lengthAdjust="spacing" textLength="321.3232" x="518.34" y="561.182">find_memories(query: String): Vec&lt;Memory&gt;</text></g><!--class Memory--><g id="elem_Memory"><rect codeLine="27" fill="#F1F1F1" height="113.1875" id="Memory" rx="2.5" ry="2.5" style="stroke:#181818;stroke-width:0.5;" width="182.8232" x="580.59" y="668.48"/><ellipse cx="639.2834" cy="684.48" fill="#ADD1B2" rx="11" ry="11" style="stroke:#181818;stroke-width:1;"/><path d="M642.2521,690.1206 Q641.674,690.4175 641.0334,690.5581 Q640.3927,690.7144 639.6896,690.7144 Q637.1896,690.7144 635.8615,689.0737 Q634.549,687.4175 634.549,684.2925 Q634.549,681.1675 635.8615,679.5112 Q637.1896,677.855 639.6896,677.855 Q640.3927,677.855 641.0334,678.0112 Q641.6896,678.1675 642.2521,678.4644 L642.2521,681.1831 Q641.6271,680.605 641.0334,680.3394 Q640.4396,680.0581 639.8146,680.0581 Q638.4709,680.0581 637.7834,681.1362 Q637.0959,682.1987 637.0959,684.2925 Q637.0959,686.3862 637.7834,687.4644 Q638.4709,688.5269 639.8146,688.5269 Q640.4396,688.5269 641.0334,688.2612 Q641.6271,687.98 642.2521,687.4019 L642.2521,690.1206 Z " fill="#000000"/><text fill="#000000" font-family="sans-serif" font-size="14" lengthAdjust="spacing" textLength="56.9365" x="659.7834" y="689.3267">Memory</text><line style="stroke:#181818;stroke-width:0.5;" x1="581.59" x2="762.4132" y1="700.48" y2="700.48"/><ellipse cx="591.59" cy="714.1284" fill="none" rx="3" ry="3" style="stroke:#038048;stroke-width:1;"/><text fill="#000000" font-family="sans-serif" font-size="14" lengthAdjust="spacing" textLength="91.8955" x="600.59" y="717.4751">id: MemoryId</text><ellipse cx="591.59" cy="730.4253" fill="none" rx="3" ry="3" style="stroke:#038048;stroke-width:1;"/><text fill="#000000" font-family="sans-serif" font-size="14" lengthAdjust="spacing" textLength="104.5488" x="600.59" y="733.772">content: String</text><ellipse cx="591.59" cy="746.7222" fill="none" rx="3" ry="3" style="stroke:#038048;stroke-width:1;"/><text fill="#000000" font-family="sans-serif" font-size="14" lengthAdjust="spacing" textLength="103.9609" x="600.59" y="750.0689">context: String</text><ellipse cx="591.59" cy="763.0191" fill="none" rx="3" ry="3" style="stroke:#038048;stroke-width:1;"/><text fill="#000000" font-family="sans-serif" font-size="14" lengthAdjust="spacing" textLength="156.8232" x="600.59" y="766.3657">importance_score: f32</text><line style="stroke:#181818;stroke-width:0.5;" x1="581.59" x2="762.4132" y1="773.6675" y2="773.6675"/></g><!--class LLMCompletionDomainService--><g id="elem_LLMCompletionDomainService"><rect codeLine="34" fill="#F1F1F1" height="64.2969" id="LLMCompletionDomainService" rx="2.5" ry="2.5" style="stroke:#181818;stroke-width:0.5;" width="320.2871" x="798.86" y="692.93"/><ellipse cx="847.7882" cy="708.93" fill="#B4A7E5" rx="11" ry="11" style="stroke:#181818;stroke-width:1;"/><path d="M843.7101,704.6956 L843.7101,702.5394 L851.1007,702.5394 L851.1007,704.6956 L848.632,704.6956 L848.632,712.7738 L851.1007,712.7738 L851.1007,714.93 L843.7101,714.93 L843.7101,712.7738 L846.1788,712.7738 L846.1788,704.6956 L843.7101,704.6956 Z " fill="#000000"/><text fill="#000000" font-family="sans-serif" font-size="14" font-style="italic" lengthAdjust="spacing" textLength="213.9307" x="868.2882" y="713.7767">LLMCompletionDomainService</text><line style="stroke:#181818;stroke-width:0.5;" x1="799.86" x2="1118.1471" y1="724.93" y2="724.93"/><line style="stroke:#181818;stroke-width:0.5;" x1="799.86" x2="1118.1471" y1="732.93" y2="732.93"/><ellipse cx="809.86" cy="746.5784" fill="#84BE84" rx="3" ry="3" style="stroke:#038048;stroke-width:1;"/><text fill="#000000" font-family="sans-serif" font-size="14" lengthAdjust="spacing" textLength="294.2871" x="818.86" y="749.9251">completion(input: String): Result&lt;String&gt;</text></g><!--link CompletionChat to BuildContext--><g id="link_CompletionChat_BuildContext"><path codeLine="39" d="M916,105.44 C916,134.09 916,170.27 916,198.97 " fill="none" id="CompletionChat-to-BuildContext" style="stroke:#181818;stroke-width:1;"/><polygon fill="#181818" points="916,204.97,920,195.97,916,199.97,912,195.97,916,204.97" style="stroke:#181818;stroke-width:1;"/><text fill="#000000" font-family="sans-serif" font-size="13" lengthAdjust="spacing" textLength="29.7832" x="917" y="150.3569">uses</text></g><!--link BuildContext to FindRelevantMemory--><g id="link_BuildContext_FindRelevantMemory"><path codeLine="40" d="M780.76,270.05 C683.39,292.81 558.4225,322.0142 461.0625,344.7742 " fill="none" id="BuildContext-to-FindRelevantMemory" style="stroke:#181818;stroke-width:1;"/><polygon fill="#181818" points="455.22,346.14,464.8943,347.9863,460.0887,345.0018,463.0732,340.1963,455.22,346.14" style="stroke:#181818;stroke-width:1;"/><text fill="#000000" font-family="sans-serif" font-size="13" lengthAdjust="spacing" textLength="29.7832" x="654" y="312.6569">uses</text></g><!--link FindRelevantMemory to MemoryRepository--><g id="link_FindRelevantMemory_MemoryRepository"><path codeLine="41" d="M395.51,411.37 C448.64,433.63 514.6056,461.2625 571.5856,485.1225 " fill="none" id="FindRelevantMemory-to-MemoryRepository" style="stroke:#181818;stroke-width:1;"/><polygon fill="#181818" points="577.12,487.44,570.3634,480.2742,572.508,485.5088,567.2735,487.6534,577.12,487.44" style="stroke:#181818;stroke-width:1;"/><text fill="#000000" font-family="sans-serif" font-size="13" lengthAdjust="spacing" textLength="29.7832" x="507" y="453.9569">uses</text></g><!--link ExtractMemoryFromConversation to MemoryRepository--><g id="link_ExtractMemoryFromConversation_MemoryRepository"><path codeLine="42" d="M858.94,411.37 C823.02,433.63 779.7811,460.4211 741.2511,484.2811 " fill="none" id="ExtractMemoryFromConversation-to-MemoryRepository" style="stroke:#181818;stroke-width:1;"/><polygon fill="#181818" points="736.15,487.44,745.9076,486.1024,740.4009,484.8076,741.6957,479.3009,736.15,487.44" style="stroke:#181818;stroke-width:1;"/><text fill="#000000" font-family="sans-serif" font-size="13" lengthAdjust="spacing" textLength="29.7832" x="806" y="453.9569">uses</text></g><!--link ExtractMemoryFromConversation to LLMCompletionDomainService--><g id="link_ExtractMemoryFromConversation_LLMCompletionDomainService"><path codeLine="43" d="M914.48,411.21 C923.81,476.79 944.3944,621.4599 953.7044,686.8599 " fill="none" id="ExtractMemoryFromConversation-to-LLMCompletionDomainService" style="stroke:#181818;stroke-width:1;"/><polygon fill="#181818" points="954.55,692.8,957.2417,683.3261,953.8453,687.8499,949.3215,684.4536,954.55,692.8" style="stroke:#181818;stroke-width:1;"/><text fill="#000000" font-family="sans-serif" font-size="13" lengthAdjust="spacing" textLength="202.7061" x="941" y="532.7569">uses for importance evaluation</text></g><!--link BuildContext to LLMCompletionDomainService--><g id="link_BuildContext_LLMCompletionDomainService"><path codeLine="44" d="M1079.56,270.03 C1120.36,286.05 1159.44,310.2 1184,346.59 C1216.72,395.08 1198.21,520.93 1152,592.48 C1123.18,637.11 1078.6309,667.7281 1036.8009,689.7181 " fill="none" id="BuildContext-to-LLMCompletionDomainService" style="stroke:#181818;stroke-width:1;"/><polygon fill="#181818" points="1031.49,692.51,1041.3176,691.8627,1035.9157,690.1834,1037.595,684.7816,1031.49,692.51" style="stroke:#181818;stroke-width:1;"/><text fill="#000000" font-family="sans-serif" font-size="13" lengthAdjust="spacing" textLength="179.9814" x="1200" y="453.9569">uses for context generation</text></g><!--link MemoryRepository to Memory--><g id="link_MemoryRepository_Memory"><path codeLine="45" d="M672,568.62 C672,597.21 672,630.27 672,662.08 " fill="none" id="MemoryRepository-to-Memory" style="stroke:#181818;stroke-width:1;"/><polygon fill="#181818" points="672,668.08,676,659.08,672,663.08,668,659.08,672,668.08" style="stroke:#181818;stroke-width:1;"/><text fill="#000000" font-family="sans-serif" font-size="13" lengthAdjust="spacing" textLength="59.8584" x="673" y="613.5469">manages</text></g><!--SRC=[fLDDQy904BtdLmoU8iLBUmlYeLf1K0eAlSgo6UtIP3VTZv0Y_lTkaatS94OAFUwyD_FUV6n6w1Sv8qpe9z57Aj8iGSq4dy0b0A09KGgMRNHfIHK0y0HO83KQGyOpewCUQrC6LqIJQHzvDzf1jiurk0P1rdX8CHNonvT-AxGaLEygO2r5kXGyHwb8MMtCIIV9Dz81UZu0Mj5NmvBO2caiHhlrERw47nzNM3CUxp71d73dPandoFJLXkYuPetlCHEAQLzHaHp3UlIHOzdIUrGcqVDmkd2qazKwLZI6AlmsMD8FMZ9-jlGFfFCwTp5OQonImZeNrUkPnOtm9dOXMewGwqR1ZnRzA4ip8JNX58-A2eaHd5wUR-qpcoDFX29ijxlRBQugLmUKERFGfLLey6O3ROjk8lMxxRBtEMQpHVT-8Z0ALT29bQGx9-2eTv0oOR0_Ht_yHVwN-M1WTGqu2UdD7wpfn5Jvmux_Lioj6Cx8KTQL1lvlJTdCb71xPUeN]--></g></svg>