<svg xmlns="http://www.w3.org/2000/svg" xmlns:xlink="http://www.w3.org/1999/xlink" contentStyleType="text/css" data-diagram-type="SEQUENCE" height="651px" preserveAspectRatio="none" style="width:648px;height:651px;background:#FFFFFF;" version="1.1" viewBox="0 0 648 651" width="648px" zoomAndPan="magnify"><defs/><g><rect fill="#FFFFFF" height="439.9922" style="stroke:#181818;stroke-width:1;" width="10" x="133.9552" y="112.4297"/><rect fill="#FFFFFF" height="29.1328" style="stroke:#181818;stroke-width:1;" width="10" x="379.2562" y="315.3594"/><rect fill="#FFFFFF" height="29.1328" style="stroke:#181818;stroke-width:1;" width="10" x="379.2562" y="480.1563"/><rect fill="#FFFFFF" height="29.1328" style="stroke:#181818;stroke-width:1;" width="10" x="460.9788" y="199.8281"/><rect fill="#FFFFFF" height="29.1328" style="stroke:#181818;stroke-width:1;" width="10" x="460.9788" y="397.7578"/><rect fill="#FFFFFF" height="29.1328" style="stroke:#181818;stroke-width:1;" width="10" x="565.2977" y="141.5625"/><rect fill="none" height="164.7969" style="stroke:#000000;stroke-width:1.5;" width="406.5295" x="91.2355" y="359.4922"/><rect fill="none" height="75.3984" style="stroke:#000000;stroke-width:1.5;" width="342.9572" x="101.2355" y="441.8906"/><line style="stroke:#181818;stroke-width:0.5;stroke-dasharray:5.0,5.0;" x1="23" x2="23" y1="81.2969" y2="570.4219"/><line style="stroke:#181818;stroke-width:0.5;stroke-dasharray:5.0,5.0;" x1="138.2355" x2="138.2355" y1="81.2969" y2="570.4219"/><line style="stroke:#181818;stroke-width:0.5;stroke-dasharray:5.0,5.0;" x1="383.3197" x2="383.3197" y1="81.2969" y2="570.4219"/><line style="stroke:#181818;stroke-width:0.5;stroke-dasharray:5.0,5.0;" x1="465.1927" x2="465.1927" y1="81.2969" y2="570.4219"/><line style="stroke:#181818;stroke-width:0.5;stroke-dasharray:5.0,5.0;" x1="569.765" x2="569.765" y1="81.2969" y2="570.4219"/><text fill="#000000" font-family="sans-serif" font-size="14" lengthAdjust="spacing" textLength="31.9102" x="5" y="77.9951">User</text><ellipse cx="23.9551" cy="13.5" fill="#E2E2F0" rx="8" ry="8" style="stroke:#181818;stroke-width:0.5;"/><path d="M23.9551,21.5 L23.9551,48.5 M10.9551,29.5 L36.9551,29.5 M23.9551,48.5 L10.9551,63.5 M23.9551,48.5 L36.9551,63.5 " fill="none" style="stroke:#181818;stroke-width:0.5;"/><text fill="#000000" font-family="sans-serif" font-size="14" lengthAdjust="spacing" textLength="31.9102" x="5" y="582.417">User</text><ellipse cx="23.9551" cy="594.2188" fill="#E2E2F0" rx="8" ry="8" style="stroke:#181818;stroke-width:0.5;"/><path d="M23.9551,602.2188 L23.9551,629.2188 M10.9551,610.2188 L36.9551,610.2188 M23.9551,629.2188 L10.9551,644.2188 M23.9551,629.2188 L36.9551,644.2188 " fill="none" style="stroke:#181818;stroke-width:0.5;"/><rect fill="#E2E2F0" height="30.2969" rx="2.5" ry="2.5" style="stroke:#181818;stroke-width:0.5;" width="55.4395" x="111.2355" y="50"/><text fill="#000000" font-family="sans-serif" font-size="14" lengthAdjust="spacing" textLength="41.4395" x="118.2355" y="69.9951">Agent</text><rect fill="#E2E2F0" height="30.2969" rx="2.5" ry="2.5" style="stroke:#181818;stroke-width:0.5;" width="55.4395" x="111.2355" y="569.4219"/><text fill="#000000" font-family="sans-serif" font-size="14" lengthAdjust="spacing" textLength="41.4395" x="118.2355" y="589.417">Agent</text><rect fill="#E2E2F0" height="30.2969" rx="2.5" ry="2.5" style="stroke:#181818;stroke-width:0.5;" width="99.873" x="334.3197" y="50"/><text fill="#000000" font-family="sans-serif" font-size="14" lengthAdjust="spacing" textLength="85.873" x="341.3197" y="69.9951">LLMProvider</text><rect fill="#E2E2F0" height="30.2969" rx="2.5" ry="2.5" style="stroke:#181818;stroke-width:0.5;" width="99.873" x="334.3197" y="569.4219"/><text fill="#000000" font-family="sans-serif" font-size="14" lengthAdjust="spacing" textLength="85.873" x="341.3197" y="589.417">LLMProvider</text><rect fill="#E2E2F0" height="30.2969" rx="2.5" ry="2.5" style="stroke:#181818;stroke-width:0.5;" width="43.5723" x="444.1927" y="50"/><text fill="#000000" font-family="sans-serif" font-size="14" lengthAdjust="spacing" textLength="29.5723" x="451.1927" y="69.9951">Tool</text><rect fill="#E2E2F0" height="30.2969" rx="2.5" ry="2.5" style="stroke:#181818;stroke-width:0.5;" width="43.5723" x="444.1927" y="569.4219"/><text fill="#000000" font-family="sans-serif" font-size="14" lengthAdjust="spacing" textLength="29.5723" x="451.1927" y="589.417">Tool</text><rect fill="#E2E2F0" height="30.2969" rx="2.5" ry="2.5" style="stroke:#181818;stroke-width:0.5;" width="145.0654" x="497.765" y="50"/><text fill="#000000" font-family="sans-serif" font-size="14" lengthAdjust="spacing" textLength="131.0654" x="504.765" y="69.9951">DependencyGraph</text><rect fill="#E2E2F0" height="30.2969" rx="2.5" ry="2.5" style="stroke:#181818;stroke-width:0.5;" width="145.0654" x="497.765" y="569.4219"/><text fill="#000000" font-family="sans-serif" font-size="14" lengthAdjust="spacing" textLength="131.0654" x="504.765" y="589.417">DependencyGraph</text><rect fill="#FFFFFF" height="439.9922" style="stroke:#181818;stroke-width:1;" width="10" x="133.9552" y="112.4297"/><rect fill="#FFFFFF" height="29.1328" style="stroke:#181818;stroke-width:1;" width="10" x="379.2562" y="315.3594"/><rect fill="#FFFFFF" height="29.1328" style="stroke:#181818;stroke-width:1;" width="10" x="379.2562" y="480.1563"/><rect fill="#FFFFFF" height="29.1328" style="stroke:#181818;stroke-width:1;" width="10" x="460.9788" y="199.8281"/><rect fill="#FFFFFF" height="29.1328" style="stroke:#181818;stroke-width:1;" width="10" x="460.9788" y="397.7578"/><rect fill="#FFFFFF" height="29.1328" style="stroke:#181818;stroke-width:1;" width="10" x="565.2977" y="141.5625"/><polygon fill="#181818" points="121.9552,108.4297,131.9552,112.4297,121.9552,116.4297,125.9552,112.4297" style="stroke:#181818;stroke-width:1;"/><line style="stroke:#181818;stroke-width:1;" x1="23.9551" x2="127.9552" y1="112.4297" y2="112.4297"/><text fill="#000000" font-family="sans-serif" font-size="13" lengthAdjust="spacing" textLength="91.0001" x="30.9551" y="107.3638">&#12522;&#12463;&#12456;&#12473;&#12488;&#36865;&#20449;</text><polygon fill="#181818" points="553.2977,137.5625,563.2977,141.5625,553.2977,145.5625,557.2977,141.5625" style="stroke:#181818;stroke-width:1;"/><line style="stroke:#181818;stroke-width:1;" x1="143.9552" x2="559.2977" y1="141.5625" y2="141.5625"/><text fill="#000000" font-family="sans-serif" font-size="13" lengthAdjust="spacing" textLength="104.0001" x="150.9552" y="136.4966">&#20381;&#23384;&#38306;&#20418;&#12481;&#12455;&#12483;&#12463;</text><polygon fill="#181818" points="154.9552,166.6953,144.9552,170.6953,154.9552,174.6953,150.9552,170.6953" style="stroke:#181818;stroke-width:1;"/><line style="stroke:#181818;stroke-width:1;stroke-dasharray:2.0,2.0;" x1="148.9552" x2="569.2977" y1="170.6953" y2="170.6953"/><text fill="#000000" font-family="sans-serif" font-size="13" lengthAdjust="spacing" textLength="78.0001" x="160.9552" y="165.6294">&#20381;&#23384;&#38306;&#20418;&#24773;&#22577;</text><polygon fill="#181818" points="448.9788,195.8281,458.9788,199.8281,448.9788,203.8281,452.9788,199.8281" style="stroke:#181818;stroke-width:1;"/><line style="stroke:#181818;stroke-width:1;" x1="143.9552" x2="454.9788" y1="199.8281" y2="199.8281"/><text fill="#000000" font-family="sans-serif" font-size="13" lengthAdjust="spacing" textLength="169.0002" x="150.9552" y="194.7622">&#21033;&#29992;&#21487;&#33021;&#12394;&#12484;&#12540;&#12523;&#24773;&#22577;&#12398;&#21462;&#24471;</text><polygon fill="#181818" points="154.9552,224.9609,144.9552,228.9609,154.9552,232.9609,150.9552,228.9609" style="stroke:#181818;stroke-width:1;"/><line style="stroke:#181818;stroke-width:1;stroke-dasharray:2.0,2.0;" x1="148.9552" x2="464.9788" y1="228.9609" y2="228.9609"/><text fill="#000000" font-family="sans-serif" font-size="13" lengthAdjust="spacing" textLength="221.0003" x="160.9552" y="223.895">&#12484;&#12540;&#12523;&#24773;&#22577;&#65288;&#27231;&#33021;&#12289;&#12497;&#12521;&#12513;&#12540;&#12479;&#12394;&#12393;&#65289;</text><line style="stroke:#181818;stroke-width:1;" x1="143.9552" x2="185.9552" y1="273.2266" y2="273.2266"/><line style="stroke:#181818;stroke-width:1;" x1="185.9552" x2="185.9552" y1="273.2266" y2="286.2266"/><line style="stroke:#181818;stroke-width:1;" x1="144.9552" x2="185.9552" y1="286.2266" y2="286.2266"/><polygon fill="#181818" points="154.9552,282.2266,144.9552,286.2266,154.9552,290.2266,150.9552,286.2266" style="stroke:#181818;stroke-width:1;"/><text fill="#000000" font-family="sans-serif" font-size="13" lengthAdjust="spacing" textLength="104.0001" x="150.9552" y="253.0278">&#12503;&#12525;&#12531;&#12503;&#12488;&#12398;&#27083;&#31689;</text><text fill="#000000" font-family="sans-serif" font-size="13" lengthAdjust="spacing" textLength="211.301" x="150.9552" y="268.1606">(&#12471;&#12473;&#12486;&#12512;&#12503;&#12525;&#12531;&#12503;&#12488; + &#12484;&#12540;&#12523;&#24773;&#22577;)</text><polygon fill="#181818" points="367.2562,311.3594,377.2562,315.3594,367.2562,319.3594,371.2562,315.3594" style="stroke:#181818;stroke-width:1;"/><line style="stroke:#181818;stroke-width:1;" x1="143.9552" x2="373.2562" y1="315.3594" y2="315.3594"/><text fill="#000000" font-family="sans-serif" font-size="13" lengthAdjust="spacing" textLength="143.0002" x="150.9552" y="310.2935">&#12486;&#12461;&#12473;&#12488;&#29983;&#25104;&#12522;&#12463;&#12456;&#12473;&#12488;</text><polygon fill="#181818" points="154.9552,340.4922,144.9552,344.4922,154.9552,348.4922,150.9552,344.4922" style="stroke:#181818;stroke-width:1;"/><line style="stroke:#181818;stroke-width:1;stroke-dasharray:2.0,2.0;" x1="148.9552" x2="383.2562" y1="344.4922" y2="344.4922"/><text fill="#000000" font-family="sans-serif" font-size="13" lengthAdjust="spacing" textLength="117.0001" x="160.9552" y="339.4263">&#29983;&#25104;&#12373;&#12428;&#12383;&#12486;&#12461;&#12473;&#12488;</text><path d="M91.2355,359.4922 L167.8595,359.4922 L167.8595,366.625 L157.8595,376.625 L91.2355,376.625 L91.2355,359.4922 " fill="#EEEEEE" style="stroke:#000000;stroke-width:1.5;"/><rect fill="none" height="164.7969" style="stroke:#000000;stroke-width:1.5;" width="406.5295" x="91.2355" y="359.4922"/><text fill="#000000" font-family="sans-serif" font-size="13" font-weight="bold" lengthAdjust="spacing" textLength="31.624" x="106.2355" y="372.5591">loop</text><text fill="#000000" font-family="sans-serif" font-size="11" font-weight="bold" lengthAdjust="spacing" textLength="65.0543" x="182.8595" y="371.7026">[&#12484;&#12540;&#12523;&#23455;&#34892;]</text><polygon fill="#181818" points="448.9788,393.7578,458.9788,397.7578,448.9788,401.7578,452.9788,397.7578" style="stroke:#181818;stroke-width:1;"/><line style="stroke:#181818;stroke-width:1;" x1="143.9552" x2="454.9788" y1="397.7578" y2="397.7578"/><text fill="#000000" font-family="sans-serif" font-size="13" lengthAdjust="spacing" textLength="65.0001" x="150.9552" y="392.6919">&#12484;&#12540;&#12523;&#23455;&#34892;</text><polygon fill="#181818" points="154.9552,422.8906,144.9552,426.8906,154.9552,430.8906,150.9552,426.8906" style="stroke:#181818;stroke-width:1;"/><line style="stroke:#181818;stroke-width:1;stroke-dasharray:2.0,2.0;" x1="148.9552" x2="464.9788" y1="426.8906" y2="426.8906"/><text fill="#000000" font-family="sans-serif" font-size="13" lengthAdjust="spacing" textLength="52.0001" x="160.9552" y="421.8247">&#23455;&#34892;&#32080;&#26524;</text><path d="M101.2355,441.8906 L165.6783,441.8906 L165.6783,449.0234 L155.6783,459.0234 L101.2355,459.0234 L101.2355,441.8906 " fill="#EEEEEE" style="stroke:#000000;stroke-width:1.5;"/><rect fill="none" height="75.3984" style="stroke:#000000;stroke-width:1.5;" width="342.9572" x="101.2355" y="441.8906"/><text fill="#000000" font-family="sans-serif" font-size="13" font-weight="bold" lengthAdjust="spacing" textLength="19.4429" x="116.2355" y="454.9575">alt</text><text fill="#000000" font-family="sans-serif" font-size="11" font-weight="bold" lengthAdjust="spacing" textLength="131.0538" x="180.6783" y="454.1011">[&#36861;&#21152;&#12398;&#20966;&#29702;&#12364;&#24517;&#35201;&#12394;&#22580;&#21512;]</text><polygon fill="#181818" points="367.2562,476.1563,377.2562,480.1563,367.2562,484.1563,371.2562,480.1563" style="stroke:#181818;stroke-width:1;"/><line style="stroke:#181818;stroke-width:1;" x1="143.9552" x2="373.2562" y1="480.1563" y2="480.1563"/><text fill="#000000" font-family="sans-serif" font-size="13" lengthAdjust="spacing" textLength="117.0001" x="150.9552" y="475.0903">&#36861;&#21152;&#12398;&#12486;&#12461;&#12473;&#12488;&#29983;&#25104;</text><polygon fill="#181818" points="154.9552,505.2891,144.9552,509.2891,154.9552,513.2891,150.9552,509.2891" style="stroke:#181818;stroke-width:1;"/><line style="stroke:#181818;stroke-width:1;stroke-dasharray:2.0,2.0;" x1="148.9552" x2="383.2562" y1="509.2891" y2="509.2891"/><text fill="#000000" font-family="sans-serif" font-size="13" lengthAdjust="spacing" textLength="117.0001" x="160.9552" y="504.2231">&#29983;&#25104;&#12373;&#12428;&#12383;&#12486;&#12461;&#12473;&#12488;</text><polygon fill="#181818" points="34.9551,548.4219,24.9551,552.4219,34.9551,556.4219,30.9551,552.4219" style="stroke:#181818;stroke-width:1;"/><line style="stroke:#181818;stroke-width:1;stroke-dasharray:2.0,2.0;" x1="28.9551" x2="137.9552" y1="552.4219" y2="552.4219"/><text fill="#000000" font-family="sans-serif" font-size="13" lengthAdjust="spacing" textLength="78.0001" x="40.9551" y="547.356">&#26368;&#32066;&#32080;&#26524;&#36820;&#21364;</text><!--SRC=[dPFFIyCm5CVl-IjoLCH_O0T14BmeUD2Rbx8L7Oosr29uMnATLITEc3yEwZOFwfGvH8S8c_rZtjBMa_-2JUlMDEh5GjiqUU-JRxxlLSixferNDdGRMPhj5FD5IpCSFBkc6qvcPc5XSSasDui59NBPD4kPYJdTqes2RkItvctDMaT8mF7qJCBCOM3tGBj0xu2-0NC_ocJejP2MTugRcgD_xupYbyXIS3ayVB_adVEFq-kXHu4HeBV0M4HC4Qe2vHjFfs9acCzsUFC95VG_GQagSUeSvcuxgD_nesx81a3kWMq3wmDxI4X07ldHANy_IvN5Pec7h459- -oxVhiXY6K2x1XO6rXB151Fx47Qd_qzMMJCJ9MDeMV0Ei2Uuu4RQV5l3uBktgen0VGrjhu2hAc4uIbLpQI4bbf0R501sabg6DGRlbjJ2fkUMcuTQInxy4qW9q2hG1eoN3whJ48bqxHIkVon4RQg24UNKgNVGhBkYHcrAabmqAlvLnTnW6gvc4jO9GU7te3lDqN5Ts-2MWL8bNixuGs9AiQRBxpcnf4PSHatn_a_RHrd_kh2QF4VlevI__1NB4NTZyGzwe48BFxc7FOloa6F9kw4NfqVliXbYgE_0000]--></g></svg>