<svg xmlns="http://www.w3.org/2000/svg" xmlns:xlink="http://www.w3.org/1999/xlink" contentStyleType="text/css" data-diagram-type="CLASS" height="842px" preserveAspectRatio="none" style="width:676px;height:842px;background:#FFFFFF;" version="1.1" viewBox="0 0 676 842" width="676px" zoomAndPan="magnify"><defs/><g><!--class Memory--><g id="elem_Memory"><rect codeLine="9" fill="#FFFFFF" height="210.9688" id="Memory" rx="2.5" ry="2.5" style="stroke:#000000;stroke-width:0.5;" width="292.8066" x="7" y="402.26"/><ellipse cx="120.6851" cy="418.26" fill="#ADD1B2" rx="11" ry="11" style="stroke:#181818;stroke-width:1;"/><path d="M123.6538,423.9006 Q123.0757,424.1975 122.4351,424.3381 Q121.7944,424.4944 121.0913,424.4944 Q118.5913,424.4944 117.2632,422.8537 Q115.9507,421.1975 115.9507,418.0725 Q115.9507,414.9475 117.2632,413.2912 Q118.5913,411.635 121.0913,411.635 Q121.7944,411.635 122.4351,411.7912 Q123.0913,411.9475 123.6538,412.2444 L123.6538,414.9631 Q123.0288,414.385 122.4351,414.1194 Q121.8413,413.8381 121.2163,413.8381 Q119.8726,413.8381 119.1851,414.9162 Q118.4976,415.9787 118.4976,418.0725 Q118.4976,420.1662 119.1851,421.2444 Q119.8726,422.3069 121.2163,422.3069 Q121.8413,422.3069 122.4351,422.0412 Q123.0288,421.76 123.6538,421.1819 L123.6538,423.9006 Z " fill="#000000"/><text fill="#000000" font-family="sans-serif" font-size="14" lengthAdjust="spacing" textLength="56.9365" x="141.1851" y="423.1067">Memory</text><line style="stroke:#000000;stroke-width:0.5;" x1="8" x2="298.8066" y1="434.26" y2="434.26"/><ellipse cx="18" cy="447.9084" fill="none" rx="3" ry="3" style="stroke:#038048;stroke-width:1;"/><text fill="#000000" font-family="sans-serif" font-size="14" lengthAdjust="spacing" textLength="91.8955" x="27" y="451.2551">id: MemoryId</text><ellipse cx="18" cy="464.2053" fill="none" rx="3" ry="3" style="stroke:#038048;stroke-width:1;"/><text fill="#000000" font-family="sans-serif" font-size="14" lengthAdjust="spacing" textLength="104.4053" x="27" y="467.552">user_id: UserId</text><ellipse cx="18" cy="480.5022" fill="none" rx="3" ry="3" style="stroke:#038048;stroke-width:1;"/><text fill="#000000" font-family="sans-serif" font-size="14" lengthAdjust="spacing" textLength="224.998" x="27" y="483.8489">conversation_id: ConversationId</text><ellipse cx="18" cy="496.7991" fill="none" rx="3" ry="3" style="stroke:#038048;stroke-width:1;"/><text fill="#000000" font-family="sans-serif" font-size="14" lengthAdjust="spacing" textLength="197.21" x="27" y="500.1457">memory_type: MemoryType</text><ellipse cx="18" cy="513.0959" fill="none" rx="3" ry="3" style="stroke:#038048;stroke-width:1;"/><text fill="#000000" font-family="sans-serif" font-size="14" lengthAdjust="spacing" textLength="104.5488" x="27" y="516.4426">content: String</text><ellipse cx="18" cy="529.3928" fill="none" rx="3" ry="3" style="stroke:#038048;stroke-width:1;"/><text fill="#000000" font-family="sans-serif" font-size="14" lengthAdjust="spacing" textLength="103.9609" x="27" y="532.7395">context: String</text><ellipse cx="18" cy="545.6897" fill="none" rx="3" ry="3" style="stroke:#038048;stroke-width:1;"/><text fill="#000000" font-family="sans-serif" font-size="14" lengthAdjust="spacing" textLength="156.8232" x="27" y="549.0364">importance_score: f32</text><ellipse cx="18" cy="561.9866" fill="none" rx="3" ry="3" style="stroke:#038048;stroke-width:1;"/><text fill="#000000" font-family="sans-serif" font-size="14" lengthAdjust="spacing" textLength="198.9189" x="27" y="565.3332">created_at: DateTime&lt;Utc&gt;</text><ellipse cx="18" cy="578.2834" fill="none" rx="3" ry="3" style="stroke:#038048;stroke-width:1;"/><text fill="#000000" font-family="sans-serif" font-size="14" lengthAdjust="spacing" textLength="242.2109" x="27" y="581.6301">last_accessed_at: DateTime&lt;Utc&gt;</text><ellipse cx="18" cy="594.5803" fill="none" rx="3" ry="3" style="stroke:#038048;stroke-width:1;"/><text fill="#000000" font-family="sans-serif" font-size="14" lengthAdjust="spacing" textLength="266.8066" x="27" y="597.927">expires_at: Option&lt;DateTime&lt;Utc&gt;&gt;</text><line style="stroke:#000000;stroke-width:0.5;" x1="8" x2="298.8066" y1="605.2288" y2="605.2288"/></g><!--class MemoryType--><g id="elem_MemoryType"><rect codeLine="22" fill="#FFFFFF" height="80.5938" id="MemoryType" rx="2.5" ry="2.5" style="stroke:#000000;stroke-width:0.5;" width="123.2734" x="91.77" y="713.97"/><ellipse cx="106.77" cy="729.97" fill="#EB937F" rx="11" ry="11" style="stroke:#181818;stroke-width:1;"/><path d="M110.8794,735.97 L103.1606,735.97 L103.1606,723.5794 L110.8794,723.5794 L110.8794,725.7356 L105.6138,725.7356 L105.6138,728.4075 L110.3794,728.4075 L110.3794,730.5637 L105.6138,730.5637 L105.6138,733.8137 L110.8794,733.8137 L110.8794,735.97 Z " fill="#000000"/><text fill="#000000" font-family="sans-serif" font-size="14" lengthAdjust="spacing" textLength="91.2734" x="120.77" y="734.8167">MemoryType</text><line style="stroke:#000000;stroke-width:0.5;" x1="92.77" x2="214.0434" y1="745.97" y2="745.97"/><ellipse cx="102.77" cy="759.6184" fill="none" rx="3" ry="3" style="stroke:#038048;stroke-width:1;"/><text fill="#000000" font-family="sans-serif" font-size="14" lengthAdjust="spacing" textLength="74.1289" x="111.77" y="762.9651">ShortTerm</text><ellipse cx="102.77" cy="775.9153" fill="none" rx="3" ry="3" style="stroke:#038048;stroke-width:1;"/><text fill="#000000" font-family="sans-serif" font-size="14" lengthAdjust="spacing" textLength="70.6836" x="111.77" y="779.262">LongTerm</text><line style="stroke:#000000;stroke-width:0.5;" x1="92.77" x2="214.0434" y1="786.5637" y2="786.5637"/></g><!--class UserPreference--><g id="elem_UserPreference"><rect codeLine="27" fill="#FFFFFF" height="145.7813" id="UserPreference" rx="2.5" ry="2.5" style="stroke:#000000;stroke-width:0.5;" width="261.751" x="235.53" y="196.48"/><ellipse cx="308.2473" cy="212.48" fill="#ADD1B2" rx="11" ry="11" style="stroke:#181818;stroke-width:1;"/><path d="M311.216,218.1206 Q310.6379,218.4175 309.9973,218.5581 Q309.3567,218.7144 308.6535,218.7144 Q306.1535,218.7144 304.8254,217.0737 Q303.5129,215.4175 303.5129,212.2925 Q303.5129,209.1675 304.8254,207.5112 Q306.1535,205.855 308.6535,205.855 Q309.3567,205.855 309.9973,206.0112 Q310.6535,206.1675 311.216,206.4644 L311.216,209.1831 Q310.591,208.605 309.9973,208.3394 Q309.4035,208.0581 308.7785,208.0581 Q307.4348,208.0581 306.7473,209.1362 Q306.0598,210.1987 306.0598,212.2925 Q306.0598,214.3862 306.7473,215.4644 Q307.4348,216.5269 308.7785,216.5269 Q309.4035,216.5269 309.9973,216.2612 Q310.591,215.98 311.216,215.4019 L311.216,218.1206 Z " fill="#000000"/><text fill="#000000" font-family="sans-serif" font-size="14" lengthAdjust="spacing" textLength="107.8164" x="328.7473" y="217.3267">UserPreference</text><line style="stroke:#000000;stroke-width:0.5;" x1="236.53" x2="496.281" y1="228.48" y2="228.48"/><ellipse cx="246.53" cy="242.1284" fill="none" rx="3" ry="3" style="stroke:#038048;stroke-width:1;"/><text fill="#000000" font-family="sans-serif" font-size="14" lengthAdjust="spacing" textLength="110.8652" x="255.53" y="245.4751">id: PreferenceId</text><ellipse cx="246.53" cy="258.4253" fill="none" rx="3" ry="3" style="stroke:#038048;stroke-width:1;"/><text fill="#000000" font-family="sans-serif" font-size="14" lengthAdjust="spacing" textLength="104.4053" x="255.53" y="261.772">user_id: UserId</text><ellipse cx="246.53" cy="274.7222" fill="none" rx="3" ry="3" style="stroke:#038048;stroke-width:1;"/><text fill="#000000" font-family="sans-serif" font-size="14" lengthAdjust="spacing" textLength="234.0352" x="255.53" y="278.0689">preference_type: PreferenceType</text><ellipse cx="246.53" cy="291.0191" fill="none" rx="3" ry="3" style="stroke:#038048;stroke-width:1;"/><text fill="#000000" font-family="sans-serif" font-size="14" lengthAdjust="spacing" textLength="89.1885" x="255.53" y="294.3657">value: String</text><ellipse cx="246.53" cy="307.3159" fill="none" rx="3" ry="3" style="stroke:#038048;stroke-width:1;"/><text fill="#000000" font-family="sans-serif" font-size="14" lengthAdjust="spacing" textLength="153.4736" x="255.53" y="310.6626">confidence_score: f32</text><ellipse cx="246.53" cy="323.6128" fill="none" rx="3" ry="3" style="stroke:#038048;stroke-width:1;"/><text fill="#000000" font-family="sans-serif" font-size="14" lengthAdjust="spacing" textLength="235.751" x="255.53" y="326.9595">last_updated_at: DateTime&lt;Utc&gt;</text><line style="stroke:#000000;stroke-width:0.5;" x1="236.53" x2="496.281" y1="334.2612" y2="334.2612"/></g><!--class PreferenceType--><g id="elem_PreferenceType"><rect codeLine="36" fill="#FFFFFF" height="113.1875" id="PreferenceType" rx="2.5" ry="2.5" style="stroke:#000000;stroke-width:0.5;" width="171.5098" x="334.65" y="451.15"/><ellipse cx="362.82" cy="467.15" fill="#EB937F" rx="11" ry="11" style="stroke:#181818;stroke-width:1;"/><path d="M366.9293,473.15 L359.2106,473.15 L359.2106,460.7594 L366.9293,460.7594 L366.9293,462.9156 L361.6637,462.9156 L361.6637,465.5875 L366.4293,465.5875 L366.4293,467.7437 L361.6637,467.7437 L361.6637,470.9937 L366.9293,470.9937 L366.9293,473.15 Z " fill="#000000"/><text fill="#000000" font-family="sans-serif" font-size="14" lengthAdjust="spacing" textLength="110.2432" x="379.7466" y="471.9967">PreferenceType</text><line style="stroke:#000000;stroke-width:0.5;" x1="335.65" x2="505.1598" y1="483.15" y2="483.15"/><ellipse cx="345.65" cy="496.7984" fill="none" rx="3" ry="3" style="stroke:#038048;stroke-width:1;"/><text fill="#000000" font-family="sans-serif" font-size="14" lengthAdjust="spacing" textLength="145.5098" x="354.65" y="500.1451">CommunicationStyle</text><ellipse cx="345.65" cy="513.0953" fill="none" rx="3" ry="3" style="stroke:#038048;stroke-width:1;"/><text fill="#000000" font-family="sans-serif" font-size="14" lengthAdjust="spacing" textLength="103.8652" x="354.65" y="516.442">TechnicalLevel</text><ellipse cx="345.65" cy="529.3922" fill="none" rx="3" ry="3" style="stroke:#038048;stroke-width:1;"/><text fill="#000000" font-family="sans-serif" font-size="14" lengthAdjust="spacing" textLength="117.9199" x="354.65" y="532.7389">ExplanationStyle</text><ellipse cx="345.65" cy="545.6891" fill="none" rx="3" ry="3" style="stroke:#038048;stroke-width:1;"/><text fill="#000000" font-family="sans-serif" font-size="14" lengthAdjust="spacing" textLength="131.1338" x="354.65" y="549.0357">TerminologyUsage</text><line style="stroke:#000000;stroke-width:0.5;" x1="335.65" x2="505.1598" y1="556.3375" y2="556.3375"/></g><!--class ContextProvider--><g id="elem_ContextProvider"><rect codeLine="43" fill="#FFFFFF" height="129.4844" id="ContextProvider" rx="2.5" ry="2.5" style="stroke:#000000;stroke-width:0.5;" width="605.9404" x="63.43" y="7"/><ellipse cx="305.5076" cy="23" fill="#ADD1B2" rx="11" ry="11" style="stroke:#181818;stroke-width:1;"/><path d="M308.4764,28.6406 Q307.8983,28.9375 307.2576,29.0781 Q306.617,29.2344 305.9139,29.2344 Q303.4139,29.2344 302.0858,27.5938 Q300.7733,25.9375 300.7733,22.8125 Q300.7733,19.6875 302.0858,18.0313 Q303.4139,16.375 305.9139,16.375 Q306.617,16.375 307.2576,16.5313 Q307.9139,16.6875 308.4764,16.9844 L308.4764,19.7031 Q307.8514,19.125 307.2576,18.8594 Q306.6639,18.5781 306.0389,18.5781 Q304.6951,18.5781 304.0076,19.6563 Q303.3201,20.7188 303.3201,22.8125 Q303.3201,24.9063 304.0076,25.9844 Q304.6951,27.0469 306.0389,27.0469 Q306.6639,27.0469 307.2576,26.7813 Q307.8514,26.5 308.4764,25.9219 L308.4764,28.6406 Z " fill="#000000"/><text fill="#000000" font-family="sans-serif" font-size="14" lengthAdjust="spacing" textLength="113.2852" x="326.0076" y="27.8467">ContextProvider</text><line style="stroke:#000000;stroke-width:0.5;" x1="64.43" x2="668.3704" y1="39" y2="39"/><line style="stroke:#000000;stroke-width:0.5;" x1="64.43" x2="668.3704" y1="47" y2="47"/><ellipse cx="74.43" cy="60.6484" fill="#84BE84" rx="3" ry="3" style="stroke:#038048;stroke-width:1;"/><text fill="#000000" font-family="sans-serif" font-size="14" lengthAdjust="spacing" textLength="579.9404" x="83.43" y="63.9951">find_relevant_memories(query: String, context: Context): Result&lt;Vec&lt;Memory&gt;&gt;</text><ellipse cx="74.43" cy="76.9453" fill="#84BE84" rx="3" ry="3" style="stroke:#038048;stroke-width:1;"/><text fill="#000000" font-family="sans-serif" font-size="14" lengthAdjust="spacing" textLength="547.6475" x="83.43" y="80.292">build_context(memories: Vec&lt;Memory&gt;, max_tokens: usize): Result&lt;String&gt;</text><ellipse cx="74.43" cy="93.2422" fill="#84BE84" rx="3" ry="3" style="stroke:#038048;stroke-width:1;"/><text fill="#000000" font-family="sans-serif" font-size="14" lengthAdjust="spacing" textLength="503.3643" x="83.43" y="96.5889">integrate_with_prompt(context: String, prompt: String): Result&lt;String&gt;</text><ellipse cx="74.43" cy="109.5391" fill="#84BE84" rx="3" ry="3" style="stroke:#038048;stroke-width:1;"/><text fill="#000000" font-family="sans-serif" font-size="14" lengthAdjust="spacing" text-decoration="underline" textLength="450.4404" x="83.43" y="112.8857">calculate_relevance_score(memory: &amp;Memory, query: &amp;str): f32</text><ellipse cx="74.43" cy="125.8359" fill="#84BE84" rx="3" ry="3" style="stroke:#038048;stroke-width:1;"/><text fill="#000000" font-family="sans-serif" font-size="14" lengthAdjust="spacing" text-decoration="underline" textLength="450.9258" x="83.43" y="129.1826">prioritize_memories(memories: Vec&lt;Memory&gt;): Vec&lt;Memory&gt;</text></g><!--class Terminology--><g id="elem_Terminology"><rect codeLine="51" fill="#FFFFFF" height="162.0781" id="Terminology" rx="2.5" ry="2.5" style="stroke:#000000;stroke-width:0.5;" width="237.2031" x="344.8" y="673.23"/><ellipse cx="415.3947" cy="689.23" fill="#ADD1B2" rx="11" ry="11" style="stroke:#181818;stroke-width:1;"/><path d="M418.3635,694.8706 Q417.7854,695.1675 417.1447,695.3081 Q416.5041,695.4644 415.801,695.4644 Q413.301,695.4644 411.9729,693.8237 Q410.6604,692.1675 410.6604,689.0425 Q410.6604,685.9175 411.9729,684.2612 Q413.301,682.605 415.801,682.605 Q416.5041,682.605 417.1447,682.7612 Q417.801,682.9175 418.3635,683.2144 L418.3635,685.9331 Q417.7385,685.355 417.1447,685.0894 Q416.551,684.8081 415.926,684.8081 Q414.5822,684.8081 413.8947,685.8862 Q413.2072,686.9487 413.2072,689.0425 Q413.2072,691.1362 413.8947,692.2144 Q414.5822,693.2769 415.926,693.2769 Q416.551,693.2769 417.1447,693.0112 Q417.7385,692.73 418.3635,692.1519 L418.3635,694.8706 Z " fill="#000000"/><text fill="#000000" font-family="sans-serif" font-size="14" lengthAdjust="spacing" textLength="87.5137" x="435.8947" y="694.0767">Terminology</text><line style="stroke:#000000;stroke-width:0.5;" x1="345.8" x2="581.0031" y1="705.23" y2="705.23"/><ellipse cx="355.8" cy="718.8784" fill="none" rx="3" ry="3" style="stroke:#038048;stroke-width:1;"/><text fill="#000000" font-family="sans-serif" font-size="14" lengthAdjust="spacing" textLength="122.4727" x="364.8" y="722.2251">id: TerminologyId</text><ellipse cx="355.8" cy="735.1753" fill="none" rx="3" ry="3" style="stroke:#038048;stroke-width:1;"/><text fill="#000000" font-family="sans-serif" font-size="14" lengthAdjust="spacing" textLength="104.4053" x="364.8" y="738.522">user_id: UserId</text><ellipse cx="355.8" cy="751.4722" fill="none" rx="3" ry="3" style="stroke:#038048;stroke-width:1;"/><text fill="#000000" font-family="sans-serif" font-size="14" lengthAdjust="spacing" textLength="143.7734" x="364.8" y="754.8189">original_term: String</text><ellipse cx="355.8" cy="767.7691" fill="none" rx="3" ry="3" style="stroke:#038048;stroke-width:1;"/><text fill="#000000" font-family="sans-serif" font-size="14" lengthAdjust="spacing" textLength="157.2539" x="364.8" y="771.1157">preferred_term: String</text><ellipse cx="355.8" cy="784.0659" fill="none" rx="3" ry="3" style="stroke:#038048;stroke-width:1;"/><text fill="#000000" font-family="sans-serif" font-size="14" lengthAdjust="spacing" textLength="103.9609" x="364.8" y="787.4126">context: String</text><ellipse cx="355.8" cy="800.3628" fill="none" rx="3" ry="3" style="stroke:#038048;stroke-width:1;"/><text fill="#000000" font-family="sans-serif" font-size="14" lengthAdjust="spacing" textLength="198.9189" x="364.8" y="803.7095">created_at: DateTime&lt;Utc&gt;</text><ellipse cx="355.8" cy="816.6597" fill="none" rx="3" ry="3" style="stroke:#038048;stroke-width:1;"/><text fill="#000000" font-family="sans-serif" font-size="14" lengthAdjust="spacing" textLength="211.2031" x="364.8" y="820.0064">last_used_at: DateTime&lt;Utc&gt;</text><line style="stroke:#000000;stroke-width:0.5;" x1="345.8" x2="581.0031" y1="827.3081" y2="827.3081"/></g><!--reverse link Memory to MemoryType--><g id="link_Memory_MemoryType"><path codeLine="62" d="M153.4,625.51 C153.4,660.9 153.4,686.28 153.4,713.47 " fill="none" id="Memory-backto-MemoryType" style="stroke:#000000;stroke-width:1;"/><polygon fill="#000000" points="153.4,613.51,149.4,619.51,153.4,625.51,157.4,619.51,153.4,613.51" style="stroke:#000000;stroke-width:1;"/><text fill="#000000" font-family="sans-serif" font-size="13" lengthAdjust="spacing" textLength="8.271" x="145.1401" y="633.1914">1</text><text fill="#000000" font-family="sans-serif" font-size="13" lengthAdjust="spacing" textLength="8.271" x="144.783" y="702.8502">1</text></g><!--link Memory to Terminology--><g id="link_Memory_Terminology"><path codeLine="63" d="M286.22,613.51 C311.36,633.34 337.3,653.8 361.31,672.75 " fill="none" id="Memory-Terminology" style="stroke:#000000;stroke-width:1;"/><text fill="#000000" font-family="sans-serif" font-size="13" lengthAdjust="spacing" textLength="8.271" x="286.884" y="633.1914">1</text><text fill="#000000" font-family="sans-serif" font-size="13" lengthAdjust="spacing" textLength="23.0356" x="328.5498" y="662.1725">0..*</text></g><!--reverse link UserPreference to PreferenceType--><g id="link_UserPreference_PreferenceType"><path codeLine="64" d="M385.573,354.2785 C393.513,389.0285 400.21,418.38 407.61,450.73 " fill="none" id="UserPreference-backto-PreferenceType" style="stroke:#000000;stroke-width:1;"/><polygon fill="#000000" points="382.9,342.58,380.337,349.3202,385.573,354.2785,388.136,347.5383,382.9,342.58" style="stroke:#000000;stroke-width:1;"/><text fill="#000000" font-family="sans-serif" font-size="13" lengthAdjust="spacing" textLength="8.271" x="376.1038" y="362.3458">1</text><text fill="#000000" font-family="sans-serif" font-size="13" lengthAdjust="spacing" textLength="8.271" x="397.5796" y="439.9424">1</text></g><!--link UserPreference to Memory--><g id="link_UserPreference_Memory"><path codeLine="65" d="M301.34,342.58 C284.46,361.31 265.93,381.88 247.87,401.92 " fill="none" id="UserPreference-Memory" style="stroke:#000000;stroke-width:1;"/><text fill="#000000" font-family="sans-serif" font-size="13" lengthAdjust="spacing" textLength="8.271" x="286.7701" y="362.3458">1</text><text fill="#000000" font-family="sans-serif" font-size="13" lengthAdjust="spacing" textLength="8.271" x="246.2405" y="391.0234">1</text></g><!--link ContextProvider to Memory--><g id="link_ContextProvider_Memory"><path codeLine="67" d="M270.36,136.86 C250.59,154.1 231.76,174.23 218.4,196.48 C181.17,258.54 165.6783,332.7451 158.7983,396.0451 " fill="none" id="ContextProvider-to-Memory" style="stroke:#000000;stroke-width:1;stroke-dasharray:7.0,7.0;"/><polygon fill="#000000" points="158.15,402.01,163.0991,393.4949,158.6903,397.0393,155.1459,392.6305,158.15,402.01" style="stroke:#000000;stroke-width:1;"/></g><!--link ContextProvider to UserPreference--><g id="link_ContextProvider_UserPreference"><path codeLine="68" d="M366.4,136.8 C366.4,155.74 366.4,170.61 366.4,190.04 " fill="none" id="ContextProvider-to-UserPreference" style="stroke:#000000;stroke-width:1;stroke-dasharray:7.0,7.0;"/><polygon fill="#000000" points="366.4,196.04,370.4,187.04,366.4,191.04,362.4,187.04,366.4,196.04" style="stroke:#000000;stroke-width:1;"/></g><!--link ContextProvider to Terminology--><g id="link_ContextProvider_Terminology"><path codeLine="69" d="M466.67,136.73 C485.73,153.75 503.2,173.81 514.4,196.48 C596.5,362.57 560.64,431.75 523.4,613.23 C519.31,633.18 514.5379,648.2533 506.6679,667.3333 " fill="none" id="ContextProvider-to-Terminology" style="stroke:#000000;stroke-width:1;stroke-dasharray:7.0,7.0;"/><polygon fill="#000000" points="504.38,672.88,511.5096,666.0852,506.2866,668.2578,504.114,663.0347,504.38,672.88" style="stroke:#000000;stroke-width:1;"/></g><!--SRC=[ZLJBRXCn5DtFLrXTz4KQyTX5KIGQM20LKT4KbYFZkPbOzTZ3jITDg2fLgSGdi619MLH2i675YeyP8T6_mFFsX2abYydutEjpxpq-uosIhdwagv_fwdDw-UNtzTTVtpvw-eJBc2AD21DKQtBc4VlRf-maH9N8OAo4Gl9wnWtaaSU8whG0zuNDAj8L1e0kUkvvMxRSTNhvFRrydwwkYgTN57aEaS9bMUiUuS6WX9u59PHeG3_3Z-rBZJ8bvu2Q6gva7XqxG9qLvLI-MSPGyKxiUyDXG9e1EJB8PUYYYtMKHx52GoK3NpE5bcxww66r0u4Q27ngDpsnRnCUmV3Oi54PjuCQdp86MlyZ2nOnHz1v_4MSZJ5ifOqo9K4caJD8hTlHp7Ot0OpAzO6IORwqUmgXC_KE4QQ0O8Te2Tx0TuWUrucbfCrEHzOv5GdyBUgK1z0fNovF4WUtQ5XDtQvL3p1MKPH8plA3Fp9BKRKn0JRBS740Sn0b-7GH2oexSZ7YqfesN1vh6a8ZsxXmmo6gkUqVwx9JBWCVGS2SIkFdFkEWjzycWCjgzbxZfP9cPq1UWaw46Ru2DYpESLGPu4t2HU2NMxOhoW5nKdiaeWlVg1EGDf1e_WuQog9enSOjJOXMIV-KcvaVeufYixrcxXufy6fz6zcPDbOpTawid2mH6MivUtMWHRzszCsYrHuffTZK1dVSuwwvOkHsGcDdQFJhd7gdjMhEnZcrbfyT_0v3sreXbrJuncvPisnXThIUx0XsNnB_TH4a-ZQRRv6R3vzkBgwyybBSUB11TlVsyd_dydAYMV1-lx-xuSxihNtgBitQ1zkHsQhdUUl-x_T7LQmhr2RiJ74w_GC0]--></g></svg>