<svg xmlns="http://www.w3.org/2000/svg" xmlns:xlink="http://www.w3.org/1999/xlink" contentStyleType="text/css" data-diagram-type="DESCRIPTION" height="430px" preserveAspectRatio="none" style="width:502px;height:430px;background:#FFFFFF;" version="1.1" viewBox="0 0 502 430" width="502px" zoomAndPan="magnify"><defs/><g><!--cluster Core--><g id="cluster_Core"><path d="M8.5,6 L45.792,6 A3.75,3.75 0 0 1 48.292,8.5 L55.292,28.2969 L492.83,28.2969 A2.5,2.5 0 0 1 495.33,30.7969 L495.33,137.5 A2.5,2.5 0 0 1 492.83,140 L8.5,140 A2.5,2.5 0 0 1 6,137.5 L6,8.5 A2.5,2.5 0 0 1 8.5,6 " fill="none" style="stroke:#000000;stroke-width:1.5;"/><line style="stroke:#000000;stroke-width:1.5;" x1="6" x2="55.292" y1="28.2969" y2="28.2969"/><text fill="#000000" font-family="sans-serif" font-size="14" font-weight="bold" lengthAdjust="spacing" textLength="36.292" x="10" y="20.9951">Core</text></g><!--cluster Providers--><g id="cluster_Providers"><path d="M150.95,164 L227.4119,164 A3.75,3.75 0 0 1 229.9119,166.5 L236.9119,186.2969 L284.82,186.2969 A2.5,2.5 0 0 1 287.32,188.7969 L287.32,420.5 A2.5,2.5 0 0 1 284.82,423 L150.95,423 A2.5,2.5 0 0 1 148.45,420.5 L148.45,166.5 A2.5,2.5 0 0 1 150.95,164 " fill="none" style="stroke:#000000;stroke-width:1.5;"/><line style="stroke:#000000;stroke-width:1.5;" x1="148.45" x2="236.9119" y1="186.2969" y2="186.2969"/><text fill="#000000" font-family="sans-serif" font-size="14" font-weight="bold" lengthAdjust="spacing" textLength="75.4619" x="152.45" y="178.9951">Providers</text></g><!--entity llms--><g id="elem_llms"><rect fill="#F1F1F1" height="46.2969" rx="2.5" ry="2.5" style="stroke:#181818;stroke-width:0.5;" width="68.7109" x="22" y="77.85"/><rect fill="#F1F1F1" height="10" style="stroke:#181818;stroke-width:0.5;" width="15" x="70.7109" y="82.85"/><rect fill="#F1F1F1" height="2" style="stroke:#181818;stroke-width:0.5;" width="4" x="68.7109" y="84.85"/><rect fill="#F1F1F1" height="2" style="stroke:#181818;stroke-width:0.5;" width="4" x="68.7109" y="88.85"/><text fill="#000000" font-family="sans-serif" font-size="14" lengthAdjust="spacing" textLength="28.7109" x="37" y="110.8451">llms</text></g><!--entity llms_domain--><g id="elem_llms_domain"><rect fill="#F1F1F1" height="46.2969" rx="2.5" ry="2.5" style="stroke:#181818;stroke-width:0.5;" width="128.1426" x="351.19" y="59.85"/><rect fill="#F1F1F1" height="10" style="stroke:#181818;stroke-width:0.5;" width="15" x="459.3326" y="64.85"/><rect fill="#F1F1F1" height="2" style="stroke:#181818;stroke-width:0.5;" width="4" x="457.3326" y="66.85"/><rect fill="#F1F1F1" height="2" style="stroke:#181818;stroke-width:0.5;" width="4" x="457.3326" y="70.85"/><text fill="#000000" font-family="sans-serif" font-size="14" lengthAdjust="spacing" textLength="88.1426" x="366.19" y="92.8451">llms_domain</text></g><!--entity llms_provider--><g id="elem_llms_provider"><rect fill="#F1F1F1" height="46.2969" rx="2.5" ry="2.5" style="stroke:#181818;stroke-width:0.5;" width="134.3496" x="150.71" y="40.85"/><rect fill="#F1F1F1" height="10" style="stroke:#181818;stroke-width:0.5;" width="15" x="265.0596" y="45.85"/><rect fill="#F1F1F1" height="2" style="stroke:#181818;stroke-width:0.5;" width="4" x="263.0596" y="47.85"/><rect fill="#F1F1F1" height="2" style="stroke:#181818;stroke-width:0.5;" width="4" x="263.0596" y="51.85"/><text fill="#000000" font-family="sans-serif" font-size="14" lengthAdjust="spacing" textLength="94.3496" x="165.71" y="73.8451">llms_provider</text></g><!--entity openai--><g id="elem_openai"><rect fill="#F1F1F1" height="46.2969" rx="2.5" ry="2.5" style="stroke:#181818;stroke-width:0.5;" width="87.4072" x="174.18" y="360.85"/><rect fill="#F1F1F1" height="10" style="stroke:#181818;stroke-width:0.5;" width="15" x="241.5872" y="365.85"/><rect fill="#F1F1F1" height="2" style="stroke:#181818;stroke-width:0.5;" width="4" x="239.5872" y="367.85"/><rect fill="#F1F1F1" height="2" style="stroke:#181818;stroke-width:0.5;" width="4" x="239.5872" y="371.85"/><text fill="#000000" font-family="sans-serif" font-size="14" lengthAdjust="spacing" textLength="47.4072" x="189.18" y="393.8451">openai</text></g><!--entity google_ai--><g id="elem_google_ai"><rect fill="#F1F1F1" height="46.2969" rx="2.5" ry="2.5" style="stroke:#181818;stroke-width:0.5;" width="106.876" x="164.45" y="279.85"/><rect fill="#F1F1F1" height="10" style="stroke:#181818;stroke-width:0.5;" width="15" x="251.326" y="284.85"/><rect fill="#F1F1F1" height="2" style="stroke:#181818;stroke-width:0.5;" width="4" x="249.326" y="286.85"/><rect fill="#F1F1F1" height="2" style="stroke:#181818;stroke-width:0.5;" width="4" x="249.326" y="290.85"/><text fill="#000000" font-family="sans-serif" font-size="14" lengthAdjust="spacing" textLength="66.876" x="179.45" y="312.8451">google_ai</text></g><!--entity anthropic--><g id="elem_anthropic"><rect fill="#F1F1F1" height="46.2969" rx="2.5" ry="2.5" style="stroke:#181818;stroke-width:0.5;" width="106.6094" x="164.58" y="198.85"/><rect fill="#F1F1F1" height="10" style="stroke:#181818;stroke-width:0.5;" width="15" x="251.1894" y="203.85"/><rect fill="#F1F1F1" height="2" style="stroke:#181818;stroke-width:0.5;" width="4" x="249.1894" y="205.85"/><rect fill="#F1F1F1" height="2" style="stroke:#181818;stroke-width:0.5;" width="4" x="249.1894" y="209.85"/><text fill="#000000" font-family="sans-serif" font-size="14" lengthAdjust="spacing" textLength="66.6094" x="179.58" y="231.8451">anthropic</text></g><g id="elem_GMN16"><path d="M345.06,290.43 L345.06,299 L271.76,303 L345.06,307 L345.06,315.5628 A0,0 0 0 0 345.06,315.5628 L485.4531,315.5628 A0,0 0 0 0 485.4531,315.5628 L485.4531,300.43 L475.4531,290.43 L345.06,290.43 A0,0 0 0 0 345.06,290.43 " fill="#FEFFDD" style="stroke:#181818;stroke-width:0.5;"/><path d="M475.4531,290.43 L475.4531,300.43 L485.4531,300.43 L475.4531,290.43 " fill="#FEFFDD" style="stroke:#181818;stroke-width:0.5;"/><text fill="#000000" font-family="sans-serif" font-size="13" lengthAdjust="spacing" textLength="119.3931" x="351.06" y="307.4969">dev-dependencies</text></g><!--link llms to llms_domain--><g id="link_llms_llms_domain"><path d="M90.9,102.98 C106.03,103.78 124.13,104.61 140.45,105 C209.26,106.66 226.78,111.29 295.32,105 C313.52,103.33 327.1818,101.3606 345.0818,98.0206 " fill="none" id="llms-to-llms_domain" style="stroke:#181818;stroke-width:1;"/><polygon fill="#181818" points="350.98,96.92,341.399,94.6387,346.0648,97.8371,342.8664,102.503,350.98,96.92" style="stroke:#181818;stroke-width:1;"/></g><!--link llms to llms_provider--><g id="link_llms_llms_provider"><path d="M91.19,93.15 C108.38,89.17 124.0553,85.5363 144.3953,80.8163 " fill="none" id="llms-to-llms_provider" style="stroke:#181818;stroke-width:1;"/><polygon fill="#181818" points="150.24,79.46,140.5688,77.598,145.3694,80.5902,142.3771,85.3909,150.24,79.46" style="stroke:#181818;stroke-width:1;"/></g><!--link llms to openai--><g id="link_llms_openai"><path d="M59.62,124.58 C65.26,171.56 83.84,278.01 140.45,344 C149.42,354.46 156.4517,359.8902 168.6517,365.9802 " fill="none" id="llms-to-openai" style="stroke:#181818;stroke-width:1;"/><polygon fill="#181818" points="174.02,368.66,167.754,361.0615,169.5464,366.4269,164.181,368.2192,174.02,368.66" style="stroke:#181818;stroke-width:1;"/></g><!--link llms to google_ai--><g id="link_llms_google_ai"><path d="M64.29,124.39 C75.44,158.57 100.27,222.49 140.45,263 C147.3,269.91 150.4486,272.8305 159.0186,277.9105 " fill="none" id="llms-to-google_ai" style="stroke:#181818;stroke-width:1;stroke-dasharray:7.0,7.0;"/><polygon fill="#181818" points="164.18,280.97,158.4776,272.9399,159.8789,278.4204,154.3983,279.8217,164.18,280.97" style="stroke:#181818;stroke-width:1;"/></g><!--link llms to anthropic--><g id="link_llms_anthropic"><path d="M88.49,124.62 C116.6,145.94 152.9591,173.5147 181.0491,194.8147 " fill="none" id="llms-to-anthropic" style="stroke:#181818;stroke-width:1;stroke-dasharray:7.0,7.0;"/><polygon fill="#181818" points="185.83,198.44,181.0754,189.8148,181.8459,195.4189,176.2417,196.1894,185.83,198.44" style="stroke:#181818;stroke-width:1;"/></g><!--link llms_provider to llms_domain--><g id="link_llms_provider_llms_domain"><path d="M285.3,70.46 C306.54,72.52 324.0184,74.2171 345.0184,76.2671 " fill="none" id="llms_provider-to-llms_domain" style="stroke:#181818;stroke-width:1;"/><polygon fill="#181818" points="350.99,76.85,342.4212,71.9945,346.0137,76.3642,341.6439,79.9567,350.99,76.85" style="stroke:#181818;stroke-width:1;"/></g><!--SRC=[RP0n3i8m34NtdCBgtXwX2nTWHrKL9MvgaSPH4dL1t9q0eGq5Jz_Vyd-oBKu94aCWCoVG550bOYU4b-eg3K9pue0Dt0JakbYxn66Ne-P5agiT7tWbZM4GzohaNDou9R579wbi6cPZSTnwwT8Ss9DwfRofqBRzWVepsE7rw8CgNjVrNyJQhi27n3zuuJXX-HnFXoiqhgt6JDRe564KMS5puG40]--></g></svg>