<svg xmlns="http://www.w3.org/2000/svg" xmlns:xlink="http://www.w3.org/1999/xlink" contentStyleType="text/css" data-diagram-type="CLASS" height="483px" preserveAspectRatio="none" style="width:897px;height:483px;background:#FFFFFF;" version="1.1" viewBox="0 0 897 483" width="897px" zoomAndPan="magnify"><defs/><g><!--cluster value_object--><g id="cluster_value_object"><path d="M486.5,200.89 L586.2588,200.89 A3.75,3.75 0 0 1 588.7588,203.39 L595.7588,223.1869 L775.5,223.1869 A2.5,2.5 0 0 1 778,225.6869 L778,362.58 A2.5,2.5 0 0 1 775.5,365.08 L486.5,365.08 A2.5,2.5 0 0 1 484,362.58 L484,203.39 A2.5,2.5 0 0 1 486.5,200.89 " fill="none" style="stroke:#000000;stroke-width:1.5;"/><line style="stroke:#000000;stroke-width:1.5;" x1="484" x2="595.7588" y1="223.1869" y2="223.1869"/><text fill="#000000" font-family="sans-serif" font-size="14" font-weight="bold" lengthAdjust="spacing" textLength="98.7588" x="488" y="215.8851">value_object</text></g><!--cluster domain--><g id="cluster_domain"><path d="M400.5,22.3 L459.9404,22.3 A3.75,3.75 0 0 1 462.4404,24.8 L469.4404,44.5969 L887.5,44.5969 A2.5,2.5 0 0 1 890,47.0969 L890,135.1 A2.5,2.5 0 0 1 887.5,137.6 L400.5,137.6 A2.5,2.5 0 0 1 398,135.1 L398,24.8 A2.5,2.5 0 0 1 400.5,22.3 " fill="none" style="stroke:#000000;stroke-width:1.5;"/><line style="stroke:#000000;stroke-width:1.5;" x1="398" x2="469.4404" y1="44.5969" y2="44.5969"/><text fill="#000000" font-family="sans-serif" font-size="14" font-weight="bold" lengthAdjust="spacing" textLength="58.4404" x="402" y="37.2951">domain</text></g><!--cluster frontend--><g id="cluster_frontend"><path d="M8.5,6 L78.2559,6 A3.75,3.75 0 0 1 80.7559,8.5 L87.7559,28.2969 L371.5,28.2969 A2.5,2.5 0 0 1 374,30.7969 L374,338.13 A2.5,2.5 0 0 1 371.5,340.63 L8.5,340.63 A2.5,2.5 0 0 1 6,338.13 L6,8.5 A2.5,2.5 0 0 1 8.5,6 " fill="none" style="stroke:#000000;stroke-width:1.5;"/><line style="stroke:#000000;stroke-width:1.5;" x1="6" x2="87.7559" y1="28.2969" y2="28.2969"/><text fill="#000000" font-family="sans-serif" font-size="14" font-weight="bold" lengthAdjust="spacing" textLength="68.7559" x="10" y="20.9951">frontend</text></g><!--class RepoUsername--><g id="elem_RepoUsername"><rect codeLine="2" fill="#F1F1F1" height="113.1875" id="RepoUsername" rx="2.5" ry="2.5" style="stroke:#181818;stroke-width:0.5;" width="262.0723" x="499.96" y="235.89"/><ellipse cx="573.043" cy="251.89" fill="#ADD1B2" rx="11" ry="11" style="stroke:#181818;stroke-width:1;"/><path d="M576.0118,257.5306 Q575.4336,257.8275 574.793,257.9681 Q574.1524,258.1244 573.4493,258.1244 Q570.9493,258.1244 569.6211,256.4838 Q568.3086,254.8275 568.3086,251.7025 Q568.3086,248.5775 569.6211,246.9213 Q570.9493,245.265 573.4493,245.265 Q574.1524,245.265 574.793,245.4213 Q575.4493,245.5775 576.0118,245.8744 L576.0118,248.5931 Q575.3868,248.015 574.793,247.7494 Q574.1993,247.4681 573.5743,247.4681 Q572.2305,247.4681 571.543,248.5463 Q570.8555,249.6088 570.8555,251.7025 Q570.8555,253.7963 571.543,254.8744 Q572.2305,255.9369 573.5743,255.9369 Q574.1993,255.9369 574.793,255.6713 Q575.3868,255.39 576.0118,254.8119 L576.0118,257.5306 Z " fill="#000000"/><text fill="#000000" font-family="sans-serif" font-size="14" lengthAdjust="spacing" textLength="107.4063" x="593.543" y="256.7367">RepoUsername</text><line style="stroke:#181818;stroke-width:0.5;" x1="500.96" x2="761.0323" y1="267.89" y2="267.89"/><rect fill="none" height="6" style="stroke:#C82930;stroke-width:1;" width="6" x="507.96" y="278.5384"/><text fill="#000000" font-family="sans-serif" font-size="14" lengthAdjust="spacing" textLength="89.1885" x="519.96" y="284.8851">value: String</text><line style="stroke:#181818;stroke-width:0.5;" x1="500.96" x2="761.0323" y1="292.1869" y2="292.1869"/><ellipse cx="510.96" cy="305.8353" fill="#84BE84" rx="3" ry="3" style="stroke:#038048;stroke-width:1;"/><text fill="#000000" font-family="sans-serif" font-size="14" lengthAdjust="spacing" textLength="236.0723" x="519.96" y="309.182">new(value: &amp;str) -&gt; Result&lt;Self&gt;</text><ellipse cx="510.96" cy="322.1322" fill="#84BE84" rx="3" ry="3" style="stroke:#038048;stroke-width:1;"/><text fill="#000000" font-family="sans-serif" font-size="14" lengthAdjust="spacing" textLength="143.1172" x="519.96" y="325.4789">as_str(&amp;self) -&gt; &amp;str</text><ellipse cx="510.96" cy="338.4291" fill="#84BE84" rx="3" ry="3" style="stroke:#038048;stroke-width:1;"/><text fill="#000000" font-family="sans-serif" font-size="14" lengthAdjust="spacing" textLength="175.2734" x="519.96" y="341.7757">to_string(&amp;self) -&gt; String</text></g><!--class Repo--><g id="elem_Repo"><rect codeLine="11" fill="#F1F1F1" height="64.2969" id="Repo" rx="2.5" ry="2.5" style="stroke:#181818;stroke-width:0.5;" width="212.8125" x="413.59" y="57.3"/><ellipse cx="497.8498" cy="73.3" fill="#ADD1B2" rx="11" ry="11" style="stroke:#181818;stroke-width:1;"/><path d="M500.8185,78.9406 Q500.2404,79.2375 499.5998,79.3781 Q498.9591,79.5344 498.256,79.5344 Q495.756,79.5344 494.4279,77.8938 Q493.1154,76.2375 493.1154,73.1125 Q493.1154,69.9875 494.4279,68.3313 Q495.756,66.675 498.256,66.675 Q498.9591,66.675 499.5998,66.8313 Q500.256,66.9875 500.8185,67.2844 L500.8185,70.0031 Q500.1935,69.425 499.5998,69.1594 Q499.006,68.8781 498.381,68.8781 Q497.0373,68.8781 496.3498,69.9563 Q495.6623,71.0188 495.6623,73.1125 Q495.6623,75.2063 496.3498,76.2844 Q497.0373,77.3469 498.381,77.3469 Q499.006,77.3469 499.5998,77.0813 Q500.1935,76.8 500.8185,76.2219 L500.8185,78.9406 Z " fill="#000000"/><text fill="#000000" font-family="sans-serif" font-size="14" lengthAdjust="spacing" textLength="35.793" x="518.3498" y="78.1467">Repo</text><line style="stroke:#181818;stroke-width:0.5;" x1="414.59" x2="625.4025" y1="89.3" y2="89.3"/><rect fill="none" height="6" style="stroke:#C82930;stroke-width:1;" width="6" x="421.59" y="99.9484"/><text fill="#000000" font-family="sans-serif" font-size="14" lengthAdjust="spacing" textLength="186.8125" x="433.59" y="106.2951">username: RepoUsername</text><line style="stroke:#181818;stroke-width:0.5;" x1="414.59" x2="625.4025" y1="113.5969" y2="113.5969"/></g><!--class Organization--><g id="elem_Organization"><rect codeLine="15" fill="#F1F1F1" height="64.2969" id="Organization" rx="2.5" ry="2.5" style="stroke:#181818;stroke-width:0.5;" width="212.8125" x="661.59" y="57.3"/><ellipse cx="718.8717" cy="73.3" fill="#ADD1B2" rx="11" ry="11" style="stroke:#181818;stroke-width:1;"/><path d="M721.8405,78.9406 Q721.2624,79.2375 720.6217,79.3781 Q719.9811,79.5344 719.278,79.5344 Q716.778,79.5344 715.4499,77.8938 Q714.1374,76.2375 714.1374,73.1125 Q714.1374,69.9875 715.4499,68.3313 Q716.778,66.675 719.278,66.675 Q719.9811,66.675 720.6217,66.8313 Q721.278,66.9875 721.8405,67.2844 L721.8405,70.0031 Q721.2155,69.425 720.6217,69.1594 Q720.028,68.8781 719.403,68.8781 Q718.0592,68.8781 717.3717,69.9563 Q716.6842,71.0188 716.6842,73.1125 Q716.6842,75.2063 717.3717,76.2844 Q718.0592,77.3469 719.403,77.3469 Q720.028,77.3469 720.6217,77.0813 Q721.2155,76.8 721.8405,76.2219 L721.8405,78.9406 Z " fill="#000000"/><text fill="#000000" font-family="sans-serif" font-size="14" lengthAdjust="spacing" textLength="89.749" x="739.3717" y="78.1467">Organization</text><line style="stroke:#181818;stroke-width:0.5;" x1="662.59" x2="873.4025" y1="89.3" y2="89.3"/><rect fill="none" height="6" style="stroke:#C82930;stroke-width:1;" width="6" x="669.59" y="99.9484"/><text fill="#000000" font-family="sans-serif" font-size="14" lengthAdjust="spacing" textLength="186.8125" x="681.59" y="106.2951">username: RepoUsername</text><line style="stroke:#181818;stroke-width:0.5;" x1="662.59" x2="873.4025" y1="113.5969" y2="113.5969"/></g><!--class SettingsForm--><g id="elem_SettingsForm"><rect codeLine="21" fill="#F1F1F1" height="96.8906" id="SettingsForm" rx="2.5" ry="2.5" style="stroke:#181818;stroke-width:0.5;" width="145.5947" x="117.2" y="41"/><ellipse cx="141.2725" cy="57" fill="#ADD1B2" rx="11" ry="11" style="stroke:#181818;stroke-width:1;"/><path d="M144.2413,62.6406 Q143.6631,62.9375 143.0225,63.0781 Q142.3819,63.2344 141.6788,63.2344 Q139.1788,63.2344 137.8506,61.5938 Q136.5381,59.9375 136.5381,56.8125 Q136.5381,53.6875 137.8506,52.0313 Q139.1788,50.375 141.6788,50.375 Q142.3819,50.375 143.0225,50.5313 Q143.6788,50.6875 144.2413,50.9844 L144.2413,53.7031 Q143.6163,53.125 143.0225,52.8594 Q142.4288,52.5781 141.8038,52.5781 Q140.46,52.5781 139.7725,53.6563 Q139.085,54.7188 139.085,56.8125 Q139.085,58.9063 139.7725,59.9844 Q140.46,61.0469 141.8038,61.0469 Q142.4288,61.0469 143.0225,60.7813 Q143.6163,60.5 144.2413,59.9219 L144.2413,62.6406 Z " fill="#000000"/><text fill="#000000" font-family="sans-serif" font-size="14" lengthAdjust="spacing" textLength="93.4336" x="157.2886" y="61.8467">SettingsForm</text><line style="stroke:#181818;stroke-width:0.5;" x1="118.2" x2="261.7947" y1="73" y2="73"/><rect fill="none" height="6" style="stroke:#C82930;stroke-width:1;" width="6" x="125.2" y="83.6484"/><text fill="#000000" font-family="sans-serif" font-size="14" lengthAdjust="spacing" textLength="119.5947" x="137.2" y="89.9951">username: string</text><line style="stroke:#181818;stroke-width:0.5;" x1="118.2" x2="261.7947" y1="97.2969" y2="97.2969"/><ellipse cx="128.2" cy="110.9453" fill="#84BE84" rx="3" ry="3" style="stroke:#038048;stroke-width:1;"/><text fill="#000000" font-family="sans-serif" font-size="14" lengthAdjust="spacing" textLength="78.0254" x="137.2" y="114.292">onSubmit()</text><ellipse cx="128.2" cy="127.2422" fill="#84BE84" rx="3" ry="3" style="stroke:#038048;stroke-width:1;"/><text fill="#000000" font-family="sans-serif" font-size="14" lengthAdjust="spacing" textLength="67.1357" x="137.2" y="130.5889">validate()</text></g><!--class ChangeRepoUsernameAction--><g id="elem_ChangeRepoUsernameAction"><rect codeLine="27" fill="#F1F1F1" height="64.2969" id="ChangeRepoUsernameAction" rx="2.5" ry="2.5" style="stroke:#181818;stroke-width:0.5;" width="335.5449" x="22.23" y="260.34"/><ellipse cx="83.2031" cy="276.34" fill="#ADD1B2" rx="11" ry="11" style="stroke:#181818;stroke-width:1;"/><path d="M86.1719,281.9806 Q85.5938,282.2775 84.9531,282.4181 Q84.3125,282.5744 83.6094,282.5744 Q81.1094,282.5744 79.7813,280.9338 Q78.4688,279.2775 78.4688,276.1525 Q78.4688,273.0275 79.7813,271.3713 Q81.1094,269.715 83.6094,269.715 Q84.3125,269.715 84.9531,269.8713 Q85.6094,270.0275 86.1719,270.3244 L86.1719,273.0431 Q85.5469,272.465 84.9531,272.1994 Q84.3594,271.9181 83.7344,271.9181 Q82.3906,271.9181 81.7031,272.9963 Q81.0156,274.0588 81.0156,276.1525 Q81.0156,278.2463 81.7031,279.3244 Q82.3906,280.3869 83.7344,280.3869 Q84.3594,280.3869 84.9531,280.1213 Q85.5469,279.84 86.1719,279.2619 L86.1719,281.9806 Z " fill="#000000"/><text fill="#000000" font-family="sans-serif" font-size="14" lengthAdjust="spacing" textLength="205.0986" x="103.7031" y="281.1867">ChangeRepoUsernameAction</text><line style="stroke:#181818;stroke-width:0.5;" x1="23.23" x2="356.7749" y1="292.34" y2="292.34"/><line style="stroke:#181818;stroke-width:0.5;" x1="23.23" x2="356.7749" y1="300.34" y2="300.34"/><ellipse cx="33.23" cy="313.9884" fill="#84BE84" rx="3" ry="3" style="stroke:#038048;stroke-width:1;"/><text fill="#000000" font-family="sans-serif" font-size="14" lengthAdjust="spacing" textLength="309.5449" x="42.23" y="317.3351">execute(input: ChangeRepoUsernameInput)</text></g><!--class GraphQL API--><g id="elem_GraphQL API"><rect fill="#F1F1F1" height="48" id="GraphQL API" rx="2.5" ry="2.5" style="stroke:#181818;stroke-width:0.5;" width="120.3613" x="129.82" y="428.08"/><ellipse cx="144.82" cy="444.08" fill="#ADD1B2" rx="11" ry="11" style="stroke:#181818;stroke-width:1;"/><path d="M147.7888,449.7206 Q147.2106,450.0175 146.57,450.1581 Q145.9294,450.3144 145.2263,450.3144 Q142.7263,450.3144 141.3981,448.6738 Q140.0856,447.0175 140.0856,443.8925 Q140.0856,440.7675 141.3981,439.1113 Q142.7263,437.455 145.2263,437.455 Q145.9294,437.455 146.57,437.6113 Q147.2263,437.7675 147.7888,438.0644 L147.7888,440.7831 Q147.1638,440.205 146.57,439.9394 Q145.9763,439.6581 145.3513,439.6581 Q144.0075,439.6581 143.32,440.7363 Q142.6325,441.7988 142.6325,443.8925 Q142.6325,445.9863 143.32,447.0644 Q144.0075,448.1269 145.3513,448.1269 Q145.9763,448.1269 146.57,447.8613 Q147.1638,447.58 147.7888,447.0019 L147.7888,449.7206 Z " fill="#000000"/><text fill="#000000" font-family="sans-serif" font-size="14" lengthAdjust="spacing" textLength="88.3613" x="158.82" y="448.9267">GraphQL API</text><line style="stroke:#181818;stroke-width:0.5;" x1="130.82" x2="249.1813" y1="460.08" y2="460.08"/><line style="stroke:#181818;stroke-width:0.5;" x1="130.82" x2="249.1813" y1="468.08" y2="468.08"/></g><!--link Repo to RepoUsername--><g id="link_Repo_RepoUsername"><path codeLine="32" d="M537.34,121.86 C554.11,152.23 576.9909,193.6569 597.2509,230.3669 " fill="none" id="Repo-to-RepoUsername" style="stroke:#181818;stroke-width:1;"/><polygon fill="#181818" points="600.15,235.62,599.3033,225.8076,597.734,231.2424,592.2992,229.6731,600.15,235.62" style="stroke:#181818;stroke-width:1;"/></g><!--link Organization to RepoUsername--><g id="link_Organization_RepoUsername"><path codeLine="33" d="M746.59,121.86 C725.9,152.23 697.4691,193.952 672.4491,230.662 " fill="none" id="Organization-to-RepoUsername" style="stroke:#181818;stroke-width:1;"/><polygon fill="#181818" points="669.07,235.62,677.444,230.4358,671.886,231.4884,670.8334,225.9303,669.07,235.62" style="stroke:#181818;stroke-width:1;"/></g><!--link SettingsForm to ChangeRepoUsernameAction--><g id="link_SettingsForm_ChangeRepoUsernameAction"><path codeLine="34" d="M190,138.35 C190,175.97 190,221.3 190,253.93 " fill="none" id="SettingsForm-to-ChangeRepoUsernameAction" style="stroke:#181818;stroke-width:1;stroke-dasharray:7.0,7.0;"/><polygon fill="#181818" points="190,259.93,194,250.93,190,254.93,186,250.93,190,259.93" style="stroke:#181818;stroke-width:1;"/><text fill="#000000" font-family="sans-serif" font-size="13" lengthAdjust="spacing" textLength="29.7832" x="191" y="180.9569">uses</text></g><!--link ChangeRepoUsernameAction to GraphQL API--><g id="link_ChangeRepoUsernameAction_GraphQL API"><path codeLine="35" d="M190,325 C190,355.36 190,394.58 190,421.81 " fill="none" id="ChangeRepoUsernameAction-to-GraphQL API" style="stroke:#181818;stroke-width:1;stroke-dasharray:7.0,7.0;"/><polygon fill="#181818" points="190,427.81,194,418.81,190,422.81,186,418.81,190,427.81" style="stroke:#181818;stroke-width:1;"/><text fill="#000000" font-family="sans-serif" font-size="13" lengthAdjust="spacing" textLength="29.1104" x="191" y="394.1469">calls</text></g><!--SRC=[ZP79QiCm48RlVeh1Xs0Jd0SmnH0ABO525zDpcCWJHwqi6IrjQScxLnQEaTi4SlsNqJUZ7jaxjWJf1mf7MxLx8sPJ-4a0c41Zu8LwzMf8I-meo005X709jTLSja5RWgJFRDGNnkeSYigNZHFsfYQnhyOOcgrtiuNnMiWCuT6pQl3yoCYUtZWcnoJfJxYDwf3Blw0Je1k9onb_c08mLHvrYv9_e-LANbED0VPQIKkoYH5gijR3cZkbkpFpJ7mk9MktwxZDyb7mj-CDMWh23FFsWBAbc6RD8kGbq1SnvvjSziwMP_ARmSXFEuHB5U5xeWLdn_ZdpbPRhQgBKEMmi4akCW_Tz5vZVtX-WFNJ9Ys1eH3c5m00]--></g></svg>