<svg xmlns="http://www.w3.org/2000/svg" xmlns:xlink="http://www.w3.org/1999/xlink" contentStyleType="text/css" height="520px" preserveAspectRatio="none" style="width:317px;height:520px;background:#FFFFFF;" version="1.1" viewBox="0 0 317 520" width="317px" zoomAndPan="magnify"><defs/><g><text fill="#000000" font-family="sans-serif" font-size="14" font-weight="bold" lengthAdjust="spacing" textLength="97" x="103" y="22.9951">architecture</text><!--cluster crm_provider--><g id="cluster_crm_provider"><path d="M8.5,207.5969 L115.5,207.5969 A3.75,3.75 0 0 1 118,210.0969 L125,229.8937 L201.5,229.8937 A2.5,2.5 0 0 1 204,232.3937 L204,510.5769 A2.5,2.5 0 0 1 201.5,513.0769 L8.5,513.0769 A2.5,2.5 0 0 1 6,510.5769 L6,210.0969 A2.5,2.5 0 0 1 8.5,207.5969 " fill="none" style="stroke:#000000;stroke-width:1.5;"/><line style="stroke:#000000;stroke-width:1.5;" x1="6" x2="125" y1="229.8937" y2="229.8937"/><text fill="#000000" font-family="sans-serif" font-size="14" font-weight="bold" lengthAdjust="spacing" textLength="106" x="10" y="222.592">CRM Provider</text></g><!--cluster provider--><g id="cluster_provider"><path d="M106.5,43.2969 L174.5,43.2969 A3.75,3.75 0 0 1 177,45.7969 L184,65.5938 L307.5,65.5938 A2.5,2.5 0 0 1 310,68.0938 L310,156.0969 A2.5,2.5 0 0 1 307.5,158.5969 L106.5,158.5969 A2.5,2.5 0 0 1 104,156.0969 L104,45.7969 A2.5,2.5 0 0 1 106.5,43.2969 " fill="none" style="stroke:#000000;stroke-width:1.5;"/><line style="stroke:#000000;stroke-width:1.5;" x1="104" x2="184" y1="65.5938" y2="65.5938"/><text fill="#000000" font-family="sans-serif" font-size="14" font-weight="bold" lengthAdjust="spacing" textLength="67" x="108" y="58.292">Provider</text></g><!--class Event--><g id="elem_Event"><rect codeLine="4" fill="#F1F1F1" height="113.1875" id="Event" rx="2.5" ry="2.5" style="stroke:#181818;stroke-width:0.5;" width="121" x="60.5" y="383.8869"/><ellipse cx="98" cy="399.8869" fill="#EB937F" rx="11" ry="11" style="stroke:#181818;stroke-width:1.0;"/><path d="M102.1094,405.8869 L94.3906,405.8869 L94.3906,393.4963 L102.1094,393.4963 L102.1094,395.6525 L96.8438,395.6525 L96.8438,398.3244 L101.6094,398.3244 L101.6094,400.4806 L96.8438,400.4806 L96.8438,403.7306 L102.1094,403.7306 L102.1094,405.8869 Z " fill="#000000"/><text fill="#000000" font-family="sans-serif" font-size="14" lengthAdjust="spacing" textLength="39" x="117" y="404.7336">Event</text><line style="stroke:#181818;stroke-width:0.5;" x1="61.5" x2="180.5" y1="415.8869" y2="415.8869"/><text fill="#000000" font-family="sans-serif" font-size="14" lengthAdjust="spacing" textLength="98" x="66.5" y="432.882">QuoteCreated</text><text fill="#000000" font-family="sans-serif" font-size="14" lengthAdjust="spacing" textLength="102" x="66.5" y="449.1789">QuoteUpdated</text><text fill="#000000" font-family="sans-serif" font-size="14" lengthAdjust="spacing" textLength="109" x="66.5" y="465.4757">ProductCreated</text><text fill="#000000" font-family="sans-serif" font-size="14" lengthAdjust="spacing" textLength="12" x="66.5" y="481.7726">...</text><line style="stroke:#181818;stroke-width:0.5;" x1="61.5" x2="180.5" y1="489.0744" y2="489.0744"/></g><!--class EventSubscriber--><g id="elem_EventSubscriber"><rect codeLine="12" fill="#F1F1F1" height="64.2969" id="EventSubscriber" rx="2.5" ry="2.5" style="stroke:#181818;stroke-width:0.5;" width="165" x="22.5" y="242.5969"/><ellipse cx="46.5" cy="258.5969" fill="#B4A7E5" rx="11" ry="11" style="stroke:#181818;stroke-width:1.0;"/><path d="M42.4219,254.3625 L42.4219,252.2062 L49.8125,252.2062 L49.8125,254.3625 L47.3438,254.3625 L47.3438,262.4406 L49.8125,262.4406 L49.8125,264.5969 L42.4219,264.5969 L42.4219,262.4406 L44.8906,262.4406 L44.8906,254.3625 L42.4219,254.3625 Z " fill="#000000"/><text fill="#000000" font-family="sans-serif" font-size="14" font-style="italic" lengthAdjust="spacing" textLength="113" x="62.5" y="263.4436">EventSubscriber</text><line style="stroke:#181818;stroke-width:0.5;" x1="23.5" x2="186.5" y1="274.5969" y2="274.5969"/><line style="stroke:#181818;stroke-width:1.0;" x1="23.5" x2="186.5" y1="282.5969" y2="282.5969"/><text fill="#000000" font-family="sans-serif" font-size="14" lengthAdjust="spacing" textLength="153" x="28.5" y="299.592">receive(json) -&gt; Event</text></g><!--class EventSubscriberImpl--><g id="elem_EventSubscriberImpl"><rect codeLine="21" fill="#F1F1F1" height="64.2969" id="EventSubscriberImpl" rx="2.5" ry="2.5" style="stroke:#181818;stroke-width:0.5;" width="173" x="120.5" y="78.2969"/><ellipse cx="135.5" cy="94.2969" fill="#ADD1B2" rx="11" ry="11" style="stroke:#181818;stroke-width:1.0;"/><path d="M138.4688,99.9375 Q137.8906,100.2344 137.25,100.375 Q136.6094,100.5313 135.9063,100.5313 Q133.4063,100.5313 132.0781,98.8906 Q130.7656,97.2344 130.7656,94.1094 Q130.7656,90.9844 132.0781,89.3281 Q133.4063,87.6719 135.9063,87.6719 Q136.6094,87.6719 137.25,87.8281 Q137.9063,87.9844 138.4688,88.2813 L138.4688,91 Q137.8438,90.4219 137.25,90.1563 Q136.6563,89.875 136.0313,89.875 Q134.6875,89.875 134,90.9531 Q133.3125,92.0156 133.3125,94.1094 Q133.3125,96.2031 134,97.2813 Q134.6875,98.3438 136.0313,98.3438 Q136.6563,98.3438 137.25,98.0781 Q137.8438,97.7969 138.4688,97.2188 L138.4688,99.9375 Z " fill="#000000"/><text fill="#000000" font-family="sans-serif" font-size="14" lengthAdjust="spacing" textLength="141" x="149.5" y="99.1436">EventSubscriberImpl</text><line style="stroke:#181818;stroke-width:0.5;" x1="121.5" x2="292.5" y1="110.2969" y2="110.2969"/><line style="stroke:#181818;stroke-width:1.0;" x1="121.5" x2="292.5" y1="118.2969" y2="118.2969"/><text fill="#000000" font-family="sans-serif" font-size="14" lengthAdjust="spacing" textLength="153" x="126.5" y="135.292">receive(json) -&gt; Event</text></g><!--link EventSubscriber to Event--><g id="link_EventSubscriber_Event"><path codeLine="16" d="M108.08,307.3169 C110.19,328.8769 112.4558,352.0554 114.9458,377.5054 " fill="none" id="EventSubscriber-to-Event" style="stroke:#181818;stroke-width:1.0;"/><polygon fill="#181818" points="115.53,383.4769,118.6346,374.1301,115.0431,378.5006,110.6726,374.9091,115.53,383.4769" style="stroke:#181818;stroke-width:1.0;"/><text fill="#000000" font-family="sans-serif" font-size="13" lengthAdjust="spacing" textLength="23" x="114" y="349.9538">use</text></g><!--link EventSubscriberImpl to EventSubscriber--><g id="link_EventSubscriberImpl_EventSubscriber"><path codeLine="27" d="M187.33,142.7369 C169.33,171.3869 152.3991,198.3274 134.3591,227.0274 " fill="none" id="EventSubscriberImpl-to-EventSubscriber" style="stroke:#181818;stroke-width:1.0;"/><polygon fill="none" points="124.78,242.2669,139.4389,230.2204,129.2793,223.8344,124.78,242.2669" style="stroke:#181818;stroke-width:1.0;"/><text fill="#000000" font-family="sans-serif" font-size="13" lengthAdjust="spacing" textLength="27" x="167" y="187.6638">impl</text></g><!--link EventSubscriberImpl to Event--><g id="link_EventSubscriberImpl_Event"><path codeLine="28" d="M211.88,143.0269 C216.79,182.3369 221.5,251.0769 205,306.8869 C196.96,334.0669 184.9845,356.0994 169.5745,378.5594 " fill="none" id="EventSubscriberImpl-to-Event" style="stroke:#181818;stroke-width:1.0;"/><polygon fill="#181818" points="166.18,383.5069,174.5701,378.3487,169.0087,379.384,167.9734,373.8227,166.18,383.5069" style="stroke:#181818;stroke-width:1.0;"/><text fill="#000000" font-family="sans-serif" font-size="13" lengthAdjust="spacing" textLength="23" x="217" y="279.3038">use</text></g><!--SRC=[ZL0nJiD04EpzYbKQe3W_84MQY8822OYeqVcya2EspzhRCmMa86uea91eefIH-04T3Oyv43mZ9oSG9u14SwkRdPqP3MlE42IfeMPKx0YZg9Hg92yGElsJGpWYK-aKgGFIWgByh5m1S1q1OE5osA-muEOBSEmCOvzGCgPhuBHClu4Wc3h5RKuSns6Ee_3im1KcGsD6xm_JjzUvlvtwoPElPxv-zlMTdpn-p5u-v_U1gGj6EfSAb_u3brX5Eba50n12D9DGeQvmzzAQOWz4Rqbl_E37gVZQTy7PKCMurSP64nijg4nQkwrra9VP_wC4ez_kXRZfRGjtGOVL7_Hs_0K0]--></g></svg>