<svg xmlns="http://www.w3.org/2000/svg" xmlns:xlink="http://www.w3.org/1999/xlink" contentStyleType="text/css" data-diagram-type="DESCRIPTION" height="613px" preserveAspectRatio="none" style="width:774px;height:613px;background:#FFFFFF;" version="1.1" viewBox="0 0 774 613" width="774px" zoomAndPan="magnify"><defs/><g><!--cluster Taskflow SDK--><g id="cluster_Taskflow SDK"><path d="M8.5,144.79 L117.0088,144.79 A3.75,3.75 0 0 1 119.5088,147.29 L126.5088,167.0869 L764.5,167.0869 A2.5,2.5 0 0 1 767,169.5869 L767,486.18 A2.5,2.5 0 0 1 764.5,488.68 L8.5,488.68 A2.5,2.5 0 0 1 6,486.18 L6,147.29 A2.5,2.5 0 0 1 8.5,144.79 " fill="none" style="stroke:#000000;stroke-width:1.5;"/><line style="stroke:#000000;stroke-width:1.5;" x1="6" x2="126.5088" y1="167.0869" y2="167.0869"/><text fill="#000000" font-family="sans-serif" font-size="14" font-weight="bold" lengthAdjust="spacing" textLength="107.5088" x="10" y="159.7851">Taskflow SDK</text></g><!--entity TM--><g id="elem_TM"><rect fill="#F1F1F1" height="46.2969" rx="2.5" ry="2.5" style="stroke:#181818;stroke-width:0.5;" width="138.3486" x="309.83" y="303.09"/><rect fill="#F1F1F1" height="10" style="stroke:#181818;stroke-width:0.5;" width="15" x="428.1786" y="308.09"/><rect fill="#F1F1F1" height="2" style="stroke:#181818;stroke-width:0.5;" width="4" x="426.1786" y="310.09"/><rect fill="#F1F1F1" height="2" style="stroke:#181818;stroke-width:0.5;" width="4" x="426.1786" y="314.09"/><text fill="#000000" font-family="sans-serif" font-size="14" lengthAdjust="spacing" textLength="98.3486" x="324.83" y="336.0851">Task Manager</text></g><!--entity SL--><g id="elem_SL"><rect fill="#F1F1F1" height="46.2969" rx="2.5" ry="2.5" style="stroke:#181818;stroke-width:0.5;" width="138.2598" x="21.87" y="426.39"/><rect fill="#F1F1F1" height="10" style="stroke:#181818;stroke-width:0.5;" width="15" x="140.1298" y="431.39"/><rect fill="#F1F1F1" height="2" style="stroke:#181818;stroke-width:0.5;" width="4" x="138.1298" y="433.39"/><rect fill="#F1F1F1" height="2" style="stroke:#181818;stroke-width:0.5;" width="4" x="138.1298" y="437.39"/><text fill="#000000" font-family="sans-serif" font-size="14" lengthAdjust="spacing" textLength="98.2598" x="36.87" y="459.3851">Storage Layer</text></g><!--entity MC--><g id="elem_MC"><rect fill="#F1F1F1" height="46.2969" rx="2.5" ry="2.5" style="stroke:#181818;stroke-width:0.5;" width="157.5098" x="195.25" y="426.39"/><rect fill="#F1F1F1" height="10" style="stroke:#181818;stroke-width:0.5;" width="15" x="332.7598" y="431.39"/><rect fill="#F1F1F1" height="2" style="stroke:#181818;stroke-width:0.5;" width="4" x="330.7598" y="433.39"/><rect fill="#F1F1F1" height="2" style="stroke:#181818;stroke-width:0.5;" width="4" x="330.7598" y="437.39"/><text fill="#000000" font-family="sans-serif" font-size="14" lengthAdjust="spacing" textLength="117.5098" x="210.25" y="459.3851">Metrics Collector</text></g><!--entity DM--><g id="elem_DM"><rect fill="#F1F1F1" height="46.2969" rx="2.5" ry="2.5" style="stroke:#181818;stroke-width:0.5;" width="193.9385" x="388.03" y="426.39"/><rect fill="#F1F1F1" height="10" style="stroke:#181818;stroke-width:0.5;" width="15" x="561.9685" y="431.39"/><rect fill="#F1F1F1" height="2" style="stroke:#181818;stroke-width:0.5;" width="4" x="559.9685" y="433.39"/><rect fill="#F1F1F1" height="2" style="stroke:#181818;stroke-width:0.5;" width="4" x="559.9685" y="437.39"/><text fill="#000000" font-family="sans-serif" font-size="14" lengthAdjust="spacing" textLength="153.9385" x="403.03" y="459.3851">Dependency Manager</text></g><!--entity EH--><g id="elem_EH"><rect fill="#F1F1F1" height="46.2969" rx="2.5" ry="2.5" style="stroke:#181818;stroke-width:0.5;" width="134.2539" x="616.87" y="426.39"/><rect fill="#F1F1F1" height="10" style="stroke:#181818;stroke-width:0.5;" width="15" x="731.1239" y="431.39"/><rect fill="#F1F1F1" height="2" style="stroke:#181818;stroke-width:0.5;" width="4" x="729.1239" y="433.39"/><rect fill="#F1F1F1" height="2" style="stroke:#181818;stroke-width:0.5;" width="4" x="729.1239" y="437.39"/><text fill="#000000" font-family="sans-serif" font-size="14" lengthAdjust="spacing" textLength="94.2539" x="631.87" y="459.3851">Error Handler</text></g><!--entity API--><g id="elem_API"><rect fill="#F1F1F1" height="46.2969" rx="2.5" ry="2.5" style="stroke:#181818;stroke-width:0.5;" width="105.6318" x="326.18" y="179.79"/><rect fill="#F1F1F1" height="10" style="stroke:#181818;stroke-width:0.5;" width="15" x="411.8118" y="184.79"/><rect fill="#F1F1F1" height="2" style="stroke:#181818;stroke-width:0.5;" width="4" x="409.8118" y="186.79"/><rect fill="#F1F1F1" height="2" style="stroke:#181818;stroke-width:0.5;" width="4" x="409.8118" y="190.79"/><text fill="#000000" font-family="sans-serif" font-size="14" lengthAdjust="spacing" textLength="65.6318" x="341.18" y="212.7851">API Layer</text></g><!--entity DB--><g id="elem_DB"><path d="M56.96,561.68 C56.96,551.68 90.9952,551.68 90.9952,551.68 C90.9952,551.68 125.0303,551.68 125.0303,561.68 L125.0303,586.9769 C125.0303,596.9769 90.9952,596.9769 90.9952,596.9769 C90.9952,596.9769 56.96,596.9769 56.96,586.9769 L56.96,561.68 " fill="#F1F1F1" style="stroke:#181818;stroke-width:0.5;"/><path d="M56.96,561.68 C56.96,571.68 90.9952,571.68 90.9952,571.68 C90.9952,571.68 125.0303,571.68 125.0303,561.68 " fill="none" style="stroke:#181818;stroke-width:0.5;"/><text fill="#000000" font-family="sans-serif" font-size="14" lengthAdjust="spacing" textLength="48.0703" x="66.96" y="588.6751">MySQL</text></g><!--entity Client--><g id="elem_Client"><ellipse cx="378.9951" cy="14" fill="#F1F1F1" rx="8" ry="8" style="stroke:#181818;stroke-width:0.5;"/><path d="M378.9951,22 L378.9951,49 M365.9951,30 L391.9951,30 M378.9951,49 L365.9951,64 M378.9951,49 L391.9951,64 " fill="none" style="stroke:#181818;stroke-width:0.5;"/><text fill="#000000" font-family="sans-serif" font-size="14" lengthAdjust="spacing" textLength="40.5303" x="358.73" y="78.4951">Client</text></g><!--link Client to API--><g id="link_Client_API"><path d="M379,81.92 C379,112.26 379,148.09 379,173.51 " fill="none" id="Client-to-API" style="stroke:#181818;stroke-width:1;"/><polygon fill="#181818" points="379,179.51,383,170.51,379,174.51,375,170.51,379,179.51" style="stroke:#181818;stroke-width:1;"/><text fill="#000000" font-family="sans-serif" font-size="13" lengthAdjust="spacing" textLength="33.4966" x="380" y="124.8569">HTTP</text></g><!--link API to TM--><g id="link_API_TM"><path d="M379,226.47 C379,248.26 379,275.08 379,296.83 " fill="none" id="API-to-TM" style="stroke:#181818;stroke-width:1;"/><polygon fill="#181818" points="379,302.83,383,293.83,379,297.83,375,293.83,379,302.83" style="stroke:#181818;stroke-width:1;"/><text fill="#000000" font-family="sans-serif" font-size="13" lengthAdjust="spacing" textLength="31.0591" x="380" y="269.1569">Uses</text></g><!--link TM to SL--><g id="link_TM_SL"><path d="M309.36,343.31 C276.39,352.07 236.89,364.23 203,379.39 C174.42,392.17 149.3098,407.6936 127.5398,422.5136 " fill="none" id="TM-to-SL" style="stroke:#181818;stroke-width:1;"/><polygon fill="#181818" points="122.58,425.89,132.2707,424.1319,126.7132,423.0763,127.7688,417.5188,122.58,425.89" style="stroke:#181818;stroke-width:1;"/><text fill="#000000" font-family="sans-serif" font-size="13" lengthAdjust="spacing" textLength="107.3452" x="204" y="392.4569">Stores/Retrieves</text></g><!--link TM to MC--><g id="link_TM_MC"><path d="M359.5,349.77 C340.64,371.56 316.147,399.8437 297.327,421.5837 " fill="none" id="TM-to-MC" style="stroke:#181818;stroke-width:1;"/><polygon fill="#181818" points="293.4,426.12,302.3148,421.9335,296.6725,422.3397,296.2663,416.6975,293.4,426.12" style="stroke:#181818;stroke-width:1;"/><text fill="#000000" font-family="sans-serif" font-size="13" lengthAdjust="spacing" textLength="51.27" x="333" y="392.4569">Collects</text></g><!--link TM to DM--><g id="link_TM_DM"><path d="M398.69,349.77 C417.73,371.56 442.4604,399.8633 461.4704,421.6033 " fill="none" id="TM-to-DM" style="stroke:#181818;stroke-width:1;"/><polygon fill="#181818" points="465.42,426.12,462.5068,416.7118,462.1287,422.356,456.4845,421.9779,465.42,426.12" style="stroke:#181818;stroke-width:1;"/><text fill="#000000" font-family="sans-serif" font-size="13" lengthAdjust="spacing" textLength="58.4111" x="439" y="392.4569">Manages</text></g><!--link TM to EH--><g id="link_TM_EH"><path d="M435.65,349.77 C490.26,371.49 566.8749,401.9524 621.5549,423.7024 " fill="none" id="TM-to-EH" style="stroke:#181818;stroke-width:1;"/><polygon fill="#181818" points="627.13,425.92,620.2457,418.8768,622.4841,424.072,617.2889,426.3103,627.13,425.92" style="stroke:#181818;stroke-width:1;"/><text fill="#000000" font-family="sans-serif" font-size="13" lengthAdjust="spacing" textLength="52.6157" x="550" y="392.4569">Handles</text></g><!--link SL to DB--><g id="link_SL_DB"><path d="M91,473.06 C91,495.35 91,523.27 91,545.36 " fill="none" id="SL-to-DB" style="stroke:#181818;stroke-width:1;"/><polygon fill="#181818" points="91,551.36,95,542.36,91,546.36,87,542.36,91,551.36" style="stroke:#181818;stroke-width:1;"/><text fill="#000000" font-family="sans-serif" font-size="13" lengthAdjust="spacing" textLength="50.21" x="92" y="517.7469">Persists</text></g><!--SRC=[LOz1IyGm48Nlyok6tXVl7WItBLHie9fu4WzZEqhPa2wPe1Jnlvj9owgdJButUI_lJEE9tXahHt9wyyidskQ-mYz0V5Q4XaBMumkIe3EARLgYFkbftRdjbHjESHu5wyLx7lDIqKojMiDd3XE7SVrds1J3DiObOaTXyZjlE-MtmzsVa7o3Ru294hsIv1-RrJxqLR4v0caWLhMVEQG2jn5WE_5mk54BlCREkG5qLEHC9a_20dbIOFiCj2BBrQCsuezVqTHPtFjTOACMMwiBQpiDAeq487kMnME60qUP9SaF]--></g></svg>