<svg xmlns="http://www.w3.org/2000/svg" xmlns:xlink="http://www.w3.org/1999/xlink" contentStyleType="text/css" height="369px" preserveAspectRatio="none" style="width:631px;height:369px;background:#FFFFFF;" version="1.1" viewBox="0 0 631 369" width="631px" zoomAndPan="magnify"><defs/><g><line style="stroke:#181818;stroke-width:0.5;stroke-dasharray:5.0,5.0;" x1="36" x2="36" y1="81.2969" y2="289.0938"/><line style="stroke:#181818;stroke-width:0.5;stroke-dasharray:5.0,5.0;" x1="292" x2="292" y1="81.2969" y2="289.0938"/><line style="stroke:#181818;stroke-width:0.5;stroke-dasharray:5.0,5.0;" x1="579.5" x2="579.5" y1="81.2969" y2="289.0938"/><text fill="#000000" font-family="sans-serif" font-size="14" lengthAdjust="spacing" textLength="56" x="5" y="77.9951">Provider</text><ellipse cx="36" cy="13.5" fill="#E2E2F0" rx="8" ry="8" style="stroke:#181818;stroke-width:0.5;"/><path d="M36,21.5 L36,48.5 M23,29.5 L49,29.5 M36,48.5 L23,63.5 M36,48.5 L49,63.5 " fill="none" style="stroke:#181818;stroke-width:0.5;"/><text fill="#000000" font-family="sans-serif" font-size="14" lengthAdjust="spacing" textLength="56" x="5" y="301.0889">Provider</text><ellipse cx="36" cy="312.8906" fill="#E2E2F0" rx="8" ry="8" style="stroke:#181818;stroke-width:0.5;"/><path d="M36,320.8906 L36,347.8906 M23,328.8906 L49,328.8906 M36,347.8906 L23,362.8906 M36,347.8906 L49,362.8906 " fill="none" style="stroke:#181818;stroke-width:0.5;"/><rect fill="#E2E2F0" height="30.2969" rx="2.5" ry="2.5" style="stroke:#181818;stroke-width:0.5;" width="198" x="193" y="50"/><text fill="#000000" font-family="sans-serif" font-size="14" lengthAdjust="spacing" textLength="184" x="200" y="69.9951">&#12496;&#12463;&#12358;&#12428;WebhookEndpoint</text><rect fill="#E2E2F0" height="30.2969" rx="2.5" ry="2.5" style="stroke:#181818;stroke-width:0.5;" width="198" x="193" y="288.0938"/><text fill="#000000" font-family="sans-serif" font-size="14" lengthAdjust="spacing" textLength="184" x="200" y="308.0889">&#12496;&#12463;&#12358;&#12428;WebhookEndpoint</text><rect fill="#E2E2F0" height="30.2969" rx="2.5" ry="2.5" style="stroke:#181818;stroke-width:0.5;" width="91" x="534.5" y="50"/><text fill="#000000" font-family="sans-serif" font-size="14" lengthAdjust="spacing" textLength="77" x="541.5" y="69.9951">&#12496;&#12463;&#12358;&#12428;DB</text><rect fill="#E2E2F0" height="30.2969" rx="2.5" ry="2.5" style="stroke:#181818;stroke-width:0.5;" width="91" x="534.5" y="288.0938"/><text fill="#000000" font-family="sans-serif" font-size="14" lengthAdjust="spacing" textLength="77" x="541.5" y="308.0889">&#12496;&#12463;&#12358;&#12428;DB</text><polygon fill="#181818" points="280,108.4297,290,112.4297,280,116.4297,284,112.4297" style="stroke:#181818;stroke-width:1.0;"/><line style="stroke:#181818;stroke-width:1.0;" x1="36" x2="286" y1="112.4297" y2="112.4297"/><text fill="#000000" font-family="sans-serif" font-size="13" lengthAdjust="spacing" textLength="155" x="43" y="107.3638">Webhook&#36890;&#30693; (object_id)</text><polygon fill="#181818" points="47,137.5625,37,141.5625,47,145.5625,43,141.5625" style="stroke:#181818;stroke-width:1.0;"/><line style="stroke:#181818;stroke-width:1.0;" x1="41" x2="291" y1="141.5625" y2="141.5625"/><text fill="#000000" font-family="sans-serif" font-size="13" lengthAdjust="spacing" textLength="201" x="53" y="136.4966">&#12458;&#12502;&#12472;&#12455;&#12463;&#12488;&#35443;&#32048;&#35201;&#27714; (object_id)</text><polygon fill="#181818" points="280,166.6953,290,170.6953,280,174.6953,284,170.6953" style="stroke:#181818;stroke-width:1.0;"/><line style="stroke:#181818;stroke-width:1.0;" x1="36" x2="286" y1="170.6953" y2="170.6953"/><text fill="#000000" font-family="sans-serif" font-size="13" lengthAdjust="spacing" textLength="232" x="43" y="165.6294">&#12458;&#12502;&#12472;&#12455;&#12463;&#12488;&#35443;&#32048;&#12487;&#12540;&#12479; (object_data)</text><line style="stroke:#181818;stroke-width:1.0;" x1="292" x2="334" y1="199.8281" y2="199.8281"/><line style="stroke:#181818;stroke-width:1.0;" x1="334" x2="334" y1="199.8281" y2="212.8281"/><line style="stroke:#181818;stroke-width:1.0;" x1="293" x2="334" y1="212.8281" y2="212.8281"/><polygon fill="#181818" points="303,208.8281,293,212.8281,303,216.8281,299,212.8281" style="stroke:#181818;stroke-width:1.0;"/><text fill="#000000" font-family="sans-serif" font-size="13" lengthAdjust="spacing" textLength="65" x="299" y="194.7622">&#12487;&#12540;&#12479;&#22793;&#25563;</text><polygon fill="#181818" points="568,237.9609,578,241.9609,568,245.9609,572,241.9609" style="stroke:#181818;stroke-width:1.0;"/><line style="stroke:#181818;stroke-width:1.0;" x1="292" x2="574" y1="241.9609" y2="241.9609"/><text fill="#000000" font-family="sans-serif" font-size="13" lengthAdjust="spacing" textLength="264" x="299" y="236.895">&#12458;&#12502;&#12472;&#12455;&#12463;&#12488;&#20445;&#23384; (converted_object_data)</text><polygon fill="#181818" points="568,267.0938,578,271.0938,568,275.0938,572,271.0938" style="stroke:#181818;stroke-width:1.0;"/><line style="stroke:#181818;stroke-width:1.0;" x1="292" x2="574" y1="271.0938" y2="271.0938"/><text fill="#000000" font-family="sans-serif" font-size="13" lengthAdjust="spacing" textLength="252" x="299" y="266.0278">ID&#12398;&#32016;&#12389;&#12369; (bakure_object_id, object_id)</text><!--SRC=[IqmkoIzI22ZAByjCIItYAaWiAibCpYn8p2jHUDmyuN7J-iUDRO-RUi9JapBoyxDTyr8AyZE1Sed5AD8uzRauWPIwE75nmQnGqBL3KM6b03NxPSEiv_ENAcZa9sMb9fV4PwPeSY6h0-c3cM6byBXfrUFcQO-RTZnkMWvIqjpnOkNcvrisl5ZM-6nZ4ueXk2t6PSZZvlR7pNiUD-s7cvEIM9A8wHmqqs2wdYxfVDO_6qErYnCs6v_id_jqxGm5ZUJylBBKefBKb7YyLe8CyNHvtBZk-PO9ZnkNFcwSgA2Hb9XTMfGQ3_UoZWB2zm00]--></g></svg>