<svg xmlns="http://www.w3.org/2000/svg" xmlns:xlink="http://www.w3.org/1999/xlink" contentStyleType="text/css" height="570px" preserveAspectRatio="none" style="width:379px;height:570px;background:#FFFFFF;" version="1.1" viewBox="0 0 379 570" width="379px" zoomAndPan="magnify"><defs/><g><text fill="#000000" font-family="sans-serif" font-size="14" font-weight="bold" lengthAdjust="spacing" textLength="170" x="97.75" y="22.9951">Library domain model</text><!--class Organization--><g id="elem_Organization"><rect codeLine="4" fill="#F1F1F1" height="72.5938" id="Organization" rx="2.5" ry="2.5" style="stroke:#181818;stroke-width:0.5;" width="119" x="128.5" y="490.9769"/><ellipse cx="143.5" cy="506.9769" fill="#ADD1B2" rx="11" ry="11" style="stroke:#181818;stroke-width:1.0;"/><path d="M147.6094,512.9769 L139.8906,512.9769 L139.8906,500.5862 L147.6094,500.5862 L147.6094,502.7425 L142.3438,502.7425 L142.3438,505.4144 L147.1094,505.4144 L147.1094,507.5706 L142.3438,507.5706 L142.3438,510.8206 L147.6094,510.8206 L147.6094,512.9769 Z " fill="#000000"/><text fill="#000000" font-family="sans-serif" font-size="14" lengthAdjust="spacing" textLength="87" x="157.5" y="511.8236">Organization</text><line style="stroke:#181818;stroke-width:0.5;" x1="129.5" x2="246.5" y1="522.9769" y2="522.9769"/><text fill="#000000" font-family="sans-serif" font-size="14" lengthAdjust="spacing" textLength="12" x="134.5" y="539.972">id</text><text fill="#000000" font-family="sans-serif" font-size="14" lengthAdjust="spacing" textLength="70" x="134.5" y="556.2689">username</text></g><!--class User--><g id="elem_User"><rect codeLine="9" fill="#F1F1F1" height="72.5938" id="User" rx="2.5" ry="2.5" style="stroke:#181818;stroke-width:0.5;" width="169" x="203.5" y="342.0869"/><ellipse cx="267.75" cy="358.0869" fill="#ADD1B2" rx="11" ry="11" style="stroke:#181818;stroke-width:1.0;"/><path d="M271.8594,364.0869 L264.1406,364.0869 L264.1406,351.6962 L271.8594,351.6962 L271.8594,353.8525 L266.5938,353.8525 L266.5938,356.5244 L271.3594,356.5244 L271.3594,358.6806 L266.5938,358.6806 L266.5938,361.9306 L271.8594,361.9306 L271.8594,364.0869 Z " fill="#000000"/><text fill="#000000" font-family="sans-serif" font-size="14" lengthAdjust="spacing" textLength="32" x="288.25" y="362.9336">User</text><line style="stroke:#181818;stroke-width:0.5;" x1="204.5" x2="371.5" y1="374.0869" y2="374.0869"/><text fill="#000000" font-family="sans-serif" font-size="14" lengthAdjust="spacing" textLength="12" x="209.5" y="391.082">id</text><text fill="#000000" font-family="sans-serif" font-size="14" lengthAdjust="spacing" textLength="157" x="209.5" y="407.3789">private_organization_id</text></g><!--class Repository--><g id="elem_Repository"><rect codeLine="15" fill="#F1F1F1" height="105.1875" id="Repository" rx="2.5" ry="2.5" style="stroke:#181818;stroke-width:0.5;" width="162" x="7" y="325.7869"/><ellipse cx="47.2" cy="341.7869" fill="#ADD1B2" rx="11" ry="11" style="stroke:#181818;stroke-width:1.0;"/><path d="M51.3094,347.7869 L43.5906,347.7869 L43.5906,335.3963 L51.3094,335.3963 L51.3094,337.5525 L46.0438,337.5525 L46.0438,340.2244 L50.8094,340.2244 L50.8094,342.3806 L46.0438,342.3806 L46.0438,345.6306 L51.3094,345.6306 L51.3094,347.7869 Z " fill="#000000"/><text fill="#000000" font-family="sans-serif" font-size="14" lengthAdjust="spacing" textLength="74" x="66.8" y="346.6336">Repository</text><line style="stroke:#181818;stroke-width:0.5;" x1="8" x2="168" y1="357.7869" y2="357.7869"/><text fill="#000000" font-family="sans-serif" font-size="14" lengthAdjust="spacing" textLength="12" x="13" y="374.782">id</text><text fill="#000000" font-family="sans-serif" font-size="14" lengthAdjust="spacing" textLength="104" x="13" y="391.0789">organization_id</text><text fill="#000000" font-family="sans-serif" font-size="14" lengthAdjust="spacing" textLength="70" x="13" y="407.3757">username</text><text fill="#000000" font-family="sans-serif" font-size="14" lengthAdjust="spacing" textLength="150" x="13" y="423.6726">policies: Vec&lt;Policy&gt;</text></g><!--class Database--><g id="elem_Database"><rect codeLine="23" fill="#F1F1F1" height="72.5938" id="Database" rx="2.5" ry="2.5" style="stroke:#181818;stroke-width:0.5;" width="100" x="38" y="193.1869"/><ellipse cx="53.9" cy="209.1869" fill="#ADD1B2" rx="11" ry="11" style="stroke:#181818;stroke-width:1.0;"/><path d="M58.0094,215.1869 L50.2906,215.1869 L50.2906,202.7963 L58.0094,202.7963 L58.0094,204.9525 L52.7438,204.9525 L52.7438,207.6244 L57.5094,207.6244 L57.5094,209.7806 L52.7438,209.7806 L52.7438,213.0306 L58.0094,213.0306 L58.0094,215.1869 Z " fill="#000000"/><text fill="#000000" font-family="sans-serif" font-size="14" lengthAdjust="spacing" textLength="66" x="68.1" y="214.0336">Database</text><line style="stroke:#181818;stroke-width:0.5;" x1="39" x2="137" y1="225.1869" y2="225.1869"/><text fill="#000000" font-family="sans-serif" font-size="14" lengthAdjust="spacing" textLength="12" x="44" y="242.182">id</text><text fill="#000000" font-family="sans-serif" font-size="14" lengthAdjust="spacing" textLength="88" x="44" y="258.4789">repository_id</text></g><!--class Policy--><g id="elem_Policy"><rect codeLine="29" fill="#F1F1F1" height="72.5938" id="Policy" rx="2.5" ry="2.5" style="stroke:#181818;stroke-width:0.5;" width="71" x="212.5" y="193.1869"/><ellipse cx="227.5" cy="209.1869" fill="#ADD1B2" rx="11" ry="11" style="stroke:#181818;stroke-width:1.0;"/><path d="M230.4688,214.8275 Q229.8906,215.1244 229.25,215.265 Q228.6094,215.4213 227.9063,215.4213 Q225.4063,215.4213 224.0781,213.7806 Q222.7656,212.1244 222.7656,208.9994 Q222.7656,205.8744 224.0781,204.2181 Q225.4063,202.5619 227.9063,202.5619 Q228.6094,202.5619 229.25,202.7181 Q229.9063,202.8744 230.4688,203.1713 L230.4688,205.89 Q229.8438,205.3119 229.25,205.0463 Q228.6563,204.765 228.0313,204.765 Q226.6875,204.765 226,205.8431 Q225.3125,206.9056 225.3125,208.9994 Q225.3125,211.0931 226,212.1713 Q226.6875,213.2338 228.0313,213.2338 Q228.6563,213.2338 229.25,212.9681 Q229.8438,212.6869 230.4688,212.1088 L230.4688,214.8275 Z " fill="#000000"/><text fill="#000000" font-family="sans-serif" font-size="14" lengthAdjust="spacing" textLength="39" x="241.5" y="214.0336">Policy</text><line style="stroke:#181818;stroke-width:0.5;" x1="213.5" x2="282.5" y1="225.1869" y2="225.1869"/><text fill="#000000" font-family="sans-serif" font-size="14" lengthAdjust="spacing" textLength="50" x="218.5" y="242.182">user_id</text><text fill="#000000" font-family="sans-serif" font-size="14" lengthAdjust="spacing" textLength="26" x="218.5" y="258.4789">role</text></g><!--class Role--><g id="elem_Role"><rect codeLine="36" fill="#F1F1F1" height="88.8906" id="Role" rx="2.5" ry="2.5" style="stroke:#181818;stroke-width:0.5;" width="63" x="216.5" y="44.2969"/><ellipse cx="231.5" cy="60.2969" fill="#EB937F" rx="11" ry="11" style="stroke:#181818;stroke-width:1.0;"/><path d="M235.6094,66.2969 L227.8906,66.2969 L227.8906,53.9063 L235.6094,53.9063 L235.6094,56.0625 L230.3438,56.0625 L230.3438,58.7344 L235.1094,58.7344 L235.1094,60.8906 L230.3438,60.8906 L230.3438,64.1406 L235.6094,64.1406 L235.6094,66.2969 Z " fill="#000000"/><text fill="#000000" font-family="sans-serif" font-size="14" lengthAdjust="spacing" textLength="31" x="245.5" y="65.1436">Role</text><line style="stroke:#181818;stroke-width:0.5;" x1="217.5" x2="278.5" y1="76.2969" y2="76.2969"/><text fill="#000000" font-family="sans-serif" font-size="14" lengthAdjust="spacing" textLength="45" x="222.5" y="93.292">Owner</text><text fill="#000000" font-family="sans-serif" font-size="14" lengthAdjust="spacing" textLength="40" x="222.5" y="109.5889">Writer</text><text fill="#000000" font-family="sans-serif" font-size="14" lengthAdjust="spacing" textLength="36" x="222.5" y="125.8857">Read</text></g><!--link User to Organization--><g id="link_User_Organization"><path codeLine="13" d="M263.79,414.9369 C248.19,437.8669 231.3364,462.607 215.7064,485.567 " fill="none" id="User-to-Organization" style="stroke:#181818;stroke-width:1.0;"/><polygon fill="#181818" points="212.33,490.5269,220.7012,485.3381,215.1437,486.3937,214.088,480.8362,212.33,490.5269" style="stroke:#181818;stroke-width:1.0;"/></g><!--link Repository to Organization--><g id="link_Repository_Organization"><path codeLine="21" d="M123.26,431.1669 C136.64,450.8269 148.1939,467.7969 160.3439,485.6469 " fill="none" id="Repository-to-Organization" style="stroke:#181818;stroke-width:1.0;"/><polygon fill="#181818" points="163.72,490.6069,161.9625,480.9161,160.9066,486.4735,155.3491,485.4176,163.72,490.6069" style="stroke:#181818;stroke-width:1.0;"/></g><!--link Database to Repository--><g id="link_Database_Repository"><path codeLine="27" d="M88,266.0469 C88,283.8769 88,299.8069 88,319.4769 " fill="none" id="Database-to-Repository" style="stroke:#181818;stroke-width:1.0;"/><polygon fill="#181818" points="88,325.4769,92,316.4769,88,320.4769,84,316.4769,88,325.4769" style="stroke:#181818;stroke-width:1.0;"/></g><!--link Policy to User--><g id="link_Policy_User"><path codeLine="33" d="M257.68,266.0469 C263.93,288.9669 270.4441,312.8875 276.6941,335.8475 " fill="none" id="Policy-to-User" style="stroke:#181818;stroke-width:1.0;"/><polygon fill="#181818" points="278.27,341.6369,279.7657,331.9022,276.9567,336.8124,272.0465,334.0035,278.27,341.6369" style="stroke:#181818;stroke-width:1.0;"/></g><!--link Policy to Repository--><g id="link_Policy_Repository"><path codeLine="34" d="M212.09,263.4569 C192.19,281.7269 171.4197,300.799 148.9397,321.439 " fill="none" id="Policy-to-Repository" style="stroke:#181818;stroke-width:1.0;"/><polygon fill="#181818" points="144.52,325.4969,153.8548,322.3565,148.203,322.1153,148.4442,316.4636,144.52,325.4969" style="stroke:#181818;stroke-width:1.0;"/></g><!--link Role to Policy--><g id="link_Role_Policy"><path codeLine="41" d="M248,133.6469 C248,152.6969 248,168.7269 248,186.7569 " fill="none" id="Role-to-Policy" style="stroke:#181818;stroke-width:1.0;"/><polygon fill="#181818" points="248,192.7569,252,183.7569,248,187.7569,244,183.7569,248,192.7569" style="stroke:#181818;stroke-width:1.0;"/></g><!--SRC=[TP11QWCn34NtFeKka0k4abMNWPI1jikWZ4KYiArWAosJahlNcfbEnuLwOylwUlyZPGq4Upvbp0DuYSW9edWAxiAU899Un3j7ILa7EEGp9hwZiYJuSb0F-_6w5Se98xd78dwjNwtecla3bOwomXnhx-56xMQpQnmMKaTNAQnI8pQylvmco6WeWNkcieKtwfzUh1fsrMu5_DVq6HLFMAYrpCla57nH6USNwrmVi1IOB6U4HVk9cINOhkQ-3TiArlKQHkaMeQiZC-dmcQhONk-PTNvsX9Peb1bWOdq3]--></g></svg>