<svg xmlns="http://www.w3.org/2000/svg" xmlns:xlink="http://www.w3.org/1999/xlink" contentStyleType="text/css" data-diagram-type="DESCRIPTION" height="590px" preserveAspectRatio="none" style="width:651px;height:590px;background:#FFFFFF;" version="1.1" viewBox="0 0 651 590" width="651px" zoomAndPan="magnify"><defs/><g><!--cluster Frontend--><g id="cluster_Frontend"><path d="M54.5,6 L127.7285,6 A3.75,3.75 0 0 1 130.2285,8.5 L137.2285,28.2969 L589.5,28.2969 A2.5,2.5 0 0 1 592,30.7969 L592,100.79 A2.5,2.5 0 0 1 589.5,103.29 L54.5,103.29 A2.5,2.5 0 0 1 52,100.79 L52,8.5 A2.5,2.5 0 0 1 54.5,6 " fill="none" style="stroke:#000000;stroke-width:1.5;"/><line style="stroke:#000000;stroke-width:1.5;" x1="52" x2="137.2285" y1="28.2969" y2="28.2969"/><text fill="#000000" font-family="sans-serif" font-size="14" font-weight="bold" lengthAdjust="spacing" textLength="72.2285" x="56" y="20.9951">Frontend</text></g><!--cluster Backend--><g id="cluster_Backend"><path d="M128.5,127.29 L196.7109,127.29 A3.75,3.75 0 0 1 199.2109,129.79 L206.2109,149.5869 L347.5,149.5869 A2.5,2.5 0 0 1 350,152.0869 L350,434.68 A2.5,2.5 0 0 1 347.5,437.18 L128.5,437.18 A2.5,2.5 0 0 1 126,434.68 L126,129.79 A2.5,2.5 0 0 1 128.5,127.29 " fill="none" style="stroke:#000000;stroke-width:1.5;"/><line style="stroke:#000000;stroke-width:1.5;" x1="126" x2="206.2109" y1="149.5869" y2="149.5869"/><text fill="#000000" font-family="sans-serif" font-size="14" font-weight="bold" lengthAdjust="spacing" textLength="67.2109" x="130" y="142.2851">Backend</text></g><!--cluster External--><g id="cluster_External"><path d="M8.5,476.18 L75.3984,476.18 A3.75,3.75 0 0 1 77.8984,478.68 L84.8984,498.4769 L330.5,498.4769 A2.5,2.5 0 0 1 333,500.9769 L333,570.98 A2.5,2.5 0 0 1 330.5,573.48 L8.5,573.48 A2.5,2.5 0 0 1 6,570.98 L6,478.68 A2.5,2.5 0 0 1 8.5,476.18 " fill="none" style="stroke:#000000;stroke-width:1.5;"/><line style="stroke:#000000;stroke-width:1.5;" x1="6" x2="84.8984" y1="498.4769" y2="498.4769"/><text fill="#000000" font-family="sans-serif" font-size="14" font-weight="bold" lengthAdjust="spacing" textLength="65.8984" x="10" y="491.1751">External</text></g><!--cluster Database--><g id="cluster_Database"><path d="M357,471.18 C357,461.18 495.5,461.18 495.5,461.18 C495.5,461.18 634,461.18 634,471.18 L634,563.48 C634,573.48 495.5,573.48 495.5,573.48 C495.5,573.48 357,573.48 357,563.48 L357,471.18 " fill="none" style="stroke:#181818;stroke-width:1;"/><path d="M357,471.18 C357,481.18 495.5,481.18 495.5,481.18 C495.5,481.18 634,481.18 634,471.18 " fill="none" style="stroke:#181818;stroke-width:1;"/><text fill="#000000" font-family="sans-serif" font-size="14" font-weight="bold" lengthAdjust="spacing" textLength="74.5049" x="458.2476" y="496.1751">Database</text></g><!--entity URL Input Form--><g id="elem_URL Input Form"><rect fill="#F1F1F1" height="46.2969" rx="2.5" ry="2.5" style="stroke:#181818;stroke-width:0.5;" width="148.9375" x="67.53" y="41"/><rect fill="#F1F1F1" height="10" style="stroke:#181818;stroke-width:0.5;" width="15" x="196.4675" y="46"/><rect fill="#F1F1F1" height="2" style="stroke:#181818;stroke-width:0.5;" width="4" x="194.4675" y="48"/><rect fill="#F1F1F1" height="2" style="stroke:#181818;stroke-width:0.5;" width="4" x="194.4675" y="52"/><text fill="#000000" font-family="sans-serif" font-size="14" lengthAdjust="spacing" textLength="108.9375" x="82.53" y="73.9951">URL Input Form</text></g><!--entity Translation Status--><g id="elem_Translation Status"><rect fill="#F1F1F1" height="46.2969" rx="2.5" ry="2.5" style="stroke:#181818;stroke-width:0.5;" width="167.4014" x="251.3" y="41"/><rect fill="#F1F1F1" height="10" style="stroke:#181818;stroke-width:0.5;" width="15" x="398.7014" y="46"/><rect fill="#F1F1F1" height="2" style="stroke:#181818;stroke-width:0.5;" width="4" x="396.7014" y="48"/><rect fill="#F1F1F1" height="2" style="stroke:#181818;stroke-width:0.5;" width="4" x="396.7014" y="52"/><text fill="#000000" font-family="sans-serif" font-size="14" lengthAdjust="spacing" textLength="127.4014" x="266.3" y="73.9951">Translation Status</text></g><!--entity Result View--><g id="elem_Result View"><rect fill="#F1F1F1" height="46.2969" rx="2.5" ry="2.5" style="stroke:#181818;stroke-width:0.5;" width="121.8672" x="454.07" y="41"/><rect fill="#F1F1F1" height="10" style="stroke:#181818;stroke-width:0.5;" width="15" x="555.9372" y="46"/><rect fill="#F1F1F1" height="2" style="stroke:#181818;stroke-width:0.5;" width="4" x="553.9372" y="48"/><rect fill="#F1F1F1" height="2" style="stroke:#181818;stroke-width:0.5;" width="4" x="553.9372" y="52"/><text fill="#000000" font-family="sans-serif" font-size="14" lengthAdjust="spacing" textLength="81.8672" x="469.07" y="73.9951">Result View</text></g><!--entity arXiv Client--><g id="elem_arXiv Client"><rect fill="#F1F1F1" height="46.2969" rx="2.5" ry="2.5" style="stroke:#181818;stroke-width:0.5;" width="121.0811" x="142.46" y="162.29"/><rect fill="#F1F1F1" height="10" style="stroke:#181818;stroke-width:0.5;" width="15" x="243.5411" y="167.29"/><rect fill="#F1F1F1" height="2" style="stroke:#181818;stroke-width:0.5;" width="4" x="241.5411" y="169.29"/><rect fill="#F1F1F1" height="2" style="stroke:#181818;stroke-width:0.5;" width="4" x="241.5411" y="173.29"/><text fill="#000000" font-family="sans-serif" font-size="14" lengthAdjust="spacing" textLength="81.0811" x="157.46" y="195.2851">arXiv Client</text></g><!--entity PDF Processor--><g id="elem_PDF Processor"><rect fill="#F1F1F1" height="46.2969" rx="2.5" ry="2.5" style="stroke:#181818;stroke-width:0.5;" width="139.709" x="142.15" y="268.59"/><rect fill="#F1F1F1" height="10" style="stroke:#181818;stroke-width:0.5;" width="15" x="261.859" y="273.59"/><rect fill="#F1F1F1" height="2" style="stroke:#181818;stroke-width:0.5;" width="4" x="259.859" y="275.59"/><rect fill="#F1F1F1" height="2" style="stroke:#181818;stroke-width:0.5;" width="4" x="259.859" y="279.59"/><text fill="#000000" font-family="sans-serif" font-size="14" lengthAdjust="spacing" textLength="99.709" x="157.15" y="301.5851">PDF Processor</text></g><!--entity Translation Controller--><g id="elem_Translation Controller"><rect fill="#F1F1F1" height="46.2969" rx="2.5" ry="2.5" style="stroke:#181818;stroke-width:0.5;" width="191.9629" x="142.02" y="374.89"/><rect fill="#F1F1F1" height="10" style="stroke:#181818;stroke-width:0.5;" width="15" x="313.9829" y="379.89"/><rect fill="#F1F1F1" height="2" style="stroke:#181818;stroke-width:0.5;" width="4" x="311.9829" y="381.89"/><rect fill="#F1F1F1" height="2" style="stroke:#181818;stroke-width:0.5;" width="4" x="311.9829" y="385.89"/><text fill="#000000" font-family="sans-serif" font-size="14" lengthAdjust="spacing" textLength="151.9629" x="157.02" y="407.8851">Translation Controller</text></g><!--entity arXiv API--><g id="elem_arXiv API"><rect fill="#F1F1F1" height="46.2969" rx="2.5" ry="2.5" style="stroke:#181818;stroke-width:0.5;" width="102.6992" x="21.65" y="511.18"/><rect fill="#F1F1F1" height="10" style="stroke:#181818;stroke-width:0.5;" width="15" x="104.3492" y="516.18"/><rect fill="#F1F1F1" height="2" style="stroke:#181818;stroke-width:0.5;" width="4" x="102.3492" y="518.18"/><rect fill="#F1F1F1" height="2" style="stroke:#181818;stroke-width:0.5;" width="4" x="102.3492" y="522.18"/><text fill="#000000" font-family="sans-serif" font-size="14" lengthAdjust="spacing" textLength="62.6992" x="36.65" y="544.1751">arXiv API</text></g><!--entity Tachyon LLM API--><g id="elem_Tachyon LLM API"><rect fill="#F1F1F1" height="46.2969" rx="2.5" ry="2.5" style="stroke:#181818;stroke-width:0.5;" width="158.1523" x="158.92" y="511.18"/><rect fill="#F1F1F1" height="10" style="stroke:#181818;stroke-width:0.5;" width="15" x="297.0723" y="516.18"/><rect fill="#F1F1F1" height="2" style="stroke:#181818;stroke-width:0.5;" width="4" x="295.0723" y="518.18"/><rect fill="#F1F1F1" height="2" style="stroke:#181818;stroke-width:0.5;" width="4" x="295.0723" y="522.18"/><text fill="#000000" font-family="sans-serif" font-size="14" lengthAdjust="spacing" textLength="118.1523" x="173.92" y="544.1751">Tachyon LLM API</text></g><!--entity papers--><g id="elem_papers"><rect fill="#F1F1F1" height="46.2969" rx="2.5" ry="2.5" style="stroke:#181818;stroke-width:0.5;" width="88.0156" x="372.99" y="511.18"/><rect fill="#F1F1F1" height="10" style="stroke:#181818;stroke-width:0.5;" width="15" x="441.0056" y="516.18"/><rect fill="#F1F1F1" height="2" style="stroke:#181818;stroke-width:0.5;" width="4" x="439.0056" y="518.18"/><rect fill="#F1F1F1" height="2" style="stroke:#181818;stroke-width:0.5;" width="4" x="439.0056" y="522.18"/><text fill="#000000" font-family="sans-serif" font-size="14" lengthAdjust="spacing" textLength="48.0156" x="387.99" y="544.1751">papers</text></g><!--entity translations--><g id="elem_translations"><rect fill="#F1F1F1" height="46.2969" rx="2.5" ry="2.5" style="stroke:#181818;stroke-width:0.5;" width="122.5713" x="495.71" y="511.18"/><rect fill="#F1F1F1" height="10" style="stroke:#181818;stroke-width:0.5;" width="15" x="598.2813" y="516.18"/><rect fill="#F1F1F1" height="2" style="stroke:#181818;stroke-width:0.5;" width="4" x="596.2813" y="518.18"/><rect fill="#F1F1F1" height="2" style="stroke:#181818;stroke-width:0.5;" width="4" x="596.2813" y="522.18"/><text fill="#000000" font-family="sans-serif" font-size="14" lengthAdjust="spacing" textLength="82.5713" x="510.71" y="544.1751">translations</text></g><!--link URL Input Form to arXiv Client--><g id="link_URL Input Form_arXiv Client"><path d="M153.47,87.58 C164.38,108.91 177.9577,135.4683 188.8477,156.7583 " fill="none" id="URL Input Form-to-arXiv Client" style="stroke:#181818;stroke-width:1;"/><polygon fill="#181818" points="191.58,162.1,191.0426,152.2658,189.303,157.6485,183.9203,155.9089,191.58,162.1" style="stroke:#181818;stroke-width:1;"/></g><!--link arXiv Client to arXiv API--><g id="link_arXiv Client_arXiv API"><path d="M174.6,209.01 C157.59,224.08 137,245.35 125,268.59 C82.66,350.58 74.8691,457.1527 73.4491,504.6927 " fill="none" id="arXiv Client-to-arXiv API" style="stroke:#181818;stroke-width:1;"/><polygon fill="#181818" points="73.27,510.69,77.5369,501.8134,73.4193,505.6922,69.5405,501.5746,73.27,510.69" style="stroke:#181818;stroke-width:1;"/></g><!--link arXiv Client to PDF Processor--><g id="link_arXiv Client_PDF Processor"><path d="M204.95,209.07 C206.46,226.57 208.0236,244.6923 209.5336,262.1723 " fill="none" id="arXiv Client-to-PDF Processor" style="stroke:#181818;stroke-width:1;"/><polygon fill="#181818" points="210.05,268.15,213.2606,258.8391,209.6197,263.1686,205.2903,259.5276,210.05,268.15" style="stroke:#181818;stroke-width:1;"/></g><!--link PDF Processor to Translation Controller--><g id="link_PDF Processor_Translation Controller"><path d="M217.64,315.37 C222,332.86 226.5579,351.1484 230.9179,368.6284 " fill="none" id="PDF Processor-to-Translation Controller" style="stroke:#181818;stroke-width:1;"/><polygon fill="#181818" points="232.37,374.45,234.073,364.7495,231.1599,369.5986,226.3108,366.6856,232.37,374.45" style="stroke:#181818;stroke-width:1;"/></g><!--link Translation Controller to Tachyon LLM API--><g id="link_Translation Controller_Tachyon LLM API"><path d="M238,421.51 C238,446.3 238,479.96 238,504.78 " fill="none" id="Translation Controller-to-Tachyon LLM API" style="stroke:#181818;stroke-width:1;"/><polygon fill="#181818" points="238,510.78,242,501.78,238,505.78,234,501.78,238,510.78" style="stroke:#181818;stroke-width:1;"/></g><!--link Translation Controller to translations--><g id="link_Translation Controller_translations"><path d="M334.39,407.79 C380.41,415.1 434.93,428.53 479,453.18 C504.42,467.4 523.1555,487.7268 537.3555,506.0568 " fill="none" id="Translation Controller-to-translations" style="stroke:#181818;stroke-width:1;"/><polygon fill="#181818" points="541.03,510.8,538.6804,501.2355,537.9679,506.8473,532.3561,506.1349,541.03,510.8" style="stroke:#181818;stroke-width:1;"/></g><!--link Result View to Translation Controller--><g id="link_Result View_Translation Controller"><path d="M500.85,87.77 C471.95,133.18 402.87,237.66 332,314.89 C311.92,336.76 291.0798,354.9702 271.6998,370.6902 " fill="none" id="Result View-to-Translation Controller" style="stroke:#181818;stroke-width:1;"/><polygon fill="#181818" points="267.04,374.47,276.5495,371.9069,270.9231,371.3202,271.5098,365.6939,267.04,374.47" style="stroke:#181818;stroke-width:1;"/></g><!--link Translation Status to Translation Controller--><g id="link_Translation Status_Translation Controller"><path d="M335.39,87.47 C335.4,132.34 331.55,235.91 299,314.89 C289.79,337.22 277.0994,354.4931 263.5294,370.0131 " fill="none" id="Translation Status-to-Translation Controller" style="stroke:#181818;stroke-width:1;"/><polygon fill="#181818" points="259.58,374.53,268.5153,370.3876,262.8711,370.7659,262.4928,365.1217,259.58,374.53" style="stroke:#181818;stroke-width:1;"/></g><!--SRC=[bLBRQiCm37tFLuYyznSANTj08OFGNIYCFgY9wC8ysyXABup-UqtZR8bf0_EJRkT8HxB5yWlt16d6HWlfAeMV1FpxU5ldiDAs4SWCVs_Ru2kZTWgbDXfU1ALn8R4croY1zvgEs-II9BRZVV96dnPvKnzWhchI4h358eE2JKdE6RxJQEudOwCKyP1wUH9YZIhYdXMhZWJBpxCdoFFdDkhH5Ghkq7du8bY_S8kMk1CaVmEu6p1U24mcqrZEqErNtDhVIqVY8x-jURICHuc0YjMFbmy53mxwZod2fnX5N040]--></g></svg>