<svg xmlns="http://www.w3.org/2000/svg" xmlns:xlink="http://www.w3.org/1999/xlink" contentStyleType="text/css" data-diagram-type="DESCRIPTION" height="563px" preserveAspectRatio="none" style="width:1187px;height:563px;background:#FFFFFF;" version="1.1" viewBox="0 0 1187 563" width="1187px" zoomAndPan="magnify"><defs/><g><!--cluster Protocol Options--><g id="cluster_Protocol Options"><path d="M8.5,6 L141.5156,6 A3.75,3.75 0 0 1 144.0156,8.5 L151.0156,28.2969 L766.5,28.2969 A2.5,2.5 0 0 1 769,30.7969 L769,125.03 A2.5,2.5 0 0 1 766.5,127.53 L8.5,127.53 A2.5,2.5 0 0 1 6,125.03 L6,8.5 A2.5,2.5 0 0 1 8.5,6 " fill="none" style="stroke:#000000;stroke-width:1.5;"/><line style="stroke:#000000;stroke-width:1.5;" x1="6" x2="151.0156" y1="28.2969" y2="28.2969"/><text fill="#000000" font-family="sans-serif" font-size="14" font-weight="bold" lengthAdjust="spacing" textLength="132.0156" x="10" y="20.9951">Protocol Options</text></g><!--cluster Frontend--><g id="cluster_Frontend"><polygon fill="none" points="793,23.12,803,13.12,975,13.12,975,226.83,965,236.83,793,236.83,793,23.12" style="stroke:#181818;stroke-width:1;"/><line style="stroke:#181818;stroke-width:1;" x1="965" x2="975" y1="23.12" y2="13.12"/><line style="stroke:#181818;stroke-width:1;" x1="793" x2="965" y1="23.12" y2="23.12"/><line style="stroke:#181818;stroke-width:1;" x1="965" x2="965" y1="23.12" y2="236.83"/><text fill="#000000" font-family="sans-serif" font-size="14" font-weight="bold" lengthAdjust="spacing" textLength="72.2285" x="843.8857" y="39.1151">Frontend</text></g><!--cluster Backend--><g id="cluster_Backend"><polygon fill="none" points="790,310.83,800,300.83,978,300.83,978,536.42,968,546.42,790,546.42,790,310.83" style="stroke:#181818;stroke-width:1;"/><line style="stroke:#181818;stroke-width:1;" x1="968" x2="978" y1="310.83" y2="300.83"/><line style="stroke:#181818;stroke-width:1;" x1="790" x2="968" y1="310.83" y2="310.83"/><line style="stroke:#181818;stroke-width:1;" x1="968" x2="968" y1="310.83" y2="546.42"/><text fill="#000000" font-family="sans-serif" font-size="14" font-weight="bold" lengthAdjust="spacing" textLength="67.2109" x="846.3945" y="326.8251">Backend</text></g><!--cluster Storage--><g id="cluster_Storage"><path d="M1002,444.12 C1002,434.12 1086,434.12 1086,434.12 C1086,434.12 1170,434.12 1170,444.12 L1170,536.42 C1170,546.42 1086,546.42 1086,546.42 C1086,546.42 1002,546.42 1002,536.42 L1002,444.12 " fill="none" style="stroke:#181818;stroke-width:1;"/><path d="M1002,444.12 C1002,454.12 1086,454.12 1086,454.12 C1086,454.12 1170,454.12 1170,444.12 " fill="none" style="stroke:#181818;stroke-width:1;"/><text fill="#000000" font-family="sans-serif" font-size="14" font-weight="bold" lengthAdjust="spacing" textLength="62.2617" x="1054.8691" y="469.1151">Storage</text></g><!--entity gRPC--><g id="elem_gRPC"><rect fill="#90EE90" height="46.2969" rx="2.5" ry="2.5" style="stroke:#181818;stroke-width:0.5;" width="76.832" x="21.58" y="53.12"/><rect fill="#90EE90" height="10" style="stroke:#181818;stroke-width:0.5;" width="15" x="78.412" y="58.12"/><rect fill="#90EE90" height="2" style="stroke:#181818;stroke-width:0.5;" width="4" x="76.412" y="60.12"/><rect fill="#90EE90" height="2" style="stroke:#181818;stroke-width:0.5;" width="4" x="76.412" y="64.12"/><text fill="#000000" font-family="sans-serif" font-size="14" lengthAdjust="spacing" textLength="36.832" x="36.58" y="86.1151">gRPC</text></g><!--entity WebTransport--><g id="elem_WebTransport"><rect fill="#ADD8E6" height="46.2969" rx="2.5" ry="2.5" style="stroke:#181818;stroke-width:0.5;" width="139.0938" x="393.45" y="53.12"/><rect fill="#ADD8E6" height="10" style="stroke:#181818;stroke-width:0.5;" width="15" x="512.5438" y="58.12"/><rect fill="#ADD8E6" height="2" style="stroke:#181818;stroke-width:0.5;" width="4" x="510.5438" y="60.12"/><rect fill="#ADD8E6" height="2" style="stroke:#181818;stroke-width:0.5;" width="4" x="510.5438" y="64.12"/><text fill="#000000" font-family="sans-serif" font-size="14" lengthAdjust="spacing" textLength="99.0938" x="408.45" y="86.1151">WebTransport</text></g><g id="elem_GMN5"><path d="M133.86,41 L133.86,72.26 L98.87,76.26 L133.86,80.26 L133.86,111.5313 A0,0 0 0 0 133.86,111.5313 L358.1438,111.5313 A0,0 0 0 0 358.1438,111.5313 L358.1438,51 L348.1438,41 L133.86,41 A0,0 0 0 0 133.86,41 " fill="#FEFFDD" style="stroke:#181818;stroke-width:0.5;"/><path d="M348.1438,41 L348.1438,51 L358.1438,51 L348.1438,41 " fill="#FEFFDD" style="stroke:#181818;stroke-width:0.5;"/><text fill="#000000" font-family="sans-serif" font-size="13" lengthAdjust="spacing" textLength="190.8235" x="139.86" y="58.0669">- &#39640;&#24615;&#33021;&#12394;&#21452;&#26041;&#21521;&#12473;&#12488;&#12522;&#12540;&#12511;&#12531;&#12464;</text><text fill="#000000" font-family="sans-serif" font-size="13" lengthAdjust="spacing" textLength="203.2838" x="139.86" y="73.1997">- Protocol Buffers&#12395;&#12424;&#12427;&#22411;&#23433;&#20840;&#24615;</text><text fill="#000000" font-family="sans-serif" font-size="13" lengthAdjust="spacing" textLength="177.8234" x="139.86" y="88.3325">- &#21177;&#29575;&#30340;&#12394;&#12496;&#12452;&#12490;&#12522;&#12503;&#12525;&#12488;&#12467;&#12523;</text><text fill="#000000" font-family="sans-serif" font-size="13" lengthAdjust="spacing" textLength="93.9707" x="139.86" y="103.4653">- HTTP/2&#12505;&#12540;&#12473;</text></g><g id="elem_GMN8"><path d="M567.09,41 L567.09,72.26 L533.03,76.26 L567.09,80.26 L567.09,111.5313 A0,0 0 0 0 567.09,111.5313 L752.9134,111.5313 A0,0 0 0 0 752.9134,111.5313 L752.9134,51 L742.9134,41 L567.09,41 A0,0 0 0 0 567.09,41 " fill="#FEFFDD" style="stroke:#181818;stroke-width:0.5;"/><path d="M742.9134,41 L742.9134,51 L752.9134,51 L742.9134,41 " fill="#FEFFDD" style="stroke:#181818;stroke-width:0.5;"/><text fill="#000000" font-family="sans-serif" font-size="13" lengthAdjust="spacing" textLength="120.9039" x="573.09" y="58.0669">- WebSocket&#12398;&#24460;&#32153;</text><text fill="#000000" font-family="sans-serif" font-size="13" lengthAdjust="spacing" textLength="99.2266" x="573.09" y="73.1997">- UDP/QUIC&#23550;&#24540;</text><text fill="#000000" font-family="sans-serif" font-size="13" lengthAdjust="spacing" textLength="47.8233" x="573.09" y="88.3325">- &#20302;&#36933;&#24310;</text><text fill="#000000" font-family="sans-serif" font-size="13" lengthAdjust="spacing" textLength="164.8234" x="573.09" y="103.4653">- &#35079;&#25968;&#12473;&#12488;&#12522;&#12540;&#12512;&#12398;&#20006;&#21015;&#20966;&#29702;</text></g><!--entity UI Components--><g id="elem_UI Components"><rect fill="#F1F1F1" height="46.2969" rx="2.5" ry="2.5" style="stroke:#181818;stroke-width:0.5;" width="147.3994" x="810.3" y="53.12"/><rect fill="#F1F1F1" height="10" style="stroke:#181818;stroke-width:0.5;" width="15" x="937.6994" y="58.12"/><rect fill="#F1F1F1" height="2" style="stroke:#181818;stroke-width:0.5;" width="4" x="935.6994" y="60.12"/><rect fill="#F1F1F1" height="2" style="stroke:#181818;stroke-width:0.5;" width="4" x="935.6994" y="64.12"/><text fill="#000000" font-family="sans-serif" font-size="14" lengthAdjust="spacing" textLength="107.3994" x="825.3" y="86.1151">UI Components</text></g><!--entity Stream Handler--><g id="elem_Stream Handler"><rect fill="#F1F1F1" height="46.2969" rx="2.5" ry="2.5" style="stroke:#181818;stroke-width:0.5;" width="150.5371" x="808.73" y="174.53"/><rect fill="#F1F1F1" height="10" style="stroke:#181818;stroke-width:0.5;" width="15" x="939.2671" y="179.53"/><rect fill="#F1F1F1" height="2" style="stroke:#181818;stroke-width:0.5;" width="4" x="937.2671" y="181.53"/><rect fill="#F1F1F1" height="2" style="stroke:#181818;stroke-width:0.5;" width="4" x="937.2671" y="185.53"/><text fill="#000000" font-family="sans-serif" font-size="14" lengthAdjust="spacing" textLength="110.5371" x="823.73" y="207.5251">Stream Handler</text></g><!--entity LLM Agents--><g id="elem_LLM Agents"><rect fill="#F1F1F1" height="46.2969" rx="2.5" ry="2.5" style="stroke:#181818;stroke-width:0.5;" width="120.8623" x="823.57" y="484.12"/><rect fill="#F1F1F1" height="10" style="stroke:#181818;stroke-width:0.5;" width="15" x="924.4323" y="489.12"/><rect fill="#F1F1F1" height="2" style="stroke:#181818;stroke-width:0.5;" width="4" x="922.4323" y="491.12"/><rect fill="#F1F1F1" height="2" style="stroke:#181818;stroke-width:0.5;" width="4" x="922.4323" y="495.12"/><text fill="#000000" font-family="sans-serif" font-size="14" lengthAdjust="spacing" textLength="80.8623" x="838.57" y="517.1151">LLM Agents</text></g><!--entity Stream Manager--><g id="elem_Stream Manager"><rect fill="#F1F1F1" height="46.2969" rx="2.5" ry="2.5" style="stroke:#181818;stroke-width:0.5;" width="156.7783" x="805.61" y="340.83"/><rect fill="#F1F1F1" height="10" style="stroke:#181818;stroke-width:0.5;" width="15" x="942.3883" y="345.83"/><rect fill="#F1F1F1" height="2" style="stroke:#181818;stroke-width:0.5;" width="4" x="940.3883" y="347.83"/><rect fill="#F1F1F1" height="2" style="stroke:#181818;stroke-width:0.5;" width="4" x="940.3883" y="351.83"/><text fill="#000000" font-family="sans-serif" font-size="14" lengthAdjust="spacing" textLength="116.7783" x="820.61" y="373.8251">Stream Manager</text></g><!--entity Redis PubSub--><g id="elem_Redis PubSub"><rect fill="#F1F1F1" height="46.2969" rx="2.5" ry="2.5" style="stroke:#181818;stroke-width:0.5;" width="135.71" x="1018.15" y="484.12"/><rect fill="#F1F1F1" height="10" style="stroke:#181818;stroke-width:0.5;" width="15" x="1133.86" y="489.12"/><rect fill="#F1F1F1" height="2" style="stroke:#181818;stroke-width:0.5;" width="4" x="1131.86" y="491.12"/><rect fill="#F1F1F1" height="2" style="stroke:#181818;stroke-width:0.5;" width="4" x="1131.86" y="495.12"/><text fill="#000000" font-family="sans-serif" font-size="14" lengthAdjust="spacing" textLength="95.71" x="1033.15" y="517.1151">Redis PubSub</text></g><!--link UI Components to Stream Handler--><g id="link_UI Components_Stream Handler"><path d="M884,99.72 C884,121.07 884,147 884,168.32 " fill="none" id="UI Components-to-Stream Handler" style="stroke:#181818;stroke-width:1;"/><polygon fill="#181818" points="884,174.32,888,165.32,884,169.32,880,165.32,884,174.32" style="stroke:#181818;stroke-width:1;"/></g><!--link Stream Handler to Stream Manager--><g id="link_Stream Handler_Stream Manager"><path d="M884,227.18 C884,258.55 884,303.11 884,334.48 " fill="none" id="Stream Handler-Stream Manager" style="stroke:#181818;stroke-width:1;"/><polygon fill="#181818" points="884,221.18,880,230.18,884,226.18,888,230.18,884,221.18" style="stroke:#181818;stroke-width:1;"/><polygon fill="#181818" points="884,340.48,888,331.48,884,335.48,880,331.48,884,340.48" style="stroke:#181818;stroke-width:1;"/><text fill="#000000" font-family="sans-serif" font-size="13" lengthAdjust="spacing" textLength="81.3643" x="885" y="265.8969">Bidirectional</text><text fill="#000000" font-family="sans-serif" font-size="13" lengthAdjust="spacing" textLength="67.4248" x="891.9697" y="281.0297">Streaming</text></g><!--link Stream Manager to LLM Agents--><g id="link_Stream Manager_LLM Agents"><path d="M884,393.36 C884,419.82 884,451.58 884,477.99 " fill="none" id="Stream Manager-LLM Agents" style="stroke:#181818;stroke-width:1;"/><polygon fill="#181818" points="884,387.36,880,396.36,884,392.36,888,396.36,884,387.36" style="stroke:#181818;stroke-width:1;"/><polygon fill="#181818" points="884,483.99,888,474.99,884,478.99,880,474.99,884,483.99" style="stroke:#181818;stroke-width:1;"/></g><!--link Stream Manager to Redis PubSub--><g id="link_Stream Manager_Redis PubSub"><path d="M924.6624,390.6362 C942.3824,401.9862 958.98,412.9 978,426.12 C1005.03,444.92 1030.2722,463.6906 1051.7822,480.0306 " fill="none" id="Stream Manager-Redis PubSub" style="stroke:#181818;stroke-width:1;"/><polygon fill="#181818" points="919.61,387.4,925.0312,395.6226,923.8204,390.0968,929.3461,388.886,919.61,387.4" style="stroke:#181818;stroke-width:1;"/><polygon fill="#181818" points="1056.56,483.66,1051.8129,475.0307,1052.5785,480.6355,1046.9737,481.401,1056.56,483.66" style="stroke:#181818;stroke-width:1;"/></g><!--SRC=[TL9FInj15B_dKmnw3aAF8a8JgGgHhYR1W_KmoKxMnJWJPYUdKcXsj4bLD1xyYwW7KJ5K1K4QglR3F2VHRz7PNOqJK-Sslp_l_TxCA-7yF7O8whCu4opFYkXpIRYCUdteQmpfC-DCMSbPr9zodJanoWcX4JnDSXcEgLTYNBpGYMAPX2nbWY0UG8WLdak4H73YwAcnq_f- -YZle7AkrbTRMqrLtm2_2R86yXpaBSX3aDVWNnccJi14kL0Wt8DA0_mQ-2lgO4LT_5HBPxgceLVBpVPQjRstg9k0h8D_378vBByDybVGohy6sJ0SOvcCDV01v6wGm6-63A5sE4ru-TziNUzW5DDuckNdYO3AXRfVRT_i6cHsn1gOp8udrUMz-hjl40ztQq-L9VNdni0UZwkjpQlkvpdILHz-dwZQjggUjEi_khD-YyKei_MdVkAC2WrtFZCxZf9ieSGeeSABuiwa1ITu0OrXQXS9dtrr9_HkcEPKQW9zT7gT4vZg5OgSDXOuXptjJWl6DTnnJn7RzP1LpgNBkL3w9WoAnuTxmxm5q90fU-cC1b72jLrEyi7kuk8N6WbSwiHwj545SvXt95s9_m40]--></g></svg>