<svg xmlns="http://www.w3.org/2000/svg" xmlns:xlink="http://www.w3.org/1999/xlink" contentStyleType="text/css" data-diagram-type="DESCRIPTION" height="182px" preserveAspectRatio="none" style="width:793px;height:182px;background:#FFFFFF;" version="1.1" viewBox="0 0 793 182" width="793px" zoomAndPan="magnify"><defs/><g><!--entity dispatcher--><g id="elem_dispatcher"><rect fill="#F1F1F1" height="36.2969" rx="2.5" ry="2.5" style="stroke:#181818;stroke-width:0.5;" width="185.9902" x="7" y="7"/><text fill="#000000" font-family="sans-serif" font-size="14" lengthAdjust="spacing" textLength="165.9902" x="17" y="29.9951">InquiryDispatcherAgent</text></g><!--entity it--><g id="elem_it"><rect fill="#F1F1F1" height="36.2969" rx="2.5" ry="2.5" style="stroke:#181818;stroke-width:0.5;" width="129.4639" x="435.26" y="7"/><text fill="#000000" font-family="sans-serif" font-size="14" lengthAdjust="spacing" textLength="109.4639" x="445.26" y="29.9951">ITSupportAgent</text></g><!--entity hr--><g id="elem_hr"><rect fill="#F1F1F1" height="36.2969" rx="2.5" ry="2.5" style="stroke:#181818;stroke-width:0.5;" width="137.0381" x="619.48" y="7"/><text fill="#000000" font-family="sans-serif" font-size="14" lengthAdjust="spacing" textLength="117.0381" x="629.48" y="29.9951">HRSupportAgent</text></g><!--entity policy--><g id="elem_policy"><rect fill="#F1F1F1" height="36.2969" rx="2.5" ry="2.5" style="stroke:#181818;stroke-width:0.5;" width="154.4629" x="227.76" y="7"/><text fill="#000000" font-family="sans-serif" font-size="14" lengthAdjust="spacing" textLength="134.4629" x="237.76" y="29.9951">PolicyAdvisorAgent</text></g><!--entity analyzer--><g id="elem_analyzer"><path d="M24.01,130.29 C24.01,120.29 99.9905,120.29 99.9905,120.29 C99.9905,120.29 175.9709,120.29 175.9709,130.29 L175.9709,155.5869 C175.9709,165.5869 99.9905,165.5869 99.9905,165.5869 C99.9905,165.5869 24.01,165.5869 24.01,155.5869 L24.01,130.29 " fill="#F1F1F1" style="stroke:#181818;stroke-width:0.5;"/><path d="M24.01,130.29 C24.01,140.29 99.9905,140.29 99.9905,140.29 C99.9905,140.29 175.9709,140.29 175.9709,130.29 " fill="none" style="stroke:#181818;stroke-width:0.5;"/><text fill="#000000" font-family="sans-serif" font-size="14" lengthAdjust="spacing" textLength="131.9609" x="34.01" y="157.2851">IntentAnalyzerTool</text></g><!--entity it_kb--><g id="elem_it_kb"><path d="M431.34,130.29 C431.34,120.29 517.9914,120.29 517.9914,120.29 C517.9914,120.29 604.6427,120.29 604.6427,130.29 L604.6427,155.5869 C604.6427,165.5869 517.9914,165.5869 517.9914,165.5869 C517.9914,165.5869 431.34,165.5869 431.34,155.5869 L431.34,130.29 " fill="#F1F1F1" style="stroke:#181818;stroke-width:0.5;"/><path d="M431.34,130.29 C431.34,140.29 517.9914,140.29 517.9914,140.29 C517.9914,140.29 604.6427,140.29 604.6427,130.29 " fill="none" style="stroke:#181818;stroke-width:0.5;"/><text fill="#000000" font-family="sans-serif" font-size="14" lengthAdjust="spacing" textLength="153.3027" x="441.34" y="157.2851">ITKnowledgeBaseTool</text></g><!--entity hr_db--><g id="elem_hr_db"><path d="M639.68,130.29 C639.68,120.29 707.994,120.29 707.994,120.29 C707.994,120.29 776.3079,120.29 776.3079,130.29 L776.3079,155.5869 C776.3079,165.5869 707.994,165.5869 707.994,165.5869 C707.994,165.5869 639.68,165.5869 639.68,155.5869 L639.68,130.29 " fill="#F1F1F1" style="stroke:#181818;stroke-width:0.5;"/><path d="M639.68,130.29 C639.68,140.29 707.994,140.29 707.994,140.29 C707.994,140.29 776.3079,140.29 776.3079,130.29 " fill="none" style="stroke:#181818;stroke-width:0.5;"/><text fill="#000000" font-family="sans-serif" font-size="14" lengthAdjust="spacing" textLength="116.6279" x="649.68" y="157.2851">HRDatabaseTool</text></g><!--entity policy_db--><g id="elem_policy_db"><path d="M233.52,130.29 C233.52,120.29 311.9922,120.29 311.9922,120.29 C311.9922,120.29 390.4643,120.29 390.4643,130.29 L390.4643,155.5869 C390.4643,165.5869 311.9922,165.5869 311.9922,165.5869 C311.9922,165.5869 233.52,165.5869 233.52,155.5869 L233.52,130.29 " fill="#F1F1F1" style="stroke:#181818;stroke-width:0.5;"/><path d="M233.52,130.29 C233.52,140.29 311.9922,140.29 311.9922,140.29 C311.9922,140.29 390.4643,140.29 390.4643,130.29 " fill="none" style="stroke:#181818;stroke-width:0.5;"/><text fill="#000000" font-family="sans-serif" font-size="14" lengthAdjust="spacing" textLength="136.9443" x="243.52" y="157.2851">CompanyPolicyTool</text></g><!--link dispatcher to analyzer--><g id="link_dispatcher_analyzer"><path d="M100,43.73 C100,64.1 100,91.7 100,113.82 " fill="none" id="dispatcher-to-analyzer" style="stroke:#181818;stroke-width:1;"/><polygon fill="#181818" points="100,119.82,104,110.82,100,114.82,96,110.82,100,119.82" style="stroke:#181818;stroke-width:1;"/><text fill="#000000" font-family="sans-serif" font-size="13" lengthAdjust="spacing" textLength="29.7832" x="101" y="86.3569">uses</text></g><!--link dispatcher to policy_db--><g id="link_dispatcher_policy_db"><path d="M132.19,43.73 C169.49,64.1 225.7239,94.8245 266.2339,116.9445 " fill="none" id="dispatcher-to-policy_db" style="stroke:#181818;stroke-width:1;"/><polygon fill="#181818" points="271.5,119.82,265.5179,111.9961,267.1116,117.4238,261.6839,119.0175,271.5,119.82" style="stroke:#181818;stroke-width:1;"/><text fill="#000000" font-family="sans-serif" font-size="13" lengthAdjust="spacing" textLength="29.7832" x="214" y="86.3569">uses</text></g><!--link it to it_kb--><g id="link_it_it_kb"><path d="M502.73,43.73 C505.9,64.1 510.198,91.7713 513.638,113.8913 " fill="none" id="it-to-it_kb" style="stroke:#181818;stroke-width:1;"/><polygon fill="#181818" points="514.56,119.82,517.1295,110.3122,513.7917,114.8794,509.2245,111.5416,514.56,119.82" style="stroke:#181818;stroke-width:1;"/><text fill="#000000" font-family="sans-serif" font-size="13" lengthAdjust="spacing" textLength="29.7832" x="510" y="86.3569">uses</text></g><!--link it to policy_db--><g id="link_it_policy_db"><path d="M435.02,43.44 C414.15,50.73 391.63,60.55 373,73.29 C354.7,85.8 341.891,100.1708 330.711,115.0708 " fill="none" id="it-to-policy_db" style="stroke:#181818;stroke-width:1;"/><polygon fill="#181818" points="327.11,119.87,335.711,115.0718,330.1109,115.8706,329.3121,110.2705,327.11,119.87" style="stroke:#181818;stroke-width:1;"/><text fill="#000000" font-family="sans-serif" font-size="13" lengthAdjust="spacing" textLength="29.7832" x="374" y="86.3569">uses</text></g><!--link hr to hr_db--><g id="link_hr_hr_db"><path d="M691.03,43.73 C694.55,64.1 699.3289,91.7875 703.1489,113.9075 " fill="none" id="hr-to-hr_db" style="stroke:#181818;stroke-width:1;"/><polygon fill="#181818" points="704.17,119.82,706.5801,110.2706,703.3191,114.8929,698.6968,111.632,704.17,119.82" style="stroke:#181818;stroke-width:1;"/><text fill="#000000" font-family="sans-serif" font-size="13" lengthAdjust="spacing" textLength="29.7832" x="699" y="86.3569">uses</text></g><!--link hr to policy_db--><g id="link_hr_policy_db"><path d="M619.16,37.18 C575.31,45.11 517.61,57.24 468,73.29 C429,85.91 391.944,102.3529 361.184,117.1929 " fill="none" id="hr-to-policy_db" style="stroke:#181818;stroke-width:1;"/><polygon fill="#181818" points="355.78,119.8,365.624,119.492,360.2833,117.6274,362.1479,112.2867,355.78,119.8" style="stroke:#181818;stroke-width:1;"/><text fill="#000000" font-family="sans-serif" font-size="13" lengthAdjust="spacing" textLength="29.7832" x="469" y="86.3569">uses</text></g><!--link policy to policy_db--><g id="link_policy_policy_db"><path d="M303.62,43.6 C302.99,52.48 302.31,63.46 302,73.29 C301.76,80.84 301.27,82.77 302,90.29 C302.94,100.11 303.6239,104.9687 305.5439,114.0887 " fill="none" id="policy-to-policy_db" style="stroke:#181818;stroke-width:1;"/><polygon fill="#181818" points="306.78,119.96,308.8401,110.329,305.7499,115.0673,301.0117,111.9771,306.78,119.96" style="stroke:#181818;stroke-width:1;"/><text fill="#000000" font-family="sans-serif" font-size="13" lengthAdjust="spacing" textLength="29.7832" x="303" y="86.3569">uses</text></g><!--SRC=[RP113eCW44Ntde8BU84kcjYwiEcciUxDA4H9AL0OszZJLq7KQ7VCVs_W1yDg1Da8HYxorN7JfzngmBfb9ccOH0AMq3cApA8NzqvhPN3MEAvmbcznkzw-AS7hFg5lRjNoa7PfH06X0ZjMme4a4aJ_PQPGIemMJFFAAwvIVGIZ3JiDSn0vbezgiR8ydOv1Q4r9Ly9PFJN8tdSBZkyqUj7o3oIEZtCFSY2TPNQBvyN0ERhSjTfaExVrTxY2cspd-k0l-m40]--></g></svg>