<svg xmlns="http://www.w3.org/2000/svg" xmlns:xlink="http://www.w3.org/1999/xlink" contentStyleType="text/css" height="415px" preserveAspectRatio="none" style="width:617px;height:415px;background:#FFFFFF;" version="1.1" viewBox="0 0 617 415" width="617px" zoomAndPan="magnify"><defs/><g><rect fill="#FFFFFF" height="203.9297" style="stroke:#181818;stroke-width:1.0;" width="10" x="121" y="112.4297"/><rect fill="#FFFFFF" height="145.6641" style="stroke:#181818;stroke-width:1.0;" width="10" x="269.5" y="141.5625"/><rect fill="#FFFFFF" height="87.3984" style="stroke:#181818;stroke-width:1.0;" width="10" x="472.5" y="170.6953"/><rect fill="#FFFFFF" height="29.1328" style="stroke:#181818;stroke-width:1.0;" width="10" x="571.5" y="199.8281"/><line style="stroke:#181818;stroke-width:0.5;stroke-dasharray:5.0,5.0;" x1="24" x2="24" y1="81.2969" y2="334.3594"/><line style="stroke:#181818;stroke-width:0.5;stroke-dasharray:5.0,5.0;" x1="126" x2="126" y1="81.2969" y2="334.3594"/><line style="stroke:#181818;stroke-width:0.5;stroke-dasharray:5.0,5.0;" x1="274" x2="274" y1="81.2969" y2="334.3594"/><line style="stroke:#181818;stroke-width:0.5;stroke-dasharray:5.0,5.0;" x1="477.5" x2="477.5" y1="81.2969" y2="334.3594"/><line style="stroke:#181818;stroke-width:0.5;stroke-dasharray:5.0,5.0;" x1="576" x2="576" y1="81.2969" y2="334.3594"/><text fill="#000000" font-family="sans-serif" font-size="14" lengthAdjust="spacing" textLength="32" x="5" y="77.9951">User</text><ellipse cx="24" cy="13.5" fill="#E2E2F0" rx="8" ry="8" style="stroke:#181818;stroke-width:0.5;"/><path d="M24,21.5 L24,48.5 M11,29.5 L37,29.5 M24,48.5 L11,63.5 M24,48.5 L37,63.5 " fill="none" style="stroke:#181818;stroke-width:0.5;"/><text fill="#000000" font-family="sans-serif" font-size="14" lengthAdjust="spacing" textLength="32" x="5" y="346.3545">User</text><ellipse cx="24" cy="358.1563" fill="#E2E2F0" rx="8" ry="8" style="stroke:#181818;stroke-width:0.5;"/><path d="M24,366.1563 L24,393.1563 M11,374.1563 L37,374.1563 M24,393.1563 L11,408.1563 M24,393.1563 L37,408.1563 " fill="none" style="stroke:#181818;stroke-width:0.5;"/><rect fill="#E2E2F0" height="30.2969" rx="2.5" ry="2.5" style="stroke:#181818;stroke-width:0.5;" width="146" x="53" y="50"/><text fill="#000000" font-family="sans-serif" font-size="14" lengthAdjust="spacing" textLength="132" x="60" y="69.9951">Application Handler</text><rect fill="#E2E2F0" height="30.2969" rx="2.5" ry="2.5" style="stroke:#181818;stroke-width:0.5;" width="146" x="53" y="333.3594"/><text fill="#000000" font-family="sans-serif" font-size="14" lengthAdjust="spacing" textLength="132" x="60" y="353.3545">Application Handler</text><rect fill="#E2E2F0" height="30.2969" rx="2.5" ry="2.5" style="stroke:#181818;stroke-width:0.5;" width="131" x="209" y="50"/><text fill="#000000" font-family="sans-serif" font-size="14" lengthAdjust="spacing" textLength="117" x="216" y="69.9951">Event Subscriber</text><rect fill="#E2E2F0" height="30.2969" rx="2.5" ry="2.5" style="stroke:#181818;stroke-width:0.5;" width="131" x="209" y="333.3594"/><text fill="#000000" font-family="sans-serif" font-size="14" lengthAdjust="spacing" textLength="117" x="216" y="353.3545">Event Subscriber</text><rect fill="#E2E2F0" height="30.2969" rx="2.5" ry="2.5" style="stroke:#181818;stroke-width:0.5;" width="70" x="442.5" y="50"/><text fill="#000000" font-family="sans-serif" font-size="14" lengthAdjust="spacing" textLength="56" x="449.5" y="69.9951">Provider</text><rect fill="#E2E2F0" height="30.2969" rx="2.5" ry="2.5" style="stroke:#181818;stroke-width:0.5;" width="70" x="442.5" y="333.3594"/><text fill="#000000" font-family="sans-serif" font-size="14" lengthAdjust="spacing" textLength="56" x="449.5" y="353.3545">Provider</text><text fill="#000000" font-family="sans-serif" font-size="14" lengthAdjust="spacing" textLength="73" x="537" y="77.9951">Data Store</text><path d="M558.5,29 C558.5,19 576.5,19 576.5,19 C576.5,19 594.5,19 594.5,29 L594.5,55 C594.5,65 576.5,65 576.5,65 C576.5,65 558.5,65 558.5,55 L558.5,29 " fill="#E2E2F0" style="stroke:#181818;stroke-width:1.5;"/><path d="M558.5,29 C558.5,39 576.5,39 576.5,39 C576.5,39 594.5,39 594.5,29 " fill="none" style="stroke:#181818;stroke-width:1.5;"/><text fill="#000000" font-family="sans-serif" font-size="14" lengthAdjust="spacing" textLength="73" x="537" y="346.3545">Data Store</text><path d="M558.5,359.6563 C558.5,349.6563 576.5,349.6563 576.5,349.6563 C576.5,349.6563 594.5,349.6563 594.5,359.6563 L594.5,385.6563 C594.5,395.6563 576.5,395.6563 576.5,395.6563 C576.5,395.6563 558.5,395.6563 558.5,385.6563 L558.5,359.6563 " fill="#E2E2F0" style="stroke:#181818;stroke-width:1.5;"/><path d="M558.5,359.6563 C558.5,369.6563 576.5,369.6563 576.5,369.6563 C576.5,369.6563 594.5,369.6563 594.5,359.6563 " fill="none" style="stroke:#181818;stroke-width:1.5;"/><rect fill="#FFFFFF" height="203.9297" style="stroke:#181818;stroke-width:1.0;" width="10" x="121" y="112.4297"/><rect fill="#FFFFFF" height="145.6641" style="stroke:#181818;stroke-width:1.0;" width="10" x="269.5" y="141.5625"/><rect fill="#FFFFFF" height="87.3984" style="stroke:#181818;stroke-width:1.0;" width="10" x="472.5" y="170.6953"/><rect fill="#FFFFFF" height="29.1328" style="stroke:#181818;stroke-width:1.0;" width="10" x="571.5" y="199.8281"/><polygon fill="#181818" points="109,108.4297,119,112.4297,109,116.4297,113,112.4297" style="stroke:#181818;stroke-width:1.0;"/><line style="stroke:#181818;stroke-width:1.0;" x1="24" x2="115" y1="112.4297" y2="112.4297"/><text fill="#000000" font-family="sans-serif" font-size="13" lengthAdjust="spacing" textLength="65" x="31" y="107.3638">&#12522;&#12463;&#12456;&#12473;&#12488;</text><polygon fill="#181818" points="257.5,137.5625,267.5,141.5625,257.5,145.5625,261.5,141.5625" style="stroke:#181818;stroke-width:1.0;"/><line style="stroke:#181818;stroke-width:1.0;" x1="131" x2="263.5" y1="141.5625" y2="141.5625"/><text fill="#000000" font-family="sans-serif" font-size="13" lengthAdjust="spacing" textLength="78" x="138" y="136.4966">&#12452;&#12505;&#12531;&#12488;&#30330;&#34892;</text><polygon fill="#181818" points="460.5,166.6953,470.5,170.6953,460.5,174.6953,464.5,170.6953" style="stroke:#181818;stroke-width:1.0;"/><line style="stroke:#181818;stroke-width:1.0;" x1="279.5" x2="466.5" y1="170.6953" y2="170.6953"/><text fill="#000000" font-family="sans-serif" font-size="13" lengthAdjust="spacing" textLength="78" x="286.5" y="165.6294">&#12452;&#12505;&#12531;&#12488;&#36890;&#30693;</text><polygon fill="#181818" points="559.5,195.8281,569.5,199.8281,559.5,203.8281,563.5,199.8281" style="stroke:#181818;stroke-width:1.0;"/><line style="stroke:#181818;stroke-width:1.0;" x1="482.5" x2="565.5" y1="199.8281" y2="199.8281"/><text fill="#000000" font-family="sans-serif" font-size="13" lengthAdjust="spacing" textLength="65" x="489.5" y="194.7622">&#12487;&#12540;&#12479;&#21462;&#24471;</text><polygon fill="#181818" points="493.5,224.9609,483.5,228.9609,493.5,232.9609,489.5,228.9609" style="stroke:#181818;stroke-width:1.0;"/><line style="stroke:#181818;stroke-width:1.0;stroke-dasharray:2.0,2.0;" x1="487.5" x2="575.5" y1="228.9609" y2="228.9609"/><text fill="#000000" font-family="sans-serif" font-size="13" lengthAdjust="spacing" textLength="65" x="499.5" y="223.895">&#12487;&#12540;&#12479;&#36820;&#21364;</text><polygon fill="#181818" points="290.5,254.0938,280.5,258.0938,290.5,262.0938,286.5,258.0938" style="stroke:#181818;stroke-width:1.0;"/><line style="stroke:#181818;stroke-width:1.0;stroke-dasharray:2.0,2.0;" x1="284.5" x2="476.5" y1="258.0938" y2="258.0938"/><text fill="#000000" font-family="sans-serif" font-size="13" lengthAdjust="spacing" textLength="169" x="296.5" y="253.0278">&#12452;&#12505;&#12531;&#12488;&#36820;&#21364;&#65288;&#12487;&#12540;&#12479;&#20184;&#12365;&#65289;</text><polygon fill="#181818" points="142,283.2266,132,287.2266,142,291.2266,138,287.2266" style="stroke:#181818;stroke-width:1.0;"/><line style="stroke:#181818;stroke-width:1.0;stroke-dasharray:2.0,2.0;" x1="136" x2="273.5" y1="287.2266" y2="287.2266"/><text fill="#000000" font-family="sans-serif" font-size="13" lengthAdjust="spacing" textLength="78" x="148" y="282.1606">&#20966;&#29702;&#32080;&#26524;&#36820;&#21364;</text><polygon fill="#181818" points="35,312.3594,25,316.3594,35,320.3594,31,316.3594" style="stroke:#181818;stroke-width:1.0;"/><line style="stroke:#181818;stroke-width:1.0;stroke-dasharray:2.0,2.0;" x1="29" x2="125" y1="316.3594" y2="316.3594"/><text fill="#000000" font-family="sans-serif" font-size="13" lengthAdjust="spacing" textLength="65" x="41" y="311.2935">&#12524;&#12473;&#12509;&#12531;&#12473;</text><!--SRC=[VP7DIiD058NtynH3zdq15u8bWakX-02JP1O39GcJCMkTW6t1OXUYLln1K14HNAYBQh0FCyQqgxw2Dx79J2guocGutxddt26k23ZUYIX78U62kImali3MHXXscKi42toyHNolIxc5ILITc-BDcCAdi-j4BcVEKgb_6-9j7iJCWqkF2EAGY6BBXXFkG0vQWdOReI8GRgrNu_0QLicZaizAFYWvKKaV4LUmc0XQ9qAL5Z0zko3bhKh6Ada1B1-_psuEDMo4H0O45bNE5OFvtdb-VQSDwZge1W2sssNYdafI9QVPqKdsUQePA0Y2rigGIZsR7cV3L-HHKs-u_rVlbrsa_Thjw-DCxGyNwS0qrA7DperrPxtxV7IGlus-hox-9ZBNLgyT-FBPYYvFvIjT5gdan2INwXy0]--></g></svg>