<svg xmlns="http://www.w3.org/2000/svg" xmlns:xlink="http://www.w3.org/1999/xlink" contentStyleType="text/css" data-diagram-type="DESCRIPTION" height="356px" preserveAspectRatio="none" style="width:271px;height:356px;background:#FFFFFF;" version="1.1" viewBox="0 0 271 356" width="271px" zoomAndPan="magnify"><defs/><g><!--cluster LLM Provider Crate--><g id="cluster_LLM Provider Crate"><path d="M8.5,6 L160.9639,6 A3.75,3.75 0 0 1 163.4639,8.5 L170.4639,28.2969 L261.5,28.2969 A2.5,2.5 0 0 1 264,30.7969 L264,347.39 A2.5,2.5 0 0 1 261.5,349.89 L8.5,349.89 A2.5,2.5 0 0 1 6,347.39 L6,8.5 A2.5,2.5 0 0 1 8.5,6 " fill="none" style="stroke:#000000;stroke-width:1.5;"/><line style="stroke:#000000;stroke-width:1.5;" x1="6" x2="170.4639" y1="28.2969" y2="28.2969"/><text fill="#000000" font-family="sans-serif" font-size="14" font-weight="bold" lengthAdjust="spacing" textLength="151.4639" x="10" y="20.9951">LLM Provider Crate</text></g><!--entity Source--><g id="elem_Source"><rect fill="#F1F1F1" height="46.2969" rx="2.5" ry="2.5" style="stroke:#181818;stroke-width:0.5;" width="65.4639" x="74.27" y="164.3"/><rect fill="#F1F1F1" height="10" style="stroke:#181818;stroke-width:0.5;" width="15" x="119.7339" y="169.3"/><rect fill="#F1F1F1" height="2" style="stroke:#181818;stroke-width:0.5;" width="4" x="117.7339" y="171.3"/><rect fill="#F1F1F1" height="2" style="stroke:#181818;stroke-width:0.5;" width="4" x="117.7339" y="175.3"/><text fill="#000000" font-family="sans-serif" font-size="14" lengthAdjust="spacing" textLength="25.4639" x="89.27" y="197.2951">src/</text></g><!--entity Tests--><g id="elem_Tests"><rect fill="#F1F1F1" height="46.2969" rx="2.5" ry="2.5" style="stroke:#181818;stroke-width:0.5;" width="78.8965" x="21.55" y="287.59"/><rect fill="#F1F1F1" height="10" style="stroke:#181818;stroke-width:0.5;" width="15" x="80.4465" y="292.59"/><rect fill="#F1F1F1" height="2" style="stroke:#181818;stroke-width:0.5;" width="4" x="78.4465" y="294.59"/><rect fill="#F1F1F1" height="2" style="stroke:#181818;stroke-width:0.5;" width="4" x="78.4465" y="298.59"/><text fill="#000000" font-family="sans-serif" font-size="14" lengthAdjust="spacing" textLength="38.8965" x="36.55" y="320.5851">tests/</text></g><!--entity Examples--><g id="elem_Examples"><rect fill="#F1F1F1" height="46.2969" rx="2.5" ry="2.5" style="stroke:#181818;stroke-width:0.5;" width="112.5156" x="135.74" y="287.59"/><rect fill="#F1F1F1" height="10" style="stroke:#181818;stroke-width:0.5;" width="15" x="228.2556" y="292.59"/><rect fill="#F1F1F1" height="2" style="stroke:#181818;stroke-width:0.5;" width="4" x="226.2556" y="294.59"/><rect fill="#F1F1F1" height="2" style="stroke:#181818;stroke-width:0.5;" width="4" x="226.2556" y="298.59"/><text fill="#000000" font-family="sans-serif" font-size="14" lengthAdjust="spacing" textLength="72.5156" x="150.74" y="320.5851">examples/</text></g><!--entity Config--><g id="elem_Config"><rect fill="#F1F1F1" height="46.2969" rx="2.5" ry="2.5" style="stroke:#181818;stroke-width:0.5;" width="117.5947" x="48.2" y="41"/><rect fill="#F1F1F1" height="10" style="stroke:#181818;stroke-width:0.5;" width="15" x="145.7947" y="46"/><rect fill="#F1F1F1" height="2" style="stroke:#181818;stroke-width:0.5;" width="4" x="143.7947" y="48"/><rect fill="#F1F1F1" height="2" style="stroke:#181818;stroke-width:0.5;" width="4" x="143.7947" y="52"/><text fill="#000000" font-family="sans-serif" font-size="14" lengthAdjust="spacing" textLength="77.5947" x="63.2" y="73.9951">Cargo.toml</text></g><!--link Source to Tests--><g id="link_Source_Tests"><path d="M98.46,210.98 C90.19,232.76 79.8788,259.9803 71.6288,281.7203 " fill="none" id="Source-to-Tests" style="stroke:#181818;stroke-width:1;"/><polygon fill="#181818" points="69.5,287.33,76.4329,280.3347,71.274,282.6553,68.9534,277.4963,69.5,287.33" style="stroke:#181818;stroke-width:1;"/><text fill="#000000" font-family="sans-serif" font-size="13" lengthAdjust="spacing" textLength="31.7383" x="87" y="253.6569">tests</text></g><!--link Source to Examples--><g id="link_Source_Examples"><path d="M122.79,210.98 C138.06,232.76 157.6159,260.6769 172.8559,282.4169 " fill="none" id="Source-to-Examples" style="stroke:#181818;stroke-width:1;"/><polygon fill="#181818" points="176.3,287.33,174.4092,277.6643,173.4299,283.2358,167.8585,282.2565,176.3,287.33" style="stroke:#181818;stroke-width:1;"/><text fill="#000000" font-family="sans-serif" font-size="13" lengthAdjust="spacing" textLength="62.9561" x="155" y="253.6569">examples</text></g><!--link Config to Source--><g id="link_Config_Source"><path d="M107,87.68 C107,109.47 107,136.29 107,158.03 " fill="none" id="Config-to-Source" style="stroke:#181818;stroke-width:1;"/><polygon fill="#181818" points="107,164.03,111,155.03,107,159.03,103,155.03,107,164.03" style="stroke:#181818;stroke-width:1;"/><text fill="#000000" font-family="sans-serif" font-size="13" lengthAdjust="spacing" textLength="90.7588" x="108" y="130.3669">dependencies</text></g><!--SRC=[JOsn2W8n38RtFaMu_NJlu5BSJX1qEnn26qlnhYrf5K5yTxMv0pCbtvVyoMXlw0cwOJZ0aTCZE68mZ9KwU2durbZORY-01KxfpfO4LYgr23x_Mg7qn3bFj8ZzCeapo3vjQfgd9asAr-3LMoc9XRxVIPI65lxFroGDwmSbzytAeWP7cQAZQ0EL3m00]--></g></svg>