<?xml version="1.0" encoding="us-ascii" standalone="no"?><svg xmlns="http://www.w3.org/2000/svg" xmlns:xlink="http://www.w3.org/1999/xlink" contentStyleType="text/css" height="544px" preserveAspectRatio="none" style="width:657px;height:544px;background:#FFFFFF;" version="1.1" viewBox="0 0 657 544" width="657px" zoomAndPan="magnify"><defs/><g><!--cluster Database agg--><g id="cluster_Database agg"><rect fill="none" height="148" rx="2.5" ry="2.5" style="stroke:#181818;stroke-width:1.0;" width="132" x="80" y="390"/><text fill="#000000" font-family="sans-serif" font-size="14" font-weight="bold" lengthAdjust="spacing" textLength="112" x="90" y="404.9951">Database agg</text></g><!--cluster Property agg--><g id="cluster_Property agg"><rect fill="none" height="213" rx="2.5" ry="2.5" style="stroke:#181818;stroke-width:1.0;" width="311" x="7" y="153"/><text fill="#000000" font-family="sans-serif" font-size="14" font-weight="bold" lengthAdjust="spacing" textLength="105" x="110" y="167.9951">Property agg</text></g><!--cluster Data agg--><g id="cluster_Data agg"><rect fill="none" height="181" rx="2.5" ry="2.5" style="stroke:#181818;stroke-width:1.0;" width="309" x="342" y="169"/><text fill="#000000" font-family="sans-serif" font-size="14" font-weight="bold" lengthAdjust="spacing" textLength="74" x="459.5" y="183.9951">Data agg</text></g><!--class Database--><g id="elem_Database"><rect codeLine="4" fill="#F1F1F1" height="97.1563" id="Database" rx="2.5" ry="2.5" style="stroke:#181818;stroke-width:0.5;" width="100" x="96" y="425"/><ellipse cx="111" cy="445.1328" fill="#ADD1B2" rx="11" ry="11" style="stroke:#181818;stroke-width:1.0;"/><path d="M109.7969,446.0078 L111.25,446.0078 L111.25,446.1172 C111.25,446.5234 111.2813,446.6797 111.3594,446.8359 C111.5156,447.0859 111.7969,447.2422 112.0938,447.2422 C112.3438,447.2422 112.6094,447.1016 112.7656,446.8828 C112.8906,446.7266 112.9219,446.5703 112.9219,446.1172 L112.9219,444.1953 C112.9219,444.0391 112.9219,443.9922 112.9063,443.8359 C112.8438,443.3672 112.5313,443.0547 112.0781,443.0547 C111.8281,443.0547 111.5625,443.1953 111.3906,443.4141 C111.2813,443.5859 111.25,443.7422 111.25,444.1953 L111.25,444.3203 L109.7969,444.3203 L109.7969,441.9141 L113.7813,441.9141 L113.7813,442.7734 C113.7813,443.1797 113.8125,443.3516 113.8906,443.5078 C114.0625,443.7578 114.3438,443.9141 114.625,443.9141 C114.8906,443.9141 115.1563,443.7734 115.3281,443.5547 C115.4375,443.3828 115.4688,443.2422 115.4688,442.7734 L115.4688,440.2266 L107.8438,440.2266 C107.4063,440.2266 107.2813,440.2422 107.125,440.3359 C106.875,440.4922 106.7188,440.7891 106.7188,441.0703 C106.7188,441.3516 106.8594,441.6016 107.0781,441.7734 C107.2344,441.8828 107.4219,441.9141 107.8438,441.9141 L108.0938,441.9141 L108.0938,448.4297 L107.8438,448.4297 C107.4375,448.4297 107.2813,448.4453 107.125,448.5547 C106.875,448.7266 106.7188,448.9922 106.7188,449.2891 C106.7188,449.5547 106.8594,449.8047 107.0781,449.9609 C107.2188,450.0859 107.4531,450.1328 107.8438,450.1328 L115.8438,450.1328 L115.8438,447.5547 C115.8438,447.1172 115.8125,446.9766 115.7344,446.8203 C115.5625,446.5703 115.2813,446.4141 115,446.4141 C114.7344,446.4141 114.4688,446.5234 114.2969,446.7734 C114.1875,446.9297 114.1563,447.0703 114.1563,447.5547 L114.1563,448.4297 L109.7969,448.4297 L109.7969,446.0078 Z " fill="#000000"/><text fill="#000000" font-family="sans-serif" font-size="12" font-style="italic" lengthAdjust="spacing" textLength="38" x="140" y="441.1387">&#171;root&#187;</text><text fill="#000000" font-family="sans-serif" font-size="14" lengthAdjust="spacing" textLength="68" x="125" y="456.9639">Database</text><line style="stroke:#181818;stroke-width:0.5;" x1="97" x2="195" y1="465.2656" y2="465.2656"/><text fill="#000000" font-family="sans-serif" font-size="14" lengthAdjust="spacing" textLength="81" x="102" y="482.2607">DatabaseId</text><text fill="#000000" font-family="sans-serif" font-size="14" lengthAdjust="spacing" textLength="64" x="102" y="498.5576">TenantId</text><text fill="#000000" font-family="sans-serif" font-size="14" lengthAdjust="spacing" textLength="41" x="102" y="514.8545">Name</text></g><!--class Property--><g id="elem_Property"><rect codeLine="12" fill="#F1F1F1" height="162.3438" id="Property" rx="2.5" ry="2.5" style="stroke:#181818;stroke-width:0.5;" width="112" x="23" y="188"/><ellipse cx="45.2" cy="208.1328" fill="#ADD1B2" rx="11" ry="11" style="stroke:#181818;stroke-width:1.0;"/><path d="M43.9969,209.0078 L45.45,209.0078 L45.45,209.1172 C45.45,209.5234 45.4813,209.6797 45.5594,209.8359 C45.7156,210.0859 45.9969,210.2422 46.2938,210.2422 C46.5438,210.2422 46.8094,210.1016 46.9656,209.8828 C47.0906,209.7266 47.1219,209.5703 47.1219,209.1172 L47.1219,207.1953 C47.1219,207.0391 47.1219,206.9922 47.1063,206.8359 C47.0438,206.3672 46.7313,206.0547 46.2781,206.0547 C46.0281,206.0547 45.7625,206.1953 45.5906,206.4141 C45.4813,206.5859 45.45,206.7422 45.45,207.1953 L45.45,207.3203 L43.9969,207.3203 L43.9969,204.9141 L47.9813,204.9141 L47.9813,205.7734 C47.9813,206.1797 48.0125,206.3516 48.0906,206.5078 C48.2625,206.7578 48.5438,206.9141 48.825,206.9141 C49.0906,206.9141 49.3563,206.7734 49.5281,206.5547 C49.6375,206.3828 49.6688,206.2422 49.6688,205.7734 L49.6688,203.2266 L42.0438,203.2266 C41.6063,203.2266 41.4813,203.2422 41.325,203.3359 C41.075,203.4922 40.9188,203.7891 40.9188,204.0703 C40.9188,204.3516 41.0594,204.6016 41.2781,204.7734 C41.4344,204.8828 41.6219,204.9141 42.0438,204.9141 L42.2938,204.9141 L42.2938,211.4297 L42.0438,211.4297 C41.6375,211.4297 41.4813,211.4453 41.325,211.5547 C41.075,211.7266 40.9188,211.9922 40.9188,212.2891 C40.9188,212.5547 41.0594,212.8047 41.2781,212.9609 C41.4188,213.0859 41.6531,213.1328 42.0438,213.1328 L50.0438,213.1328 L50.0438,210.5547 C50.0438,210.1172 50.0125,209.9766 49.9344,209.8203 C49.7625,209.5703 49.4813,209.4141 49.2,209.4141 C48.9344,209.4141 48.6688,209.5234 48.4969,209.7734 C48.3875,209.9297 48.3563,210.0703 48.3563,210.5547 L48.3563,211.4297 L43.9969,211.4297 L43.9969,209.0078 Z " fill="#000000"/><text fill="#000000" font-family="sans-serif" font-size="12" font-style="italic" lengthAdjust="spacing" textLength="38" x="73.8" y="204.1387">&#171;root&#187;</text><text fill="#000000" font-family="sans-serif" font-size="14" lengthAdjust="spacing" textLength="64" x="60.8" y="219.9639">Property</text><line style="stroke:#181818;stroke-width:0.5;" x1="24" x2="134" y1="228.2656" y2="228.2656"/><text fill="#000000" font-family="sans-serif" font-size="14" lengthAdjust="spacing" textLength="77" x="29" y="245.2607">PropertyId</text><text fill="#000000" font-family="sans-serif" font-size="14" lengthAdjust="spacing" textLength="64" x="29" y="261.5576">TenantId</text><text fill="#000000" font-family="sans-serif" font-size="14" lengthAdjust="spacing" textLength="81" x="29" y="277.8545">DatabaseId</text><text fill="#000000" font-family="sans-serif" font-size="14" lengthAdjust="spacing" textLength="41" x="29" y="294.1514">Name</text><text fill="#000000" font-family="sans-serif" font-size="14" lengthAdjust="spacing" textLength="100" x="29" y="310.4482">PropertyType</text><text fill="#000000" font-family="sans-serif" font-size="14" lengthAdjust="spacing" textLength="68" x="29" y="326.7451">IsIndexed</text><text fill="#000000" font-family="sans-serif" font-size="14" lengthAdjust="spacing" textLength="96" x="29" y="343.042">PropertyNum</text></g><!--class PropertyType--><g id="elem_PropertyType"><rect codeLine="23" fill="#F1F1F1" height="56.2969" id="PropertyType" rx="2.5" ry="2.5" style="stroke:#181818;stroke-width:0.5;" width="132" x="170" y="241"/><ellipse cx="185" cy="257" fill="#EB937F" rx="11" ry="11" style="stroke:#181818;stroke-width:1.0;"/><path d="M183.7969,257.875 L185.25,257.875 L185.25,257.9844 C185.25,258.3906 185.2813,258.5469 185.3594,258.7031 C185.5156,258.9531 185.7969,259.1094 186.0938,259.1094 C186.3438,259.1094 186.6094,258.9688 186.7656,258.75 C186.8906,258.5938 186.9219,258.4375 186.9219,257.9844 L186.9219,256.0625 C186.9219,255.9063 186.9219,255.8594 186.9063,255.7031 C186.8438,255.2344 186.5313,254.9219 186.0781,254.9219 C185.8281,254.9219 185.5625,255.0625 185.3906,255.2813 C185.2813,255.4531 185.25,255.6094 185.25,256.0625 L185.25,256.1875 L183.7969,256.1875 L183.7969,253.7813 L187.7813,253.7813 L187.7813,254.6406 C187.7813,255.0469 187.8125,255.2188 187.8906,255.375 C188.0625,255.625 188.3438,255.7813 188.625,255.7813 C188.8906,255.7813 189.1563,255.6406 189.3281,255.4219 C189.4375,255.25 189.4688,255.1094 189.4688,254.6406 L189.4688,252.0938 L181.8438,252.0938 C181.4063,252.0938 181.2813,252.1094 181.125,252.2031 C180.875,252.3594 180.7188,252.6563 180.7188,252.9375 C180.7188,253.2188 180.8594,253.4688 181.0781,253.6406 C181.2344,253.75 181.4219,253.7813 181.8438,253.7813 L182.0938,253.7813 L182.0938,260.2969 L181.8438,260.2969 C181.4375,260.2969 181.2813,260.3125 181.125,260.4219 C180.875,260.5938 180.7188,260.8594 180.7188,261.1563 C180.7188,261.4219 180.8594,261.6719 181.0781,261.8281 C181.2188,261.9531 181.4531,262 181.8438,262 L189.8438,262 L189.8438,259.4219 C189.8438,258.9844 189.8125,258.8438 189.7344,258.6875 C189.5625,258.4375 189.2813,258.2813 189,258.2813 C188.7344,258.2813 188.4688,258.3906 188.2969,258.6406 C188.1875,258.7969 188.1563,258.9375 188.1563,259.4219 L188.1563,260.2969 L183.7969,260.2969 L183.7969,257.875 Z " fill="#000000"/><text fill="#000000" font-family="sans-serif" font-size="14" lengthAdjust="spacing" textLength="100" x="199" y="261.8467">PropertyType</text><line style="stroke:#181818;stroke-width:0.5;" x1="171" x2="301" y1="273" y2="273"/><text fill="#000000" font-family="sans-serif" font-size="14" lengthAdjust="spacing" textLength="44" x="176" y="289.9951">String</text></g><!--class Data--><g id="elem_Data"><rect codeLine="30" fill="#F1F1F1" height="129.75" id="Data" rx="2.5" ry="2.5" style="stroke:#181818;stroke-width:0.5;" width="111" x="358.5" y="204"/><ellipse cx="393.75" cy="224.1328" fill="#ADD1B2" rx="11" ry="11" style="stroke:#181818;stroke-width:1.0;"/><path d="M392.5469,225.0078 L394,225.0078 L394,225.1172 C394,225.5234 394.0313,225.6797 394.1094,225.8359 C394.2656,226.0859 394.5469,226.2422 394.8438,226.2422 C395.0938,226.2422 395.3594,226.1016 395.5156,225.8828 C395.6406,225.7266 395.6719,225.5703 395.6719,225.1172 L395.6719,223.1953 C395.6719,223.0391 395.6719,222.9922 395.6563,222.8359 C395.5938,222.3672 395.2813,222.0547 394.8281,222.0547 C394.5781,222.0547 394.3125,222.1953 394.1406,222.4141 C394.0313,222.5859 394,222.7422 394,223.1953 L394,223.3203 L392.5469,223.3203 L392.5469,220.9141 L396.5313,220.9141 L396.5313,221.7734 C396.5313,222.1797 396.5625,222.3516 396.6406,222.5078 C396.8125,222.7578 397.0938,222.9141 397.375,222.9141 C397.6406,222.9141 397.9063,222.7734 398.0781,222.5547 C398.1875,222.3828 398.2188,222.2422 398.2188,221.7734 L398.2188,219.2266 L390.5938,219.2266 C390.1563,219.2266 390.0313,219.2422 389.875,219.3359 C389.625,219.4922 389.4688,219.7891 389.4688,220.0703 C389.4688,220.3516 389.6094,220.6016 389.8281,220.7734 C389.9844,220.8828 390.1719,220.9141 390.5938,220.9141 L390.8438,220.9141 L390.8438,227.4297 L390.5938,227.4297 C390.1875,227.4297 390.0313,227.4453 389.875,227.5547 C389.625,227.7266 389.4688,227.9922 389.4688,228.2891 C389.4688,228.5547 389.6094,228.8047 389.8281,228.9609 C389.9688,229.0859 390.2031,229.1328 390.5938,229.1328 L398.5938,229.1328 L398.5938,226.5547 C398.5938,226.1172 398.5625,225.9766 398.4844,225.8203 C398.3125,225.5703 398.0313,225.4141 397.75,225.4141 C397.4844,225.4141 397.2188,225.5234 397.0469,225.7734 C396.9375,225.9297 396.9063,226.0703 396.9063,226.5547 L396.9063,227.4297 L392.5469,227.4297 L392.5469,225.0078 Z " fill="#000000"/><text fill="#000000" font-family="sans-serif" font-size="12" font-style="italic" lengthAdjust="spacing" textLength="38" x="410.25" y="220.1387">&#171;root&#187;</text><text fill="#000000" font-family="sans-serif" font-size="14" lengthAdjust="spacing" textLength="34" x="412.25" y="235.9639">Data</text><line style="stroke:#181818;stroke-width:0.5;" x1="359.5" x2="468.5" y1="244.2656" y2="244.2656"/><text fill="#000000" font-family="sans-serif" font-size="14" lengthAdjust="spacing" textLength="47" x="364.5" y="261.2607">DataId</text><text fill="#000000" font-family="sans-serif" font-size="14" lengthAdjust="spacing" textLength="64" x="364.5" y="277.5576">TenantId</text><text fill="#000000" font-family="sans-serif" font-size="14" lengthAdjust="spacing" textLength="81" x="364.5" y="293.8545">DatabaseId</text><text fill="#000000" font-family="sans-serif" font-size="14" lengthAdjust="spacing" textLength="41" x="364.5" y="310.1514">Name</text><text fill="#000000" font-family="sans-serif" font-size="14" lengthAdjust="spacing" textLength="99" x="364.5" y="326.4482">propertyData</text></g><!--class PropertyData--><g id="elem_PropertyData"><rect codeLine="38" fill="#F1F1F1" height="72.5938" id="PropertyData" rx="2.5" ry="2.5" style="stroke:#181818;stroke-width:0.5;" width="130" x="505" y="232.5"/><ellipse cx="520" cy="248.5" fill="#ADD1B2" rx="11" ry="11" style="stroke:#181818;stroke-width:1.0;"/><path d="M522.3438,244.1719 C521.4063,243.7344 520.8125,243.5938 519.9375,243.5938 C517.3125,243.5938 515.3125,245.6719 515.3125,248.3906 L515.3125,249.5156 C515.3125,252.0938 517.4219,253.9844 520.3125,253.9844 C521.5313,253.9844 522.6875,253.6875 523.4375,253.1406 C524.0156,252.7344 524.3438,252.2813 524.3438,251.8906 C524.3438,251.4375 523.9531,251.0469 523.4844,251.0469 C523.2656,251.0469 523.0625,251.125 522.875,251.3125 C522.4219,251.7969 522.4219,251.7969 522.2344,251.8906 C521.8125,252.1563 521.125,252.2813 520.3594,252.2813 C518.3125,252.2813 517.0156,251.1875 517.0156,249.4844 L517.0156,248.3906 C517.0156,246.6094 518.2656,245.2969 520,245.2969 C520.5781,245.2969 521.1875,245.4531 521.6563,245.7031 C522.1406,245.9844 522.3125,246.2031 522.4063,246.6094 C522.4688,247.0156 522.5,247.1406 522.6406,247.2656 C522.7813,247.4063 523.0156,247.5156 523.2344,247.5156 C523.5,247.5156 523.7656,247.375 523.9375,247.1563 C524.0469,247 524.0781,246.8125 524.0781,246.3906 L524.0781,244.9688 C524.0781,244.5313 524.0625,244.4063 523.9688,244.25 C523.8125,243.9844 523.5313,243.8438 523.2344,243.8438 C522.9375,243.8438 522.7344,243.9375 522.5156,244.25 L522.3438,244.1719 Z " fill="#000000"/><text fill="#000000" font-family="sans-serif" font-size="14" lengthAdjust="spacing" textLength="98" x="534" y="253.3467">PropertyData</text><line style="stroke:#181818;stroke-width:0.5;" x1="506" x2="634" y1="264.5" y2="264.5"/><text fill="#000000" font-family="sans-serif" font-size="14" lengthAdjust="spacing" textLength="77" x="511" y="281.4951">PropertyId</text><text fill="#000000" font-family="sans-serif" font-size="14" lengthAdjust="spacing" textLength="39" x="511" y="297.792">Value</text></g><g id="elem_GMN12"><path d="M299,453.5 L299,493.7656 A0,0 0 0 0 299,493.7656 L529,493.7656 A0,0 0 0 0 529,493.7656 L529,463.5 L519,453.5 L418,453.5 L414,334.072 L410,453.5 L299,453.5 A0,0 0 0 0 299,453.5 " fill="#FEFFDD" style="stroke:#181818;stroke-width:0.5;"/><path d="M519,453.5 L519,463.5 L529,463.5 L519,453.5 " fill="#FEFFDD" style="stroke:#181818;stroke-width:0.5;"/><text fill="#000000" font-family="sans-serif" font-size="13" lengthAdjust="spacing" textLength="209" x="305" y="470.5669">propertyData&#12399;&#12289;50property&#12414;&#12391;</text><text fill="#000000" font-family="sans-serif" font-size="13" lengthAdjust="spacing" textLength="130" x="305" y="485.6997">&#65288;&#22679;&#12420;&#12377;&#12371;&#12392;&#12399;&#21487;&#33021;&#65289;</text></g><!--class Indexes--><g id="elem_Indexes"><rect codeLine="52" fill="#F1F1F1" height="105.1875" id="Indexes" rx="2.5" ry="2.5" style="stroke:#181818;stroke-width:0.5;" width="87" x="299.5" y="15"/><ellipse cx="314.5" cy="31" fill="#ADD1B2" rx="11" ry="11" style="stroke:#181818;stroke-width:1.0;"/><path d="M313.2969,31.875 L314.75,31.875 L314.75,31.9844 C314.75,32.3906 314.7813,32.5469 314.8594,32.7031 C315.0156,32.9531 315.2969,33.1094 315.5938,33.1094 C315.8438,33.1094 316.1094,32.9688 316.2656,32.75 C316.3906,32.5938 316.4219,32.4375 316.4219,31.9844 L316.4219,30.0625 C316.4219,29.9063 316.4219,29.8594 316.4063,29.7031 C316.3438,29.2344 316.0313,28.9219 315.5781,28.9219 C315.3281,28.9219 315.0625,29.0625 314.8906,29.2813 C314.7813,29.4531 314.75,29.6094 314.75,30.0625 L314.75,30.1875 L313.2969,30.1875 L313.2969,27.7813 L317.2813,27.7813 L317.2813,28.6406 C317.2813,29.0469 317.3125,29.2188 317.3906,29.375 C317.5625,29.625 317.8438,29.7813 318.125,29.7813 C318.3906,29.7813 318.6563,29.6406 318.8281,29.4219 C318.9375,29.25 318.9688,29.1094 318.9688,28.6406 L318.9688,26.0938 L311.3438,26.0938 C310.9063,26.0938 310.7813,26.1094 310.625,26.2031 C310.375,26.3594 310.2188,26.6563 310.2188,26.9375 C310.2188,27.2188 310.3594,27.4688 310.5781,27.6406 C310.7344,27.75 310.9219,27.7813 311.3438,27.7813 L311.5938,27.7813 L311.5938,34.2969 L311.3438,34.2969 C310.9375,34.2969 310.7813,34.3125 310.625,34.4219 C310.375,34.5938 310.2188,34.8594 310.2188,35.1563 C310.2188,35.4219 310.3594,35.6719 310.5781,35.8281 C310.7188,35.9531 310.9531,36 311.3438,36 L319.3438,36 L319.3438,33.4219 C319.3438,32.9844 319.3125,32.8438 319.2344,32.6875 C319.0625,32.4375 318.7813,32.2813 318.5,32.2813 C318.2344,32.2813 317.9688,32.3906 317.7969,32.6406 C317.6875,32.7969 317.6563,32.9375 317.6563,33.4219 L317.6563,34.2969 L313.2969,34.2969 L313.2969,31.875 Z " fill="#000000"/><text fill="#000000" font-family="sans-serif" font-size="14" lengthAdjust="spacing" textLength="55" x="328.5" y="35.8467">Indexes</text><line style="stroke:#181818;stroke-width:0.5;" x1="300.5" x2="385.5" y1="47" y2="47"/><text fill="#000000" font-family="sans-serif" font-size="14" lengthAdjust="spacing" textLength="13" x="305.5" y="63.9951">id</text><text fill="#000000" font-family="sans-serif" font-size="14" lengthAdjust="spacing" textLength="64" x="305.5" y="80.292">TenantId</text><text fill="#000000" font-family="sans-serif" font-size="14" lengthAdjust="spacing" textLength="62" x="305.5" y="96.5889">ObjectId</text><text fill="#000000" font-family="sans-serif" font-size="14" lengthAdjust="spacing" textLength="66" x="305.5" y="112.8857">FieldNum</text></g><!--class Relationships--><g id="elem_Relationships"><rect codeLine="59" fill="#F1F1F1" height="121.4844" id="Relationships" rx="2.5" ry="2.5" style="stroke:#181818;stroke-width:0.5;" width="129" x="421.5" y="7"/><ellipse cx="436.5" cy="23" fill="#ADD1B2" rx="11" ry="11" style="stroke:#181818;stroke-width:1.0;"/><path d="M435.2969,23.875 L436.75,23.875 L436.75,23.9844 C436.75,24.3906 436.7813,24.5469 436.8594,24.7031 C437.0156,24.9531 437.2969,25.1094 437.5938,25.1094 C437.8438,25.1094 438.1094,24.9688 438.2656,24.75 C438.3906,24.5938 438.4219,24.4375 438.4219,23.9844 L438.4219,22.0625 C438.4219,21.9063 438.4219,21.8594 438.4063,21.7031 C438.3438,21.2344 438.0313,20.9219 437.5781,20.9219 C437.3281,20.9219 437.0625,21.0625 436.8906,21.2813 C436.7813,21.4531 436.75,21.6094 436.75,22.0625 L436.75,22.1875 L435.2969,22.1875 L435.2969,19.7813 L439.2813,19.7813 L439.2813,20.6406 C439.2813,21.0469 439.3125,21.2188 439.3906,21.375 C439.5625,21.625 439.8438,21.7813 440.125,21.7813 C440.3906,21.7813 440.6563,21.6406 440.8281,21.4219 C440.9375,21.25 440.9688,21.1094 440.9688,20.6406 L440.9688,18.0938 L433.3438,18.0938 C432.9063,18.0938 432.7813,18.1094 432.625,18.2031 C432.375,18.3594 432.2188,18.6563 432.2188,18.9375 C432.2188,19.2188 432.3594,19.4688 432.5781,19.6406 C432.7344,19.75 432.9219,19.7813 433.3438,19.7813 L433.5938,19.7813 L433.5938,26.2969 L433.3438,26.2969 C432.9375,26.2969 432.7813,26.3125 432.625,26.4219 C432.375,26.5938 432.2188,26.8594 432.2188,27.1563 C432.2188,27.4219 432.3594,27.6719 432.5781,27.8281 C432.7188,27.9531 432.9531,28 433.3438,28 L441.3438,28 L441.3438,25.4219 C441.3438,24.9844 441.3125,24.8438 441.2344,24.6875 C441.0625,24.4375 440.7813,24.2813 440.5,24.2813 C440.2344,24.2813 439.9688,24.3906 439.7969,24.6406 C439.6875,24.7969 439.6563,24.9375 439.6563,25.4219 L439.6563,26.2969 L435.2969,26.2969 L435.2969,23.875 Z " fill="#000000"/><text fill="#000000" font-family="sans-serif" font-size="14" lengthAdjust="spacing" textLength="97" x="450.5" y="27.8467">Relationships</text><line style="stroke:#181818;stroke-width:0.5;" x1="422.5" x2="549.5" y1="39" y2="39"/><text fill="#000000" font-family="sans-serif" font-size="14" lengthAdjust="spacing" textLength="13" x="427.5" y="55.9951">Id</text><text fill="#000000" font-family="sans-serif" font-size="14" lengthAdjust="spacing" textLength="64" x="427.5" y="72.292">TenantId</text><text fill="#000000" font-family="sans-serif" font-size="14" lengthAdjust="spacing" textLength="62" x="427.5" y="88.5889">ObjectId</text><text fill="#000000" font-family="sans-serif" font-size="14" lengthAdjust="spacing" textLength="73" x="427.5" y="104.8857">RelationId</text><text fill="#000000" font-family="sans-serif" font-size="14" lengthAdjust="spacing" textLength="110" x="427.5" y="121.1826">TargetObjectId</text></g><!--link Property to PropertyType--><g id="link_Property_PropertyType"><path codeLine="26" d="M135.115,269 C146.675,269 152.235,269 163.794,269 " fill="none" id="Property-to-PropertyType" style="stroke:#181818;stroke-width:1.0;"/><polygon fill="#181818" points="169.794,269,160.794,265,164.794,269,160.794,273,169.794,269" style="stroke:#181818;stroke-width:1.0;"/></g><!--link Data to PropertyData--><g id="link_Data_PropertyData"><path codeLine="42" d="M469.758,269 C481.505,269 487.252,269 498.999,269 " fill="none" id="Data-to-PropertyData" style="stroke:#181818;stroke-width:1.0;"/><polygon fill="#181818" points="504.999,269,495.999,265,499.999,269,495.999,273,504.999,269" style="stroke:#181818;stroke-width:1.0;"/><text fill="#000000" font-family="sans-serif" font-size="13" lengthAdjust="spacing" textLength="8" x="477.4145" y="265.1305">1</text><text fill="#000000" font-family="sans-serif" font-size="13" lengthAdjust="spacing" textLength="24" x="473.0583" y="265.3213">1..n</text></g><!--link Data to Database--><g id="link_Data_Database"><path codeLine="67" d="M360.7905,340.013 C346.7695,355.072 335.814,363.82 318,374 C303.392,382.347 296.485,375.421 281,382 C251.005,394.744 227.0594,409.6971 202.7154,427.4451 " fill="none" id="Data-Database" style="stroke:#181818;stroke-width:1.0;"/><line style="stroke:#181818;stroke-width:1.0;" x1="360.7905" x2="361.8507" y1="340.013" y2="330.0694"/><line style="stroke:#181818;stroke-width:1.0;" x1="360.7905" x2="370.6333" y1="340.013" y2="338.2466"/><line style="stroke:#181818;stroke-width:1.0;" x1="360.7905" x2="366.242" y1="340.013" y2="334.158"/><line style="stroke:#181818;stroke-width:1.0;" x1="356.5001" x2="362.3552" y1="338.7511" y2="344.2025"/><line style="stroke:#181818;stroke-width:1.0;" x1="201.8397" x2="197.1268" y1="433.0338" y2="426.5693"/><line style="stroke:#181818;stroke-width:1.0;" x1="204.2638" x2="199.5509" y1="431.2664" y2="424.802"/><line style="stroke:#181818;stroke-width:1.0;" x1="202.7154" x2="196.251" y1="427.4451" y2="432.158"/></g><!--link Property to Database--><g id="link_Property_Database"><path codeLine="68" d="M107.9928,357.6281 C116.3688,382.9451 120.3331,394.9239 127.7111,417.2239 " fill="none" id="Property-Database" style="stroke:#181818;stroke-width:1.0;"/><line style="stroke:#181818;stroke-width:1.0;" x1="107.9928" x2="99.7837" y1="357.6281" y2="351.9176"/><line style="stroke:#181818;stroke-width:1.0;" x1="107.9928" x2="111.1763" y1="357.6281" y2="348.1484"/><line style="stroke:#181818;stroke-width:1.0;" x1="107.9928" x2="105.48" y1="357.6281" y2="350.033"/><line style="stroke:#181818;stroke-width:1.0;" x1="104.8234" x2="112.4186" y1="360.7833" y2="358.2705"/><line style="stroke:#181818;stroke-width:1.0;" x1="132.7651" x2="125.17" y1="419.765" y2="422.2779"/><line style="stroke:#181818;stroke-width:1.0;" x1="131.8228" x2="124.2277" y1="416.9169" y2="419.4297"/><line style="stroke:#181818;stroke-width:1.0;" x1="127.7111" x2="130.224" y1="417.2239" y2="424.819"/></g><!--link Indexes to Data--><g id="link_Indexes_Data"><path codeLine="69" d="M364.0593,127.6729 C373.1393,153.1869 378.8207,169.1511 388.4437,196.1901 " fill="none" id="Indexes-Data" style="stroke:#181818;stroke-width:1.0;"/><line style="stroke:#181818;stroke-width:1.0;" x1="364.0593" x2="355.7243" y1="127.6729" y2="122.1477"/><line style="stroke:#181818;stroke-width:1.0;" x1="364.0593" x2="367.0297" y1="127.6729" y2="118.1243"/><line style="stroke:#181818;stroke-width:1.0;" x1="364.0593" x2="361.377" y1="127.6729" y2="120.136"/><line style="stroke:#181818;stroke-width:1.0;" x1="360.9614" x2="368.4983" y1="130.8983" y2="128.216"/><line style="stroke:#181818;stroke-width:1.0;" x1="393.5533" x2="386.0164" y1="198.6174" y2="201.2997"/><line style="stroke:#181818;stroke-width:1.0;" x1="392.5474" x2="385.0105" y1="195.791" y2="198.4734"/><line style="stroke:#181818;stroke-width:1.0;" x1="388.4437" x2="391.126" y1="196.1901" y2="203.727"/></g><!--link Relationships to Data--><g id="link_Relationships_Data"><path codeLine="70" d="M461.7793,135.6109 C453.1603,159.4929 448.6416,172.012 439.8656,196.331 " fill="none" id="Relationships-Data" style="stroke:#181818;stroke-width:1.0;"/><line style="stroke:#181818;stroke-width:1.0;" x1="461.7793" x2="458.8513" y1="135.6109" y2="126.0492"/><line style="stroke:#181818;stroke-width:1.0;" x1="461.7793" x2="470.1387" y1="135.6109" y2="130.1228"/><line style="stroke:#181818;stroke-width:1.0;" x1="461.7793" x2="464.495" y1="135.6109" y2="128.086"/><line style="stroke:#181818;stroke-width:1.0;" x1="457.3378" x2="464.8628" y1="136.1343" y2="138.85"/><line style="stroke:#181818;stroke-width:1.0;" x1="442.2703" x2="434.7453" y1="201.4513" y2="198.7357"/><line style="stroke:#181818;stroke-width:1.0;" x1="443.2886" x2="435.7636" y1="198.6294" y2="195.9138"/><line style="stroke:#181818;stroke-width:1.0;" x1="439.8656" x2="437.15" y1="196.331" y2="203.856"/></g><!--SRC=[fLAxJkD05EtdAwxSK8L7GOTI8QGqsTKksdx2N9nPsJEHFP50cqWPOAK52WgAY0e4seSee0LjW8-PP9MENrXxuZ5smgF0iYpvdZFdt7FlD3b3254r9Oi9YN13KU472DugLRH1OmJg-zut0ic3Gd6r3GvPMOcaLDKgJD3qSL2DvQLr55IeGg5EGxG_NT8jENwCP0kZn636qI7FE3heDSTdkigRA6giRxUUYhMu9XXk8PkXrTjXNfi3ouA51MZ76073JIwG0K-hMShqcwLfXoMpGexFAkB2Bvp8fr6fbXlipgp93WncTWGlBEWzesfbdLZzwNmR0OtZl5bBUNLHNsZGneA8FU4jUPMgjpG_BxoIL9fRI8NGa4h94EIcvPFfheo-DZszlEXgHjyR_TlI7WS_HkTzixDdz8dHnqR_ISYZe-lnxjtZO9-WO90w44BcOFZtv_3cCC67Dxr__L-ZgzFnnNUZ-qPV6hrdUhtnmzteuCpeAxDxQT-1sRcraeUfNxQ7oHsAipdmIVRIr3yqlYRRp7xME0OilLz9s4pX4mPKSIdY9cyvdTfREkwG8zB8HvKp4d4xwcwdKkbqyfsJ_CfD0ov5eKxAVHMG_m00]--></g></svg>