<svg xmlns="http://www.w3.org/2000/svg" xmlns:xlink="http://www.w3.org/1999/xlink" contentStyleType="text/css" data-diagram-type="CLASS" height="134px" preserveAspectRatio="none" style="width:209px;height:134px;background:#FFFFFF;" version="1.1" viewBox="0 0 209 134" width="209px" zoomAndPan="magnify"><defs/><g><!--class likes--><g id="elem_likes"><rect codeLine="1" fill="#F1F1F1" height="113.1875" id="likes" rx="2.5" ry="2.5" style="stroke:#181818;stroke-width:0.5;" width="188.4492" x="7" y="7"/><ellipse cx="81.0776" cy="23" fill="#ADD1B2" rx="11" ry="11" style="stroke:#181818;stroke-width:1;"/><path d="M85.187,29 L77.4683,29 L77.4683,16.6094 L85.187,16.6094 L85.187,18.7656 L79.9214,18.7656 L79.9214,21.4375 L84.687,21.4375 L84.687,23.5938 L79.9214,23.5938 L79.9214,26.8438 L85.187,26.8438 L85.187,29 Z " fill="#000000"/><text fill="#000000" font-family="sans-serif" font-size="14" lengthAdjust="spacing" textLength="31.7939" x="101.5776" y="27.8467">likes</text><line style="stroke:#181818;stroke-width:0.5;" x1="8" x2="194.4492" y1="39" y2="39"/><ellipse cx="18" cy="52.6484" fill="#84BE84" rx="3" ry="3" style="stroke:#038048;stroke-width:1;"/><text fill="#000000" font-family="sans-serif" font-size="14" lengthAdjust="spacing" textLength="87.8965" x="27" y="55.9951">id: ULID (PK)</text><line style="stroke:#181818;stroke-width:1;" x1="8" x2="194.4492" y1="63.2969" y2="63.2969"/><ellipse cx="18" cy="76.9453" fill="#84BE84" rx="3" ry="3" style="stroke:#038048;stroke-width:1;"/><text fill="#000000" font-family="sans-serif" font-size="14" lengthAdjust="spacing" textLength="125.043" x="27" y="80.292">user_id: ULID (FK)</text><ellipse cx="18" cy="93.2422" fill="#84BE84" rx="3" ry="3" style="stroke:#038048;stroke-width:1;"/><text fill="#000000" font-family="sans-serif" font-size="14" lengthAdjust="spacing" textLength="148.1074" x="27" y="96.5889">content_id: ULID (FK)</text><ellipse cx="18" cy="109.5391" fill="none" rx="3" ry="3" style="stroke:#038048;stroke-width:1;"/><text fill="#000000" font-family="sans-serif" font-size="14" lengthAdjust="spacing" textLength="162.4492" x="27" y="112.8857">created_at: Timestamp</text></g><!--SRC=[IyqhoIofL53AoSnEBLPIgEPIKD1Mo4onKWZryNHHq0ZmrWIAwEg2XKkBKulY4N9kO3bjXUJyl9BKl19iCaMfYIMfAV699LOA8PcvgSKbYRa5NBK0]--></g></svg>