<?xml version="1.0" encoding="us-ascii" standalone="no"?><svg xmlns="http://www.w3.org/2000/svg" xmlns:xlink="http://www.w3.org/1999/xlink" contentStyleType="text/css" height="545px" preserveAspectRatio="none" style="width:719px;height:545px;background:#FFFFFF;" version="1.1" viewBox="0 0 719 545" width="719px" zoomAndPan="magnify"><defs/><g><!--cluster Rdb--><g id="cluster_Rdb"><path d="M404,104 C404,94 553,94 553,94 C553,94 702,94 702,104 L702,312 C702,322 553,322 553,322 C553,322 404,322 404,312 L404,104 " fill="none" style="stroke:#181818;stroke-width:1.0;"/><path d="M404,104 C404,114 553,114 553,114 C553,114 702,114 702,104 " fill="none" style="stroke:#181818;stroke-width:1.0;"/><text fill="#000000" font-family="sans-serif" font-size="14" font-weight="bold" lengthAdjust="spacing" textLength="98" x="504" y="128.9951">RDB(DBaaS)</text></g><!--entity region1--><g id="elem_region1"><polygon fill="#F1F1F1" points="428,243,438,233,523,233,523,269.2969,513,279.2969,428,279.2969,428,243" style="stroke:#181818;stroke-width:0.5;"/><line style="stroke:#181818;stroke-width:0.5;" x1="513" x2="523" y1="243" y2="233"/><line style="stroke:#181818;stroke-width:0.5;" x1="428" x2="513" y1="243" y2="243"/><line style="stroke:#181818;stroke-width:0.5;" x1="513" x2="513" y1="243" y2="279.2969"/><text fill="#000000" font-family="sans-serif" font-size="14" lengthAdjust="spacing" textLength="55" x="443" y="265.9951">region1</text></g><!--entity region2--><g id="elem_region2"><polygon fill="#F1F1F1" points="428.5,162,438.5,152,522.5,152,522.5,188.2969,512.5,198.2969,428.5,198.2969,428.5,162" style="stroke:#181818;stroke-width:0.5;"/><line style="stroke:#181818;stroke-width:0.5;" x1="512.5" x2="522.5" y1="162" y2="152"/><line style="stroke:#181818;stroke-width:0.5;" x1="428.5" x2="512.5" y1="162" y2="162"/><line style="stroke:#181818;stroke-width:0.5;" x1="512.5" x2="512.5" y1="162" y2="198.2969"/><text fill="#000000" font-family="sans-serif" font-size="14" lengthAdjust="spacing" textLength="54" x="443.5" y="184.9951">region2</text></g><!--entity region3--><g id="elem_region3"><polygon fill="#F1F1F1" points="583,243,593,233,678,233,678,269.2969,668,279.2969,583,279.2969,583,243" style="stroke:#181818;stroke-width:0.5;"/><line style="stroke:#181818;stroke-width:0.5;" x1="668" x2="678" y1="243" y2="233"/><line style="stroke:#181818;stroke-width:0.5;" x1="583" x2="668" y1="243" y2="243"/><line style="stroke:#181818;stroke-width:0.5;" x1="668" x2="668" y1="243" y2="279.2969"/><text fill="#000000" font-family="sans-serif" font-size="14" lengthAdjust="spacing" textLength="55" x="598" y="265.9951">region3</text></g><!--entity Database--><g id="elem_Database"><rect fill="#F1F1F1" height="46.2969" rx="2.5" ry="2.5" style="stroke:#181818;stroke-width:0.5;" width="108" x="213" y="88"/><rect fill="#F1F1F1" height="10" style="stroke:#181818;stroke-width:0.5;" width="15" x="301" y="93"/><rect fill="#F1F1F1" height="2" style="stroke:#181818;stroke-width:0.5;" width="4" x="299" y="95"/><rect fill="#F1F1F1" height="2" style="stroke:#181818;stroke-width:0.5;" width="4" x="299" y="99"/><text fill="#000000" font-family="sans-serif" font-size="14" lengthAdjust="spacing" textLength="68" x="228" y="120.9951">Database</text></g><!--entity Cms--><g id="elem_Cms"><rect fill="#F1F1F1" height="46.2969" rx="2.5" ry="2.5" style="stroke:#181818;stroke-width:0.5;" width="71" x="21" y="7"/><rect fill="#F1F1F1" height="10" style="stroke:#181818;stroke-width:0.5;" width="15" x="72" y="12"/><rect fill="#F1F1F1" height="2" style="stroke:#181818;stroke-width:0.5;" width="4" x="70" y="14"/><rect fill="#F1F1F1" height="2" style="stroke:#181818;stroke-width:0.5;" width="4" x="70" y="18"/><text fill="#000000" font-family="sans-serif" font-size="14" lengthAdjust="spacing" textLength="31" x="36" y="39.9951">Cms</text></g><!--entity Crm--><g id="elem_Crm"><rect fill="#F1F1F1" height="46.2969" rx="2.5" ry="2.5" style="stroke:#181818;stroke-width:0.5;" width="70" x="21.5" y="88"/><rect fill="#F1F1F1" height="10" style="stroke:#181818;stroke-width:0.5;" width="15" x="71.5" y="93"/><rect fill="#F1F1F1" height="2" style="stroke:#181818;stroke-width:0.5;" width="4" x="69.5" y="95"/><rect fill="#F1F1F1" height="2" style="stroke:#181818;stroke-width:0.5;" width="4" x="69.5" y="99"/><text fill="#000000" font-family="sans-serif" font-size="14" lengthAdjust="spacing" textLength="30" x="36.5" y="120.9951">Crm</text></g><!--entity Sfa--><g id="elem_Sfa"><rect fill="#F1F1F1" height="46.2969" rx="2.5" ry="2.5" style="stroke:#181818;stroke-width:0.5;" width="63" x="235.5" y="169"/><rect fill="#F1F1F1" height="10" style="stroke:#181818;stroke-width:0.5;" width="15" x="278.5" y="174"/><rect fill="#F1F1F1" height="2" style="stroke:#181818;stroke-width:0.5;" width="4" x="276.5" y="176"/><rect fill="#F1F1F1" height="2" style="stroke:#181818;stroke-width:0.5;" width="4" x="276.5" y="180"/><text fill="#000000" font-family="sans-serif" font-size="14" lengthAdjust="spacing" textLength="23" x="250.5" y="201.9951">Sfa</text></g><!--entity Projects--><g id="elem_Projects"><rect fill="#F1F1F1" height="46.2969" rx="2.5" ry="2.5" style="stroke:#181818;stroke-width:0.5;" width="99" x="7" y="169"/><rect fill="#F1F1F1" height="10" style="stroke:#181818;stroke-width:0.5;" width="15" x="86" y="174"/><rect fill="#F1F1F1" height="2" style="stroke:#181818;stroke-width:0.5;" width="4" x="84" y="176"/><rect fill="#F1F1F1" height="2" style="stroke:#181818;stroke-width:0.5;" width="4" x="84" y="180"/><text fill="#000000" font-family="sans-serif" font-size="14" lengthAdjust="spacing" textLength="59" x="22" y="201.9951">Projects</text></g><!--entity Auth--><g id="elem_Auth"><rect fill="#F1F1F1" height="46.2969" rx="2.5" ry="2.5" style="stroke:#181818;stroke-width:0.5;" width="74" x="230" y="250"/><rect fill="#F1F1F1" height="10" style="stroke:#181818;stroke-width:0.5;" width="15" x="284" y="255"/><rect fill="#F1F1F1" height="2" style="stroke:#181818;stroke-width:0.5;" width="4" x="282" y="257"/><rect fill="#F1F1F1" height="2" style="stroke:#181818;stroke-width:0.5;" width="4" x="282" y="261"/><text fill="#000000" font-family="sans-serif" font-size="14" lengthAdjust="spacing" textLength="34" x="245" y="282.9951">Auth</text></g><!--entity Bpo--><g id="elem_Bpo"><rect fill="#F1F1F1" height="46.2969" rx="2.5" ry="2.5" style="stroke:#181818;stroke-width:0.5;" width="202" x="166" y="331"/><rect fill="#F1F1F1" height="10" style="stroke:#181818;stroke-width:0.5;" width="15" x="348" y="336"/><rect fill="#F1F1F1" height="2" style="stroke:#181818;stroke-width:0.5;" width="4" x="346" y="338"/><rect fill="#F1F1F1" height="2" style="stroke:#181818;stroke-width:0.5;" width="4" x="346" y="342"/><text fill="#000000" font-family="sans-serif" font-size="14" lengthAdjust="spacing" textLength="162" x="181" y="363.9951">BPO(Process manager)</text></g><!--entity FeatureFlag--><g id="elem_FeatureFlag"><rect fill="#F1F1F1" height="46.2969" rx="2.5" ry="2.5" style="stroke:#181818;stroke-width:0.5;" width="124" x="205" y="412"/><rect fill="#F1F1F1" height="10" style="stroke:#181818;stroke-width:0.5;" width="15" x="309" y="417"/><rect fill="#F1F1F1" height="2" style="stroke:#181818;stroke-width:0.5;" width="4" x="307" y="419"/><rect fill="#F1F1F1" height="2" style="stroke:#181818;stroke-width:0.5;" width="4" x="307" y="423"/><text fill="#000000" font-family="sans-serif" font-size="14" lengthAdjust="spacing" textLength="84" x="220" y="444.9951">FeatureFlag</text></g><!--entity SourceExplore--><g id="elem_SourceExplore"><rect fill="#F1F1F1" height="46.2969" rx="2.5" ry="2.5" style="stroke:#181818;stroke-width:0.5;" width="144" x="195" y="493"/><rect fill="#F1F1F1" height="10" style="stroke:#181818;stroke-width:0.5;" width="15" x="319" y="498"/><rect fill="#F1F1F1" height="2" style="stroke:#181818;stroke-width:0.5;" width="4" x="317" y="500"/><rect fill="#F1F1F1" height="2" style="stroke:#181818;stroke-width:0.5;" width="4" x="317" y="504"/><text fill="#000000" font-family="sans-serif" font-size="14" lengthAdjust="spacing" textLength="104" x="210" y="525.9951">SourceExplore</text></g><!--link Database to Rdb--><g id="link_Database_Rdb"><path d="M321.062,121.519 C338.536,127.588 356.433,137.107 368,152 C407.363,202.684 344.408,247.903 388,295 C391.2899,298.5544 395.0798,301.5217 399.1969,303.9926 C400.2261,304.6104 401.2758,305.1971 402.3433,305.7542 C402.877,306.0327 398.0203,303.6781 398.5625,303.9421 " fill="none" id="Database-to-Rdb" style="stroke:#181818;stroke-width:1.0;"/><polygon fill="#181818" points="403.9575,306.5678,397.6155,299.0326,399.4617,304.3797,394.1146,306.2258,403.9575,306.5678" style="stroke:#181818;stroke-width:1.0;"/></g><!--link Sfa to Rdb--><g id="link_Sfa_Rdb"><path d="M298.596,197.404 C320.705,202.824 349.772,213.31 368,233 C387.67,254.247 366.57,275.531 388,295 C391.5279,298.205 395.4698,300.9124 399.6736,303.1957 C400.7246,303.7666 401.7919,304.3109 402.8733,304.8299 C403.1436,304.9596 397.9749,302.5564 398.247,302.683 " fill="none" id="Sfa-to-Rdb" style="stroke:#181818;stroke-width:1.0;"/><polygon fill="#181818" points="403.6869,305.2144,397.2146,297.7908,399.1536,303.1049,393.8395,305.044,403.6869,305.2144" style="stroke:#181818;stroke-width:1.0;"/></g><!--link FeatureFlag to Rdb--><g id="link_FeatureFlag_Rdb"><path d="M329.244,413.544 C342.344,408.123 355.879,401.866 368,395 C393.0635,380.8035 418.8338,361.3558 438.7456,345.0746 C448.7016,336.9341 457.1929,329.5852 463.399,324.0801 C464.1748,323.392 460.4424,326.7323 461.1451,326.1039 " fill="none" id="FeatureFlag-to-Rdb" style="stroke:#181818;stroke-width:1.0;"/><polygon fill="#181818" points="465.6176,322.1042,456.2425,325.122,461.8905,325.4373,461.5753,331.0853,465.6176,322.1042" style="stroke:#181818;stroke-width:1.0;"/></g><!--link SourceExplore to Rdb--><g id="link_SourceExplore_Rdb"><path d="M339.075,493.9174 C349.37,488.9648 359.383,483.0377 368,476 C400.846,449.173 427.1588,409.5095 445.4125,376.1443 C454.5394,359.4616 461.6515,344.3536 466.5582,333.2119 C467.7848,330.4265 468.8736,327.889 469.8216,325.6367 C470.2956,324.5106 470.7344,323.4558 471.1377,322.477 C471.1881,322.3547 468.9577,327.7833 469.007,327.6634 " fill="none" id="SourceExplore-to-Rdb" style="stroke:#181818;stroke-width:1.0;"/><polygon fill="#181818" points="471.2872,322.1135,464.167,328.9182,469.387,326.7384,471.5668,331.9584,471.2872,322.1135" style="stroke:#181818;stroke-width:1.0;"/></g><!--link Auth to Rdb--><g id="link_Auth_Rdb"><path d="M304.443,280.236 C319.0318,283.1325 336.7391,286.6482 355.1466,290.3029 C364.3504,292.1302 373.7292,293.9923 382.9807,295.8292 C387.6065,296.7476 392.2004,297.6597 396.7247,298.558 C398.9869,299.0071 395.3465,298.2844 397.5692,298.7256 " fill="none" id="Auth-to-Rdb" style="stroke:#181818;stroke-width:1.0;"/><polygon fill="#181818" points="403.4543,299.8941,395.4056,294.218,398.55,298.9204,393.8476,302.0648,403.4543,299.8941" style="stroke:#181818;stroke-width:1.0;"/></g><!--link Bpo to Rdb--><g id="link_Bpo_Rdb"><path d="M368.225,334.586 C380.9675,332.1178 393.7714,329.6376 405.8595,327.296 C411.9035,326.1252 417.7687,324.9891 423.3577,323.9064 C426.1522,323.3651 428.8777,322.8372 431.522,322.3249 C431.8526,322.2609 432.1818,322.1971 432.5098,322.1336 C432.6738,322.1018 426.947,323.2112 427.1103,323.1795 " fill="none" id="Bpo-to-Rdb" style="stroke:#181818;stroke-width:1.0;"/><polygon fill="#181818" points="433.0008,322.0385,423.4044,319.823,428.0921,322.9894,424.9258,327.6771,433.0008,322.0385" style="stroke:#181818;stroke-width:1.0;"/></g><!--link Cms to Database--><g id="link_Cms_Database"><path d="M92.3982,43.558 C125.322,56.348 169.5412,73.5274 207.3772,88.2254 " fill="none" id="Cms-to-Database" style="stroke:#181818;stroke-width:1.0;"/><polygon fill="#181818" points="212.97,90.398,206.0292,83.4105,208.3093,88.5875,203.1323,90.8676,212.97,90.398" style="stroke:#181818;stroke-width:1.0;"/></g><!--link Crm to Database--><g id="link_Crm_Database"><path d="M91.9295,111 C124.778,111 168.743,111 206.729,111 " fill="none" id="Crm-to-Database" style="stroke:#181818;stroke-width:1.0;"/><polygon fill="#181818" points="212.729,111,203.729,107,207.729,111,203.729,115,212.729,111" style="stroke:#181818;stroke-width:1.0;"/></g><!--link Projects to Database--><g id="link_Projects_Database"><path d="M106.1208,173.111 C138.129,160.676 174.4393,146.5708 207.3163,133.7978 " fill="none" id="Projects-to-Database" style="stroke:#181818;stroke-width:1.0;"/><polygon fill="#181818" points="212.909,131.625,203.0713,131.1557,208.2484,133.4357,205.9684,138.6127,212.909,131.625" style="stroke:#181818;stroke-width:1.0;"/></g><!--SRC=[NL11Ri903Bpx5LPESCY1zev46hWMmGjCOf9KoJhoRgHALV_E0itMOK-UsP4zCprV0mP1xPesODqfLw4J1r39C8fZ5x2aG1VoRAYFmLkaWq7dAnbqLFcAAwryDuNMmAmuVgwYh6BlSI173UiwG_9OZ69q1wOmAHzwQkmrcRJY_VVOYp90_USLirDPhCg2wFpSTQel-0COdvEQKRc9AJUlnDihyGw_07C1cEVR-oA84TDiRFt_MrE9lUTE86PBCyGw7o0r7HjT4dED2_O6]--></g></svg>