<svg xmlns="http://www.w3.org/2000/svg" xmlns:xlink="http://www.w3.org/1999/xlink" contentStyleType="text/css" height="633px" preserveAspectRatio="none" style="width:919px;height:633px;background:#FFFFFF;" version="1.1" viewBox="0 0 919 633" width="919px" zoomAndPan="magnify"><defs/><g><line style="stroke:#181818;stroke-width:0.5;stroke-dasharray:5.0,5.0;" x1="36" x2="36" y1="81.2969" y2="552.4219"/><line style="stroke:#181818;stroke-width:0.5;stroke-dasharray:5.0,5.0;" x1="216" x2="216" y1="81.2969" y2="552.4219"/><line style="stroke:#181818;stroke-width:0.5;stroke-dasharray:5.0,5.0;" x1="356" x2="356" y1="81.2969" y2="552.4219"/><line style="stroke:#181818;stroke-width:0.5;stroke-dasharray:5.0,5.0;" x1="728" x2="728" y1="81.2969" y2="552.4219"/><line style="stroke:#181818;stroke-width:0.5;stroke-dasharray:5.0,5.0;" x1="850" x2="850" y1="81.2969" y2="552.4219"/><text fill="#000000" font-family="sans-serif" font-size="14" lengthAdjust="spacing" textLength="56" x="5" y="77.9951">&#12518;&#12540;&#12470;&#12540;</text><ellipse cx="36" cy="13.5" fill="#E2E2F0" rx="8" ry="8" style="stroke:#181818;stroke-width:0.5;"/><path d="M36,21.5 L36,48.5 M23,29.5 L49,29.5 M36,48.5 L23,63.5 M36,48.5 L49,63.5 " fill="none" style="stroke:#181818;stroke-width:0.5;"/><text fill="#000000" font-family="sans-serif" font-size="14" lengthAdjust="spacing" textLength="56" x="5" y="564.417">&#12518;&#12540;&#12470;&#12540;</text><ellipse cx="36" cy="576.2188" fill="#E2E2F0" rx="8" ry="8" style="stroke:#181818;stroke-width:0.5;"/><path d="M36,584.2188 L36,611.2188 M23,592.2188 L49,592.2188 M36,611.2188 L23,626.2188 M36,611.2188 L49,626.2188 " fill="none" style="stroke:#181818;stroke-width:0.5;"/><rect fill="#E2E2F0" height="30.2969" rx="2.5" ry="2.5" style="stroke:#181818;stroke-width:0.5;" width="112" x="160" y="50"/><text fill="#000000" font-family="sans-serif" font-size="14" lengthAdjust="spacing" textLength="98" x="167" y="69.9951">&#12501;&#12525;&#12531;&#12488;&#12456;&#12531;&#12489;</text><rect fill="#E2E2F0" height="30.2969" rx="2.5" ry="2.5" style="stroke:#181818;stroke-width:0.5;" width="112" x="160" y="551.4219"/><text fill="#000000" font-family="sans-serif" font-size="14" lengthAdjust="spacing" textLength="98" x="167" y="571.417">&#12501;&#12525;&#12531;&#12488;&#12456;&#12531;&#12489;</text><rect fill="#E2E2F0" height="30.2969" rx="2.5" ry="2.5" style="stroke:#181818;stroke-width:0.5;" width="98" x="307" y="50"/><text fill="#000000" font-family="sans-serif" font-size="14" lengthAdjust="spacing" textLength="84" x="314" y="69.9951">&#12496;&#12483;&#12463;&#12456;&#12531;&#12489;</text><rect fill="#E2E2F0" height="30.2969" rx="2.5" ry="2.5" style="stroke:#181818;stroke-width:0.5;" width="98" x="307" y="551.4219"/><text fill="#000000" font-family="sans-serif" font-size="14" lengthAdjust="spacing" textLength="84" x="314" y="571.417">&#12496;&#12483;&#12463;&#12456;&#12531;&#12489;</text><rect fill="#E2E2F0" height="30.2969" rx="2.5" ry="2.5" style="stroke:#181818;stroke-width:0.5;" width="98" x="679" y="50"/><text fill="#000000" font-family="sans-serif" font-size="14" lengthAdjust="spacing" textLength="84" x="686" y="69.9951">&#35469;&#21487;&#12469;&#12540;&#12496;&#12540;</text><rect fill="#E2E2F0" height="30.2969" rx="2.5" ry="2.5" style="stroke:#181818;stroke-width:0.5;" width="98" x="679" y="551.4219"/><text fill="#000000" font-family="sans-serif" font-size="14" lengthAdjust="spacing" textLength="84" x="686" y="571.417">&#35469;&#21487;&#12469;&#12540;&#12496;&#12540;</text><rect fill="#E2E2F0" height="30.2969" rx="2.5" ry="2.5" style="stroke:#181818;stroke-width:0.5;" width="126" x="787" y="50"/><text fill="#000000" font-family="sans-serif" font-size="14" lengthAdjust="spacing" textLength="112" x="794" y="69.9951">&#12522;&#12477;&#12540;&#12473;&#12469;&#12540;&#12496;&#12540;</text><rect fill="#E2E2F0" height="30.2969" rx="2.5" ry="2.5" style="stroke:#181818;stroke-width:0.5;" width="126" x="787" y="551.4219"/><text fill="#000000" font-family="sans-serif" font-size="14" lengthAdjust="spacing" textLength="112" x="794" y="571.417">&#12522;&#12477;&#12540;&#12473;&#12469;&#12540;&#12496;&#12540;</text><polygon fill="#181818" points="204,108.4297,214,112.4297,204,116.4297,208,112.4297" style="stroke:#181818;stroke-width:1.0;"/><line style="stroke:#181818;stroke-width:1.0;" x1="36" x2="210" y1="112.4297" y2="112.4297"/><text fill="#000000" font-family="sans-serif" font-size="13" lengthAdjust="spacing" textLength="104" x="43" y="107.3638">&#12450;&#12503;&#12522;&#12395;&#12450;&#12463;&#12475;&#12473;</text><polygon fill="#181818" points="344,137.5625,354,141.5625,344,145.5625,348,141.5625" style="stroke:#181818;stroke-width:1.0;"/><line style="stroke:#181818;stroke-width:1.0;" x1="216" x2="350" y1="141.5625" y2="141.5625"/><text fill="#000000" font-family="sans-serif" font-size="13" lengthAdjust="spacing" textLength="116" x="223" y="136.4966">&#35469;&#21487;URL&#12522;&#12463;&#12456;&#12473;&#12488;</text><polygon fill="#181818" points="227,166.6953,217,170.6953,227,174.6953,223,170.6953" style="stroke:#181818;stroke-width:1.0;"/><line style="stroke:#181818;stroke-width:1.0;stroke-dasharray:2.0,2.0;" x1="221" x2="355" y1="170.6953" y2="170.6953"/><text fill="#000000" font-family="sans-serif" font-size="13" lengthAdjust="spacing" textLength="51" x="233" y="165.6294">&#35469;&#21487;URL</text><polygon fill="#181818" points="47,195.8281,37,199.8281,47,203.8281,43,199.8281" style="stroke:#181818;stroke-width:1.0;"/><line style="stroke:#181818;stroke-width:1.0;" x1="41" x2="215" y1="199.8281" y2="199.8281"/><text fill="#000000" font-family="sans-serif" font-size="13" lengthAdjust="spacing" textLength="156" x="53" y="194.7622">&#35469;&#21487;&#12506;&#12540;&#12472;&#12395;&#12522;&#12480;&#12452;&#12524;&#12463;&#12488;</text><polygon fill="#181818" points="716,224.9609,726,228.9609,716,232.9609,720,228.9609" style="stroke:#181818;stroke-width:1.0;"/><line style="stroke:#181818;stroke-width:1.0;" x1="36" x2="722" y1="228.9609" y2="228.9609"/><text fill="#000000" font-family="sans-serif" font-size="13" lengthAdjust="spacing" textLength="65" x="43" y="223.895">&#35469;&#35388;&#12539;&#35469;&#21487;</text><polygon fill="#181818" points="227,254.0938,217,258.0938,227,262.0938,223,258.0938" style="stroke:#181818;stroke-width:1.0;"/><line style="stroke:#181818;stroke-width:1.0;" x1="221" x2="727" y1="258.0938" y2="258.0938"/><text fill="#000000" font-family="sans-serif" font-size="13" lengthAdjust="spacing" textLength="195" x="233" y="253.0278">&#12522;&#12480;&#12452;&#12524;&#12463;&#12488;&#65288;&#35469;&#21487;&#12467;&#12540;&#12489;&#20184;&#12365;&#65289;</text><polygon fill="#181818" points="344,283.2266,354,287.2266,344,291.2266,348,287.2266" style="stroke:#181818;stroke-width:1.0;"/><line style="stroke:#181818;stroke-width:1.0;" x1="216" x2="350" y1="287.2266" y2="287.2266"/><text fill="#000000" font-family="sans-serif" font-size="13" lengthAdjust="spacing" textLength="91" x="223" y="282.1606">&#35469;&#21487;&#12467;&#12540;&#12489;&#36865;&#20449;</text><polygon fill="#181818" points="716,327.4922,726,331.4922,716,335.4922,720,331.4922" style="stroke:#181818;stroke-width:1.0;"/><line style="stroke:#181818;stroke-width:1.0;" x1="356" x2="722" y1="331.4922" y2="331.4922"/><text fill="#000000" font-family="sans-serif" font-size="13" lengthAdjust="spacing" textLength="169" x="363" y="311.2935">&#12450;&#12463;&#12475;&#12473;&#12488;&#12540;&#12463;&#12531;&#12522;&#12463;&#12456;&#12473;&#12488;</text><text fill="#000000" font-family="sans-serif" font-size="13" lengthAdjust="spacing" textLength="348" x="363" y="326.4263">(&#35469;&#21487;&#12467;&#12540;&#12489;&#12289;&#12463;&#12521;&#12452;&#12450;&#12531;&#12488;ID&#12289;&#12463;&#12521;&#12452;&#12450;&#12531;&#12488;&#12471;&#12540;&#12463;&#12524;&#12483;&#12488;)</text><polygon fill="#181818" points="367,356.625,357,360.625,367,364.625,363,360.625" style="stroke:#181818;stroke-width:1.0;"/><line style="stroke:#181818;stroke-width:1.0;stroke-dasharray:2.0,2.0;" x1="361" x2="727" y1="360.625" y2="360.625"/><text fill="#000000" font-family="sans-serif" font-size="13" lengthAdjust="spacing" textLength="104" x="373" y="355.5591">&#12450;&#12463;&#12475;&#12473;&#12488;&#12540;&#12463;&#12531;</text><line style="stroke:#181818;stroke-width:1.0;" x1="356" x2="398" y1="389.7578" y2="389.7578"/><line style="stroke:#181818;stroke-width:1.0;" x1="398" x2="398" y1="389.7578" y2="402.7578"/><line style="stroke:#181818;stroke-width:1.0;" x1="357" x2="398" y1="402.7578" y2="402.7578"/><polygon fill="#181818" points="367,398.7578,357,402.7578,367,406.7578,363,402.7578" style="stroke:#181818;stroke-width:1.0;"/><text fill="#000000" font-family="sans-serif" font-size="13" lengthAdjust="spacing" textLength="91" x="363" y="384.6919">&#12488;&#12540;&#12463;&#12531;&#12434;&#20445;&#23384;</text><polygon fill="#181818" points="838,443.0234,848,447.0234,838,451.0234,842,447.0234" style="stroke:#181818;stroke-width:1.0;"/><line style="stroke:#181818;stroke-width:1.0;" x1="356" x2="844" y1="447.0234" y2="447.0234"/><text fill="#000000" font-family="sans-serif" font-size="13" lengthAdjust="spacing" textLength="117" x="363" y="426.8247">&#12522;&#12477;&#12540;&#12473;&#12522;&#12463;&#12456;&#12473;&#12488;</text><text fill="#000000" font-family="sans-serif" font-size="13" lengthAdjust="spacing" textLength="140" x="363" y="441.9575">(&#12450;&#12463;&#12475;&#12473;&#12488;&#12540;&#12463;&#12531;&#20184;&#12365;)</text><polygon fill="#181818" points="367,472.1563,357,476.1563,367,480.1563,363,476.1563" style="stroke:#181818;stroke-width:1.0;"/><line style="stroke:#181818;stroke-width:1.0;stroke-dasharray:2.0,2.0;" x1="361" x2="849" y1="476.1563" y2="476.1563"/><text fill="#000000" font-family="sans-serif" font-size="13" lengthAdjust="spacing" textLength="52" x="373" y="471.0903">&#12522;&#12477;&#12540;&#12473;</text><polygon fill="#181818" points="227,501.2891,217,505.2891,227,509.2891,223,505.2891" style="stroke:#181818;stroke-width:1.0;"/><line style="stroke:#181818;stroke-width:1.0;stroke-dasharray:2.0,2.0;" x1="221" x2="355" y1="505.2891" y2="505.2891"/><text fill="#000000" font-family="sans-serif" font-size="13" lengthAdjust="spacing" textLength="91" x="233" y="500.2231">&#12522;&#12477;&#12540;&#12473;&#12487;&#12540;&#12479;</text><polygon fill="#181818" points="47,530.4219,37,534.4219,47,538.4219,43,534.4219" style="stroke:#181818;stroke-width:1.0;"/><line style="stroke:#181818;stroke-width:1.0;stroke-dasharray:2.0,2.0;" x1="41" x2="215" y1="534.4219" y2="534.4219"/><text fill="#000000" font-family="sans-serif" font-size="13" lengthAdjust="spacing" textLength="52" x="53" y="529.356">&#32080;&#26524;&#34920;&#31034;</text><!--SRC=[VPBFIW9H5CRtynGNLxdm1Lm4HGH1AyDTcs4QI89Hnh6rS- -YcOKaGIHHWI5XfhWG- -U43tCqRUKhTCyTvy-ToJR3PUvtllFxpZsgPfLD0km9c0VqbN-9MYN5gcug5TMqIbgfeXeMoG2x1ZO0DWBc0EsAWvj1xRvPDYpTE4dgcy0OqA4itbMrivHssMlCBxbmZ0nOvmdjJiqwFTBDypHA3-YNuFr85HNqQhbcQlgwKC4a9BSTKkO9q4TWDsXYl-0P4IVSIWaaA5zpvedFLYmSYguY3U_A76Mj83d9F9HBRWWHt06x5UZls9vxiZhG3h0-cdFRW3SABmgNNHvouZieqLqYMSfkvJd1S4TYJkviqWAxiVBS_-A6wf-wFPksewmoLtnwk1OOQoWUMnhLiR6Li8MwBPJFo8hFWLjriFVdRw1lWN4VDuevMMa0SVfDGF40aJXEJAzcq_lve1LNoglaZpVSkrJ4JRtzWMSLsIt17NFUi5XoymjncCRUCDoonRZv_N2tR7SNdSzV]--></g></svg>