<svg xmlns="http://www.w3.org/2000/svg" xmlns:xlink="http://www.w3.org/1999/xlink" contentStyleType="text/css" data-diagram-type="SEQUENCE" height="402px" preserveAspectRatio="none" style="width:476px;height:402px;background:#FFFFFF;" version="1.1" viewBox="0 0 476 402" width="476px" zoomAndPan="magnify"><defs/><g><rect fill="#FFFFFF" height="191.6016" style="stroke:#181818;stroke-width:1;" width="10" x="133.9552" y="112.4297"/><rect fill="#FFFFFF" height="29.1328" style="stroke:#181818;stroke-width:1;" width="10" x="265.6246" y="165.6953"/><rect fill="#FFFFFF" height="29.1328" style="stroke:#181818;stroke-width:1;" width="10" x="396.4942" y="238.7656"/><rect fill="none" height="148.4688" style="stroke:#000000;stroke-width:1.5;" width="398.5449" x="70.5524" y="127.4297"/><line style="stroke:#181818;stroke-width:0.5;stroke-dasharray:5.0,5.0;" x1="23" x2="23" y1="81.2969" y2="322.0313"/><line style="stroke:#181818;stroke-width:0.5;stroke-dasharray:5.0,5.0;" x1="138.5524" x2="138.5524" y1="81.2969" y2="322.0313"/><line style="stroke:#181818;stroke-width:0.5;stroke-dasharray:5.0,5.0;" x1="270.358" x2="270.358" y1="81.2969" y2="322.0313"/><line style="stroke:#181818;stroke-width:0.5;stroke-dasharray:5.0,5.0;" x1="400.8912" x2="400.8912" y1="81.2969" y2="322.0313"/><text fill="#000000" font-family="sans-serif" font-size="14" lengthAdjust="spacing" textLength="31.9102" x="5" y="77.9951">User</text><ellipse cx="23.9551" cy="13.5" fill="#E2E2F0" rx="8" ry="8" style="stroke:#181818;stroke-width:0.5;"/><path d="M23.9551,21.5 L23.9551,48.5 M10.9551,29.5 L36.9551,29.5 M23.9551,48.5 L10.9551,63.5 M23.9551,48.5 L36.9551,63.5 " fill="none" style="stroke:#181818;stroke-width:0.5;"/><text fill="#000000" font-family="sans-serif" font-size="14" lengthAdjust="spacing" textLength="31.9102" x="5" y="334.0264">User</text><ellipse cx="23.9551" cy="345.8281" fill="#E2E2F0" rx="8" ry="8" style="stroke:#181818;stroke-width:0.5;"/><path d="M23.9551,353.8281 L23.9551,380.8281 M10.9551,361.8281 L36.9551,361.8281 M23.9551,380.8281 L10.9551,395.8281 M23.9551,380.8281 L36.9551,395.8281 " fill="none" style="stroke:#181818;stroke-width:0.5;"/><rect fill="#E2E2F0" height="30.2969" rx="2.5" ry="2.5" style="stroke:#181818;stroke-width:0.5;" width="116.8057" x="80.5524" y="50"/><text fill="#000000" font-family="sans-serif" font-size="14" lengthAdjust="spacing" textLength="102.8057" x="87.5524" y="69.9951">ManagerAgent</text><rect fill="#E2E2F0" height="30.2969" rx="2.5" ry="2.5" style="stroke:#181818;stroke-width:0.5;" width="116.8057" x="80.5524" y="321.0313"/><text fill="#000000" font-family="sans-serif" font-size="14" lengthAdjust="spacing" textLength="102.8057" x="87.5524" y="341.0264">ManagerAgent</text><rect fill="#E2E2F0" height="30.2969" rx="2.5" ry="2.5" style="stroke:#181818;stroke-width:0.5;" width="126.5332" x="207.358" y="50"/><text fill="#000000" font-family="sans-serif" font-size="14" lengthAdjust="spacing" textLength="112.5332" x="214.358" y="69.9951">CalculatorAgent</text><rect fill="#E2E2F0" height="30.2969" rx="2.5" ry="2.5" style="stroke:#181818;stroke-width:0.5;" width="126.5332" x="207.358" y="321.0313"/><text fill="#000000" font-family="sans-serif" font-size="14" lengthAdjust="spacing" textLength="112.5332" x="214.358" y="341.0264">CalculatorAgent</text><rect fill="#E2E2F0" height="30.2969" rx="2.5" ry="2.5" style="stroke:#181818;stroke-width:0.5;" width="115.2061" x="343.8912" y="50"/><text fill="#000000" font-family="sans-serif" font-size="14" lengthAdjust="spacing" textLength="101.2061" x="350.8912" y="69.9951">WeatherAgent</text><rect fill="#E2E2F0" height="30.2969" rx="2.5" ry="2.5" style="stroke:#181818;stroke-width:0.5;" width="115.2061" x="343.8912" y="321.0313"/><text fill="#000000" font-family="sans-serif" font-size="14" lengthAdjust="spacing" textLength="101.2061" x="350.8912" y="341.0264">WeatherAgent</text><rect fill="#FFFFFF" height="191.6016" style="stroke:#181818;stroke-width:1;" width="10" x="133.9552" y="112.4297"/><rect fill="#FFFFFF" height="29.1328" style="stroke:#181818;stroke-width:1;" width="10" x="265.6246" y="165.6953"/><rect fill="#FFFFFF" height="29.1328" style="stroke:#181818;stroke-width:1;" width="10" x="396.4942" y="238.7656"/><polygon fill="#181818" points="121.9552,108.4297,131.9552,112.4297,121.9552,116.4297,125.9552,112.4297" style="stroke:#181818;stroke-width:1;"/><line style="stroke:#181818;stroke-width:1;" x1="23.9551" x2="127.9552" y1="112.4297" y2="112.4297"/><text fill="#000000" font-family="sans-serif" font-size="13" lengthAdjust="spacing" textLength="91.0001" x="30.9551" y="107.3638">&#12522;&#12463;&#12456;&#12473;&#12488;&#36865;&#20449;</text><path d="M70.5524,127.4297 L134.9952,127.4297 L134.9952,134.5625 L124.9952,144.5625 L70.5524,144.5625 L70.5524,127.4297 " fill="#EEEEEE" style="stroke:#000000;stroke-width:1.5;"/><rect fill="none" height="148.4688" style="stroke:#000000;stroke-width:1.5;" width="398.5449" x="70.5524" y="127.4297"/><text fill="#000000" font-family="sans-serif" font-size="13" font-weight="bold" lengthAdjust="spacing" textLength="19.4429" x="85.5524" y="140.4966">alt</text><text fill="#000000" font-family="sans-serif" font-size="11" font-weight="bold" lengthAdjust="spacing" textLength="98.0541" x="149.9952" y="139.6401">[&#35336;&#31639;&#12479;&#12473;&#12463;&#12398;&#22580;&#21512;]</text><polygon fill="#181818" points="253.6246,161.6953,263.6246,165.6953,253.6246,169.6953,257.6246,165.6953" style="stroke:#181818;stroke-width:1;"/><line style="stroke:#181818;stroke-width:1;" x1="143.9552" x2="259.6246" y1="165.6953" y2="165.6953"/><text fill="#000000" font-family="sans-serif" font-size="13" lengthAdjust="spacing" textLength="91.0001" x="150.9552" y="160.6294">&#35336;&#31639;&#12479;&#12473;&#12463;&#22996;&#35698;</text><polygon fill="#181818" points="154.9552,190.8281,144.9552,194.8281,154.9552,198.8281,150.9552,194.8281" style="stroke:#181818;stroke-width:1;"/><line style="stroke:#181818;stroke-width:1;stroke-dasharray:2.0,2.0;" x1="148.9552" x2="269.6246" y1="194.8281" y2="194.8281"/><text fill="#000000" font-family="sans-serif" font-size="13" lengthAdjust="spacing" textLength="52.0001" x="160.9552" y="189.7622">&#35336;&#31639;&#32080;&#26524;</text><line style="stroke:#000000;stroke-width:1;stroke-dasharray:2.0,2.0;" x1="70.5524" x2="469.0973" y1="203.8281" y2="203.8281"/><text fill="#000000" font-family="sans-serif" font-size="11" font-weight="bold" lengthAdjust="spacing" textLength="120.0539" x="75.5524" y="214.0386">[&#22825;&#27671;&#24773;&#22577;&#12479;&#12473;&#12463;&#12398;&#22580;&#21512;]</text><polygon fill="#181818" points="384.4942,234.7656,394.4942,238.7656,384.4942,242.7656,388.4942,238.7656" style="stroke:#181818;stroke-width:1;"/><line style="stroke:#181818;stroke-width:1;" x1="143.9552" x2="390.4942" y1="238.7656" y2="238.7656"/><text fill="#000000" font-family="sans-serif" font-size="13" lengthAdjust="spacing" textLength="117.0001" x="150.9552" y="233.6997">&#22825;&#27671;&#24773;&#22577;&#12479;&#12473;&#12463;&#22996;&#35698;</text><polygon fill="#181818" points="154.9552,263.8984,144.9552,267.8984,154.9552,271.8984,150.9552,267.8984" style="stroke:#181818;stroke-width:1;"/><line style="stroke:#181818;stroke-width:1;stroke-dasharray:2.0,2.0;" x1="148.9552" x2="400.4942" y1="267.8984" y2="267.8984"/><text fill="#000000" font-family="sans-serif" font-size="13" lengthAdjust="spacing" textLength="52.0001" x="160.9552" y="262.8325">&#22825;&#27671;&#24773;&#22577;</text><polygon fill="#181818" points="34.9551,300.0313,24.9551,304.0313,34.9551,308.0313,30.9551,304.0313" style="stroke:#181818;stroke-width:1;"/><line style="stroke:#181818;stroke-width:1;stroke-dasharray:2.0,2.0;" x1="28.9551" x2="137.9552" y1="304.0313" y2="304.0313"/><text fill="#000000" font-family="sans-serif" font-size="13" lengthAdjust="spacing" textLength="78.0001" x="40.9551" y="298.9653">&#26368;&#32066;&#32080;&#26524;&#36820;&#21364;</text><!--SRC=[IqmkoIzI22rEBU8gI2mgoKpEB4ZCAr7mJSnBJ4yjSanFpIj1aN1Ep4akpKa4QiAK2qzDBCc0QU82cQcWQuTYb9N2u-PLZvlMFsvQyRXfv-FcZfSDZK_sB-HAJ2x9B4iiIKMrboinfqJXnOgEv-kcFsxQ3z80rDcuxkc2BKydT70f006oSf1TQAwpGjVzTFcK5sitWRN2hKJt4KWIJKn15yCV48EVRvtmRDuSi9QKL9mcfkOKfoeyNRBosORfpvfRdoxOIAHlaCFJ2hi1s3o44WqW6MG1B5v1DXZTAoXcfUQbS76XEX9e62YUhHIUpMbulhK94Xulzazvshk52yaOP4q0]--></g></svg>