<svg xmlns="http://www.w3.org/2000/svg" xmlns:xlink="http://www.w3.org/1999/xlink" contentStyleType="text/css" data-diagram-type="CLASS" height="407px" preserveAspectRatio="none" style="width:873px;height:407px;background:#FFFFFF;" version="1.1" viewBox="0 0 873 407" width="873px" zoomAndPan="magnify"><defs/><g><!--cluster MetadataTable--><g id="cluster_MetadataTable"><rect fill="none" height="378" rx="2.5" ry="2.5" style="stroke:#181818;stroke-width:1;" width="282" x="7" y="17"/><text fill="#000000" font-family="sans-serif" font-size="14" font-weight="bold" lengthAdjust="spacing" textLength="118.4873" x="88.7563" y="31.9951">MetadataTable</text></g><!--cluster Datatable--><g id="cluster_Datatable"><rect fill="none" height="394" rx="2.5" ry="2.5" style="stroke:#181818;stroke-width:1;" width="310" x="317" y="7"/><text fill="#000000" font-family="sans-serif" font-size="14" font-weight="bold" lengthAdjust="spacing" textLength="77.6631" x="433.1685" y="21.9951">Datatable</text></g><!--cluster PiovotTable--><g id="cluster_PiovotTable"><rect fill="none" height="131" rx="2.5" ry="2.5" style="stroke:#181818;stroke-width:1;" width="212" x="655" y="81"/><text fill="#000000" font-family="sans-serif" font-size="14" font-weight="bold" lengthAdjust="spacing" textLength="93.4268" x="714.2866" y="95.9951">PiovotTable</text></g><!--class Objects--><g id="elem_Objects"><rect codeLine="4" fill="#F1F1F1" height="113.1875" id="Objects" rx="2.5" ry="2.5" style="stroke:#181818;stroke-width:0.5;" width="249.999" x="23" y="265.41"/><ellipse cx="117.3047" cy="281.41" fill="#ADD1B2" rx="11" ry="11" style="stroke:#181818;stroke-width:1;"/><path d="M121.414,287.41 L113.6953,287.41 L113.6953,275.0194 L121.414,275.0194 L121.414,277.1756 L116.1484,277.1756 L116.1484,279.8475 L120.914,279.8475 L120.914,282.0037 L116.1484,282.0037 L116.1484,285.2537 L121.414,285.2537 L121.414,287.41 Z " fill="#000000"/><text fill="#000000" font-family="sans-serif" font-size="14" lengthAdjust="spacing" textLength="52.8896" x="137.8047" y="286.2567">Objects</text><line style="stroke:#181818;stroke-width:0.5;" x1="24" x2="271.999" y1="297.41" y2="297.41"/><text fill="#000000" font-family="sans-serif" font-size="14" lengthAdjust="spacing" textLength="237.999" x="29" y="314.4051">&#12459;&#12473;&#12479;&#12512;&#12458;&#12502;&#12472;&#12455;&#12463;&#12488;&#29992;&#12398;&#12513;&#12479;&#12487;&#12540;&#12479;</text><line style="stroke:#181818;stroke-width:1;" x1="24" x2="271.999" y1="321.7069" y2="321.7069"/><text fill="#000000" font-family="sans-serif" font-size="14" lengthAdjust="spacing" textLength="82.5508" x="29" y="338.702">Id(ObjectId)</text><text fill="#000000" font-family="sans-serif" font-size="14" lengthAdjust="spacing" textLength="61.9951" x="29" y="354.9989">TenantId</text><text fill="#000000" font-family="sans-serif" font-size="14" lengthAdjust="spacing" textLength="86.8984" x="29" y="371.2957">ObjectName</text></g><!--class Fields--><g id="elem_Fields"><rect codeLine="12" fill="#F1F1F1" height="178.375" id="Fields" rx="2.5" ry="2.5" style="stroke:#181818;stroke-width:0.5;" width="193.9992" x="51" y="51.81"/><ellipse cx="123.4366" cy="67.81" fill="#ADD1B2" rx="11" ry="11" style="stroke:#181818;stroke-width:1;"/><path d="M127.546,73.81 L119.8272,73.81 L119.8272,61.4194 L127.546,61.4194 L127.546,63.5756 L122.2804,63.5756 L122.2804,66.2475 L127.046,66.2475 L127.046,68.4038 L122.2804,68.4038 L122.2804,71.6538 L127.546,71.6538 L127.546,73.81 Z " fill="#000000"/><text fill="#000000" font-family="sans-serif" font-size="14" lengthAdjust="spacing" textLength="40.626" x="143.9366" y="72.6567">Fields</text><line style="stroke:#181818;stroke-width:0.5;" x1="52" x2="243.9992" y1="83.81" y2="83.81"/><text fill="#000000" font-family="sans-serif" font-size="14" lengthAdjust="spacing" textLength="181.9992" x="57" y="100.8051">&#12459;&#12473;&#12479;&#12512;&#38917;&#30446;&#29992;&#12398;&#12513;&#12479;&#12487;&#12540;&#12479;</text><line style="stroke:#181818;stroke-width:1;" x1="52" x2="243.9992" y1="108.1069" y2="108.1069"/><text fill="#000000" font-family="sans-serif" font-size="14" lengthAdjust="spacing" textLength="70.2871" x="57" y="125.102">Id(FieldId)</text><text fill="#000000" font-family="sans-serif" font-size="14" lengthAdjust="spacing" textLength="61.9951" x="57" y="141.3989">TenantId</text><text fill="#000000" font-family="sans-serif" font-size="14" lengthAdjust="spacing" textLength="58.6113" x="57" y="157.6957">ObjectId</text><text fill="#000000" font-family="sans-serif" font-size="14" lengthAdjust="spacing" textLength="74.6348" x="57" y="173.9926">FieldName</text><text fill="#000000" font-family="sans-serif" font-size="14" lengthAdjust="spacing" textLength="64.7021" x="57" y="190.2895">Datatype</text><text fill="#000000" font-family="sans-serif" font-size="14" lengthAdjust="spacing" textLength="67.71" x="57" y="206.5864">IsIndexed</text><text fill="#000000" font-family="sans-serif" font-size="14" lengthAdjust="spacing" textLength="66.3154" x="57" y="222.8832">FieldNum</text></g><!--class Data--><g id="elem_Data"><rect codeLine="26" fill="#F1F1F1" height="227.2656" id="Data" rx="2.5" ry="2.5" style="stroke:#181818;stroke-width:0.5;" width="263.9989" x="340" y="42.37"/><ellipse cx="451.0356" cy="58.37" fill="#ADD1B2" rx="11" ry="11" style="stroke:#181818;stroke-width:1;"/><path d="M455.145,64.37 L447.4262,64.37 L447.4262,51.9794 L455.145,51.9794 L455.145,54.1356 L449.8793,54.1356 L449.8793,56.8075 L454.645,56.8075 L454.645,58.9638 L449.8793,58.9638 L449.8793,62.2138 L455.145,62.2138 L455.145,64.37 Z " fill="#000000"/><text fill="#000000" font-family="sans-serif" font-size="14" lengthAdjust="spacing" textLength="33.4277" x="471.5356" y="63.2167">Data</text><line style="stroke:#181818;stroke-width:0.5;" x1="341" x2="602.9989" y1="74.37" y2="74.37"/><text fill="#000000" font-family="sans-serif" font-size="14" lengthAdjust="spacing" textLength="251.9989" x="346" y="91.3651">&#12459;&#12473;&#12479;&#12512;&#12458;&#12502;&#12472;&#12455;&#12463;&#12488;&#12398;&#27083;&#36896;&#21270;&#12487;&#12540;&#12479;&#12434;</text><text fill="#000000" font-family="sans-serif" font-size="14" lengthAdjust="spacing" textLength="209.9991" x="346" y="107.662">&#26684;&#32013;&#12377;&#12427;&#22823;&#23481;&#37327;&#12498;&#12540;&#12503;&#12473;&#12488;&#12524;&#12540;&#12472;</text><line style="stroke:#181818;stroke-width:1;" x1="341" x2="602.9989" y1="114.9638" y2="114.9638"/><text fill="#000000" font-family="sans-serif" font-size="14" lengthAdjust="spacing" textLength="13.0156" x="346" y="131.9589">Id</text><text fill="#000000" font-family="sans-serif" font-size="14" lengthAdjust="spacing" textLength="61.9951" x="346" y="148.2557">TenantId</text><text fill="#000000" font-family="sans-serif" font-size="14" lengthAdjust="spacing" textLength="58.6113" x="346" y="164.5526">ObjectId</text><text fill="#000000" font-family="sans-serif" font-size="14" lengthAdjust="spacing" textLength="41.3027" x="346" y="180.8495">Name</text><text fill="#000000" font-family="sans-serif" font-size="14" lengthAdjust="spacing" textLength="143.3629" x="346" y="197.1464">Value0(&#21487;&#22793;&#38263;&#25991;&#23383;&#21015;)</text><text fill="#000000" font-family="sans-serif" font-size="14" lengthAdjust="spacing" textLength="48.4395" x="346" y="213.4432">Value1</text><text fill="#000000" font-family="sans-serif" font-size="14" lengthAdjust="spacing" textLength="48.4395" x="346" y="229.7401">Value2</text><text fill="#000000" font-family="sans-serif" font-size="14" lengthAdjust="spacing" textLength="48.4395" x="346" y="246.037">Value3</text><text fill="#000000" font-family="sans-serif" font-size="14" lengthAdjust="spacing" textLength="13.3506" x="346" y="262.3339">...</text></g><!--class Clobs--><g id="elem_Clobs"><rect codeLine="40" fill="#F1F1F1" height="80.5938" id="Clobs" rx="2.5" ry="2.5" style="stroke:#181818;stroke-width:0.5;" width="277.9988" x="333" y="304.7"/><ellipse cx="448.5439" cy="320.7" fill="#ADD1B2" rx="11" ry="11" style="stroke:#181818;stroke-width:1;"/><path d="M452.6532,326.7 L444.9345,326.7 L444.9345,314.3094 L452.6532,314.3094 L452.6532,316.4656 L447.3876,316.4656 L447.3876,319.1375 L452.1532,319.1375 L452.1532,321.2938 L447.3876,321.2938 L447.3876,324.5438 L452.6532,324.5438 L452.6532,326.7 Z " fill="#000000"/><text fill="#000000" font-family="sans-serif" font-size="14" lengthAdjust="spacing" textLength="38.4111" x="469.0439" y="325.5467">Clobs</text><line style="stroke:#181818;stroke-width:0.5;" x1="334" x2="609.9988" y1="336.7" y2="336.7"/><text fill="#000000" font-family="sans-serif" font-size="14" lengthAdjust="spacing" textLength="265.9988" x="339" y="353.6951">&#12459;&#12473;&#12479;&#12512;&#12458;&#12502;&#12472;&#12455;&#12463;&#12488;&#12398;&#38750;&#27083;&#36896;&#21270;&#12487;&#12540;&#12479;&#12434;</text><text fill="#000000" font-family="sans-serif" font-size="14" lengthAdjust="spacing" textLength="209.9991" x="339" y="369.992">&#26684;&#32013;&#12377;&#12427;&#22823;&#23481;&#37327;&#12498;&#12540;&#12503;&#12473;&#12488;&#12524;&#12540;&#12472;</text><line style="stroke:#181818;stroke-width:0.5;" x1="334" x2="609.9988" y1="377.2938" y2="377.2938"/></g><!--class Indexes--><g id="elem_Indexes"><rect codeLine="46" fill="#F1F1F1" height="80.5938" id="Indexes" rx="2.5" ry="2.5" style="stroke:#181818;stroke-width:0.5;" width="179.9993" x="671" y="115.7"/><ellipse cx="729.4025" cy="131.7" fill="#ADD1B2" rx="11" ry="11" style="stroke:#181818;stroke-width:1;"/><path d="M733.5118,137.7 L725.7931,137.7 L725.7931,125.3094 L733.5118,125.3094 L733.5118,127.4656 L728.2462,127.4656 L728.2462,130.1375 L733.0118,130.1375 L733.0118,132.2938 L728.2462,132.2938 L728.2462,135.5438 L733.5118,135.5438 L733.5118,137.7 Z " fill="#000000"/><text fill="#000000" font-family="sans-serif" font-size="14" lengthAdjust="spacing" textLength="54.6943" x="749.9025" y="136.5467">Indexes</text><line style="stroke:#181818;stroke-width:0.5;" x1="672" x2="849.9993" y1="147.7" y2="147.7"/><text fill="#000000" font-family="sans-serif" font-size="14" lengthAdjust="spacing" textLength="167.9993" x="677" y="164.6951">&#19968;&#24847;&#12391;&#12394;&#12356;&#12452;&#12531;&#12487;&#12483;&#12463;&#12473;&#12434;</text><text fill="#000000" font-family="sans-serif" font-size="14" lengthAdjust="spacing" textLength="167.9993" x="677" y="180.992">&#26684;&#32013;&#12377;&#12427;&#12500;&#12508;&#12483;&#12488;&#12486;&#12540;&#12502;&#12523;</text><line style="stroke:#181818;stroke-width:0.5;" x1="672" x2="849.9993" y1="188.2938" y2="188.2938"/></g><!--link Objects to Data--><g id="link_Objects_Data"><path codeLine="52" d="M263.46,265.09 C274.81,259.35 286.14,253.58 297,248 C310.83,240.89 319.914,236.1821 334.264,228.6721 " fill="none" id="Objects-to-Data" style="stroke:#181818;stroke-width:1;"/><polygon fill="#181818" points="339.58,225.89,329.7513,226.5192,335.15,228.2084,333.4607,233.6072,339.58,225.89" style="stroke:#181818;stroke-width:1;"/></g><!--link Fields to Data--><g id="link_Fields_Data"><path codeLine="53" d="M245.17,145.48 C274.82,146.86 302.0065,148.1311 333.5965,149.6011 " fill="none" id="Fields-to-Data" style="stroke:#181818;stroke-width:1;"/><polygon fill="#181818" points="339.59,149.88,330.7857,145.466,334.5954,149.6476,330.4138,153.4573,339.59,149.88" style="stroke:#181818;stroke-width:1;"/></g><!--link Clobs to Data--><g id="link_Clobs_Data"><path codeLine="54" d="M472,304.39 C472,292.9 472,287.4 472,275.9 " fill="none" id="Clobs-to-Data" style="stroke:#181818;stroke-width:1;"/><polygon fill="#181818" points="472,269.9,468,278.9,472,274.9,476,278.9,472,269.9" style="stroke:#181818;stroke-width:1;"/></g><!--reverse link Data to Indexes--><g id="link_Data_Indexes"><path codeLine="56" d="M610.32,156 C632.75,156 649.59,156 670.61,156 " fill="none" id="Data-backto-Indexes" style="stroke:#181818;stroke-width:1;"/><polygon fill="#181818" points="604.32,156,613.32,160,609.32,156,613.32,152,604.32,156" style="stroke:#181818;stroke-width:1;"/></g><!--SRC=[hLJDIm915B_lNx77EgpqSUzI11xwE4YdBcixsSQwApf64e8xKsbO255Az861O6ZPeI05eJ_cjSh-5ytCwkf6WK832-_zzht7x_tUcp7GBfQn9IVrs1wMDJs9Th1kcPB43TMC6KXUGrZLLAn6r2ZpZYIP7MHY7MVaZUW-2qiDG7w0D85qW7m2hG9f02q3QGEf0ta5MkXVFO7T0lee0l90kypmSnL5yUsmDkCL3skpFXX1fceon0Uya7KrZWIKbSR9hUh8qFxYvbPF-hUjgVY8UXFG6GD4Ya-FdnKc9CuaHa0u5JOrT8X-9gNZNaliaxBZun0L-2W2a-3en6DWFVVgHJTNTSxBVjj0BhVDNhNRVxy0-mP8qQdLdLR7pPU0Nl8GMk4bMJPz5XdjFuIQGf-0D5kgaKPpCqxfrQcTkTSVlNBUUQauXSfiC6G-w2u4tKNV3OL2lsp5ic55KzCevTu__9jOsU0eDtNhmCA_t2lPsubndb_jNE-u17OTx0ROnq1gGDy47ygfyXP-K09w1VIE_-SqJWKhra5pn4GQtbz5MH8R90tkZEzxQYdYTHXYqf2SaauCi6y0]--></g></svg>