<svg xmlns="http://www.w3.org/2000/svg" xmlns:xlink="http://www.w3.org/1999/xlink" contentStyleType="text/css" data-diagram-type="DESCRIPTION" height="182px" preserveAspectRatio="none" style="width:529px;height:182px;background:#FFFFFF;" version="1.1" viewBox="0 0 529 182" width="529px" zoomAndPan="magnify"><defs/><g><!--entity reviewer--><g id="elem_reviewer"><rect fill="#F1F1F1" height="36.2969" rx="2.5" ry="2.5" style="stroke:#181818;stroke-width:0.5;" width="147.8594" x="202.24" y="7"/><text fill="#000000" font-family="sans-serif" font-size="14" lengthAdjust="spacing" textLength="127.8594" x="212.24" y="29.9951">CodeReviewAgent</text></g><!--entity security--><g id="elem_security"><path d="M6,130.29 C6,120.29 88.1704,120.29 88.1704,120.29 C88.1704,120.29 170.3408,120.29 170.3408,130.29 L170.3408,155.5869 C170.3408,165.5869 88.1704,165.5869 88.1704,165.5869 C88.1704,165.5869 6,165.5869 6,155.5869 L6,130.29 " fill="#F1F1F1" style="stroke:#181818;stroke-width:0.5;"/><path d="M6,130.29 C6,140.29 88.1704,140.29 88.1704,140.29 C88.1704,140.29 170.3408,140.29 170.3408,130.29 " fill="none" style="stroke:#181818;stroke-width:0.5;"/><text fill="#000000" font-family="sans-serif" font-size="14" lengthAdjust="spacing" textLength="144.3408" x="16" y="157.2851">SecurityScannerTool</text></g><!--entity style--><g id="elem_style"><path d="M205.08,130.29 C205.08,120.29 276.1659,120.29 276.1659,120.29 C276.1659,120.29 347.2519,120.29 347.2519,130.29 L347.2519,155.5869 C347.2519,165.5869 276.1659,165.5869 276.1659,165.5869 C276.1659,165.5869 205.08,165.5869 205.08,155.5869 L205.08,130.29 " fill="#F1F1F1" style="stroke:#181818;stroke-width:0.5;"/><path d="M205.08,130.29 C205.08,140.29 276.1659,140.29 276.1659,140.29 C276.1659,140.29 347.2519,140.29 347.2519,130.29 " fill="none" style="stroke:#181818;stroke-width:0.5;"/><text fill="#000000" font-family="sans-serif" font-size="14" lengthAdjust="spacing" textLength="122.1719" x="215.08" y="157.2851">StyleCheckerTool</text></g><!--entity tests--><g id="elem_tests"><path d="M382.05,130.29 C382.05,120.29 447.1682,120.29 447.1682,120.29 C447.1682,120.29 512.2863,120.29 512.2863,130.29 L512.2863,155.5869 C512.2863,165.5869 447.1682,165.5869 447.1682,165.5869 C447.1682,165.5869 382.05,165.5869 382.05,155.5869 L382.05,130.29 " fill="#F1F1F1" style="stroke:#181818;stroke-width:0.5;"/><path d="M382.05,130.29 C382.05,140.29 447.1682,140.29 447.1682,140.29 C447.1682,140.29 512.2863,140.29 512.2863,130.29 " fill="none" style="stroke:#181818;stroke-width:0.5;"/><text fill="#000000" font-family="sans-serif" font-size="14" lengthAdjust="spacing" textLength="110.2363" x="392.05" y="157.2851">TestRunnerTool</text></g><!--link reviewer to security--><g id="link_reviewer_security"><path d="M247.62,43.73 C214.54,64.1 165.109,94.5538 129.189,116.6738 " fill="none" id="reviewer-to-security" style="stroke:#181818;stroke-width:1;"/><polygon fill="#181818" points="124.08,119.82,133.8409,118.5067,128.3375,117.1982,129.646,111.6948,124.08,119.82" style="stroke:#181818;stroke-width:1;"/><text fill="#000000" font-family="sans-serif" font-size="13" lengthAdjust="spacing" textLength="29.7832" x="200.17" y="86.3569">uses</text></g><!--link reviewer to style--><g id="link_reviewer_style"><path d="M276.17,43.73 C276.17,64.1 276.17,91.7 276.17,113.82 " fill="none" id="reviewer-to-style" style="stroke:#181818;stroke-width:1;"/><polygon fill="#181818" points="276.17,119.82,280.17,110.82,276.17,114.82,272.17,110.82,276.17,119.82" style="stroke:#181818;stroke-width:1;"/><text fill="#000000" font-family="sans-serif" font-size="13" lengthAdjust="spacing" textLength="29.7832" x="277.17" y="86.3569">uses</text></g><!--link reviewer to tests--><g id="link_reviewer_tests"><path d="M302.14,43.73 C332.23,64.1 376.8612,94.3368 409.5412,116.4568 " fill="none" id="reviewer-to-tests" style="stroke:#181818;stroke-width:1;"/><polygon fill="#181818" points="414.51,119.82,409.299,111.4627,410.3693,117.0173,404.8147,118.0877,414.51,119.82" style="stroke:#181818;stroke-width:1;"/><text fill="#000000" font-family="sans-serif" font-size="13" lengthAdjust="spacing" textLength="29.7832" x="367.17" y="86.3569">uses</text></g><!--SRC=[ROt13OCm34NlcS8Bi40FI1KR00kuuOkYHebaEwtOlWs2Dgeu-lsdPu4tZdC0TMb2Z-U2rtL6D68bsKw8czZunWeQuBCijWwUOuICAOKYweuhqTQ0xWx_gAp2Vie8jJxN6ViGTUvuIqtJVjDqeQpGlx4KJvSjjIzl]--></g></svg>