<svg xmlns="http://www.w3.org/2000/svg" xmlns:xlink="http://www.w3.org/1999/xlink" contentStyleType="text/css" data-diagram-type="SEQUENCE" height="441px" preserveAspectRatio="none" style="width:734px;height:441px;background:#FFFFFF;" version="1.1" viewBox="0 0 734 441" width="734px" zoomAndPan="magnify"><defs/><g><line style="stroke:#181818;stroke-width:0.5;stroke-dasharray:5.0,5.0;" x1="23" x2="23" y1="81.2969" y2="360.3594"/><line style="stroke:#181818;stroke-width:0.5;stroke-dasharray:5.0,5.0;" x1="164.0133" x2="164.0133" y1="81.2969" y2="360.3594"/><line style="stroke:#181818;stroke-width:0.5;stroke-dasharray:5.0,5.0;" x1="307.9202" x2="307.9202" y1="81.2969" y2="360.3594"/><line style="stroke:#181818;stroke-width:0.5;stroke-dasharray:5.0,5.0;" x1="543.1423" x2="543.1423" y1="81.2969" y2="360.3594"/><line style="stroke:#181818;stroke-width:0.5;stroke-dasharray:5.0,5.0;" x1="683.787" x2="683.787" y1="81.2969" y2="360.3594"/><text fill="#000000" font-family="sans-serif" font-size="14" lengthAdjust="spacing" textLength="31.9102" x="5" y="77.9951">User</text><ellipse cx="23.9551" cy="13.5" fill="#E2E2F0" rx="8" ry="8" style="stroke:#181818;stroke-width:0.5;"/><path d="M23.9551,21.5 L23.9551,48.5 M10.9551,29.5 L36.9551,29.5 M23.9551,48.5 L10.9551,63.5 M23.9551,48.5 L36.9551,63.5 " fill="none" style="stroke:#181818;stroke-width:0.5;"/><text fill="#000000" font-family="sans-serif" font-size="14" lengthAdjust="spacing" textLength="31.9102" x="5" y="372.3545">User</text><ellipse cx="23.9551" cy="384.1563" fill="#E2E2F0" rx="8" ry="8" style="stroke:#181818;stroke-width:0.5;"/><path d="M23.9551,392.1563 L23.9551,419.1563 M10.9551,400.1563 L36.9551,400.1563 M23.9551,419.1563 L10.9551,434.1563 M23.9551,419.1563 L36.9551,434.1563 " fill="none" style="stroke:#181818;stroke-width:0.5;"/><rect fill="#E2E2F0" height="30.2969" rx="2.5" ry="2.5" style="stroke:#181818;stroke-width:0.5;" width="111.8838" x="109.0133" y="50"/><text fill="#000000" font-family="sans-serif" font-size="14" lengthAdjust="spacing" textLength="97.8838" x="116.0133" y="69.9951">Settings Form</text><rect fill="#E2E2F0" height="30.2969" rx="2.5" ry="2.5" style="stroke:#181818;stroke-width:0.5;" width="111.8838" x="109.0133" y="359.3594"/><text fill="#000000" font-family="sans-serif" font-size="14" lengthAdjust="spacing" textLength="97.8838" x="116.0133" y="379.3545">Settings Form</text><rect fill="#E2E2F0" height="30.2969" rx="2.5" ry="2.5" style="stroke:#181818;stroke-width:0.5;" width="125.6514" x="245.9202" y="50"/><text fill="#000000" font-family="sans-serif" font-size="14" lengthAdjust="spacing" textLength="111.6514" x="252.9202" y="69.9951">Frontend Action</text><rect fill="#E2E2F0" height="30.2969" rx="2.5" ry="2.5" style="stroke:#181818;stroke-width:0.5;" width="125.6514" x="245.9202" y="359.3594"/><text fill="#000000" font-family="sans-serif" font-size="14" lengthAdjust="spacing" textLength="111.6514" x="252.9202" y="379.3545">Frontend Action</text><rect fill="#E2E2F0" height="30.2969" rx="2.5" ry="2.5" style="stroke:#181818;stroke-width:0.5;" width="102.3613" x="492.1423" y="50"/><text fill="#000000" font-family="sans-serif" font-size="14" lengthAdjust="spacing" textLength="88.3613" x="499.1423" y="69.9951">GraphQL API</text><rect fill="#E2E2F0" height="30.2969" rx="2.5" ry="2.5" style="stroke:#181818;stroke-width:0.5;" width="102.3613" x="492.1423" y="359.3594"/><text fill="#000000" font-family="sans-serif" font-size="14" lengthAdjust="spacing" textLength="88.3613" x="499.1423" y="379.3545">GraphQL API</text><rect fill="#E2E2F0" height="30.2969" rx="2.5" ry="2.5" style="stroke:#181818;stroke-width:0.5;" width="89.0723" x="639.787" y="50"/><text fill="#000000" font-family="sans-serif" font-size="14" lengthAdjust="spacing" textLength="75.0723" x="646.787" y="69.9951">Repository</text><rect fill="#E2E2F0" height="30.2969" rx="2.5" ry="2.5" style="stroke:#181818;stroke-width:0.5;" width="89.0723" x="639.787" y="359.3594"/><text fill="#000000" font-family="sans-serif" font-size="14" lengthAdjust="spacing" textLength="75.0723" x="646.787" y="379.3545">Repository</text><polygon fill="#181818" points="152.9552,108.4297,162.9552,112.4297,152.9552,116.4297,156.9552,112.4297" style="stroke:#181818;stroke-width:1;"/><line style="stroke:#181818;stroke-width:1;" x1="23.9551" x2="158.9552" y1="112.4297" y2="112.4297"/><text fill="#000000" font-family="sans-serif" font-size="13" lengthAdjust="spacing" textLength="117.0001" x="30.9551" y="107.3638">&#12518;&#12540;&#12470;&#12540;&#12493;&#12540;&#12512;&#22793;&#26356;</text><line style="stroke:#181818;stroke-width:1;" x1="164.9552" x2="206.9552" y1="141.5625" y2="141.5625"/><line style="stroke:#181818;stroke-width:1;" x1="206.9552" x2="206.9552" y1="141.5625" y2="154.5625"/><line style="stroke:#181818;stroke-width:1;" x1="165.9552" x2="206.9552" y1="154.5625" y2="154.5625"/><polygon fill="#181818" points="175.9552,150.5625,165.9552,154.5625,175.9552,158.5625,171.9552,154.5625" style="stroke:#181818;stroke-width:1;"/><text fill="#000000" font-family="sans-serif" font-size="13" lengthAdjust="spacing" textLength="91.0001" x="171.9552" y="136.4966">&#12496;&#12522;&#12487;&#12540;&#12471;&#12519;&#12531;</text><polygon fill="#181818" points="296.7459,179.6953,306.7459,183.6953,296.7459,187.6953,300.7459,183.6953" style="stroke:#181818;stroke-width:1;"/><line style="stroke:#181818;stroke-width:1;" x1="164.9552" x2="302.7459" y1="183.6953" y2="183.6953"/><text fill="#000000" font-family="sans-serif" font-size="13" lengthAdjust="spacing" textLength="91.0001" x="171.9552" y="178.6294">&#22793;&#26356;&#12522;&#12463;&#12456;&#12473;&#12488;</text><polygon fill="#181818" points="531.323,208.8281,541.323,212.8281,531.323,216.8281,535.323,212.8281" style="stroke:#181818;stroke-width:1;"/><line style="stroke:#181818;stroke-width:1;" x1="308.7459" x2="537.323" y1="212.8281" y2="212.8281"/><text fill="#000000" font-family="sans-serif" font-size="13" lengthAdjust="spacing" textLength="210.5771" x="315.7459" y="207.7622">changeRepoUsername mutation</text><polygon fill="#181818" points="672.3232,237.9609,682.3232,241.9609,672.3232,245.9609,676.3232,241.9609" style="stroke:#181818;stroke-width:1;"/><line style="stroke:#181818;stroke-width:1;" x1="543.323" x2="678.3232" y1="241.9609" y2="241.9609"/><text fill="#000000" font-family="sans-serif" font-size="13" lengthAdjust="spacing" textLength="117.0001" x="550.323" y="236.895">&#12518;&#12540;&#12470;&#12540;&#12493;&#12540;&#12512;&#26356;&#26032;</text><polygon fill="#181818" points="319.7459,267.0938,309.7459,271.0938,319.7459,275.0938,315.7459,271.0938" style="stroke:#181818;stroke-width:1;"/><line style="stroke:#181818;stroke-width:1;stroke-dasharray:2.0,2.0;" x1="313.7459" x2="542.323" y1="271.0938" y2="271.0938"/><text fill="#000000" font-family="sans-serif" font-size="13" lengthAdjust="spacing" textLength="52.0001" x="325.7459" y="266.0278">&#26356;&#26032;&#23436;&#20102;</text><polygon fill="#181818" points="175.9552,296.2266,165.9552,300.2266,175.9552,304.2266,171.9552,300.2266" style="stroke:#181818;stroke-width:1;"/><line style="stroke:#181818;stroke-width:1;stroke-dasharray:2.0,2.0;" x1="169.9552" x2="307.7459" y1="300.2266" y2="300.2266"/><text fill="#000000" font-family="sans-serif" font-size="13" lengthAdjust="spacing" textLength="91.0001" x="181.9552" y="295.1606">&#25104;&#21151;&#12524;&#12473;&#12509;&#12531;&#12473;</text><line style="stroke:#181818;stroke-width:1;" x1="164.9552" x2="206.9552" y1="329.3594" y2="329.3594"/><line style="stroke:#181818;stroke-width:1;" x1="206.9552" x2="206.9552" y1="329.3594" y2="342.3594"/><line style="stroke:#181818;stroke-width:1;" x1="165.9552" x2="206.9552" y1="342.3594" y2="342.3594"/><polygon fill="#181818" points="175.9552,338.3594,165.9552,342.3594,175.9552,346.3594,171.9552,342.3594" style="stroke:#181818;stroke-width:1;"/><text fill="#000000" font-family="sans-serif" font-size="13" lengthAdjust="spacing" textLength="129.7906" x="171.9552" y="324.2935">&#26032;URL&#12408;&#12522;&#12480;&#12452;&#12524;&#12463;&#12488;</text><!--SRC=[TO_FIWCn48VlUOgXTrzW3q8lbOKUraeV8AoXpM6J9HiFtZI1MaMX9oyYUYWg8bPGr8flC-u-X_a3IrVm4YQPRpBVZ-PQAXXNJ96IAirpNbAXeRV7jEPYKi50gg87D1PTPg2aq4piGp_NN8f0nRBBxIXQJdU7qC_Io6Hf5nYnKbRSYHo6lhyIufrWQpliJG3j7TflDE_-j1VXlAsNfytL6_749hb0-uZs9F0VQE_HlhPCz4iWZdhGhD0ye5cZdPFO3LoM9f1FgPWmh-Db12qO50UQXeGEy9nl_cFd_cykNoAuiJa-ry_dFr-pTc5htymNzTaDsgTWTEtKNV4deHiVZuPu_1bo7g5P1dxb4lm2]--></g></svg>