<svg xmlns="http://www.w3.org/2000/svg" xmlns:xlink="http://www.w3.org/1999/xlink" contentStyleType="text/css" data-diagram-type="DESCRIPTION" height="182px" preserveAspectRatio="none" style="width:234px;height:182px;background:#FFFFFF;" version="1.1" viewBox="0 0 234 182" width="234px" zoomAndPan="magnify"><defs/><g><!--entity agent--><g id="elem_agent"><rect fill="#F1F1F1" height="36.2969" rx="2.5" ry="2.5" style="stroke:#181818;stroke-width:0.5;" width="61.4395" x="99.9" y="7"/><text fill="#000000" font-family="sans-serif" font-size="14" lengthAdjust="spacing" textLength="41.4395" x="109.9" y="29.9951">Agent</text></g><!--entity multi_tool_agent--><g id="elem_multi_tool_agent"><rect fill="#F1F1F1" height="36.2969" rx="2.5" ry="2.5" style="stroke:#181818;stroke-width:0.5;" width="125.2324" x="7" y="124.79"/><text fill="#000000" font-family="sans-serif" font-size="14" lengthAdjust="spacing" textLength="105.2324" x="17" y="147.7851">MultiToolAgent</text></g><!--entity tool--><g id="elem_tool"><path d="M167.83,130.29 C167.83,120.29 192.6161,120.29 192.6161,120.29 C192.6161,120.29 217.4023,120.29 217.4023,130.29 L217.4023,155.5869 C217.4023,165.5869 192.6161,165.5869 192.6161,165.5869 C192.6161,165.5869 167.83,165.5869 167.83,155.5869 L167.83,130.29 " fill="#F1F1F1" style="stroke:#181818;stroke-width:0.5;"/><path d="M167.83,130.29 C167.83,140.29 192.6161,140.29 192.6161,140.29 C192.6161,140.29 217.4023,140.29 217.4023,130.29 " fill="none" style="stroke:#181818;stroke-width:0.5;"/><text fill="#000000" font-family="sans-serif" font-size="14" lengthAdjust="spacing" textLength="29.5723" x="177.83" y="157.2851">Tool</text></g><!--link agent to tool--><g id="link_agent_tool"><path d="M140.03,43.73 C150.94,64.1 166.0985,92.4101 177.9385,114.5301 " fill="none" id="agent-to-tool" style="stroke:#181818;stroke-width:1;"/><polygon fill="#181818" points="180.77,119.82,180.0494,109.9975,178.4104,115.4118,172.9962,113.7728,180.77,119.82" style="stroke:#181818;stroke-width:1;"/><text fill="#000000" font-family="sans-serif" font-size="13" lengthAdjust="spacing" textLength="29.7832" x="163.62" y="86.3569">uses</text></g><!--link agent to multi_tool_agent--><g id="link_agent_multi_tool_agent"><path d="M99.6,40.82 C86.94,48.56 73.65,59.37 66.62,73.29 C58.6,89.16 59.5785,103.9642 62.9285,118.4542 " fill="none" id="agent-to-multi_tool_agent" style="stroke:#181818;stroke-width:1;stroke-dasharray:7.0,7.0;"/><polygon fill="#181818" points="64.28,124.3,66.1499,114.6303,63.1537,119.4285,58.3555,116.4323,64.28,124.3" style="stroke:#181818;stroke-width:1;"/><text fill="#000000" font-family="sans-serif" font-size="13" lengthAdjust="spacing" textLength="81.1294" x="67.62" y="86.3569">delegates to</text></g><!--SRC=[POmn3e0W34LtJj4Bm04SI3o0cpkfqX0JX0JA_QLeMDpQzrv-ePCnXKYm1aeCM07bK6MAhKM-zfpZB6uXZZjoR-oHyS1A89aKufGQ4hIsuuS5MgNwKMFiRwSNdY85P9A91m00]--></g></svg>