<?xml version="1.0" encoding="us-ascii" standalone="no"?><svg xmlns="http://www.w3.org/2000/svg" xmlns:xlink="http://www.w3.org/1999/xlink" contentStyleType="text/css" height="449px" preserveAspectRatio="none" style="width:360px;height:449px;background:#FFFFFF;" version="1.1" viewBox="0 0 360 449" width="360px" zoomAndPan="magnify"><defs/><g><!--cluster database action--><g id="cluster_database action"><rect fill="none" height="436" rx="2.5" ry="2.5" style="stroke:#181818;stroke-width:1.0;" width="223" x="131" y="7"/><text fill="#000000" font-family="sans-serif" font-size="14" font-weight="bold" lengthAdjust="spacing" textLength="133" x="176" y="21.9951">database action</text></g><g id="elem_create_database"><ellipse cx="242.3963" cy="57.7793" fill="#F1F1F1" rx="64.3963" ry="15.2793" style="stroke:#181818;stroke-width:0.5;"/><text fill="#000000" font-family="sans-serif" font-size="14" lengthAdjust="spacing" textLength="77" x="200.8963" y="61.5268">&#26032;&#35215;DB&#20316;&#25104;</text></g><g id="elem_add_property"><ellipse cx="242.4293" cy="125.7859" fill="#F1F1F1" rx="71.9293" ry="16.7859" style="stroke:#181818;stroke-width:0.5;"/><text fill="#000000" font-family="sans-serif" font-size="14" lengthAdjust="spacing" textLength="98" x="190.4293" y="129.5334">&#12503;&#12525;&#12497;&#12486;&#12451;&#36861;&#21152;</text></g><g id="elem_choose_property_type"><ellipse cx="242.7318" cy="198.2464" fill="#F1F1F1" rx="89.2318" ry="20.2464" style="stroke:#181818;stroke-width:0.5;"/><text fill="#000000" font-family="sans-serif" font-size="14" lengthAdjust="spacing" textLength="140" x="172.7318" y="201.093">&#12503;&#12525;&#12497;&#12486;&#12451;&#12479;&#12452;&#12503;&#36984;&#25246;</text></g><g id="elem_get_database_definition"><ellipse cx="242.4604" cy="274.9921" fill="#F1F1F1" rx="95.4604" ry="21.4921" style="stroke:#181818;stroke-width:0.5;"/><text fill="#000000" font-family="sans-serif" font-size="14" lengthAdjust="spacing" textLength="154" x="165.4604" y="277.8388">&#12487;&#12540;&#12479;&#12505;&#12540;&#12473;&#23450;&#32681;&#12434;&#35211;&#12427;</text></g><g id="elem_add_data"><ellipse cx="242.5868" cy="346.8174" fill="#F1F1F1" rx="62.0868" ry="14.8174" style="stroke:#181818;stroke-width:0.5;"/><text fill="#000000" font-family="sans-serif" font-size="14" lengthAdjust="spacing" textLength="70" x="204.5868" y="350.5649">&#12487;&#12540;&#12479;&#36861;&#21152;</text></g><g id="elem_update_data"><ellipse cx="242.5868" cy="411.8174" fill="#F1F1F1" rx="62.0868" ry="14.8174" style="stroke:#181818;stroke-width:0.5;"/><text fill="#000000" font-family="sans-serif" font-size="14" lengthAdjust="spacing" textLength="70" x="204.5868" y="415.5649">&#12487;&#12540;&#12479;&#26356;&#26032;</text></g><!--entity user--><g id="elem_user"><ellipse cx="46.5" cy="176" fill="#F1F1F1" rx="16" ry="16" style="stroke:#181818;stroke-width:1.5;"/><path d="M46.5,196 C50.5,196 53.5,196 57.5,192 C65.5,192 73.5,200 73.5,208 L73.5,212 C73.5,216 69.5,220 65.5,220 L27.5,220 C23.5,220 19.5,216 19.5,212 L19.5,208 C19.5,200 27.5,192 35.5,192 C39.5,196 42.5,196 46.5,196 " fill="#F1F1F1" style="stroke:#181818;stroke-width:1.5;"/><text fill="#000000" font-family="sans-serif" font-size="14" lengthAdjust="spacing" textLength="30" x="31.5" y="234.4951">user</text></g><!--entity application--><g id="elem_application"><ellipse cx="46.5" cy="62" fill="#F1F1F1" rx="16" ry="16" style="stroke:#181818;stroke-width:1.5;"/><path d="M46.5,82 C50.5,82 53.5,82 57.5,78 C65.5,78 73.5,86 73.5,94 L73.5,98 C73.5,102 69.5,106 65.5,106 L27.5,106 C23.5,106 19.5,102 19.5,98 L19.5,94 C19.5,86 27.5,78 35.5,78 C39.5,82 42.5,82 46.5,82 " fill="#F1F1F1" style="stroke:#181818;stroke-width:1.5;"/><text fill="#000000" font-family="sans-serif" font-size="14" lengthAdjust="spacing" textLength="81" x="6" y="120.4951">application</text></g><!--link user to create_database--><g id="link_user_create_database"><path d="M74.9267,158.488 C95.8069,128.509 121.264,92.224 123,91 C141.328,78.082 158.7071,71.5426 179.7321,66.7496 " fill="none" id="user-to-create_database" style="stroke:#181818;stroke-width:1.0;"/><polygon fill="#181818" points="185.582,65.416,175.9181,63.5164,180.7071,66.5273,177.6962,71.3163,185.582,65.416" style="stroke:#181818;stroke-width:1.0;"/></g><!--link user to add_property--><g id="link_user_add_property"><path d="M75.2525,182.465 C89.28,175.019 106.737,166.361 123,160 C145.025,151.385 164.3208,145.4301 185.7258,139.6741 " fill="none" id="user-to-add_property" style="stroke:#181818;stroke-width:1.0;"/><polygon fill="#181818" points="191.52,138.116,181.79,136.5904,186.6915,139.4144,183.8675,144.3159,191.52,138.116" style="stroke:#181818;stroke-width:1.0;"/></g><!--link user to choose_property_type--><g id="link_user_choose_property_type"><path d="M75.2955,198 C95.8306,198 119,198 147.184,198 " fill="none" id="user-to-choose_property_type" style="stroke:#181818;stroke-width:1.0;"/><polygon fill="#181818" points="153.184,198,144.184,194,148.184,198,144.184,202,153.184,198" style="stroke:#181818;stroke-width:1.0;"/></g><!--link user to add_data--><g id="link_user_add_data"><path d="M64.2047,237.553 C76.841,262.913 96.5496,294.605 123,314 C141.514,327.575 159.5133,334.2836 180.9663,338.9886 " fill="none" id="user-to-add_data" style="stroke:#181818;stroke-width:1.0;"/><polygon fill="#181818" points="186.827,340.274,178.8928,334.4388,181.9431,339.2029,177.179,342.2531,186.827,340.274" style="stroke:#181818;stroke-width:1.0;"/></g><!--link user to update_data--><g id="link_user_update_data"><path d="M53.6856,237.758 C62.1727,278.923 81.4086,342.255 123,379 C139.885,393.9171 157.1083,400.9 178.4253,405.4172 " fill="none" id="user-to-update_data" style="stroke:#181818;stroke-width:1.0;"/><polygon fill="#181818" points="184.295,406.661,176.3197,400.8822,179.4036,405.6245,174.6613,408.7084,184.295,406.661" style="stroke:#181818;stroke-width:1.0;"/></g><!--SRC=[VP7FIiD04CRl-nHBxdq53-8R-01XJARfOffTDbkaY0UpeD8U_7DG_8C8Ii63ui63WcqVPcsCR-4ciQc9rJqDCz_lc-7RU9D50YHqANYAotNL3v725iQyYoJ4jgAAKyc2Zg8-a-WfnYD22YtjnIY_In0YP1wKqrm6KM2D71yKR42CkRkTENIRKFiiwULT9przoaQ7QwlluwlquCYX45DF8YXqvsHTR_IPqGz67nkzPvBRR3gU3MuA37pV5P8BbAh_BsEIgKdkRFDpzoKTN9SxEvp7MF6kwejVY_UDVijPVLuKhxF7Yu_9lKbEij7G9CF29q1L7Uxws6OHAoDPxjKuFoV_KAQNppQgGjaJ_ZmViaD8_WcqrLffvaORRo6i9RN0bqLGOugDLUV76Ly0]--></g></svg>