<svg xmlns="http://www.w3.org/2000/svg" xmlns:xlink="http://www.w3.org/1999/xlink" contentStyleType="text/css" data-diagram-type="DESCRIPTION" height="183px" preserveAspectRatio="none" style="width:970px;height:183px;background:#FFFFFF;" version="1.1" viewBox="0 0 970 183" width="970px" zoomAndPan="magnify"><defs/><g><!--cluster Tachyon Apps--><g id="cluster_Tachyon Apps"><path d="M8.5,6 L119.5586,6 A3.75,3.75 0 0 1 122.0586,8.5 L129.0586,28.2969 L961.17,28.2969 A2.5,2.5 0 0 1 963.67,30.7969 L963.67,173.5 A2.5,2.5 0 0 1 961.17,176 L8.5,176 A2.5,2.5 0 0 1 6,173.5 L6,8.5 A2.5,2.5 0 0 1 8.5,6 " fill="none" style="stroke:#000000;stroke-width:1.5;"/><line style="stroke:#000000;stroke-width:1.5;" x1="6" x2="129.0586" y1="28.2969" y2="28.2969"/><text fill="#000000" font-family="sans-serif" font-size="14" font-weight="bold" lengthAdjust="spacing" textLength="110.0586" x="10" y="20.9951">Tachyon Apps</text></g><!--cluster Slack Provider--><g id="cluster_Slack Provider"><path d="M32.5,49 L147.4414,49 A3.75,3.75 0 0 1 149.9414,51.5 L156.9414,71.2969 L937.17,71.2969 A2.5,2.5 0 0 1 939.67,73.7969 L939.67,149.5 A2.5,2.5 0 0 1 937.17,152 L32.5,152 A2.5,2.5 0 0 1 30,149.5 L30,51.5 A2.5,2.5 0 0 1 32.5,49 " fill="none" style="stroke:#000000;stroke-width:1.5;"/><line style="stroke:#000000;stroke-width:1.5;" x1="30" x2="156.9414" y1="71.2969" y2="71.2969"/><text fill="#000000" font-family="sans-serif" font-size="14" font-weight="bold" lengthAdjust="spacing" textLength="113.9414" x="34" y="63.9951">Slack Provider</text></g><!--entity api--><g id="elem_api"><rect fill="#F1F1F1" height="46.2969" rx="2.5" ry="2.5" style="stroke:#181818;stroke-width:0.5;" width="128.4434" x="46" y="83.85"/><rect fill="#F1F1F1" height="10" style="stroke:#181818;stroke-width:0.5;" width="15" x="154.4434" y="88.85"/><rect fill="#F1F1F1" height="2" style="stroke:#181818;stroke-width:0.5;" width="4" x="152.4434" y="90.85"/><rect fill="#F1F1F1" height="2" style="stroke:#181818;stroke-width:0.5;" width="4" x="152.4434" y="94.85"/><text fill="#000000" font-family="sans-serif" font-size="14" lengthAdjust="spacing" textLength="88.4434" x="61" y="116.8451">API Gateway</text></g><!--entity event--><g id="elem_event"><rect fill="#F1F1F1" height="46.2969" rx="2.5" ry="2.5" style="stroke:#181818;stroke-width:0.5;" width="139.6816" x="296.44" y="83.85"/><rect fill="#F1F1F1" height="10" style="stroke:#181818;stroke-width:0.5;" width="15" x="416.1216" y="88.85"/><rect fill="#F1F1F1" height="2" style="stroke:#181818;stroke-width:0.5;" width="4" x="414.1216" y="90.85"/><rect fill="#F1F1F1" height="2" style="stroke:#181818;stroke-width:0.5;" width="4" x="414.1216" y="94.85"/><text fill="#000000" font-family="sans-serif" font-size="14" lengthAdjust="spacing" textLength="99.6816" x="311.44" y="116.8451">Event Handler</text></g><!--entity slack--><g id="elem_slack"><rect fill="#F1F1F1" height="46.2969" rx="2.5" ry="2.5" style="stroke:#181818;stroke-width:0.5;" width="148.7393" x="557.13" y="83.85"/><rect fill="#F1F1F1" height="10" style="stroke:#181818;stroke-width:0.5;" width="15" x="685.8693" y="88.85"/><rect fill="#F1F1F1" height="2" style="stroke:#181818;stroke-width:0.5;" width="4" x="683.8693" y="90.85"/><rect fill="#F1F1F1" height="2" style="stroke:#181818;stroke-width:0.5;" width="4" x="683.8693" y="94.85"/><text fill="#000000" font-family="sans-serif" font-size="14" lengthAdjust="spacing" textLength="108.7393" x="572.13" y="116.8451">Slack API Client</text></g><!--entity db--><g id="elem_db"><path d="M836.86,94.35 C836.86,84.35 880.2604,84.35 880.2604,84.35 C880.2604,84.35 923.6608,84.35 923.6608,94.35 L923.6608,119.6469 C923.6608,129.6469 880.2604,129.6469 880.2604,129.6469 C880.2604,129.6469 836.86,129.6469 836.86,119.6469 L836.86,94.35 " fill="#F1F1F1" style="stroke:#181818;stroke-width:0.5;"/><path d="M836.86,94.35 C836.86,104.35 880.2604,104.35 880.2604,104.35 C880.2604,104.35 923.6608,104.35 923.6608,94.35 " fill="none" style="stroke:#181818;stroke-width:0.5;"/><text fill="#000000" font-family="sans-serif" font-size="14" lengthAdjust="spacing" textLength="66.8008" x="846.86" y="121.3451">Database</text></g><!--link api to event--><g id="link_api_event"><path d="M174.68,107 C211.57,107 252.1,107 289.95,107 " fill="none" id="api-to-event" style="stroke:#181818;stroke-width:1;"/><polygon fill="#181818" points="295.95,107,286.95,103,290.95,107,286.95,111,295.95,107" style="stroke:#181818;stroke-width:1;"/><text fill="#000000" font-family="sans-serif" font-size="13" lengthAdjust="spacing" textLength="60.7788" x="205.44" y="103.0669">Webhook</text></g><!--link event to slack--><g id="link_event_slack"><path d="M436.44,107 C473.45,107 513.04,107 550.73,107 " fill="none" id="event-to-slack" style="stroke:#181818;stroke-width:1;"/><polygon fill="#181818" points="556.73,107,547.73,103,551.73,107,547.73,111,556.73,107" style="stroke:#181818;stroke-width:1;"/><text fill="#000000" font-family="sans-serif" font-size="13" lengthAdjust="spacing" textLength="59.2046" x="467.13" y="103.0669">Slack API</text></g><!--link slack to db--><g id="link_slack_db"><path d="M706.2,107 C748.66,107 794.55,107 830.38,107 " fill="none" id="slack-to-db" style="stroke:#181818;stroke-width:1;"/><polygon fill="#181818" points="836.38,107,827.38,103,831.38,107,827.38,111,836.38,107" style="stroke:#181818;stroke-width:1;"/><text fill="#000000" font-family="sans-serif" font-size="13" lengthAdjust="spacing" textLength="69.8179" x="736.86" y="103.0669">Data Store</text></g><!--SRC=[FSr12i8m40NGVKxnwRuNS268YhehL70XBgRDs8Q69YIXKgHtDscakyb_ap-Qtm71mAck3v3ASHkK6OMbTg2EKTofxMSpuc2jB_0Lm4QrZXCgPoObsMK4deVgXWi5_j3y0dcGLHdE4uy1LngbPhSIfoHZBaj_Zrh5T7MVmjKb1Mh8nwkd_rIa1Tb4NSGYHBo2ijpdIkpmuAOtPX3vdMGjYx9T4Zb99fi8gHbrC8v_]--></g></svg>