<svg xmlns="http://www.w3.org/2000/svg" xmlns:xlink="http://www.w3.org/1999/xlink" contentStyleType="text/css" data-diagram-type="CLASS" height="498px" preserveAspectRatio="none" style="width:410px;height:498px;background:#FFFFFF;" version="1.1" viewBox="0 0 410 498" width="410px" zoomAndPan="magnify"><defs/><g><!--class Objects--><g id="elem_Objects"><rect codeLine="2" fill="#F1F1F1" height="72.5938" id="Objects" rx="2.5" ry="2.5" style="stroke:#181818;stroke-width:0.5;" width="98.8984" x="57.87" y="418.86"/><ellipse cx="79.174" cy="434.86" fill="#ADD1B2" rx="11" ry="11" style="stroke:#181818;stroke-width:1;"/><path d="M83.2833,440.86 L75.5646,440.86 L75.5646,428.4694 L83.2833,428.4694 L83.2833,430.6256 L78.0177,430.6256 L78.0177,433.2975 L82.7833,433.2975 L82.7833,435.4537 L78.0177,435.4537 L78.0177,438.7037 L83.2833,438.7037 L83.2833,440.86 Z " fill="#000000"/><text fill="#000000" font-family="sans-serif" font-size="14" lengthAdjust="spacing" textLength="52.8896" x="94.5748" y="439.7067">Objects</text><line style="stroke:#181818;stroke-width:0.5;" x1="58.87" x2="155.7684" y1="450.86" y2="450.86"/><text fill="#000000" font-family="sans-serif" font-size="14" lengthAdjust="spacing" textLength="61.9951" x="63.87" y="467.8551">TenantId</text><text fill="#000000" font-family="sans-serif" font-size="14" lengthAdjust="spacing" textLength="86.8984" x="63.87" y="484.152">ObjectName</text></g><!--class Fields--><g id="elem_Fields"><rect codeLine="8" fill="#F1F1F1" height="137.7813" id="Fields" rx="2.5" ry="2.5" style="stroke:#181818;stroke-width:0.5;" width="86.6348" x="7" y="204.78"/><ellipse cx="28.304" cy="220.78" fill="#ADD1B2" rx="11" ry="11" style="stroke:#181818;stroke-width:1;"/><path d="M32.4133,226.78 L24.6946,226.78 L24.6946,214.3894 L32.4133,214.3894 L32.4133,216.5456 L27.1477,216.5456 L27.1477,219.2175 L31.9133,219.2175 L31.9133,221.3737 L27.1477,221.3737 L27.1477,224.6237 L32.4133,224.6237 L32.4133,226.78 Z " fill="#000000"/><text fill="#000000" font-family="sans-serif" font-size="14" lengthAdjust="spacing" textLength="40.626" x="43.7048" y="225.6267">Fields</text><line style="stroke:#181818;stroke-width:0.5;" x1="8" x2="92.6348" y1="236.78" y2="236.78"/><text fill="#000000" font-family="sans-serif" font-size="14" lengthAdjust="spacing" textLength="61.9951" x="13" y="253.7751">TenantId</text><text fill="#000000" font-family="sans-serif" font-size="14" lengthAdjust="spacing" textLength="58.6113" x="13" y="270.072">ObjectId</text><text fill="#000000" font-family="sans-serif" font-size="14" lengthAdjust="spacing" textLength="74.6348" x="13" y="286.3689">FieldName</text><text fill="#000000" font-family="sans-serif" font-size="14" lengthAdjust="spacing" textLength="64.7021" x="13" y="302.6657">Datatype</text><text fill="#000000" font-family="sans-serif" font-size="14" lengthAdjust="spacing" textLength="67.71" x="13" y="318.9626">IsIndexed</text><text fill="#000000" font-family="sans-serif" font-size="14" lengthAdjust="spacing" textLength="66.3154" x="13" y="335.2595">FieldNum</text></g><!--class Data--><g id="elem_Data"><rect codeLine="17" fill="#F1F1F1" height="170.375" id="Data" rx="2.5" ry="2.5" style="stroke:#181818;stroke-width:0.5;" width="73.9951" x="128.32" y="188.48"/><ellipse cx="147.1753" cy="204.48" fill="#ADD1B2" rx="11" ry="11" style="stroke:#181818;stroke-width:1;"/><path d="M151.2847,210.48 L143.5659,210.48 L143.5659,198.0894 L151.2847,198.0894 L151.2847,200.2456 L146.0191,200.2456 L146.0191,202.9175 L150.7847,202.9175 L150.7847,205.0737 L146.0191,205.0737 L146.0191,208.3237 L151.2847,208.3237 L151.2847,210.48 Z " fill="#000000"/><text fill="#000000" font-family="sans-serif" font-size="14" lengthAdjust="spacing" textLength="33.4277" x="162.0321" y="209.3267">Data</text><line style="stroke:#181818;stroke-width:0.5;" x1="129.32" x2="201.3151" y1="220.48" y2="220.48"/><text fill="#000000" font-family="sans-serif" font-size="14" lengthAdjust="spacing" textLength="13.0156" x="134.32" y="237.4751">Id</text><text fill="#000000" font-family="sans-serif" font-size="14" lengthAdjust="spacing" textLength="61.9951" x="134.32" y="253.772">TenantId</text><text fill="#000000" font-family="sans-serif" font-size="14" lengthAdjust="spacing" textLength="58.6113" x="134.32" y="270.0689">ObjectId</text><text fill="#000000" font-family="sans-serif" font-size="14" lengthAdjust="spacing" textLength="41.3027" x="134.32" y="286.3657">Name</text><text fill="#000000" font-family="sans-serif" font-size="14" lengthAdjust="spacing" textLength="48.4395" x="134.32" y="302.6626">Value1</text><text fill="#000000" font-family="sans-serif" font-size="14" lengthAdjust="spacing" textLength="48.4395" x="134.32" y="318.9595">Value2</text><text fill="#000000" font-family="sans-serif" font-size="14" lengthAdjust="spacing" textLength="48.4395" x="134.32" y="335.2564">Value3</text><text fill="#000000" font-family="sans-serif" font-size="14" lengthAdjust="spacing" textLength="13.3506" x="134.32" y="351.5532">...</text></g><!--class Clobs--><g id="elem_Clobs"><rect codeLine="29" fill="#F1F1F1" height="40" id="Clobs" rx="2.5" ry="2.5" style="stroke:#181818;stroke-width:0.5;" width="70.4111" x="333.11" y="47.74"/><ellipse cx="348.11" cy="63.74" fill="#ADD1B2" rx="11" ry="11" style="stroke:#181818;stroke-width:1;"/><path d="M352.2194,69.74 L344.5006,69.74 L344.5006,57.3494 L352.2194,57.3494 L352.2194,59.5056 L346.9538,59.5056 L346.9538,62.1775 L351.7194,62.1775 L351.7194,64.3338 L346.9538,64.3338 L346.9538,67.5838 L352.2194,67.5838 L352.2194,69.74 Z " fill="#000000"/><text fill="#000000" font-family="sans-serif" font-size="14" lengthAdjust="spacing" textLength="38.4111" x="362.11" y="68.5867">Clobs</text><line style="stroke:#181818;stroke-width:0.5;" x1="334.11" x2="402.5211" y1="79.74" y2="79.74"/></g><!--class Indexes--><g id="elem_Indexes"><rect codeLine="32" fill="#F1F1F1" height="105.1875" id="Indexes" rx="2.5" ry="2.5" style="stroke:#181818;stroke-width:0.5;" width="86.6943" x="50.97" y="15.15"/><ellipse cx="65.97" cy="31.15" fill="#ADD1B2" rx="11" ry="11" style="stroke:#181818;stroke-width:1;"/><path d="M70.0794,37.15 L62.3606,37.15 L62.3606,24.7594 L70.0794,24.7594 L70.0794,26.9156 L64.8138,26.9156 L64.8138,29.5875 L69.5794,29.5875 L69.5794,31.7437 L64.8138,31.7437 L64.8138,34.9937 L70.0794,34.9937 L70.0794,37.15 Z " fill="#000000"/><text fill="#000000" font-family="sans-serif" font-size="14" lengthAdjust="spacing" textLength="54.6943" x="79.97" y="35.9967">Indexes</text><line style="stroke:#181818;stroke-width:0.5;" x1="51.97" x2="136.6643" y1="47.15" y2="47.15"/><text fill="#000000" font-family="sans-serif" font-size="14" lengthAdjust="spacing" textLength="12.7764" x="56.97" y="64.1451">id</text><text fill="#000000" font-family="sans-serif" font-size="14" lengthAdjust="spacing" textLength="61.9951" x="56.97" y="80.442">TenantId</text><text fill="#000000" font-family="sans-serif" font-size="14" lengthAdjust="spacing" textLength="58.6113" x="56.97" y="96.7389">ObjectId</text><text fill="#000000" font-family="sans-serif" font-size="14" lengthAdjust="spacing" textLength="66.3154" x="56.97" y="113.0357">FieldNum</text></g><!--class Relationships--><g id="elem_Relationships"><rect codeLine="39" fill="#F1F1F1" height="121.4844" id="Relationships" rx="2.5" ry="2.5" style="stroke:#181818;stroke-width:0.5;" width="125.8643" x="172.39" y="7"/><ellipse cx="187.39" cy="23" fill="#ADD1B2" rx="11" ry="11" style="stroke:#181818;stroke-width:1;"/><path d="M191.4994,29 L183.7806,29 L183.7806,16.6094 L191.4994,16.6094 L191.4994,18.7656 L186.2338,18.7656 L186.2338,21.4375 L190.9994,21.4375 L190.9994,23.5938 L186.2338,23.5938 L186.2338,26.8438 L191.4994,26.8438 L191.4994,29 Z " fill="#000000"/><text fill="#000000" font-family="sans-serif" font-size="14" lengthAdjust="spacing" textLength="93.8643" x="201.39" y="27.8467">Relationships</text><line style="stroke:#181818;stroke-width:0.5;" x1="173.39" x2="297.2543" y1="39" y2="39"/><text fill="#000000" font-family="sans-serif" font-size="14" lengthAdjust="spacing" textLength="13.0156" x="178.39" y="55.9951">Id</text><text fill="#000000" font-family="sans-serif" font-size="14" lengthAdjust="spacing" textLength="61.9951" x="178.39" y="72.292">TenantId</text><text fill="#000000" font-family="sans-serif" font-size="14" lengthAdjust="spacing" textLength="58.6113" x="178.39" y="88.5889">ObjectId</text><text fill="#000000" font-family="sans-serif" font-size="14" lengthAdjust="spacing" textLength="70.6426" x="178.39" y="104.8857">RelationId</text><text fill="#000000" font-family="sans-serif" font-size="14" lengthAdjust="spacing" textLength="104.4873" x="178.39" y="121.1826">TargetObjectId</text></g><!--link Data to Objects--><g id="link_Data_Objects"><path codeLine="47" d="M135.5591,366.7721 C128.7991,387.6821 126.8403,393.7477 121.3103,410.8577 " fill="none" id="Data-Objects" style="stroke:#181818;stroke-width:1;"/><line style="stroke:#181818;stroke-width:1;" x1="135.5591" x2="132.3109" y1="366.7721" y2="357.3143"/><line style="stroke:#181818;stroke-width:1;" x1="135.5591" x2="143.7291" y1="366.7721" y2="361.0057"/><line style="stroke:#181818;stroke-width:1;" x1="135.5591" x2="138.02" y1="366.7721" y2="359.16"/><line style="stroke:#181818;stroke-width:1;" x1="131.1378" x2="138.7499" y1="367.4447" y2="369.9056"/><line style="stroke:#181818;stroke-width:1;" x1="123.8863" x2="116.274" y1="415.894" y2="413.4337"/><line style="stroke:#181818;stroke-width:1;" x1="124.8089" x2="117.1966" y1="413.0394" y2="410.5791"/><line style="stroke:#181818;stroke-width:1;" x1="121.3103" x2="118.85" y1="410.8577" y2="418.47"/></g><!--link Fields to Objects--><g id="link_Fields_Objects"><path codeLine="48" d="M74.4521,350.6645 C82.6321,376.4145 86.7586,389.4252 93.6086,410.9952 " fill="none" id="Fields-Objects" style="stroke:#181818;stroke-width:1;"/><line style="stroke:#181818;stroke-width:1;" x1="74.4521" x2="66.3116" y1="350.6645" y2="344.8566"/><line style="stroke:#181818;stroke-width:1;" x1="74.4521" x2="77.7484" y1="350.6645" y2="341.2234"/><line style="stroke:#181818;stroke-width:1;" x1="74.4521" x2="72.03" y1="350.6645" y2="343.04"/><line style="stroke:#181818;stroke-width:1;" x1="71.2453" x2="78.8699" y1="353.7817" y2="351.3596"/><line style="stroke:#181818;stroke-width:1;" x1="98.6317" x2="91.0069" y1="413.5969" y2="416.0183"/><line style="stroke:#181818;stroke-width:1;" x1="97.7237" x2="90.0989" y1="410.7376" y2="413.159"/><line style="stroke:#181818;stroke-width:1;" x1="93.6086" x2="96.03" y1="410.9952" y2="418.62"/></g><!--link Indexes to Data--><g id="link_Indexes_Data"><path codeLine="49" d="M115.0512,128.2849 C122.2012,148.8149 125.3404,157.8345 133.3104,180.7345 " fill="none" id="Indexes-Data" style="stroke:#181818;stroke-width:1;"/><line style="stroke:#181818;stroke-width:1;" x1="115.0512" x2="106.7538" y1="128.2849" y2="122.7034"/><line style="stroke:#181818;stroke-width:1;" x1="115.0512" x2="118.0862" y1="128.2849" y2="118.7566"/><line style="stroke:#181818;stroke-width:1;" x1="115.0512" x2="112.42" y1="128.2849" y2="120.73"/><line style="stroke:#181818;stroke-width:1;" x1="111.9315" x2="119.4864" y1="131.4892" y2="128.8581"/><line style="stroke:#181818;stroke-width:1;" x1="138.403" x2="130.8475" y1="183.1975" y2="185.827"/><line style="stroke:#181818;stroke-width:1;" x1="137.4169" x2="129.8614" y1="180.3642" y2="182.9937"/><line style="stroke:#181818;stroke-width:1;" x1="133.3104" x2="135.94" y1="180.7345" y2="188.29"/></g><!--link Relationships to Data--><g id="link_Relationships_Data"><path codeLine="50" d="M212.093,136.3867 C205.723,154.9467 203.7782,160.6237 196.9482,180.5137 " fill="none" id="Relationships-Data" style="stroke:#181818;stroke-width:1;"/><line style="stroke:#181818;stroke-width:1;" x1="212.093" x2="209.0149" y1="136.3867" y2="126.8723"/><line style="stroke:#181818;stroke-width:1;" x1="212.093" x2="220.3651" y1="136.3867" y2="130.7677"/><line style="stroke:#181818;stroke-width:1;" x1="212.093" x2="214.69" y1="136.3867" y2="128.82"/><line style="stroke:#181818;stroke-width:1;" x1="207.6604" x2="215.2271" y1="136.9799" y2="139.5769"/><line style="stroke:#181818;stroke-width:1;" x1="199.4323" x2="191.8659" y1="185.5959" y2="182.9977"/><line style="stroke:#181818;stroke-width:1;" x1="200.4066" x2="192.8403" y1="182.7586" y2="180.1604"/><line style="stroke:#181818;stroke-width:1;" x1="196.9482" x2="194.35" y1="180.5137" y2="188.08"/></g><!--SRC=[oyXCILN8JIt9o4_XIiqhoIofLF1FoafDBYbMgEPI00BF50s8W6UA9bWW93KlCG_80tCWKdw9kQbSjLmm0zmoKtDIaFI3-NYqGpbWPM2ZG3oNn9B4aie22CUps3Cl9RKY5LbXQIvNhO82p4wGShYD12o2sn6Mc5EQQg3nj7_zqoMTBwTkVpQj_UdQwKyxfciYf0qHJ2C4qnZCrDFJG_AsSqv-4iZN2168es4XaPb2L020_0Kt8IWr9x4aCp-lE2Epe9XO_y4qmHGc5gMdbi1L00q71rPjZQvkJGqijhcWaOOc2lC1L1YaaGlLJKWo0000]--></g></svg>