<svg xmlns="http://www.w3.org/2000/svg" xmlns:xlink="http://www.w3.org/1999/xlink" contentStyleType="text/css" data-diagram-type="DESCRIPTION" height="545px" preserveAspectRatio="none" style="width:427px;height:545px;background:#FFFFFF;" version="1.1" viewBox="0 0 427 545" width="427px" zoomAndPan="magnify"><defs/><g><!--cluster Frontend--><g id="cluster_Frontend"><path d="M89.5,11 L162.7285,11 A3.75,3.75 0 0 1 165.2285,13.5 L172.2285,33.2969 L417.5,33.2969 A2.5,2.5 0 0 1 420,35.7969 L420,95.79 A2.5,2.5 0 0 1 417.5,98.29 L89.5,98.29 A2.5,2.5 0 0 1 87,95.79 L87,13.5 A2.5,2.5 0 0 1 89.5,11 " fill="#FFFFFF" style="stroke:#000000;stroke-width:1;"/><line style="stroke:#000000;stroke-width:1;" x1="87" x2="172.2285" y1="33.2969" y2="33.2969"/><text fill="#000000" font-family="Verdana" font-size="14" font-weight="bold" lengthAdjust="spacing" textLength="72.2285" x="91" y="25.9951">Frontend</text></g><!--cluster Backend--><g id="cluster_Backend"><path d="M107.5,122.29 L175.7109,122.29 A3.75,3.75 0 0 1 178.2109,124.79 L185.2109,144.5869 L256.5,144.5869 A2.5,2.5 0 0 1 259,147.0869 L259,399.68 A2.5,2.5 0 0 1 256.5,402.18 L107.5,402.18 A2.5,2.5 0 0 1 105,399.68 L105,124.79 A2.5,2.5 0 0 1 107.5,122.29 " fill="#FFFFFF" style="stroke:#000000;stroke-width:1;"/><line style="stroke:#000000;stroke-width:1;" x1="105" x2="185.2109" y1="144.5869" y2="144.5869"/><text fill="#000000" font-family="Verdana" font-size="14" font-weight="bold" lengthAdjust="spacing" textLength="67.2109" x="109" y="137.2851">Backend</text></g><!--cluster External Services--><g id="cluster_External Services"><path d="M13.5,441.18 L151.8066,441.18 A3.75,3.75 0 0 1 154.3066,443.68 L161.3066,463.4769 L231.5,463.4769 A2.5,2.5 0 0 1 234,465.9769 L234,525.98 A2.5,2.5 0 0 1 231.5,528.48 L13.5,528.48 A2.5,2.5 0 0 1 11,525.98 L11,443.68 A2.5,2.5 0 0 1 13.5,441.18 " fill="#FFFFFF" style="stroke:#000000;stroke-width:1;"/><line style="stroke:#000000;stroke-width:1;" x1="11" x2="161.3066" y1="463.4769" y2="463.4769"/><text fill="#000000" font-family="Verdana" font-size="14" font-weight="bold" lengthAdjust="spacing" textLength="137.3066" x="15" y="456.1751">External Services</text></g><!--cluster Database--><g id="cluster_Database"><path d="M258,436.18 C258,426.18 334,426.18 334,426.18 C334,426.18 410,426.18 410,436.18 L410,518.48 C410,528.48 334,528.48 334,528.48 C334,528.48 258,528.48 258,518.48 L258,436.18 " fill="#FFFFFF" style="stroke:#000000;stroke-width:1;"/><path d="M258,436.18 C258,446.18 334,446.18 334,446.18 C334,446.18 410,446.18 410,436.18 " fill="none" style="stroke:#000000;stroke-width:1;"/><text fill="#000000" font-family="Verdana" font-size="14" font-weight="bold" lengthAdjust="spacing" textLength="74.5049" x="296.7476" y="461.1751">Database</text></g><!--entity arXiv URL Input--><g id="elem_arXiv URL Input"><rect fill="#FFFFFF" height="36.2969" rx="2.5" ry="2.5" style="stroke:#000000;stroke-width:1;" width="129.0264" x="103.49" y="46"/><text fill="#000000" font-family="Verdana" font-size="14" lengthAdjust="spacing" textLength="109.0264" x="113.49" y="68.9951">arXiv URL Input</text></g><!--entity Translation View--><g id="elem_Translation View"><rect fill="#FFFFFF" height="36.2969" rx="2.5" ry="2.5" style="stroke:#000000;stroke-width:1;" width="136.3203" x="267.84" y="46"/><text fill="#000000" font-family="Verdana" font-size="14" lengthAdjust="spacing" textLength="116.3203" x="277.84" y="68.9951">Translation View</text></g><!--entity arXiv Fetcher--><g id="elem_arXiv Fetcher"><rect fill="#FFFFFF" height="36.2969" rx="2.5" ry="2.5" style="stroke:#000000;stroke-width:1;" width="113.6455" x="121.18" y="157.29"/><text fill="#000000" font-family="Verdana" font-size="14" lengthAdjust="spacing" textLength="93.6455" x="131.18" y="180.2851">arXiv Fetcher</text></g><!--entity Text Extractor--><g id="elem_Text Extractor"><rect fill="#FFFFFF" height="36.2969" rx="2.5" ry="2.5" style="stroke:#000000;stroke-width:1;" width="119.8525" x="121.07" y="253.59"/><text fill="#000000" font-family="Verdana" font-size="14" lengthAdjust="spacing" textLength="99.8525" x="131.07" y="276.5851">Text Extractor</text></g><!--entity LLM Controller--><g id="elem_LLM Controller"><rect fill="#FFFFFF" height="36.2969" rx="2.5" ry="2.5" style="stroke:#000000;stroke-width:1;" width="121.3018" x="121.35" y="349.89"/><text fill="#000000" font-family="Verdana" font-size="14" lengthAdjust="spacing" textLength="101.3018" x="131.35" y="372.8851">LLM Controller</text></g><!--entity LLM API--><g id="elem_LLM API"><rect fill="#FFFFFF" height="36.2969" rx="2.5" ry="2.5" style="stroke:#000000;stroke-width:1;" width="74.2773" x="143.86" y="476.18"/><text fill="#000000" font-family="Verdana" font-size="14" lengthAdjust="spacing" textLength="54.2773" x="153.86" y="499.1751">LLM API</text></g><!--entity arXiv API--><g id="elem_arXiv API"><rect fill="#FFFFFF" height="36.2969" rx="2.5" ry="2.5" style="stroke:#000000;stroke-width:1;" width="82.6992" x="26.65" y="476.18"/><text fill="#000000" font-family="Verdana" font-size="14" lengthAdjust="spacing" textLength="62.6992" x="36.65" y="499.1751">arXiv API</text></g><!--entity Paper Storage--><g id="elem_Paper Storage"><rect fill="#FFFFFF" height="36.2969" rx="2.5" ry="2.5" style="stroke:#000000;stroke-width:1;" width="119.5039" x="274.25" y="476.18"/><text fill="#000000" font-family="Verdana" font-size="14" lengthAdjust="spacing" textLength="99.5039" x="284.25" y="499.1751">Paper Storage</text></g><!--link arXiv URL Input to arXiv Fetcher--><g id="link_arXiv URL Input_arXiv Fetcher"><path d="M169.61,82.7 C171.47,103.1 173.9815,130.5751 175.8515,150.9451 " fill="none" id="arXiv URL Input-to-arXiv Fetcher" style="stroke:#000000;stroke-width:1;"/><polygon fill="#000000" points="176.4,156.92,179.5605,147.592,175.9429,151.9409,171.594,148.3234,176.4,156.92" style="stroke:#000000;stroke-width:1;"/></g><!--link arXiv Fetcher to Text Extractor--><g id="link_arXiv Fetcher_Text Extractor"><path d="M178.55,193.74 C179.09,210.64 179.7093,230.253 180.2493,247.233 " fill="none" id="arXiv Fetcher-to-Text Extractor" style="stroke:#000000;stroke-width:1;"/><polygon fill="#000000" points="180.44,253.23,184.1519,244.1074,180.2811,248.2325,176.1559,244.3617,180.44,253.23" style="stroke:#000000;stroke-width:1;"/></g><!--link Text Extractor to LLM Controller--><g id="link_Text Extractor_LLM Controller"><path d="M181.18,290.03 C181.36,306.94 181.5664,326.5503 181.7464,343.5303 " fill="none" id="Text Extractor-to-LLM Controller" style="stroke:#000000;stroke-width:1;"/><polygon fill="#000000" points="181.81,349.53,185.7144,340.4881,181.757,344.5303,177.7148,340.5729,181.81,349.53" style="stroke:#000000;stroke-width:1;"/></g><!--link LLM Controller to LLM API--><g id="link_LLM Controller_LLM API"><path d="M181.86,386.58 C181.67,410.27 181.3782,446.2302 181.1882,469.8802 " fill="none" id="LLM Controller-to-LLM API" style="stroke:#000000;stroke-width:1;"/><polygon fill="#000000" points="181.14,475.88,185.2122,466.9124,181.1802,470.8802,177.2124,466.8482,181.14,475.88" style="stroke:#000000;stroke-width:1;"/></g><!--link arXiv Fetcher to arXiv API--><g id="link_arXiv Fetcher_arXiv API"><path d="M154.67,194.05 C137.73,208.19 115.79,229.6 104,253.59 C66.59,329.7 65.5749,428.5332 66.9149,469.7132 " fill="none" id="arXiv Fetcher-to-arXiv API" style="stroke:#000000;stroke-width:1;"/><polygon fill="#000000" points="67.11,475.71,70.8152,466.5847,66.9474,470.7126,62.8194,466.8449,67.11,475.71" style="stroke:#000000;stroke-width:1;"/></g><!--link LLM Controller to Paper Storage--><g id="link_LLM Controller_Paper Storage"><path d="M203.46,386.58 C232.42,410.27 279.096,448.4309 308.006,472.0809 " fill="none" id="LLM Controller-to-Paper Storage" style="stroke:#000000;stroke-width:1;"/><polygon fill="#000000" points="312.65,475.88,308.2167,467.0854,308.78,472.7141,303.1512,473.2774,312.65,475.88" style="stroke:#000000;stroke-width:1;"/></g><!--link Translation View to LLM Controller--><g id="link_Translation View_LLM Controller"><path d="M332.69,82.63 C324.68,122.02 301.6,219.73 258,289.89 C243.51,313.2 225.3825,331.1117 208.5625,345.5517 " fill="none" id="Translation View-to-LLM Controller" style="stroke:#000000;stroke-width:1;"/><polygon fill="#000000" points="204.01,349.46,213.4443,346.6325,207.8037,346.2031,208.2332,340.5625,204.01,349.46" style="stroke:#000000;stroke-width:1;"/></g><!--SRC=[RL5TQyCm37pthz3wthymsDOL2XcKPXk5aGVD5Qsf8nj5wmTZ_trkidR1YP-au-vqX-zqHpL1zEZOD7l74GLhiA6EWOcrrBCd4BAAlFLaJ4Ixnot1P2w1bNWpWMy3wNsWhDq1tbO5B3X-QTMXhuBSU5GN6DuT7IlpqpDvJCFGOqvgToHN1pefF9zKq6guWaNn0ayfW0JlByo-QUAIC7eeIGxEKdEplwWUbekgVwpTato3Yf_O9FtiRxh9bXX9e4pNatzB7fI5wVH-43_REqvU9mSwLjul1_vPRVxHIxr-u_Air_2lHhFy0W00]--></g></svg>