<svg xmlns="http://www.w3.org/2000/svg" xmlns:xlink="http://www.w3.org/1999/xlink" contentStyleType="text/css" data-diagram-type="DESCRIPTION" height="182px" preserveAspectRatio="none" style="width:355px;height:182px;background:#FFFFFF;" version="1.1" viewBox="0 0 355 182" width="355px" zoomAndPan="magnify"><defs/><g><!--entity deployer--><g id="elem_deployer"><rect fill="#F1F1F1" height="36.2969" rx="2.5" ry="2.5" style="stroke:#181818;stroke-width:0.5;" width="147.0732" x="91.82" y="7"/><text fill="#000000" font-family="sans-serif" font-size="14" lengthAdjust="spacing" textLength="127.0732" x="101.82" y="29.9951">DeploymentAgent</text></g><!--entity builder--><g id="elem_builder"><path d="M6,130.29 C6,120.29 48.3579,120.29 48.3579,120.29 C48.3579,120.29 90.7158,120.29 90.7158,130.29 L90.7158,155.5869 C90.7158,165.5869 48.3579,165.5869 48.3579,165.5869 C48.3579,165.5869 6,165.5869 6,155.5869 L6,130.29 " fill="#F1F1F1" style="stroke:#181818;stroke-width:0.5;"/><path d="M6,130.29 C6,140.29 48.3579,140.29 48.3579,140.29 C48.3579,140.29 90.7158,140.29 90.7158,130.29 " fill="none" style="stroke:#181818;stroke-width:0.5;"/><text fill="#000000" font-family="sans-serif" font-size="14" lengthAdjust="spacing" textLength="64.7158" x="16" y="157.2851">BuildTool</text></g><!--entity tester--><g id="elem_tester"><path d="M125.6,130.29 C125.6,120.29 165.3603,120.29 165.3603,120.29 C165.3603,120.29 205.1205,120.29 205.1205,130.29 L205.1205,155.5869 C205.1205,165.5869 165.3603,165.5869 165.3603,165.5869 C165.3603,165.5869 125.6,165.5869 125.6,155.5869 L125.6,130.29 " fill="#F1F1F1" style="stroke:#181818;stroke-width:0.5;"/><path d="M125.6,130.29 C125.6,140.29 165.3603,140.29 165.3603,140.29 C165.3603,140.29 205.1205,140.29 205.1205,130.29 " fill="none" style="stroke:#181818;stroke-width:0.5;"/><text fill="#000000" font-family="sans-serif" font-size="14" lengthAdjust="spacing" textLength="59.5205" x="135.6" y="157.2851">TestTool</text></g><!--entity deploy--><g id="elem_deploy"><path d="M240.06,130.29 C240.06,120.29 289.3564,120.29 289.3564,120.29 C289.3564,120.29 338.6528,120.29 338.6528,130.29 L338.6528,155.5869 C338.6528,165.5869 289.3564,165.5869 289.3564,165.5869 C289.3564,165.5869 240.06,165.5869 240.06,155.5869 L240.06,130.29 " fill="#F1F1F1" style="stroke:#181818;stroke-width:0.5;"/><path d="M240.06,130.29 C240.06,140.29 289.3564,140.29 289.3564,140.29 C289.3564,140.29 338.6528,140.29 338.6528,130.29 " fill="none" style="stroke:#181818;stroke-width:0.5;"/><text fill="#000000" font-family="sans-serif" font-size="14" lengthAdjust="spacing" textLength="78.5928" x="250.06" y="157.2851">DeployTool</text></g><!--link deployer to builder--><g id="link_deployer_builder"><path d="M147.59,43.73 C127,64.1 97.3245,93.4794 74.9745,115.5994 " fill="none" id="deployer-to-builder" style="stroke:#181818;stroke-width:1;"/><polygon fill="#181818" points="70.71,119.82,79.9206,116.3321,74.2638,116.3028,74.293,110.646,70.71,119.82" style="stroke:#181818;stroke-width:1;"/><text fill="#000000" font-family="sans-serif" font-size="13" lengthAdjust="spacing" textLength="29.7832" x="118.36" y="86.3569">uses</text></g><!--link deployer to tester--><g id="link_deployer_tester"><path d="M165.36,43.73 C165.36,64.1 165.36,91.7 165.36,113.82 " fill="none" id="deployer-to-tester" style="stroke:#181818;stroke-width:1;"/><polygon fill="#181818" points="165.36,119.82,169.36,110.82,165.36,114.82,161.36,110.82,165.36,119.82" style="stroke:#181818;stroke-width:1;"/><text fill="#000000" font-family="sans-serif" font-size="13" lengthAdjust="spacing" textLength="29.7832" x="166.36" y="86.3569">uses</text></g><!--link deployer to deploy--><g id="link_deployer_deploy"><path d="M184.19,43.73 C206.01,64.1 237.5945,93.6052 261.2845,115.7252 " fill="none" id="deployer-to-deploy" style="stroke:#181818;stroke-width:1;"/><polygon fill="#181818" points="265.67,119.82,261.8217,110.7541,262.0154,116.4076,256.3619,116.6014,265.67,119.82" style="stroke:#181818;stroke-width:1;"/><text fill="#000000" font-family="sans-serif" font-size="13" lengthAdjust="spacing" textLength="29.7832" x="231.36" y="86.3569">uses</text></g><!--SRC=[AqfDBadCIyz9LN19BSZ9hynDpIjnJ0SI2ed52YbWeTGYhfJ4aiIanE9K1QVIp9oKaFpy791q4eY3B1kIMbm2aom1if7b8CR3P24cSt71R53GrRM3cQTWfL1Qd5gCAWSn3giKX0EL0W00]--></g></svg>