<svg xmlns="http://www.w3.org/2000/svg" xmlns:xlink="http://www.w3.org/1999/xlink" contentStyleType="text/css" data-diagram-type="DESCRIPTION" height="182px" preserveAspectRatio="none" style="width:766px;height:182px;background:#FFFFFF;" version="1.1" viewBox="0 0 766 182" width="766px" zoomAndPan="magnify"><defs/><g><!--entity classifier--><g id="elem_classifier"><rect fill="#F1F1F1" height="36.2969" rx="2.5" ry="2.5" style="stroke:#181818;stroke-width:0.5;" width="197.8779" x="44.15" y="7"/><text fill="#000000" font-family="sans-serif" font-size="14" lengthAdjust="spacing" textLength="177.8779" x="54.15" y="29.9951">DocumentClassifierAgent</text></g><!--entity version--><g id="elem_version"><rect fill="#F1F1F1" height="36.2969" rx="2.5" ry="2.5" style="stroke:#181818;stroke-width:0.5;" width="164.9219" x="327.63" y="7"/><text fill="#000000" font-family="sans-serif" font-size="14" lengthAdjust="spacing" textLength="144.9219" x="337.63" y="29.9951">VersionControlAgent</text></g><!--entity search--><g id="elem_search"><rect fill="#F1F1F1" height="36.2969" rx="2.5" ry="2.5" style="stroke:#181818;stroke-width:0.5;" width="109.8447" x="574.16" y="7"/><text fill="#000000" font-family="sans-serif" font-size="14" lengthAdjust="spacing" textLength="89.8447" x="584.16" y="29.9951">SearchAgent</text></g><!--entity analyzer--><g id="elem_analyzer"><path d="M6,130.29 C6,120.29 89.0864,120.29 89.0864,120.29 C89.0864,120.29 172.1729,120.29 172.1729,130.29 L172.1729,155.5869 C172.1729,165.5869 89.0864,165.5869 89.0864,165.5869 C89.0864,165.5869 6,165.5869 6,155.5869 L6,130.29 " fill="#F1F1F1" style="stroke:#181818;stroke-width:0.5;"/><path d="M6,130.29 C6,140.29 89.0864,140.29 89.0864,140.29 C89.0864,140.29 172.1729,140.29 172.1729,130.29 " fill="none" style="stroke:#181818;stroke-width:0.5;"/><text fill="#000000" font-family="sans-serif" font-size="14" lengthAdjust="spacing" textLength="146.1729" x="16" y="157.2851">ContentAnalyzerTool</text></g><!--entity metadata--><g id="elem_metadata"><path d="M390.47,130.29 C390.47,120.29 479.0867,120.29 479.0867,120.29 C479.0867,120.29 567.7034,120.29 567.7034,130.29 L567.7034,155.5869 C567.7034,165.5869 479.0867,165.5869 479.0867,165.5869 C479.0867,165.5869 390.47,165.5869 390.47,155.5869 L390.47,130.29 " fill="#F1F1F1" style="stroke:#181818;stroke-width:0.5;"/><path d="M390.47,130.29 C390.47,140.29 479.0867,140.29 479.0867,140.29 C479.0867,140.29 567.7034,140.29 567.7034,130.29 " fill="none" style="stroke:#181818;stroke-width:0.5;"/><text fill="#000000" font-family="sans-serif" font-size="14" lengthAdjust="spacing" textLength="157.2334" x="400.47" y="157.2851">MetadataManagerTool</text></g><!--entity engine--><g id="elem_engine"><path d="M603.11,130.29 C603.11,120.29 676.0895,120.29 676.0895,120.29 C676.0895,120.29 749.069,120.29 749.069,130.29 L749.069,155.5869 C749.069,165.5869 676.0895,165.5869 676.0895,165.5869 C676.0895,165.5869 603.11,165.5869 603.11,155.5869 L603.11,130.29 " fill="#F1F1F1" style="stroke:#181818;stroke-width:0.5;"/><path d="M603.11,130.29 C603.11,140.29 676.0895,140.29 676.0895,140.29 C676.0895,140.29 749.069,140.29 749.069,130.29 " fill="none" style="stroke:#181818;stroke-width:0.5;"/><text fill="#000000" font-family="sans-serif" font-size="14" lengthAdjust="spacing" textLength="125.959" x="613.11" y="157.2851">SearchEngineTool</text></g><!--entity access--><g id="elem_access"><path d="M206.76,130.29 C206.76,120.29 281.0896,120.29 281.0896,120.29 C281.0896,120.29 355.4192,120.29 355.4192,130.29 L355.4192,155.5869 C355.4192,165.5869 281.0896,165.5869 281.0896,165.5869 C281.0896,165.5869 206.76,165.5869 206.76,155.5869 L206.76,130.29 " fill="#F1F1F1" style="stroke:#181818;stroke-width:0.5;"/><path d="M206.76,130.29 C206.76,140.29 281.0896,140.29 281.0896,140.29 C281.0896,140.29 355.4192,140.29 355.4192,130.29 " fill="none" style="stroke:#181818;stroke-width:0.5;"/><text fill="#000000" font-family="sans-serif" font-size="14" lengthAdjust="spacing" textLength="128.6592" x="216.76" y="157.2851">AccessControlTool</text></g><!--link classifier to analyzer--><g id="link_classifier_analyzer"><path d="M129.35,43.77 C123.15,52.33 116.11,62.98 111.09,73.29 C103.8,88.26 99.7144,100.4103 95.9644,114.2003 " fill="none" id="classifier-to-analyzer" style="stroke:#181818;stroke-width:1;"/><polygon fill="#181818" points="94.39,119.99,100.6115,112.355,95.702,115.1652,92.8918,110.2558,94.39,119.99" style="stroke:#181818;stroke-width:1;"/><text fill="#000000" font-family="sans-serif" font-size="13" lengthAdjust="spacing" textLength="29.7832" x="112.09" y="86.3569">uses</text></g><!--link classifier to metadata--><g id="link_classifier_metadata"><path d="M183.78,43.72 C215.88,57.27 261.94,76.04 303.09,90.29 C333.78,100.92 362.1832,109.6236 392.1932,118.2436 " fill="none" id="classifier-to-metadata" style="stroke:#181818;stroke-width:1;"/><polygon fill="#181818" points="397.96,119.9,390.4141,113.5708,393.1543,118.5196,388.2055,121.2599,397.96,119.9" style="stroke:#181818;stroke-width:1;"/><text fill="#000000" font-family="sans-serif" font-size="13" lengthAdjust="spacing" textLength="29.7832" x="304.09" y="86.3569">uses</text></g><!--link version to metadata--><g id="link_version_metadata"><path d="M419.6,43.72 C426.71,56.7 436.76,74.74 446.09,90.29 C451.99,100.15 455.5388,105.8372 461.4188,114.9572 " fill="none" id="version-to-metadata" style="stroke:#181818;stroke-width:1;"/><polygon fill="#181818" points="464.67,120,463.155,110.2684,461.9606,115.7977,456.4313,114.6034,464.67,120" style="stroke:#181818;stroke-width:1;"/><text fill="#000000" font-family="sans-serif" font-size="13" lengthAdjust="spacing" textLength="29.7832" x="447.09" y="86.3569">uses</text></g><!--link version to access--><g id="link_version_access"><path d="M390.49,43.73 C367.8,64.1 334.8456,93.6927 310.1956,115.8127 " fill="none" id="version-to-access" style="stroke:#181818;stroke-width:1;"/><polygon fill="#181818" points="305.73,119.82,315.0999,116.7862,309.4513,116.4806,309.7569,110.832,305.73,119.82" style="stroke:#181818;stroke-width:1;"/><text fill="#000000" font-family="sans-serif" font-size="13" lengthAdjust="spacing" textLength="29.7832" x="359.09" y="86.3569">uses</text></g><!--link search to engine--><g id="link_search_engine"><path d="M636.22,43.73 C644.49,64.1 655.8731,92.1407 664.8531,114.2607 " fill="none" id="search-to-engine" style="stroke:#181818;stroke-width:1;"/><polygon fill="#181818" points="667.11,119.82,667.4309,109.9764,665.2292,115.1872,660.0184,112.9856,667.11,119.82" style="stroke:#181818;stroke-width:1;"/><text fill="#000000" font-family="sans-serif" font-size="13" lengthAdjust="spacing" textLength="29.7832" x="655.09" y="86.3569">uses</text></g><!--link search to metadata--><g id="link_search_metadata"><path d="M606.3,43.73 C579.91,64.1 541.1498,94.0341 512.4898,116.1541 " fill="none" id="search-to-metadata" style="stroke:#181818;stroke-width:1;"/><polygon fill="#181818" points="507.74,119.82,517.3087,117.4876,511.6982,116.765,512.4208,111.1545,507.74,119.82" style="stroke:#181818;stroke-width:1;"/><text fill="#000000" font-family="sans-serif" font-size="13" lengthAdjust="spacing" textLength="29.7832" x="569.09" y="86.3569">uses</text></g><!--SRC=[XP1D2i8m44RtESLSe1Tm8PJgiYl5_HZ764WJoAI2djuslr84bz_t7fd9U981hJ841oVdYMmO33BhkoRVgoK2CiXQ2L_z2tdMpWxE1kzCTP-f_X9FX5u-gi0nYXi6l28Jh0yigBTeNc_oP-VCgc7EJHmfu1h61QacJhbkOXfuj4fRAXR5r9nUIcBEozUPiHIY_HUwRbzNWHtCJBp5PO62ymN-iZIja7IM2DAkFy3cjGy0]--></g></svg>