<svg xmlns="http://www.w3.org/2000/svg" xmlns:xlink="http://www.w3.org/1999/xlink" contentStyleType="text/css" height="248px" preserveAspectRatio="none" style="width:259px;height:248px;background:#FFFFFF;" version="1.1" viewBox="0 0 259 248" width="259px" zoomAndPan="magnify"><defs/><g><text fill="#000000" font-family="sans-serif" font-size="14" font-weight="bold" lengthAdjust="spacing" textLength="110" x="67.5" y="22.9951">domain model</text><!--class Tenant--><g id="elem_Tenant"><rect codeLine="5" fill="#F1F1F1" height="88.8906" id="Tenant" rx="2.5" ry="2.5" style="stroke:#181818;stroke-width:0.5;" width="82" x="26.5" y="78.2969"/><ellipse cx="41.95" cy="94.2969" fill="#ADD1B2" rx="11" ry="11" style="stroke:#181818;stroke-width:1.0;"/><path d="M44.9188,99.9375 Q44.3406,100.2344 43.7,100.375 Q43.0594,100.5313 42.3563,100.5313 Q39.8563,100.5313 38.5281,98.8906 Q37.2156,97.2344 37.2156,94.1094 Q37.2156,90.9844 38.5281,89.3281 Q39.8563,87.6719 42.3563,87.6719 Q43.0594,87.6719 43.7,87.8281 Q44.3563,87.9844 44.9188,88.2813 L44.9188,91 Q44.2938,90.4219 43.7,90.1563 Q43.1063,89.875 42.4813,89.875 Q41.1375,89.875 40.45,90.9531 Q39.7625,92.0156 39.7625,94.1094 Q39.7625,96.2031 40.45,97.2813 Q41.1375,98.3438 42.4813,98.3438 Q43.1063,98.3438 43.7,98.0781 Q44.2938,97.7969 44.9188,97.2188 L44.9188,99.9375 Z " fill="#000000"/><text fill="#000000" font-family="sans-serif" font-size="14" lengthAdjust="spacing" textLength="49" x="56.05" y="99.1436">Tenant</text><line style="stroke:#181818;stroke-width:0.5;" x1="27.5" x2="107.5" y1="110.2969" y2="110.2969"/><text fill="#000000" font-family="sans-serif" font-size="14" lengthAdjust="spacing" textLength="12" x="32.5" y="127.292">id</text><text fill="#000000" font-family="sans-serif" font-size="14" lengthAdjust="spacing" textLength="45" x="32.5" y="143.5889">parent</text><text fill="#000000" font-family="sans-serif" font-size="14" lengthAdjust="spacing" textLength="70" x="32.5" y="159.8857">username</text></g><!--class User--><g id="elem_User"><rect codeLine="12" fill="#F1F1F1" height="56.2969" id="User" rx="2.5" ry="2.5" style="stroke:#181818;stroke-width:0.5;" width="64" x="188" y="144.5969"/><ellipse cx="203" cy="160.5969" fill="#ADD1B2" rx="11" ry="11" style="stroke:#181818;stroke-width:1.0;"/><path d="M205.9688,166.2375 Q205.3906,166.5344 204.75,166.675 Q204.1094,166.8312 203.4063,166.8312 Q200.9063,166.8312 199.5781,165.1906 Q198.2656,163.5344 198.2656,160.4094 Q198.2656,157.2844 199.5781,155.6281 Q200.9063,153.9719 203.4063,153.9719 Q204.1094,153.9719 204.75,154.1281 Q205.4063,154.2844 205.9688,154.5812 L205.9688,157.3 Q205.3438,156.7219 204.75,156.4562 Q204.1563,156.175 203.5313,156.175 Q202.1875,156.175 201.5,157.2531 Q200.8125,158.3156 200.8125,160.4094 Q200.8125,162.5031 201.5,163.5812 Q202.1875,164.6437 203.5313,164.6437 Q204.1563,164.6437 204.75,164.3781 Q205.3438,164.0969 205.9688,163.5187 L205.9688,166.2375 Z " fill="#000000"/><text fill="#000000" font-family="sans-serif" font-size="14" lengthAdjust="spacing" textLength="32" x="217" y="165.4436">User</text><line style="stroke:#181818;stroke-width:0.5;" x1="189" x2="251" y1="176.5969" y2="176.5969"/><text fill="#000000" font-family="sans-serif" font-size="14" lengthAdjust="spacing" textLength="12" x="194" y="193.592">id</text></g><!--class UserAccount--><g id="elem_UserAccount"><rect codeLine="17" fill="#F1F1F1" height="40" id="UserAccount" rx="2.5" ry="2.5" style="stroke:#181818;stroke-width:0.5;" width="121" x="7" y="201.7469"/><ellipse cx="22" cy="217.7469" fill="#ADD1B2" rx="11" ry="11" style="stroke:#181818;stroke-width:1.0;"/><path d="M24.9688,223.3875 Q24.3906,223.6844 23.75,223.825 Q23.1094,223.9813 22.4063,223.9813 Q19.9063,223.9813 18.5781,222.3406 Q17.2656,220.6844 17.2656,217.5594 Q17.2656,214.4344 18.5781,212.7781 Q19.9063,211.1219 22.4063,211.1219 Q23.1094,211.1219 23.75,211.2781 Q24.4063,211.4344 24.9688,211.7313 L24.9688,214.45 Q24.3438,213.8719 23.75,213.6063 Q23.1563,213.325 22.5313,213.325 Q21.1875,213.325 20.5,214.4031 Q19.8125,215.4656 19.8125,217.5594 Q19.8125,219.6531 20.5,220.7313 Q21.1875,221.7938 22.5313,221.7938 Q23.1563,221.7938 23.75,221.5281 Q24.3438,221.2469 24.9688,220.6688 L24.9688,223.3875 Z " fill="#000000"/><text fill="#000000" font-family="sans-serif" font-size="14" lengthAdjust="spacing" textLength="89" x="36" y="222.5936">UserAccount</text><line style="stroke:#181818;stroke-width:0.5;" x1="8" x2="127" y1="233.7469" y2="233.7469"/></g><!--link Tenant to Tenant--><g id="link_Tenant_Tenant"><path codeLine="10" d="M39.16,77.8269 C37.2,59.1369 46.65,43.2969 67.5,43.2969 C88.35,43.2969 98.4258,53.1696 96.4658,71.8596 " fill="none" id="Tenant-to-Tenant" style="stroke:#181818;stroke-width:1.0;"/><polygon fill="#181818" points="95.84,77.8269,100.7569,69.2931,96.3615,72.8541,92.8005,68.4588,95.84,77.8269" style="stroke:#181818;stroke-width:1.0;"/><text fill="#000000" font-family="sans-serif" font-size="13" lengthAdjust="spacing" textLength="24" x="9.2351" y="67.205">1..n</text><text fill="#000000" font-family="sans-serif" font-size="13" lengthAdjust="spacing" textLength="24" x="74.2399" y="67.205">0..1</text></g><!--link Tenant to User--><g id="link_Tenant_User"><path codeLine="15" d="M114.5244,138.0373 C139.2544,146.2473 159.0559,152.8355 181.9359,160.4355 " fill="none" id="Tenant-User" style="stroke:#181818;stroke-width:1.0;"/><polygon fill="#181818" points="108.83,136.1469,116.1113,142.7788,113.5753,137.7223,118.6319,135.1863,108.83,136.1469" style="stroke:#181818;stroke-width:1.0;"/><polygon fill="#181818" points="187.63,162.3269,180.3498,155.6937,182.8849,160.7507,177.8279,163.2858,187.63,162.3269" style="stroke:#181818;stroke-width:1.0;"/><text fill="#000000" font-family="sans-serif" font-size="13" lengthAdjust="spacing" textLength="8" x="116.6211" y="151.8182">n</text><text fill="#000000" font-family="sans-serif" font-size="13" lengthAdjust="spacing" textLength="8" x="172.1287" y="173.8055">n</text></g><!--link UserAccount to User--><g id="link_UserAccount_User"><path codeLine="18" d="M128.41,202.2369 C148.74,195.6169 164.9247,190.3543 182.0947,184.7643 " fill="none" id="UserAccount-to-User" style="stroke:#181818;stroke-width:1.0;"/><polygon fill="#181818" points="187.8,182.9069,178.0038,181.8895,183.0456,184.4547,180.4804,189.4965,187.8,182.9069" style="stroke:#181818;stroke-width:1.0;"/><text fill="#000000" font-family="sans-serif" font-size="13" lengthAdjust="spacing" textLength="8" x="135.9152" y="212.9228">n</text><text fill="#000000" font-family="sans-serif" font-size="13" lengthAdjust="spacing" textLength="8" x="171.8813" y="198.8518">1</text></g><!--SRC=[JOr13W8X34NtFKN3VeZiZObtq0CGgD84Ye7EoipTPNGcpgPfyz_xpVHGr8gDdqanSgEWN0KIHy92cce4PSs4iHRFWgL6oW0X-zxnHk95yGs87CTu-KQYOvaxDV65O86DCSvQCTF5dAnrPZFtdll0zvQ_8UOy3K7CDp-orn3gl3vUu7WET1NSJ_W0]--></g></svg>