<svg xmlns="http://www.w3.org/2000/svg" xmlns:xlink="http://www.w3.org/1999/xlink" contentStyleType="text/css" data-diagram-type="CLASS" height="476px" preserveAspectRatio="none" style="width:264px;height:476px;background:#FFFFFF;" version="1.1" viewBox="0 0 264 476" width="264px" zoomAndPan="magnify"><title>&#21830;&#21697;&#12458;&#12502;&#12472;&#12455;&#12463;&#12488;&#12398;&#38306;&#24515;&#20998;&#38626;</title><defs/><g><text fill="#000000" font-family="sans-serif" font-size="14" font-weight="bold" lengthAdjust="spacing" textLength="181.9992" x="34.0004" y="22.9951">&#21830;&#21697;&#12458;&#12502;&#12472;&#12455;&#12463;&#12488;&#12398;&#38306;&#24515;&#20998;&#38626;</text><!--cluster ???????--><g id="cluster_&#25903;&#25173;&#12356;&#12471;&#12473;&#12486;&#12512;"><path d="M8.5,59.5869 L107.4996,59.5869 A3.75,3.75 0 0 1 109.9996,62.0869 L116.9996,81.8838 L116.5,81.8838 A2.5,2.5 0 0 1 119,84.3838 L119,180.6869 A2.5,2.5 0 0 1 116.5,183.1869 L8.5,183.1869 A2.5,2.5 0 0 1 6,180.6869 L6,62.0869 A2.5,2.5 0 0 1 8.5,59.5869 " fill="none" style="stroke:#000000;stroke-width:1.5;"/><line style="stroke:#000000;stroke-width:1.5;" x1="6" x2="116.9996" y1="81.8838" y2="81.8838"/><text fill="#000000" font-family="sans-serif" font-size="14" font-weight="bold" lengthAdjust="spacing" textLength="97.9996" x="10" y="74.582">&#25903;&#25173;&#12356;&#12471;&#12473;&#12486;&#12512;</text></g><!--cluster ??????--><g id="cluster_&#27880;&#25991;&#12471;&#12473;&#12486;&#12512;"><path d="M145.5,43.2969 L230.4996,43.2969 A3.75,3.75 0 0 1 232.9996,45.7969 L239.9996,65.5938 L254.5,65.5938 A2.5,2.5 0 0 1 257,68.0938 L257,196.9869 A2.5,2.5 0 0 1 254.5,199.4869 L145.5,199.4869 A2.5,2.5 0 0 1 143,196.9869 L143,45.7969 A2.5,2.5 0 0 1 145.5,43.2969 " fill="none" style="stroke:#000000;stroke-width:1.5;"/><line style="stroke:#000000;stroke-width:1.5;" x1="143" x2="239.9996" y1="65.5938" y2="65.5938"/><text fill="#000000" font-family="sans-serif" font-size="14" font-weight="bold" lengthAdjust="spacing" textLength="83.9996" x="147" y="58.292">&#27880;&#25991;&#12471;&#12473;&#12486;&#12512;</text></g><!--cluster ???????--><g id="cluster_&#20849;&#36890;&#12521;&#12452;&#12502;&#12521;&#12522;"><path d="M41.5,248.4869 L140.4996,248.4869 A3.75,3.75 0 0 1 142.9996,250.9869 L149.9996,270.7838 L164.5,270.7838 A2.5,2.5 0 0 1 167,273.2838 L167,467.3569 A2.5,2.5 0 0 1 164.5,469.8569 L41.5,469.8569 A2.5,2.5 0 0 1 39,467.3569 L39,250.9869 A2.5,2.5 0 0 1 41.5,248.4869 " fill="none" style="stroke:#000000;stroke-width:1.5;"/><line style="stroke:#000000;stroke-width:1.5;" x1="39" x2="149.9996" y1="270.7838" y2="270.7838"/><text fill="#000000" font-family="sans-serif" font-size="14" font-weight="bold" lengthAdjust="spacing" textLength="97.9996" x="43" y="263.482">&#20849;&#36890;&#12521;&#12452;&#12502;&#12521;&#12522;</text></g><!--class ??--><g id="elem_&#21830;&#21697;"><rect codeLine="6" fill="#F1F1F1" height="72.5938" id="&#21830;&#21697;" rx="2.5" ry="2.5" style="stroke:#181818;stroke-width:0.5;" width="67.9998" x="35" y="94.5869"/><ellipse cx="53.6" cy="110.5869" fill="#ADD1B2" rx="11" ry="11" style="stroke:#181818;stroke-width:1;"/><path d="M56.5687,116.2275 Q55.9906,116.5244 55.35,116.665 Q54.7093,116.8213 54.0062,116.8213 Q51.5062,116.8213 50.1781,115.1806 Q48.8656,113.5244 48.8656,110.3994 Q48.8656,107.2744 50.1781,105.6181 Q51.5062,103.9619 54.0062,103.9619 Q54.7093,103.9619 55.35,104.1181 Q56.0062,104.2744 56.5687,104.5713 L56.5687,107.29 Q55.9437,106.7119 55.35,106.4463 Q54.7562,106.165 54.1312,106.165 Q52.7875,106.165 52.1,107.2431 Q51.4125,108.3056 51.4125,110.3994 Q51.4125,112.4931 52.1,113.5713 Q52.7875,114.6338 54.1312,114.6338 Q54.7562,114.6338 55.35,114.3681 Q55.9437,114.0869 56.5687,113.5088 L56.5687,116.2275 Z " fill="#000000"/><text fill="#000000" font-family="sans-serif" font-size="14" lengthAdjust="spacing" textLength="27.9999" x="68.4" y="115.4336">&#21830;&#21697;</text><line style="stroke:#181818;stroke-width:0.5;" x1="36" x2="101.9998" y1="126.5869" y2="126.5869"/><ellipse cx="46" cy="140.2353" fill="none" rx="3" ry="3" style="stroke:#038048;stroke-width:1;"/><text fill="#000000" font-family="sans-serif" font-size="14" lengthAdjust="spacing" textLength="27.9999" x="55" y="143.582">&#20516;&#27573;</text><ellipse cx="46" cy="156.5322" fill="none" rx="3" ry="3" style="stroke:#038048;stroke-width:1;"/><text fill="#000000" font-family="sans-serif" font-size="14" lengthAdjust="spacing" textLength="41.9998" x="55" y="159.8789">&#22312;&#24235;&#25968;</text></g><!--class ??--><g id="elem_&#21830;&#21697;"><rect codeLine="14" fill="#F1F1F1" height="105.1875" id="&#21830;&#21697;" rx="2.5" ry="2.5" style="stroke:#181818;stroke-width:0.5;" width="81.9998" x="159" y="78.2969"/><ellipse cx="183.8999" cy="94.2969" fill="#ADD1B2" rx="11" ry="11" style="stroke:#181818;stroke-width:1;"/><path d="M186.8687,99.9375 Q186.2906,100.2344 185.6499,100.375 Q185.0093,100.5313 184.3062,100.5313 Q181.8062,100.5313 180.4781,98.8906 Q179.1656,97.2344 179.1656,94.1094 Q179.1656,90.9844 180.4781,89.3281 Q181.8062,87.6719 184.3062,87.6719 Q185.0093,87.6719 185.6499,87.8281 Q186.3062,87.9844 186.8687,88.2813 L186.8687,91 Q186.2437,90.4219 185.6499,90.1563 Q185.0562,89.875 184.4312,89.875 Q183.0874,89.875 182.3999,90.9531 Q181.7124,92.0156 181.7124,94.1094 Q181.7124,96.2031 182.3999,97.2813 Q183.0874,98.3438 184.4312,98.3438 Q185.0562,98.3438 185.6499,98.0781 Q186.2437,97.7969 186.8687,97.2188 L186.8687,99.9375 Z " fill="#000000"/><text fill="#000000" font-family="sans-serif" font-size="14" lengthAdjust="spacing" textLength="27.9999" x="200.0999" y="99.1436">&#21830;&#21697;</text><line style="stroke:#181818;stroke-width:0.5;" x1="160" x2="239.9998" y1="110.2969" y2="110.2969"/><ellipse cx="170" cy="123.9453" fill="none" rx="3" ry="3" style="stroke:#038048;stroke-width:1;"/><text fill="#000000" font-family="sans-serif" font-size="14" lengthAdjust="spacing" textLength="41.9998" x="179" y="127.292">&#12459;&#12521;&#12540;</text><ellipse cx="170" cy="140.2422" fill="none" rx="3" ry="3" style="stroke:#038048;stroke-width:1;"/><text fill="#000000" font-family="sans-serif" font-size="14" lengthAdjust="spacing" textLength="55.9998" x="179" y="143.5889">&#21830;&#21697;&#35500;&#26126;</text><ellipse cx="170" cy="156.5391" fill="none" rx="3" ry="3" style="stroke:#038048;stroke-width:1;"/><text fill="#000000" font-family="sans-serif" font-size="14" lengthAdjust="spacing" textLength="27.9999" x="179" y="159.8857">&#20516;&#27573;</text><ellipse cx="170" cy="172.8359" fill="none" rx="3" ry="3" style="stroke:#038048;stroke-width:1;"/><text fill="#000000" font-family="sans-serif" font-size="14" lengthAdjust="spacing" textLength="27.9999" x="179" y="176.1826">&#30011;&#20687;</text></g><!--class ??--><g id="elem_&#21830;&#21697;"><rect codeLine="24" fill="#F1F1F1" height="170.375" id="&#21830;&#21697;" rx="2.5" ry="2.5" style="stroke:#181818;stroke-width:0.5;" width="95.9997" x="55" y="283.4869"/><ellipse cx="86.1999" cy="299.4869" fill="#ADD1B2" rx="11" ry="11" style="stroke:#181818;stroke-width:1;"/><path d="M89.1687,305.1275 Q88.5905,305.4244 87.9499,305.565 Q87.3093,305.7213 86.6062,305.7213 Q84.1062,305.7213 82.778,304.0806 Q81.4655,302.4244 81.4655,299.2994 Q81.4655,296.1744 82.778,294.5181 Q84.1062,292.8619 86.6062,292.8619 Q87.3093,292.8619 87.9499,293.0181 Q88.6062,293.1744 89.1687,293.4713 L89.1687,296.19 Q88.5437,295.6119 87.9499,295.3463 Q87.3562,295.065 86.7312,295.065 Q85.3874,295.065 84.6999,296.1431 Q84.0124,297.2056 84.0124,299.2994 Q84.0124,301.3931 84.6999,302.4713 Q85.3874,303.5338 86.7312,303.5338 Q87.3562,303.5338 87.9499,303.2681 Q88.5437,302.9869 89.1687,302.4088 L89.1687,305.1275 Z " fill="#000000"/><text fill="#000000" font-family="sans-serif" font-size="14" lengthAdjust="spacing" textLength="27.9999" x="103.7999" y="304.3336">&#21830;&#21697;</text><line style="stroke:#181818;stroke-width:0.5;" x1="56" x2="149.9997" y1="315.4869" y2="315.4869"/><ellipse cx="66" cy="329.1353" fill="none" rx="3" ry="3" style="stroke:#038048;stroke-width:1;"/><text fill="#000000" font-family="sans-serif" font-size="14" lengthAdjust="spacing" textLength="41.9998" x="75" y="332.482">&#21830;&#21697;&#21517;</text><ellipse cx="66" cy="345.4322" fill="none" rx="3" ry="3" style="stroke:#038048;stroke-width:1;"/><text fill="#000000" font-family="sans-serif" font-size="14" lengthAdjust="spacing" textLength="55.9998" x="75" y="348.7789">&#21830;&#21697;&#35500;&#26126;</text><ellipse cx="66" cy="361.7291" fill="none" rx="3" ry="3" style="stroke:#038048;stroke-width:1;"/><text fill="#000000" font-family="sans-serif" font-size="14" lengthAdjust="spacing" textLength="27.9999" x="75" y="365.0757">&#30011;&#20687;</text><ellipse cx="66" cy="378.0259" fill="none" rx="3" ry="3" style="stroke:#038048;stroke-width:1;"/><text fill="#000000" font-family="sans-serif" font-size="14" lengthAdjust="spacing" textLength="27.9999" x="75" y="381.3726">&#20516;&#27573;</text><ellipse cx="66" cy="394.3228" fill="none" rx="3" ry="3" style="stroke:#038048;stroke-width:1;"/><text fill="#000000" font-family="sans-serif" font-size="14" lengthAdjust="spacing" textLength="55.9998" x="75" y="397.6695">&#12459;&#12486;&#12468;&#12522;</text><ellipse cx="66" cy="410.6197" fill="none" rx="3" ry="3" style="stroke:#038048;stroke-width:1;"/><text fill="#000000" font-family="sans-serif" font-size="14" lengthAdjust="spacing" textLength="41.9998" x="75" y="413.9664">&#12469;&#12452;&#12474;</text><ellipse cx="66" cy="426.9166" fill="none" rx="3" ry="3" style="stroke:#038048;stroke-width:1;"/><text fill="#000000" font-family="sans-serif" font-size="14" lengthAdjust="spacing" textLength="41.9998" x="75" y="430.2632">&#12459;&#12521;&#12540;</text><ellipse cx="66" cy="443.2134" fill="none" rx="3" ry="3" style="stroke:#038048;stroke-width:1;"/><text fill="#000000" font-family="sans-serif" font-size="14" lengthAdjust="spacing" textLength="69.9997" x="75" y="446.5601">&#12473;&#12486;&#12540;&#12479;&#12473;</text></g><!--link ?? to ??--><g id="link_&#21830;&#21697;_&#21830;&#21697;"><path codeLine="37" d="M74.13,167.4469 C78.53,197.9969 84.2031,237.3484 89.9431,277.1284 " fill="none" id="&#21830;&#21697;-to-&#21830;&#21697;" style="stroke:#181818;stroke-width:1;"/><polygon fill="#181818" points="90.8,283.0669,93.4737,273.5879,90.0859,278.1181,85.5557,274.7304,90.8,283.0669" style="stroke:#181818;stroke-width:1;"/><text fill="#000000" font-family="sans-serif" font-size="13" lengthAdjust="spacing" textLength="26" x="83" y="228.5538">&#20381;&#23384;</text></g><!--link ?? to ??--><g id="link_&#21830;&#21697;_&#21830;&#21697;"><path codeLine="38" d="M178.59,183.9269 C166.6,213.0769 153.633,244.5982 139.973,277.7982 " fill="none" id="&#21830;&#21697;-to-&#21830;&#21697;-1" style="stroke:#181818;stroke-width:1;"/><polygon fill="#181818" points="137.69,283.3469,144.8136,276.5458,139.5925,278.723,137.4154,273.5018,137.69,283.3469" style="stroke:#181818;stroke-width:1;"/><text fill="#000000" font-family="sans-serif" font-size="13" lengthAdjust="spacing" textLength="26" x="164" y="228.5538">&#20381;&#23384;</text></g><!--SRC=[bPBFJi904CRl-nGRBXuCFe07twM1HeWOJUZDaD1PhNZmJuGsY9eOqaGeMYHAr4hemmpRshUmNMavj3HwsvcTcUyttwvILMeovRh6sog2XSn0-41uH1WZQw5g1qQVkuotjE2sJohLiaptPQLoK2PaWtgTiNUcetgCy8xmYKn3zX3sYEPXcE5spvyFoQ5KsfDsPLh8R2ZG8q9fgIRLwqiGaQ1qa_AcwTdJEBWRS6VawIzXt20D0V0wy8pJFwkdgdEa4KRH53QBrSNrj_NaTI-owFpE5sUNApH-CWcQFG5YHgv6iwmykio6F6z4oA_ErmCcJ2bQiPs6y1Pg9Abff0pE6WDYqsO8RdXURPfi51Zjtm-pS07XsZSTL6z8vfjlBPSf5dUodOeBjkbYVi-VkoJzUF-UyGC0]--></g></svg>