<svg xmlns="http://www.w3.org/2000/svg" xmlns:xlink="http://www.w3.org/1999/xlink" contentStyleType="text/css" data-diagram-type="SEQUENCE" height="327px" preserveAspectRatio="none" style="width:667px;height:327px;background:#FFFFFF;" version="1.1" viewBox="0 0 667 327" width="667px" zoomAndPan="magnify"><defs/><g><line style="stroke:#181818;stroke-width:0.5;stroke-dasharray:5.0,5.0;" x1="23" x2="23" y1="81.2969" y2="246.9609"/><line style="stroke:#181818;stroke-width:0.5;stroke-dasharray:5.0,5.0;" x1="190.6901" x2="190.6901" y1="81.2969" y2="246.9609"/><line style="stroke:#181818;stroke-width:0.5;stroke-dasharray:5.0,5.0;" x1="527.694" x2="527.694" y1="81.2969" y2="246.9609"/><line style="stroke:#181818;stroke-width:0.5;stroke-dasharray:5.0,5.0;" x1="629.323" x2="629.323" y1="81.2969" y2="246.9609"/><text fill="#000000" font-family="sans-serif" font-size="14" lengthAdjust="spacing" textLength="31.9102" x="5" y="77.9951">User</text><ellipse cx="23.9551" cy="13.5" fill="#E2E2F0" rx="8" ry="8" style="stroke:#181818;stroke-width:0.5;"/><path d="M23.9551,21.5 L23.9551,48.5 M10.9551,29.5 L36.9551,29.5 M23.9551,48.5 L10.9551,63.5 M23.9551,48.5 L36.9551,63.5 " fill="none" style="stroke:#181818;stroke-width:0.5;"/><text fill="#000000" font-family="sans-serif" font-size="14" lengthAdjust="spacing" textLength="31.9102" x="5" y="258.9561">User</text><ellipse cx="23.9551" cy="270.7578" fill="#E2E2F0" rx="8" ry="8" style="stroke:#181818;stroke-width:0.5;"/><path d="M23.9551,278.7578 L23.9551,305.7578 M10.9551,286.7578 L36.9551,286.7578 M23.9551,305.7578 L10.9551,320.7578 M23.9551,305.7578 L36.9551,320.7578 " fill="none" style="stroke:#181818;stroke-width:0.5;"/><rect fill="#E2E2F0" height="30.2969" rx="2.5" ry="2.5" style="stroke:#181818;stroke-width:0.5;" width="54.5303" x="163.6901" y="50"/><text fill="#000000" font-family="sans-serif" font-size="14" lengthAdjust="spacing" textLength="40.5303" x="170.6901" y="69.9951">Client</text><rect fill="#E2E2F0" height="30.2969" rx="2.5" ry="2.5" style="stroke:#181818;stroke-width:0.5;" width="54.5303" x="163.6901" y="245.9609"/><text fill="#000000" font-family="sans-serif" font-size="14" lengthAdjust="spacing" textLength="40.5303" x="170.6901" y="265.9561">Client</text><rect fill="#E2E2F0" height="30.2969" rx="2.5" ry="2.5" style="stroke:#181818;stroke-width:0.5;" width="82.0586" x="486.694" y="50"/><text fill="#000000" font-family="sans-serif" font-size="14" lengthAdjust="spacing" textLength="68.0586" x="493.694" y="69.9951">APIServer</text><rect fill="#E2E2F0" height="30.2969" rx="2.5" ry="2.5" style="stroke:#181818;stroke-width:0.5;" width="82.0586" x="486.694" y="245.9609"/><text fill="#000000" font-family="sans-serif" font-size="14" lengthAdjust="spacing" textLength="68.0586" x="493.694" y="265.9561">APIServer</text><text fill="#000000" font-family="sans-serif" font-size="14" lengthAdjust="spacing" textLength="66.8008" x="593.323" y="77.9951">Database</text><path d="M611.7234,29 C611.7234,19 629.7234,19 629.7234,19 C629.7234,19 647.7234,19 647.7234,29 L647.7234,55 C647.7234,65 629.7234,65 629.7234,65 C629.7234,65 611.7234,65 611.7234,55 L611.7234,29 " fill="#E2E2F0" style="stroke:#181818;stroke-width:1.5;"/><path d="M611.7234,29 C611.7234,39 629.7234,39 629.7234,39 C629.7234,39 647.7234,39 647.7234,29 " fill="none" style="stroke:#181818;stroke-width:1.5;"/><text fill="#000000" font-family="sans-serif" font-size="14" lengthAdjust="spacing" textLength="66.8008" x="593.323" y="258.9561">Database</text><path d="M611.7234,272.2578 C611.7234,262.2578 629.7234,262.2578 629.7234,262.2578 C629.7234,262.2578 647.7234,262.2578 647.7234,272.2578 L647.7234,298.2578 C647.7234,308.2578 629.7234,308.2578 629.7234,308.2578 C629.7234,308.2578 611.7234,308.2578 611.7234,298.2578 L611.7234,272.2578 " fill="#E2E2F0" style="stroke:#181818;stroke-width:1.5;"/><path d="M611.7234,272.2578 C611.7234,282.2578 629.7234,282.2578 629.7234,282.2578 C629.7234,282.2578 647.7234,282.2578 647.7234,272.2578 " fill="none" style="stroke:#181818;stroke-width:1.5;"/><polygon fill="#181818" points="178.9552,108.4297,188.9552,112.4297,178.9552,116.4297,182.9552,112.4297" style="stroke:#181818;stroke-width:1;"/><line style="stroke:#181818;stroke-width:1;" x1="23.9551" x2="184.9552" y1="112.4297" y2="112.4297"/><text fill="#000000" font-family="sans-serif" font-size="13" lengthAdjust="spacing" textLength="143.0002" x="30.9551" y="107.3638">&#12356;&#12356;&#12397;&#12508;&#12479;&#12531;&#12434;&#12463;&#12522;&#12483;&#12463;</text><polygon fill="#181818" points="515.7233,137.5625,525.7233,141.5625,515.7233,145.5625,519.7233,141.5625" style="stroke:#181818;stroke-width:1;"/><line style="stroke:#181818;stroke-width:1;" x1="190.9552" x2="521.7233" y1="141.5625" y2="141.5625"/><text fill="#000000" font-family="sans-serif" font-size="13" lengthAdjust="spacing" textLength="312.7681" x="197.9552" y="136.4966">POST /api/contents/{content_id}/likes (&#35469;&#35388;&#24773;&#22577;)</text><polygon fill="#181818" points="617.7234,166.6953,627.7234,170.6953,617.7234,174.6953,621.7234,170.6953" style="stroke:#181818;stroke-width:1;"/><line style="stroke:#181818;stroke-width:1;" x1="527.7233" x2="623.7234" y1="170.6953" y2="170.6953"/><text fill="#000000" font-family="sans-serif" font-size="13" lengthAdjust="spacing" textLength="78.0001" x="534.7233" y="165.6294">&#12356;&#12356;&#12397;&#12434;&#20445;&#23384;</text><polygon fill="#181818" points="538.7233,195.8281,528.7233,199.8281,538.7233,203.8281,534.7233,199.8281" style="stroke:#181818;stroke-width:1;"/><line style="stroke:#181818;stroke-width:1;stroke-dasharray:2.0,2.0;" x1="532.7233" x2="628.7234" y1="199.8281" y2="199.8281"/><text fill="#000000" font-family="sans-serif" font-size="13" lengthAdjust="spacing" textLength="52.0001" x="544.7233" y="194.7622">&#20445;&#23384;&#32080;&#26524;</text><polygon fill="#181818" points="201.9552,224.9609,191.9552,228.9609,201.9552,232.9609,197.9552,228.9609" style="stroke:#181818;stroke-width:1;"/><line style="stroke:#181818;stroke-width:1;stroke-dasharray:2.0,2.0;" x1="195.9552" x2="526.7233" y1="228.9609" y2="228.9609"/><text fill="#000000" font-family="sans-serif" font-size="13" lengthAdjust="spacing" textLength="91.0001" x="207.9552" y="223.895">&#25104;&#21151;&#12524;&#12473;&#12509;&#12531;&#12473;</text><!--SRC=[IqmkoIzI22rEBU8gI2mgoKpEB4ZCAr5mpibCpIj14N8Cy0nEBIe3Aan9B4bCIYnELN21ChYuG0OewDf1zLafF6vi0QErZvldF6xQ_xXvy-EcIO-RrZzkNlMukHd8u8Ae1Ec16sob4E0V7AAWdrYGgP-SdrS2b2_MhuQouZDJQlLpChDJYnKqNgpgVR5YpxFcrgSBDcfomVM338Cv2Ta9JPEUx9_xTEqCBfYaWYwgjH3fvridF9it1zau90yzwvZmj6l-u-OrZvjsFcwU2_RGJW00]--></g></svg>